<svg width="1876" height="960" viewBox="0 0 1876 960" fill="none" xmlns="http://www.w3.org/2000/svg">
<g opacity="0.4">
<path d="M318.06 106.977C319.224 106.264 320.563 105.886 321.928 105.886C323.294 105.886 324.632 106.264 325.796 106.977C326.434 107.365 327.1 107.726 327.765 108.086L329.817 109.14C331.056 109.697 332.116 110.589 332.875 111.716C333.634 112.843 334.064 114.16 334.115 115.518L334.42 125.029L365.365 124.058L365.088 114.547C365.06 113.184 365.407 111.84 366.092 110.662C366.776 109.483 367.772 108.515 368.97 107.865C370.329 107.14 371.644 106.335 372.907 105.452C374.017 104.67 375.322 104.209 376.677 104.121C378.032 104.033 379.386 104.321 380.588 104.953L388.906 109.445L403.575 82.3267L395.256 77.8624C394.053 77.191 393.063 76.1962 392.396 74.9906C391.73 73.785 391.414 72.4169 391.485 71.0412C391.485 69.4884 391.485 67.9633 391.485 66.4382C391.351 65.0797 391.599 63.7106 392.201 62.4856C392.804 61.2607 393.737 60.2286 394.896 59.5061L402.715 54.5982L386.383 28.2839L378.259 33.3027C377.105 34.0173 375.775 34.3958 374.418 34.3958C373.061 34.3958 371.731 34.0173 370.578 33.3027C369.94 32.9145 369.275 32.554 368.609 32.1936C367.944 31.8331 367.25 31.4726 366.557 31.1676C365.319 30.6006 364.263 29.7021 363.504 28.5716C362.746 27.4411 362.315 26.1226 362.259 24.7623L361.954 15.2515L331.009 16.1942L331.314 25.6774C331.345 27.0407 330.999 28.3862 330.314 29.5654C329.629 30.7446 328.632 31.7116 327.432 32.3599C326.078 33.1042 324.764 33.9187 323.495 34.8C322.369 35.5645 321.054 36.0049 319.695 36.0734C318.336 36.1418 316.984 35.8357 315.786 35.1882L307.468 30.6962L292.827 58.0088L301.146 62.4731C302.342 63.1226 303.336 64.0908 304.016 65.2703C304.696 66.4498 305.037 67.7945 305 69.1556C305 70.7084 305 72.2612 305 73.7863C305.134 75.1448 304.886 76.5139 304.284 77.7389C303.681 78.9639 302.748 79.9959 301.589 80.7184L293.52 85.7095L309.852 112.024L318.06 106.977ZM325.824 58.092C328.193 53.6667 331.821 50.0434 336.249 47.6805C340.677 45.3176 345.707 44.3212 350.701 44.8174C355.696 45.3137 360.431 47.2802 364.308 50.4683C368.185 53.6563 371.029 57.9226 372.48 62.7274C373.932 67.5322 373.926 72.6596 372.463 77.4609C370.999 82.2622 368.145 86.5215 364.261 89.7002C360.376 92.8788 355.636 94.8338 350.64 95.318C345.644 95.8021 340.617 94.7935 336.195 92.4198C330.275 89.2346 325.86 83.8331 323.917 77.3986C321.973 70.9642 322.659 64.0216 325.824 58.092Z" fill="#EBEBEB"/>
<path d="M969.406 401.726L969.073 390.829C969.023 389.731 968.67 388.668 968.053 387.757C967.437 386.847 966.58 386.125 965.579 385.671C964.858 385.339 964.165 384.978 963.444 384.59C962.723 384.202 962.085 383.841 961.42 383.425C960.472 382.847 959.383 382.541 958.273 382.541C957.162 382.541 956.073 382.847 955.125 383.425L945.892 389.165L928.09 360.494L937.351 354.782C938.273 354.196 939.019 353.371 939.507 352.394C939.996 351.417 940.209 350.325 940.124 349.236C939.995 347.641 939.948 346.039 939.986 344.439C940.041 343.316 939.778 342.201 939.229 341.22C938.68 340.24 937.866 339.433 936.88 338.893L927.286 333.764L943.258 304.039L952.824 309.168C953.8 309.684 954.901 309.917 956.002 309.844C957.104 309.771 958.163 309.393 959.063 308.752C960.374 307.837 961.735 306.995 963.139 306.229C964.135 305.697 964.961 304.894 965.52 303.913C966.079 302.931 966.35 301.812 966.3 300.684L965.939 289.814L999.685 288.76L999.99 299.658C1000.05 300.765 1000.4 301.837 1001.02 302.756C1001.64 303.675 1002.5 304.406 1003.51 304.87C1004.23 305.183 1004.94 305.534 1005.62 305.924C1006.31 306.285 1007.01 306.673 1007.67 307.089C1008.61 307.665 1009.69 307.97 1010.79 307.97C1011.89 307.97 1012.97 307.665 1013.91 307.089L1023.2 301.321L1041 329.993L1031.74 335.732C1030.82 336.318 1030.07 337.144 1029.58 338.12C1029.1 339.097 1028.88 340.189 1028.97 341.278C1029.1 342.855 1029.16 344.437 1029.13 346.02C1029.07 347.143 1029.33 348.261 1029.88 349.243C1030.43 350.225 1031.25 351.031 1032.24 351.565L1041.83 356.695L1025.83 386.614L1016.27 381.484C1015.29 380.959 1014.19 380.717 1013.09 380.785C1011.99 380.854 1010.93 381.231 1010.03 381.872C1008.72 382.788 1007.25 383.619 1005.98 384.396C1004.97 384.918 1004.14 385.718 1003.58 386.702C1003.02 387.686 1002.76 388.811 1002.82 389.941L1003.15 400.811L969.406 401.726ZM958.176 379.737C959.821 379.745 961.433 380.205 962.834 381.068C963.472 381.457 964.109 381.817 964.775 382.15C965.44 382.483 966.078 382.843 966.744 383.148C968.215 383.816 969.472 384.881 970.373 386.222C971.275 387.564 971.784 389.13 971.846 390.746L972.095 398.87L1000.3 398.01L1000.05 389.886C999.996 388.266 1000.4 386.665 1001.21 385.263C1002.03 383.862 1003.22 382.716 1004.65 381.956C1005.92 381.235 1007.2 380.458 1008.45 379.599C1009.77 378.669 1011.32 378.122 1012.93 378.019C1014.54 377.916 1016.14 378.261 1017.57 379.016L1024.72 382.843L1038.03 357.887L1030.88 354.172C1029.46 353.405 1028.27 352.257 1027.47 350.856C1026.66 349.456 1026.26 347.858 1026.3 346.241C1026.3 344.772 1026.3 343.274 1026.17 341.777C1025.99 340.15 1026.28 338.507 1026.99 337.036C1027.71 335.564 1028.83 334.325 1030.21 333.459L1037.12 329.188L1022.26 305.231L1015.32 309.529C1013.95 310.378 1012.36 310.828 1010.75 310.828C1009.13 310.828 1007.55 310.378 1006.17 309.529L1004.26 308.447C1003.59 308.087 1002.96 307.754 1002.29 307.449C1000.82 306.775 999.556 305.706 998.651 304.36C997.745 303.015 997.23 301.444 997.162 299.824L996.94 291.699L968.74 292.587L969.017 300.684C969.057 302.302 968.649 303.899 967.836 305.299C967.024 306.699 965.839 307.846 964.414 308.614C963.097 309.33 961.82 310.117 960.588 310.971C959.272 311.907 957.721 312.457 956.109 312.56C954.498 312.663 952.889 312.314 951.465 311.553L944.311 307.727L931.002 332.682L938.128 336.509C939.545 337.283 940.722 338.432 941.529 339.831C942.337 341.23 942.743 342.824 942.703 344.439C942.666 345.938 942.712 347.437 942.842 348.931C943.007 350.56 942.713 352.203 941.993 353.673C941.272 355.143 940.154 356.382 938.766 357.25L931.889 361.492L946.751 385.449L953.628 381.179C954.981 380.287 956.556 379.788 958.176 379.737ZM984.49 372.057C978.629 372.057 972.929 370.135 968.265 366.585C963.601 363.035 960.23 358.053 958.67 352.404C957.109 346.754 957.444 340.749 959.624 335.308C961.804 329.867 965.709 325.292 970.739 322.283C975.769 319.275 981.647 317.999 987.472 318.652C993.297 319.305 998.746 321.85 1002.99 325.898C1007.22 329.945 1010.02 335.272 1010.94 341.06C1011.86 346.848 1010.86 352.779 1008.09 357.943C1005.82 362.224 1002.42 365.802 998.257 368.29C994.097 370.778 989.336 372.081 984.49 372.057ZM984.49 321.313C982.123 321.312 979.769 321.658 977.502 322.339C971.721 324.089 966.816 327.96 963.77 333.176C960.724 338.392 959.763 344.567 961.081 350.461C962.398 356.356 965.895 361.535 970.872 364.958C975.848 368.381 981.934 369.796 987.91 368.919C993.886 368.042 999.31 364.937 1003.09 360.227C1006.87 355.518 1008.74 349.553 1008.3 343.528C1007.87 337.504 1005.17 331.866 1000.76 327.745C996.341 323.625 990.53 321.328 984.49 321.313Z" fill="#EBEBEB"/>
<path d="M1781.43 261.308L1781.25 255.521C1781.22 254.938 1781.04 254.373 1780.71 253.89C1780.38 253.407 1779.92 253.023 1779.39 252.782C1779.01 252.605 1778.64 252.414 1778.25 252.208C1777.87 252.002 1777.53 251.81 1777.18 251.589C1776.67 251.282 1776.09 251.12 1775.5 251.12C1774.91 251.12 1774.33 251.282 1773.82 251.589L1768.91 254.637L1759.42 239.412L1764.36 236.379C1764.85 236.068 1765.25 235.629 1765.51 235.11C1765.77 234.592 1765.88 234.012 1765.83 233.434C1765.76 232.586 1765.74 231.736 1765.76 230.886C1765.79 230.29 1765.65 229.698 1765.36 229.177C1765.06 228.656 1764.63 228.228 1764.11 227.941L1759 225.217L1767.5 209.432L1772.6 212.156C1773.12 212.43 1773.7 212.554 1774.29 212.515C1774.88 212.476 1775.44 212.275 1775.92 211.935C1776.62 211.449 1777.34 211.002 1778.09 210.595C1778.62 210.313 1779.06 209.886 1779.36 209.365C1779.66 208.844 1779.8 208.25 1779.77 207.651L1779.58 201.878L1797.56 201.319L1797.72 207.106C1797.75 207.694 1797.94 208.263 1798.27 208.751C1798.6 209.239 1799.06 209.627 1799.59 209.874C1799.98 210.04 1800.35 210.227 1800.72 210.434C1801.08 210.625 1801.45 210.831 1801.81 211.052C1802.31 211.358 1802.88 211.52 1803.47 211.52C1804.06 211.52 1804.63 211.358 1805.13 211.052L1810.08 207.989L1819.56 223.215L1814.63 226.263C1814.14 226.574 1813.74 227.012 1813.48 227.531C1813.22 228.05 1813.1 228.629 1813.15 229.208C1813.22 230.045 1813.25 230.885 1813.24 231.726C1813.21 232.322 1813.34 232.916 1813.64 233.438C1813.93 233.959 1814.37 234.387 1814.89 234.671L1820 237.395L1811.48 253.283L1806.39 250.559C1805.87 250.28 1805.28 250.151 1804.7 250.187C1804.11 250.224 1803.54 250.424 1803.06 250.765C1802.37 251.251 1801.59 251.692 1800.91 252.105C1800.37 252.382 1799.93 252.807 1799.63 253.33C1799.33 253.852 1799.19 254.449 1799.22 255.05L1799.4 260.822L1781.43 261.308ZM1775.45 249.631C1776.32 249.635 1777.18 249.879 1777.93 250.338C1778.27 250.544 1778.61 250.735 1778.96 250.912C1779.32 251.089 1779.66 251.28 1780.01 251.442C1780.79 251.797 1781.46 252.362 1781.94 253.075C1782.42 253.787 1782.7 254.619 1782.73 255.477L1782.86 259.791L1797.88 259.335L1797.75 255.02C1797.72 254.16 1797.94 253.31 1798.37 252.565C1798.8 251.821 1799.44 251.213 1800.2 250.809C1800.88 250.426 1801.56 250.014 1802.22 249.557C1802.92 249.063 1803.75 248.773 1804.61 248.718C1805.46 248.664 1806.32 248.847 1807.08 249.248L1810.89 251.28L1817.98 238.028L1814.17 236.055C1813.41 235.648 1812.78 235.038 1812.35 234.294C1811.92 233.55 1811.71 232.702 1811.73 231.843C1811.73 231.063 1811.73 230.268 1811.66 229.473C1811.57 228.609 1811.72 227.736 1812.1 226.955C1812.48 226.174 1813.08 225.515 1813.81 225.055L1817.49 222.788L1809.58 210.065L1805.88 212.348C1805.15 212.799 1804.31 213.038 1803.45 213.038C1802.59 213.038 1801.74 212.799 1801.01 212.348L1799.99 211.773C1799.64 211.582 1799.3 211.405 1798.94 211.243C1798.16 210.885 1797.49 210.318 1797 209.603C1796.52 208.888 1796.25 208.055 1796.21 207.194L1796.09 202.88L1781.07 203.351L1781.22 207.651C1781.24 208.51 1781.03 209.358 1780.59 210.101C1780.16 210.845 1779.53 211.454 1778.77 211.862C1778.07 212.242 1777.39 212.66 1776.73 213.113C1776.03 213.611 1775.21 213.903 1774.35 213.958C1773.49 214.012 1772.63 213.827 1771.87 213.423L1768.06 211.391L1760.98 224.643L1764.77 226.675C1765.53 227.086 1766.15 227.696 1766.58 228.439C1767.01 229.182 1767.23 230.029 1767.21 230.886C1767.19 231.682 1767.21 232.479 1767.28 233.272C1767.37 234.137 1767.21 235.009 1766.83 235.79C1766.45 236.571 1765.85 237.229 1765.11 237.689L1761.45 239.942L1769.36 252.664L1773.03 250.397C1773.75 249.923 1774.59 249.658 1775.45 249.631ZM1789.46 245.552C1786.34 245.552 1783.31 244.532 1780.82 242.647C1778.34 240.761 1776.54 238.116 1775.71 235.116C1774.88 232.116 1775.06 228.927 1776.22 226.037C1777.38 223.148 1779.46 220.718 1782.14 219.121C1784.82 217.523 1787.95 216.846 1791.05 217.192C1794.15 217.539 1797.06 218.891 1799.31 221.04C1801.57 223.19 1803.06 226.018 1803.55 229.092C1804.04 232.166 1803.51 235.315 1802.03 238.057C1800.82 240.331 1799.01 242.231 1796.79 243.552C1794.58 244.873 1792.04 245.565 1789.46 245.552ZM1789.46 218.606C1788.2 218.605 1786.95 218.789 1785.74 219.151C1782.66 220.08 1780.05 222.135 1778.43 224.905C1776.81 227.675 1776.29 230.954 1776.99 234.084C1777.7 237.215 1779.56 239.965 1782.21 241.783C1784.86 243.601 1788.1 244.352 1791.28 243.886C1794.47 243.42 1797.36 241.771 1799.37 239.27C1801.38 236.77 1802.38 233.602 1802.14 230.403C1801.91 227.203 1800.48 224.209 1798.13 222.021C1795.77 219.833 1792.68 218.613 1789.46 218.606Z" fill="#EBEBEB"/>
<path d="M1300.77 433.805C1301.59 434.294 1302.26 435 1302.71 435.847C1303.15 436.694 1303.35 437.647 1303.29 438.602C1303.29 439.128 1303.29 439.655 1303.29 440.21C1303.29 440.764 1303.29 441.291 1303.29 441.818C1303.35 442.769 1303.15 443.719 1302.71 444.561C1302.26 445.404 1301.59 446.105 1300.77 446.587L1295 449.915L1305.84 468.715L1311.61 465.387C1312.44 464.909 1313.38 464.67 1314.34 464.7C1315.29 464.729 1316.22 465.025 1317.02 465.554C1317.91 466.145 1318.84 466.691 1319.79 467.19C1320.63 467.623 1321.33 468.28 1321.82 469.087C1322.31 469.894 1322.57 470.821 1322.56 471.765V478.42H1344.27V471.765C1344.27 470.822 1344.53 469.896 1345.02 469.09C1345.51 468.283 1346.21 467.626 1347.05 467.19C1348 466.703 1348.93 466.157 1349.82 465.554C1350.63 464.997 1351.58 464.686 1352.57 464.656C1353.55 464.627 1354.52 464.88 1355.36 465.387L1361.13 468.715L1371.97 449.915L1366.18 446.56C1365.36 446.072 1364.7 445.368 1364.26 444.526C1363.82 443.685 1363.62 442.738 1363.68 441.79C1363.68 441.264 1363.68 440.737 1363.68 440.21C1363.68 439.683 1363.68 439.128 1363.68 438.602C1363.62 437.651 1363.82 436.701 1364.27 435.858C1364.71 435.016 1365.38 434.314 1366.21 433.832L1371.97 430.505L1361.13 411.705L1355.39 415.032C1354.55 415.535 1353.57 415.784 1352.59 415.75C1351.61 415.716 1350.66 415.399 1349.85 414.838C1348.95 414.256 1348.02 413.719 1347.07 413.23C1346.24 412.789 1345.53 412.127 1345.04 411.316C1344.56 410.504 1344.3 409.574 1344.3 408.627V402H1322.59V408.71C1322.59 409.658 1322.34 410.588 1321.85 411.399C1321.36 412.21 1320.66 412.872 1319.82 413.313C1318.86 413.79 1317.93 414.327 1317.04 414.921C1316.25 415.454 1315.32 415.755 1314.37 415.789C1313.41 415.824 1312.47 415.59 1311.64 415.116L1305.87 411.788L1295.03 430.588L1300.77 433.805ZM1333.51 422.408C1337.03 422.408 1340.46 423.45 1343.39 425.402C1346.31 427.354 1348.59 430.128 1349.93 433.374C1351.28 436.62 1351.63 440.192 1350.95 443.639C1350.27 447.087 1348.58 450.254 1346.09 452.74C1343.61 455.227 1340.45 456.922 1337 457.611C1333.55 458.3 1329.98 457.952 1326.73 456.611C1323.48 455.27 1320.71 452.996 1318.75 450.077C1316.79 447.158 1315.75 443.724 1315.74 440.21C1315.74 435.493 1317.61 430.97 1320.95 427.632C1324.28 424.294 1328.8 422.416 1333.51 422.408Z" fill="#EBEBEB"/>
<path d="M1359.41 66.7076H1391.9L1390.1 43.7207H1361.21L1359.41 66.7076Z" fill="#EBEBEB"/>
<path d="M1421.27 77.6598L1444.23 100.647L1459.23 83.0946L1438.79 62.6587L1421.27 77.6598Z" fill="#EBEBEB"/>
<path d="M1457.26 129.125V161.622L1480.25 159.82V130.927L1457.26 129.125Z" fill="#EBEBEB"/>
<path d="M1446.31 190.987L1423.32 213.946L1440.84 228.948L1461.28 208.512L1446.31 190.987Z" fill="#EBEBEB"/>
<path d="M1394.84 226.977H1362.34L1364.15 249.964H1393.04L1394.84 226.977Z" fill="#EBEBEB"/>
<path d="M1332.98 216.025L1310.02 193.038L1295.02 210.59L1315.46 231.026L1332.98 216.025Z" fill="#EBEBEB"/>
<path d="M1296.99 164.562V132.064L1274 133.866V162.759L1296.99 164.562Z" fill="#EBEBEB"/>
<path d="M1307.94 102.7L1330.93 79.7409L1313.38 64.7397L1292.94 85.1756L1307.94 102.7Z" fill="#EBEBEB"/>
<path d="M1291.17 147.703C1291.17 164.413 1296.12 180.748 1305.4 194.642C1314.69 208.536 1327.88 219.365 1343.32 225.76C1358.76 232.155 1375.75 233.828 1392.14 230.568C1408.53 227.308 1423.58 219.261 1435.4 207.445C1447.21 195.629 1455.26 180.575 1458.52 164.185C1461.78 147.796 1460.11 130.808 1453.71 115.37C1447.32 99.9318 1436.49 86.7365 1422.59 77.4528C1408.7 68.169 1392.36 63.2139 1375.65 63.2139C1353.25 63.2139 1331.76 72.1153 1315.91 87.96C1300.07 103.805 1291.17 125.295 1291.17 147.703ZM1336.2 147.703C1336.19 139.891 1338.5 132.253 1342.84 125.755C1347.18 119.258 1353.34 114.192 1360.56 111.2C1367.77 108.208 1375.72 107.424 1383.38 108.947C1391.04 110.469 1398.08 114.231 1403.6 119.754C1409.13 125.278 1412.89 132.316 1414.41 139.978C1415.93 147.64 1415.15 155.582 1412.16 162.798C1409.16 170.014 1404.1 176.181 1397.6 180.517C1391.1 184.854 1383.47 187.166 1375.65 187.16C1365.19 187.16 1355.15 183.003 1347.75 175.603C1340.35 168.204 1336.2 158.167 1336.2 147.703Z" fill="#EBEBEB"/>
<path d="M396.534 917.879H365.062L363.593 898.912C352.429 897.075 341.753 893 332.204 886.934L317.702 899.439L295.519 877.256L307.498 863.226C300.939 853.879 296.354 843.293 294.022 832.114L275 830.645V799.173L293.8 797.676C295.92 786.676 300.219 776.211 306.444 766.897L293.439 751.702L315.622 729.519L330.873 742.579C339.906 736.624 349.996 732.454 360.598 730.295L362.234 709H393.706L395.369 730.295C405.629 732.359 415.411 736.328 424.207 741.997L441.177 727.467L463.36 749.65L449.107 766.287C454.923 774.846 459.106 784.407 461.446 794.487L483.879 796.234V827.733L462.445 829.369C460.626 839.776 456.864 849.748 451.353 858.761L465.439 875.177L443.256 897.36L427.812 884.189C418.885 890.579 408.798 895.166 398.114 897.692L396.534 917.879ZM367.641 915.106H393.955L395.508 895.446L396.506 895.225C407.519 892.751 417.903 888.031 427.008 881.36L427.895 880.722L443.062 893.644L461.696 875.038L448.026 858.956L448.553 858.096C454.341 848.858 458.216 838.552 459.949 827.789L460.143 826.707L481.189 825.099V798.757L459.283 797.038L459.062 796.04C456.753 785.594 452.42 775.703 446.307 766.925L445.697 766.037L459.561 749.733L440.927 731.1L424.29 745.324L423.403 744.742C414.397 738.771 404.292 734.652 393.678 732.625L392.652 732.431L391.016 711.606H364.84L363.232 732.431L362.067 732.625C351.142 734.722 340.762 739.035 331.566 745.297L331.206 745.518H330.263L329.847 745.186L315.761 733.124L297.155 751.757L309.882 766.62L309.272 767.507C302.702 777.012 298.231 787.806 296.157 799.173L295.963 800.227L277.606 801.696V828.011L296.157 829.453L296.379 830.506C298.631 842.033 303.362 852.932 310.243 862.449L310.881 863.337L299.151 877.062L317.702 895.668L331.954 883.495L332.814 884.05C342.559 890.414 353.556 894.612 365.062 896.361L366.144 896.528L367.641 915.106ZM377.873 855.074C369.796 855.068 361.902 852.668 355.188 848.177C348.475 843.685 343.245 837.304 340.157 829.841C337.07 822.377 336.265 814.165 337.845 806.244C339.424 798.323 343.316 791.048 349.029 785.339C354.742 779.629 362.02 775.742 369.942 774.168C377.865 772.595 386.075 773.405 393.537 776.497C400.999 779.589 407.376 784.825 411.863 791.541C416.35 798.257 418.744 806.153 418.744 814.23C418.737 825.065 414.428 835.453 406.764 843.112C399.099 850.771 388.708 855.074 377.873 855.074ZM377.873 776.158C370.344 776.164 362.986 778.401 356.729 782.588C350.472 786.775 345.596 792.722 342.719 799.68C339.842 806.637 339.092 814.291 340.564 821.674C342.036 829.057 345.664 835.838 350.99 841.16C356.315 846.481 363.099 850.105 370.483 851.571C377.868 853.038 385.521 852.282 392.476 849.4C399.431 846.518 405.375 841.638 409.557 835.378C413.739 829.118 415.972 821.758 415.972 814.23C415.957 804.132 411.937 794.453 404.795 787.316C397.652 780.178 387.97 776.166 377.873 776.158Z" fill="#EBEBEB"/>
<path d="M169.122 800.461C153.206 800.738 113.055 801.431 97.6657 801.598L73.5696 801.736H72.3219V800.461V769.433V768.046H73.7083L121.484 768.241C133.38 768.241 157.365 768.601 169.261 768.767H169.954V769.433L169.288 800.461H169.122ZM169.122 800.461L168.373 769.433L169.039 770.098C157.116 770.265 133.186 770.542 121.263 770.625L73.4865 770.819L74.8729 769.433V800.461L73.6251 799.213H97.3052C112.445 799.38 153.511 800.073 169.177 800.35L169.122 800.461Z" fill="#EBEBEB"/>
<path d="M115.828 839.586C99.9117 839.863 59.7609 840.556 44.3716 840.723L20.2755 840.861H19V839.586V808.558V807.171H20.4141L68.1903 807.366C80.0859 807.366 104.071 807.726 115.967 807.892H116.632V808.558L115.967 839.586H115.828ZM115.828 839.586L115.162 808.558L115.828 809.223C103.905 809.39 79.9472 809.667 68.0517 809.75L20.2755 809.944L21.6619 808.558L21.4124 839.586L20.1646 838.338H43.817C58.9567 838.505 100.05 839.198 115.717 839.475L115.828 839.586Z" fill="#EBEBEB"/>
<path d="M784.553 95.4537C768.637 95.731 728.514 96.4242 713.124 96.5905L689.001 96.7292H687.753V95.4537L687.614 64.4255V63.0391H689.001L736.777 63.2332C748.672 63.2332 772.658 63.5936 784.553 63.76H785.246V64.3978L784.553 95.4537ZM784.553 95.4537L783.888 64.4255L784.553 65.091C772.63 65.2851 748.7 65.5346 736.777 65.6455L689.001 65.8119L690.387 64.4255V95.4537L689.112 94.2059H712.792C727.932 94.4 768.997 95.0932 784.664 95.3428L784.553 95.4537Z" fill="#EBEBEB"/>
<path d="M731.259 134.497C715.343 134.774 675.192 135.468 659.803 135.634H635.707H634.459V134.358V103.33V101.944H635.845L683.621 102.138C695.517 102.138 719.502 102.498 731.398 102.665H732.091V103.303L731.425 134.331L731.259 134.497ZM731.259 134.497L730.594 103.469L731.259 104.134C719.336 104.301 695.406 104.578 683.483 104.689L635.707 104.855L637.093 103.469L636.954 134.497L635.707 133.249H659.387C674.527 133.443 715.592 134.137 731.259 134.386V134.497Z" fill="#EBEBEB"/>
<path d="M837.875 103.467H742.323V134.495H837.875V103.467Z" fill="#EBEBEB"/>
<path d="M1729.55 706H1634V737.028H1729.55V706Z" fill="#EBEBEB"/>
<path d="M1822.01 0H1726.46V31.0282H1822.01V0Z" fill="#EBEBEB"/>
<path d="M1875.31 70.1548C1859.39 70.4321 1819.24 71.1253 1803.88 71.2917H1779.75H1778.51V70.0162L1778.37 38.988V37.6016H1779.75L1827.53 37.7957C1839.43 37.7957 1863.41 38.1561 1875.31 38.3225H1876V38.9603L1875.33 69.9884L1875.31 70.1548ZM1875.31 70.1548L1874.64 39.1266L1875.31 39.7921C1863.38 39.9862 1839.45 40.2358 1827.53 40.3467L1779.75 40.5131L1781.14 39.1266V70.1548L1779.87 68.907H1803.55C1818.69 69.1011 1859.75 69.7943 1875.42 70.0439L1875.31 70.1548Z" fill="#EBEBEB"/>
<path d="M96.8279 162.699C80.9117 162.976 40.7609 163.642 25.3716 163.836H1.27551H0V162.588V131.56V130.146H1.38642L49.1626 130.312C61.0581 130.312 85.0433 130.672 96.9388 130.839H97.632V131.504L96.9665 162.532L96.8279 162.699ZM96.8279 162.699L96.1624 131.671L96.8279 132.336C84.9046 132.502 60.9749 132.752 49.0517 132.863L1.27551 133.029L2.66193 131.671V162.699L1.27551 161.451H24.9279C40.0954 161.645 81.1613 162.338 96.8279 162.616V162.699Z" fill="#EBEBEB"/>
<path d="M908.984 770.821H1004.54V739.793H908.984V770.821Z" fill="#EBEBEB"/>
<path d="M962.279 700.669C978.223 700.391 1018.35 699.698 1033.73 699.532H1057.83H1059.11V700.807V731.835V733.222H1057.69L1009.92 733.028C998.021 733.028 974.035 732.667 962.14 732.501H961.474V731.835L962.14 700.807L962.279 700.669ZM962.279 700.669L962.972 731.697L962.279 731.031C974.202 730.865 998.159 730.615 1010.05 730.504L1057.83 730.31L1056.47 731.697V700.669L1057.72 701.944H1034.07C1018.93 701.778 977.834 701.085 962.168 700.807L962.279 700.669Z" fill="#EBEBEB"/>
<path d="M1655 888H1750.55V919.028H1655V888Z" fill="#EBEBEB"/>
<path d="M1708.29 958.153C1724.24 958.43 1764.36 959.123 1779.75 959.29H1803.85H1805.12V958.014V926.986V925.599H1803.71L1755.93 925.794C1744.04 925.794 1720.05 926.154 1708.16 926.32H1707.49V926.986L1708.16 958.014L1708.29 958.153ZM1708.29 958.153L1708.99 927.124L1708.29 927.79C1720.22 927.956 1744.17 928.206 1756.07 928.317L1803.85 928.511L1802.49 927.124V958.153L1803.74 956.877H1780.08C1764.94 957.044 1723.85 957.737 1708.18 958.014L1708.29 958.153Z" fill="#EBEBEB"/>
</g>
</svg>
