<svg width="391" height="834" viewBox="0 0 391 834" fill="none" xmlns="http://www.w3.org/2000/svg">
<g opacity="0.4">
<path d="M39.8916 689.721C39.5814 689.193 39.4172 688.585 39.4172 687.966C39.4172 687.347 39.5814 686.739 39.8916 686.211C40.0604 685.922 40.2172 685.62 40.374 685.318L40.8322 684.387C41.0745 683.825 41.4625 683.345 41.9526 683C42.4427 682.656 43.0153 682.461 43.6058 682.438L47.7421 682.299L47.32 668.262L43.1838 668.388C42.5911 668.401 42.0065 668.243 41.4939 667.932C40.9813 667.622 40.5605 667.17 40.2775 666.627C39.9625 666.01 39.6121 665.414 39.2284 664.841C38.8881 664.337 38.6879 663.745 38.6496 663.131C38.6113 662.516 38.7364 661.902 39.0113 661.357L40.9649 657.583L29.171 650.929L27.2295 654.703C26.9375 655.248 26.5049 655.698 25.9806 656C25.4563 656.302 24.8613 656.446 24.263 656.413C23.5877 656.413 22.9244 656.413 22.2612 656.413C21.6703 656.474 21.0749 656.362 20.5422 656.088C20.0094 655.815 19.5606 655.392 19.2464 654.866L17.1119 651.319L5.66779 658.728L7.8505 662.413C8.16126 662.936 8.3259 663.54 8.3259 664.155C8.3259 664.771 8.16126 665.374 7.8505 665.897C7.68167 666.187 7.5249 666.489 7.36813 666.79C7.21136 667.092 7.0546 667.407 6.92195 667.721C6.67536 668.283 6.28459 668.762 5.79293 669.106C5.30126 669.45 4.72788 669.646 4.13628 669.671L0 669.809L0.410011 683.847L4.53423 683.708C5.12716 683.694 5.7123 683.851 6.22513 684.162C6.73795 684.473 7.15854 684.925 7.44049 685.469C7.76416 686.083 8.11838 686.68 8.50169 687.255C8.83414 687.766 9.0257 688.362 9.05547 688.979C9.08524 689.596 8.95208 690.209 8.67052 690.752L6.71693 694.526L18.5952 701.167L20.5367 697.393C20.8192 696.851 21.2403 696.4 21.7532 696.091C22.2662 695.783 22.851 695.628 23.443 695.645C24.1183 695.645 24.7936 695.645 25.4568 695.645C26.0477 695.584 26.6431 695.697 27.1758 695.97C27.7086 696.243 28.1574 696.667 28.4716 697.192L30.6423 700.853L42.0864 693.444L39.8916 689.721ZM18.6314 686.199C16.7068 685.124 15.131 683.479 14.1034 681.47C13.0758 679.461 12.6424 677.179 12.8583 674.914C13.0741 672.648 13.9293 670.5 15.3158 668.741C16.7023 666.983 18.5577 665.693 20.6473 665.034C22.7369 664.376 24.9668 664.379 27.0549 665.042C29.143 665.706 30.9954 667.001 32.3778 668.763C33.7602 670.525 34.6104 672.675 34.821 674.942C35.0315 677.208 34.5929 679.488 33.5606 681.494C32.1753 684.18 29.8262 686.182 27.0278 687.064C24.2295 687.946 21.2102 687.635 18.6314 686.199Z" fill="#EBEBEB"/>
<path d="M125.671 409.436L117.162 409.709C116.305 409.75 115.475 410.039 114.764 410.545C114.054 411.051 113.49 411.754 113.136 412.576C112.876 413.167 112.594 413.736 112.291 414.328C111.988 414.919 111.707 415.443 111.382 415.989C110.931 416.767 110.692 417.66 110.692 418.572C110.692 419.483 110.931 420.376 111.382 421.154L115.863 428.732L93.4772 443.34L89.0173 435.74C88.56 434.983 87.9154 434.372 87.1526 433.971C86.3898 433.57 85.5376 433.395 84.6873 433.465C83.4415 433.571 82.1913 433.609 80.9418 433.578C80.0652 433.533 79.1943 433.748 78.4286 434.199C77.6629 434.65 77.0333 435.318 76.6118 436.127L72.6065 444L49.3976 430.893L53.4029 423.043C53.8051 422.242 53.9877 421.339 53.9304 420.435C53.873 419.531 53.578 418.661 53.0781 417.923C52.3634 416.847 51.7057 415.73 51.1079 414.578C50.6924 413.761 50.0653 413.083 49.2992 412.624C48.533 412.165 47.659 411.943 46.7779 411.984L38.2911 412.28L37.4684 384.587L45.9769 384.337C46.8417 384.292 47.6783 383.999 48.3958 383.489C49.1133 382.98 49.6844 382.274 50.0471 381.447C50.2908 380.855 50.5655 380.278 50.8698 379.718C51.1513 379.149 51.4544 378.58 51.7791 378.034C52.229 377.264 52.4672 376.378 52.4672 375.474C52.4672 374.57 52.229 373.684 51.7791 372.914L47.2759 365.291L69.6621 350.683L74.1437 358.283C74.6009 359.039 75.2455 359.651 76.0083 360.052C76.7712 360.453 77.6234 360.628 78.4737 360.558C79.7046 360.445 80.9404 360.399 82.1759 360.422C83.0533 360.472 83.9262 360.259 84.6929 359.808C85.4596 359.357 86.0884 358.686 86.5059 357.873L90.5112 350L113.872 363.13L109.866 370.98C109.456 371.778 109.267 372.68 109.321 373.585C109.374 374.491 109.668 375.362 110.169 376.1C110.884 377.169 111.533 378.375 112.14 379.422C112.547 380.247 113.172 380.93 113.94 381.391C114.709 381.851 115.587 382.068 116.47 382.016L124.956 381.743L125.671 409.436ZM108.502 418.651C108.508 417.301 108.868 415.978 109.542 414.828C109.845 414.305 110.126 413.782 110.386 413.236C110.646 412.689 110.927 412.166 111.165 411.62C111.687 410.412 112.518 409.381 113.566 408.641C114.614 407.902 115.836 407.484 117.097 407.433L123.441 407.228L122.77 384.087L116.426 384.291C115.162 384.332 113.911 384 112.817 383.332C111.723 382.665 110.828 381.689 110.234 380.514C109.672 379.467 109.065 378.421 108.394 377.397C107.668 376.315 107.241 375.043 107.161 373.721C107.08 372.4 107.35 371.081 107.939 369.91L110.927 364.04L91.4421 353.117L88.541 358.988C87.9425 360.157 87.0461 361.127 85.9525 361.79C84.8588 362.453 83.6111 362.783 82.3491 362.743C81.2016 362.743 80.0325 362.743 78.8634 362.857C77.5931 363 76.3101 362.765 75.1613 362.177C74.0126 361.59 73.0446 360.674 72.3684 359.534L69.0342 353.868L50.3286 366.065L53.6843 371.754C54.3474 372.882 54.6986 374.182 54.6986 375.508C54.6986 376.834 54.3474 378.134 53.6843 379.263L52.84 380.833C52.5585 381.379 52.2987 381.902 52.0606 382.448C51.5343 383.659 50.6996 384.693 49.6488 385.436C48.598 386.179 47.3721 386.602 46.1068 386.658L39.7633 386.84L40.4561 409.982L46.7779 409.754C48.0413 409.721 49.2886 410.057 50.3815 410.723C51.4745 411.39 52.3704 412.362 52.9699 413.531C53.529 414.612 54.1433 415.66 54.8101 416.672C55.5411 417.751 55.9709 419.024 56.0512 420.347C56.1315 421.669 55.8592 422.989 55.2648 424.158L52.2771 430.029L71.7622 440.951L74.7499 435.103C75.3541 433.94 76.2517 432.974 77.344 432.311C78.4363 431.649 79.6811 431.316 80.9418 431.348C82.112 431.379 83.2829 431.341 84.4491 431.235C85.721 431.099 87.0036 431.34 88.1516 431.931C89.2996 432.522 90.267 433.44 90.9442 434.58L94.2566 440.223L112.962 428.026L109.628 422.383C108.932 421.272 108.542 419.981 108.502 418.651ZM102.505 397.057C102.506 401.867 101.005 406.544 98.2331 410.371C95.4614 414.199 91.5718 416.965 87.1607 418.246C82.7496 419.527 78.0604 419.251 73.8124 417.462C69.5644 415.673 65.9919 412.469 63.6428 408.341C61.2937 404.214 60.2977 399.39 60.8074 394.61C61.3172 389.83 63.3046 385.358 66.4649 381.879C69.6252 378.4 73.7839 376.107 78.3034 375.351C82.8228 374.594 87.4536 375.417 91.4854 377.693C94.8282 379.557 97.6222 382.346 99.5646 385.76C101.507 389.173 102.524 393.08 102.505 397.057ZM62.8856 397.057C62.8848 398.999 63.1547 400.931 63.6867 402.791C65.0528 407.535 68.0753 411.561 72.1479 414.06C76.2204 416.56 81.0415 417.348 85.6441 416.267C90.2466 415.186 94.2899 412.316 96.9629 408.233C99.6358 404.149 100.741 399.154 100.055 394.25C99.3704 389.346 96.9461 384.895 93.2691 381.792C89.5921 378.688 84.9345 377.16 80.2306 377.516C75.5267 377.871 71.1246 380.083 67.9076 383.707C64.6905 387.331 62.8966 392.1 62.8856 397.057Z" fill="#EBEBEB"/>
<path d="M107.01 25.9004L104.493 25.9808C104.24 25.9929 103.994 26.0781 103.784 26.2271C103.574 26.3761 103.407 26.5829 103.302 26.8248C103.225 26.999 103.142 27.1665 103.052 27.3407C102.963 27.5148 102.879 27.6689 102.783 27.8297C102.65 28.0587 102.579 28.3218 102.579 28.59C102.579 28.8583 102.65 29.1213 102.783 29.3504L104.109 31.5811L97.4874 35.8819L96.1682 33.6444C96.0329 33.4217 95.8423 33.2416 95.6166 33.1236C95.391 33.0056 95.1389 32.9541 94.8874 32.9745C94.5189 33.0059 94.1491 33.017 93.7795 33.008C93.5203 32.9948 93.2627 33.0581 93.0362 33.1908C92.8097 33.3235 92.6235 33.5201 92.4988 33.7583L91.3141 36.0762L84.4492 32.2175L85.6339 29.9064C85.7529 29.6705 85.8069 29.4046 85.7899 29.1385C85.7729 28.8724 85.6857 28.6164 85.5378 28.3991C85.3264 28.0823 85.1319 27.7535 84.9551 27.4143C84.8321 27.1737 84.6467 26.9743 84.42 26.8391C84.1934 26.704 83.9349 26.6387 83.6743 26.6507L81.164 26.7377L80.9207 18.585L83.4374 18.5113C83.6932 18.4981 83.9406 18.4117 84.1528 18.2617C84.3651 18.1118 84.534 17.9038 84.6413 17.6606C84.7134 17.4863 84.7946 17.3163 84.8846 17.1514C84.9679 16.9839 85.0575 16.8165 85.1536 16.6557C85.2867 16.429 85.3571 16.1681 85.3571 15.9021C85.3571 15.636 85.2867 15.3751 85.1536 15.1484L83.8216 12.9042L90.4432 8.60347L91.7687 10.8409C91.904 11.0637 92.0947 11.2437 92.3203 11.3618C92.5459 11.4798 92.798 11.5313 93.0495 11.5108C93.4136 11.4774 93.7791 11.464 94.1446 11.4707C94.4041 11.4855 94.6623 11.4229 94.8891 11.29C95.1159 11.1572 95.3018 10.9596 95.4253 10.7204L96.61 8.40249L103.52 12.2678L102.335 14.579C102.214 14.8139 102.158 15.0796 102.174 15.3461C102.19 15.6125 102.276 15.869 102.425 16.0863C102.636 16.4011 102.828 16.7562 103.007 17.0643C103.128 17.3072 103.313 17.5084 103.54 17.6439C103.767 17.7794 104.027 17.8433 104.288 17.828L106.799 17.7476L107.01 25.9004ZM101.932 28.6135C101.933 28.2159 102.04 27.8265 102.239 27.488C102.329 27.334 102.412 27.1799 102.489 27.0191C102.566 26.8583 102.649 26.7042 102.719 26.5435C102.874 26.1879 103.119 25.8842 103.429 25.6665C103.739 25.4488 104.101 25.3257 104.474 25.3108L106.35 25.2506L106.152 18.4376L104.275 18.4979C103.901 18.5099 103.532 18.4121 103.208 18.2156C102.884 18.019 102.62 17.7316 102.444 17.3859C102.277 17.0777 102.098 16.7696 101.9 16.4681C101.685 16.1496 101.558 15.775 101.535 15.386C101.511 14.997 101.591 14.6087 101.765 14.2641L102.649 12.5358L96.8854 9.32027L96.0273 11.0486C95.8503 11.3926 95.5851 11.6782 95.2616 11.8734C94.9382 12.0687 94.5691 12.1658 94.1958 12.1539C93.8564 12.1539 93.5106 12.154 93.1648 12.1875C92.7891 12.2297 92.4095 12.1604 92.0698 11.9874C91.73 11.8144 91.4437 11.5448 91.2436 11.2094L90.2574 9.54133L84.7245 13.132L85.7171 14.8068C85.9132 15.1389 86.0171 15.5217 86.0171 15.9121C86.0171 16.3025 85.9132 16.6853 85.7171 17.0175L85.4674 17.4797C85.3841 17.6405 85.3073 17.7945 85.2368 17.9553C85.0812 18.3117 84.8343 18.6162 84.5235 18.8349C84.2127 19.0536 83.8501 19.1781 83.4758 19.1946L81.5995 19.2482L81.8044 26.0611L83.6743 25.9941C84.048 25.9845 84.4169 26.0832 84.7402 26.2795C85.0635 26.4758 85.3285 26.762 85.5058 27.1062C85.6712 27.4244 85.8529 27.733 86.0501 28.0307C86.2663 28.3486 86.3935 28.7233 86.4172 29.1126C86.441 29.502 86.3604 29.8906 86.1846 30.2346L85.3009 31.963L91.0643 35.1785L91.948 33.4569C92.1268 33.1144 92.3923 32.83 92.7154 32.635C93.0385 32.4401 93.4067 32.342 93.7795 32.3515C94.1257 32.3605 94.472 32.3494 94.817 32.318C95.1932 32.278 95.5726 32.3491 95.9121 32.5231C96.2517 32.6972 96.5378 32.9673 96.7381 33.3028L97.7179 34.9642L103.251 31.3735L102.265 29.7121C102.059 29.3851 101.943 29.0048 101.932 28.6135ZM100.158 22.2561C100.158 23.6721 99.7139 25.0491 98.8941 26.1759C98.0743 27.3026 96.9238 28.117 95.619 28.4941C94.3143 28.8712 92.9273 28.7902 91.6708 28.2635C90.4142 27.7368 89.3576 26.7935 88.6627 25.5783C87.9679 24.363 87.6733 22.9429 87.8241 21.5357C87.9748 20.1285 88.5627 18.8118 89.4975 17.7876C90.4322 16.7635 91.6623 16.0883 92.9991 15.8657C94.3359 15.6431 95.7056 15.8853 96.8982 16.5552C97.887 17.104 98.7134 17.9253 99.2879 18.9302C99.8625 19.935 100.163 21.0852 100.158 22.2561ZM88.4388 22.2561C88.4385 22.8279 88.5183 23.3966 88.6757 23.9442C89.0798 25.3409 89.9738 26.5261 91.1784 27.2619C92.383 27.9978 93.809 28.2299 95.1704 27.9116C96.5318 27.5934 97.7278 26.7484 98.5184 25.5462C99.309 24.344 99.6358 22.8735 99.4331 21.4297C99.2305 19.9859 98.5134 18.6757 97.4258 17.762C96.3382 16.8482 94.9605 16.3985 93.5692 16.5031C92.1778 16.6077 90.8757 17.2588 89.9242 18.3259C88.9726 19.3929 88.442 20.7969 88.4388 22.2561Z" fill="#EBEBEB"/>
<path d="M88.6903 101.384C88.903 101.011 89.2105 100.706 89.5786 100.504C89.9468 100.302 90.3614 100.211 90.7766 100.239C91.0057 100.239 91.2348 100.239 91.476 100.239C91.7172 100.239 91.9463 100.239 92.1754 100.239C92.589 100.21 93.0021 100.302 93.3685 100.504C93.7348 100.706 94.0399 101.011 94.2496 101.384L95.6967 104L103.873 99.0819L102.426 96.4656C102.217 96.0903 102.114 95.6619 102.127 95.2285C102.14 94.7951 102.268 94.374 102.498 94.0128C102.755 93.6063 102.993 93.1864 103.21 92.755C103.398 92.3747 103.684 92.056 104.035 91.8341C104.386 91.6122 104.789 91.4956 105.199 91.4971H108.094V81.6484H105.199C104.789 81.6485 104.387 81.5313 104.036 81.3096C103.685 81.0878 103.399 80.7699 103.21 80.3905C102.998 79.956 102.76 79.5359 102.498 79.1327C102.256 78.7647 102.12 78.3319 102.108 77.8859C102.095 77.4399 102.205 76.9994 102.426 76.617L103.873 74.0007L95.6967 69.0825L94.2375 71.7114C94.0253 72.0811 93.7193 72.3824 93.3533 72.5821C92.9873 72.7819 92.5755 72.8723 92.1634 72.8435C91.9342 72.8435 91.7051 72.8435 91.476 72.8435C91.2469 72.8435 91.0057 72.8435 90.7766 72.8435C90.363 72.8725 89.9499 72.7808 89.5835 72.5786C89.2172 72.3764 88.9121 72.0718 88.7024 71.6989L87.2553 69.0825L79.0792 74.0007L80.5263 76.6044C80.745 76.988 80.8533 77.4291 80.8384 77.8752C80.8234 78.3212 80.6858 78.7534 80.4419 79.1201C80.1885 79.5268 79.9551 79.9466 79.7425 80.3779C79.5508 80.7583 79.2629 81.0767 78.91 81.2984C78.5571 81.5202 78.1526 81.6369 77.7407 81.6358H74.8585V91.4845H77.7768C78.1888 91.4835 78.5932 91.6001 78.9461 91.8219C79.2991 92.0436 79.587 92.362 79.7786 92.7424C79.9861 93.1767 80.2197 93.5968 80.4781 94.0002C80.7099 94.3602 80.8406 94.7807 80.8555 95.2141C80.8704 95.6474 80.7689 96.0766 80.5625 96.453L79.1154 99.0693L87.2915 103.987L88.6903 101.384ZM83.734 86.5287C83.734 84.9346 84.1871 83.3763 85.0359 82.0506C85.8848 80.725 87.0913 79.6916 88.503 79.0809C89.9148 78.4703 91.4684 78.3099 92.9676 78.62C94.4667 78.9301 95.844 79.6967 96.9256 80.8231C98.0071 81.9494 98.7442 83.3849 99.0439 84.9481C99.3435 86.5113 99.1921 88.132 98.6089 89.6055C98.0257 91.079 97.0368 92.3391 95.7672 93.2265C94.4976 94.114 93.0043 94.5889 91.476 94.5914C89.4248 94.5914 87.4574 93.7424 86.0059 92.2307C84.5543 90.719 83.7372 88.6682 83.734 86.5287Z" fill="#EBEBEB"/>
<path d="M225.788 242.259V227.517L215.791 228.335V241.441L225.788 242.259Z" fill="#EBEBEB"/>
<path d="M230.551 214.196L240.548 203.781L232.915 196.977L224.027 206.247L230.551 214.196Z" fill="#EBEBEB"/>
<path d="M252.933 197.87H267.067L266.283 187.442H253.717L252.933 197.87Z" fill="#EBEBEB"/>
<path d="M279.837 202.838L289.822 213.266L296.346 205.316L287.459 196.046L279.837 202.838Z" fill="#EBEBEB"/>
<path d="M295.489 226.183V240.925L305.486 240.108V227.001L295.489 226.183Z" fill="#EBEBEB"/>
<path d="M290.726 254.245L280.729 264.66L288.362 271.465L297.25 262.195L290.726 254.245Z" fill="#EBEBEB"/>
<path d="M268.345 270.573H254.211L254.995 281H267.561L268.345 270.573Z" fill="#EBEBEB"/>
<path d="M241.441 265.604L231.456 255.177L224.932 263.139L233.82 272.409L241.441 265.604Z" fill="#EBEBEB"/>
<path d="M261.013 273.214C268.28 273.214 275.384 270.966 281.427 266.755C287.469 262.543 292.179 256.558 294.96 249.554C297.741 242.551 298.469 234.845 297.051 227.411C295.633 219.976 292.133 213.147 286.995 207.787C281.856 202.427 275.309 198.777 268.181 197.298C261.053 195.819 253.665 196.578 246.951 199.479C240.237 202.38 234.498 207.292 230.461 213.595C226.423 219.897 224.268 227.307 224.268 234.888C224.268 245.052 228.14 254.801 235.031 261.988C241.921 269.176 251.267 273.214 261.013 273.214ZM261.013 252.787C257.615 252.789 254.294 251.74 251.468 249.773C248.642 247.806 246.439 245.009 245.138 241.735C243.837 238.462 243.496 234.86 244.158 231.384C244.82 227.908 246.456 224.715 248.858 222.21C251.26 219.704 254.321 217.998 257.653 217.307C260.986 216.616 264.439 216.972 267.578 218.329C270.716 219.687 273.398 221.984 275.284 224.932C277.17 227.879 278.175 231.344 278.173 234.888C278.173 239.635 276.365 244.187 273.147 247.544C269.929 250.901 265.564 252.787 261.013 252.787Z" fill="#EBEBEB"/>
<path d="M391 785.622V799.898L382.752 800.565C381.952 805.629 380.18 810.472 377.542 814.803L382.981 821.382L373.333 831.444L367.231 826.011C363.166 828.986 358.563 831.066 353.701 832.124L353.062 840.752H339.375L338.724 832.224C333.94 831.263 329.389 829.313 325.338 826.489L318.73 832.388L309.082 822.325L314.762 815.407C312.172 811.31 310.359 806.732 309.42 801.923L300.159 801.181V786.905L309.42 786.15C310.317 781.496 312.043 777.059 314.509 773.068L308.19 765.371L317.837 755.308L325.073 761.773C328.795 759.135 332.953 757.237 337.337 756.176L338.097 746H351.796L352.507 755.723C357.033 756.548 361.37 758.255 365.29 760.754L372.429 754.364L382.076 764.427L376.348 771.433C379.127 775.482 381.122 780.058 382.221 784.905L391 785.622ZM389.794 798.728V786.791L381.244 786.087L381.148 785.634C380.072 780.639 378.019 775.928 375.118 771.798L374.841 771.396L380.46 764.515L372.369 756.063L365.374 762.264L365.001 762.025C360.983 759.399 356.501 757.641 351.82 756.855L351.35 756.767L350.65 747.22H339.194L338.446 757.157L338.012 757.257C333.47 758.305 329.168 760.27 325.35 763.044L324.964 763.32L317.873 757.031L309.77 765.484L315.956 773.031L315.703 773.433C313.106 777.519 311.315 782.102 310.433 786.917L310.349 787.383L301.292 788.125V799.999L310.349 800.728L310.433 801.256C311.345 806.213 313.221 810.921 315.944 815.093L316.04 815.256V815.684L315.896 815.873L310.65 822.262L318.754 830.702L325.217 824.929L325.603 825.206C329.737 828.186 334.431 830.214 339.375 831.155L339.833 831.243L340.472 839.57H351.916L352.543 831.155L353.002 831.055C358.015 830.033 362.755 827.887 366.894 824.765L367.28 824.476L373.249 829.797L381.341 821.382L376.047 814.917L376.288 814.527C379.056 810.106 380.881 805.118 381.642 799.898L381.714 799.407L389.794 798.728ZM363.686 794.087C363.684 797.751 362.64 801.332 360.687 804.377C358.733 807.422 355.958 809.795 352.712 811.195C349.466 812.596 345.895 812.961 342.45 812.245C339.005 811.528 335.841 809.763 333.358 807.171C330.875 804.579 329.185 801.278 328.5 797.684C327.816 794.091 328.168 790.366 329.513 786.981C330.858 783.596 333.135 780.703 336.056 778.668C338.976 776.633 342.41 775.546 345.923 775.546C350.635 775.55 355.153 777.505 358.484 780.981C361.815 784.458 363.686 789.172 363.686 794.087ZM329.366 794.087C329.368 797.502 330.341 800.84 332.162 803.678C333.983 806.517 336.57 808.728 339.595 810.033C342.621 811.339 345.95 811.679 349.161 811.011C352.372 810.343 355.321 808.697 357.635 806.282C359.949 803.866 361.525 800.789 362.163 797.439C362.801 794.089 362.472 790.617 361.219 787.462C359.965 784.307 357.843 781.611 355.12 779.714C352.398 777.817 349.197 776.804 345.923 776.804C341.532 776.811 337.322 778.634 334.218 781.874C331.114 785.114 329.369 789.506 329.366 794.087Z" fill="#EBEBEB"/>
<path d="M193.835 789.332C186.913 789.458 169.452 789.772 162.759 789.848L152.279 789.911H151.737V789.332V775.257V774.628H152.34L173.118 774.716C178.291 774.716 188.722 774.879 193.895 774.955H194.197V775.257L193.907 789.332H193.835ZM193.835 789.332L193.51 775.257L193.799 775.559C188.614 775.634 178.206 775.76 173.021 775.798L152.243 775.886L152.846 775.257V789.332L152.303 788.766H162.602C169.186 788.841 187.046 789.156 193.859 789.282L193.835 789.332Z" fill="#EBEBEB"/>
<path d="M170.658 807.08C163.736 807.206 146.274 807.52 139.581 807.596L129.102 807.659H128.547V807.08V793.005V792.376H129.162L149.94 792.464C155.113 792.464 165.545 792.628 170.718 792.703H171.007V793.005L170.718 807.08H170.658ZM170.658 807.08L170.368 793.005L170.658 793.307C165.472 793.382 155.053 793.508 149.88 793.546L129.102 793.634L129.705 793.005L129.596 807.08L129.054 806.514H139.34C145.924 806.59 163.796 806.904 170.609 807.03L170.658 807.08Z" fill="#EBEBEB"/>
<path d="M83.5697 498.296C76.6478 498.422 59.1983 498.736 52.5054 498.812L42.014 498.874H41.4713V498.296L41.411 484.221V483.592H42.014L62.7919 483.68C67.9652 483.68 78.3964 483.843 83.5697 483.919H83.8712V484.208L83.5697 498.296ZM83.5697 498.296L83.2803 484.221L83.5697 484.523C78.3843 484.611 67.9773 484.724 62.7919 484.774L42.014 484.85L42.6169 484.221V498.296L42.0622 497.73H52.3607C58.945 497.818 76.8046 498.132 83.618 498.246L83.5697 498.296Z" fill="#EBEBEB"/>
<path d="M60.392 516.007C53.4701 516.132 36.0084 516.447 29.3156 516.522H18.8362H18.2936V515.944V501.869V501.24H18.8965L39.6744 501.328C44.8478 501.328 55.279 501.491 60.4523 501.567H60.7538V501.856L60.4644 515.931L60.392 516.007ZM60.392 516.007L60.1026 501.932L60.392 502.233C55.2066 502.309 44.7996 502.435 39.6141 502.485L18.8362 502.56L19.4392 501.932L19.3789 516.007L18.8362 515.441H29.1347C35.719 515.529 53.5786 515.843 60.392 515.956V516.007Z" fill="#EBEBEB"/>
<path d="M106.76 501.931H65.2037V516.006H106.76V501.931Z" fill="#EBEBEB"/>
<path d="M194.071 0.747559L152.515 0.747559V14.8227L194.071 14.8227V0.747559Z" fill="#EBEBEB"/>
<path d="M217.248 32.5716C210.326 32.6974 192.865 33.0119 186.184 33.0874H175.693H175.15V32.5088L175.09 18.4336V17.8047H175.693L196.47 17.8927C201.644 17.8927 212.075 18.0563 217.248 18.1317H217.55V18.421L217.26 32.4962L217.248 32.5716ZM217.248 32.5716L216.959 18.4965L217.248 18.7984C212.063 18.8864 201.656 18.9996 196.47 19.0499L175.693 19.1254L176.296 18.4965V32.5716L175.741 32.0056H186.039C192.624 32.0937 210.483 32.4081 217.297 32.5213L217.248 32.5716Z" fill="#EBEBEB"/>
<path d="M71.9091 822.767C64.9871 822.893 47.5255 823.195 40.8327 823.283H30.3533H29.7986V822.717V808.641V808H30.4015L51.1794 808.075C56.3528 808.075 66.784 808.239 71.9573 808.314H72.2588V808.616L71.9694 822.691L71.9091 822.767ZM71.9091 822.767L71.6197 808.692L71.9091 808.994C66.7237 809.069 56.3166 809.182 51.1312 809.233L30.3533 809.308L30.9563 808.692V822.767L30.3533 822.201H40.6397C47.2361 822.289 65.0957 822.603 71.9091 822.729V822.767Z" fill="#EBEBEB"/>
<path d="M280.452 403.783H322.008V389.708H280.452V403.783Z" fill="#EBEBEB"/>
<path d="M303.63 371.96C310.564 371.834 328.013 371.519 334.706 371.444H345.185H345.74V372.022V386.098V386.727H345.125L324.347 386.638C319.174 386.638 308.743 386.475 303.569 386.399H303.28V386.098L303.569 372.022L303.63 371.96ZM303.63 371.96L303.931 386.035L303.63 385.733C308.815 385.657 319.234 385.544 324.407 385.494L345.185 385.406L344.594 386.035V371.96L345.137 372.538H334.851C328.266 372.463 310.395 372.148 303.581 372.022L303.63 371.96Z" fill="#EBEBEB"/>
<path d="M245.842 86.0356H204.286V100.111H245.842V86.0356Z" fill="#EBEBEB"/>
<path d="M280.327 55H321.883V69.0752H280.327V55Z" fill="#EBEBEB"/>
<path d="M303.505 86.8232C310.439 86.9489 327.889 87.2634 334.581 87.3389H345.061H345.615V86.7603V72.6851V72.0562H345L324.223 72.1443C319.049 72.1443 308.618 72.3078 303.445 72.3833H303.155V72.6851L303.445 86.7603L303.505 86.8232ZM303.505 86.8232L303.806 72.748L303.505 73.0499C308.69 73.1254 319.109 73.2386 324.283 73.2889L345.061 73.3769L344.47 72.748V86.8232L345.013 86.2446H334.726C328.142 86.32 310.27 86.6345 303.457 86.7603L303.505 86.8232Z" fill="#EBEBEB"/>
</g>
</svg>
