<svg viewBox="0 0 743 259" fill="none" xmlns="http://www.w3.org/2000/svg">
    <path d="M162.49 224.92H165.872L175.144 250H171.667L169.501 243.958H158.861L156.657 250H153.18L162.49 224.92ZM159.906 241.032H168.475L164.219 228.91H164.162L159.906 241.032ZM201.974 236.377H214.628V237.745C214.628 239.493 214.324 241.14 213.716 242.685C213.108 244.218 212.246 245.567 211.132 246.732C210.03 247.897 208.731 248.809 207.237 249.468C205.742 250.127 204.102 250.456 202.316 250.456C200.492 250.456 198.82 250.12 197.3 249.449C195.78 248.765 194.462 247.828 193.348 246.637C192.233 245.434 191.372 244.047 190.764 242.476C190.156 240.905 189.852 239.227 189.852 237.441C189.852 235.668 190.156 233.996 190.764 232.425C191.372 230.854 192.233 229.474 193.348 228.283C194.462 227.092 195.78 226.161 197.3 225.49C198.82 224.806 200.492 224.464 202.316 224.464C203.557 224.464 204.691 224.603 205.717 224.882C206.755 225.148 207.686 225.528 208.51 226.022C209.346 226.503 210.087 227.054 210.733 227.675C211.379 228.283 211.936 228.929 212.405 229.613L209.46 231.19C208.7 230.139 207.724 229.271 206.534 228.587C205.343 227.903 203.937 227.561 202.316 227.561C200.998 227.561 199.782 227.821 198.668 228.34C197.553 228.859 196.584 229.575 195.761 230.487C194.95 231.399 194.323 232.45 193.88 233.641C193.436 234.832 193.215 236.098 193.215 237.441C193.215 238.784 193.436 240.057 193.88 241.26C194.323 242.451 194.95 243.508 195.761 244.433C196.584 245.345 197.553 246.061 198.668 246.58C199.782 247.099 200.998 247.359 202.316 247.359C203.57 247.359 204.716 247.144 205.755 246.713C206.793 246.282 207.699 245.687 208.472 244.927C209.244 244.167 209.852 243.28 210.296 242.267C210.739 241.254 210.986 240.164 211.037 238.999H201.974V236.377ZM223.301 242.267C223.301 243.901 223.649 245.206 224.346 246.181C225.055 247.144 226.138 247.625 227.595 247.625C229.064 247.625 230.147 247.144 230.844 246.181C231.541 245.206 231.889 243.901 231.889 242.267V234.401H235.157V242.723C235.157 244.243 234.859 245.586 234.264 246.751C233.681 247.916 232.826 248.828 231.699 249.487C230.584 250.133 229.216 250.456 227.595 250.456C225.986 250.456 224.618 250.133 223.491 249.487C222.376 248.828 221.521 247.916 220.926 246.751C220.343 245.586 220.052 244.243 220.052 242.723V234.401H223.301V242.267ZM241.91 250V234.401H245.216V250H241.91ZM243.601 229.062C243.006 229.062 242.493 228.853 242.062 228.435C241.644 228.004 241.435 227.491 241.435 226.896C241.435 226.301 241.644 225.788 242.062 225.357C242.493 224.926 243.006 224.711 243.601 224.711C243.994 224.711 244.355 224.812 244.684 225.015C245.026 225.218 245.299 225.484 245.501 225.813C245.704 226.13 245.805 226.491 245.805 226.896C245.805 227.491 245.59 228.004 245.159 228.435C244.729 228.853 244.209 229.062 243.601 229.062ZM259.048 250.456C257.617 250.456 256.331 250.114 255.191 249.43C254.064 248.746 253.171 247.79 252.512 246.561C251.866 245.32 251.543 243.869 251.543 242.21C251.543 240.551 251.866 239.107 252.512 237.878C253.171 236.637 254.064 235.674 255.191 234.99C256.331 234.293 257.617 233.945 259.048 233.945C260.201 233.945 261.214 234.148 262.088 234.553C262.962 234.946 263.659 235.408 264.178 235.94C264.697 236.472 264.995 236.934 265.071 237.327V223.856H268.396V250H265.128V246.96C264.989 247.391 264.64 247.878 264.083 248.423C263.538 248.968 262.835 249.443 261.974 249.848C261.113 250.253 260.137 250.456 259.048 250.456ZM259.808 247.72C260.771 247.72 261.651 247.492 262.449 247.036C263.247 246.58 263.88 245.94 264.349 245.117C264.83 244.281 265.071 243.312 265.071 242.21C265.071 241.108 264.83 240.145 264.349 239.322C263.88 238.486 263.247 237.84 262.449 237.384C261.651 236.915 260.771 236.681 259.808 236.681C258.921 236.681 258.098 236.909 257.338 237.365C256.578 237.821 255.964 238.461 255.495 239.284C255.039 240.107 254.811 241.083 254.811 242.21C254.811 243.337 255.039 244.313 255.495 245.136C255.964 245.959 256.578 246.599 257.338 247.055C258.098 247.498 258.921 247.72 259.808 247.72ZM276.069 242.875C276.081 243.812 276.284 244.667 276.677 245.44C277.069 246.213 277.652 246.827 278.425 247.283C279.21 247.739 280.173 247.967 281.313 247.967C282.275 247.967 283.092 247.828 283.764 247.549C284.448 247.258 285.005 246.916 285.436 246.523C285.866 246.118 286.177 245.757 286.367 245.44L287.982 247.435C287.564 248.043 287.051 248.575 286.443 249.031C285.847 249.487 285.119 249.835 284.258 250.076C283.396 250.329 282.345 250.456 281.104 250.456C279.432 250.456 277.981 250.101 276.753 249.392C275.537 248.67 274.599 247.676 273.941 246.409C273.282 245.13 272.953 243.667 272.953 242.02C272.953 240.5 273.263 239.132 273.884 237.916C274.504 236.687 275.404 235.718 276.582 235.009C277.772 234.3 279.204 233.945 280.876 233.945C282.408 233.945 283.738 234.268 284.866 234.914C286.006 235.547 286.886 236.447 287.507 237.612C288.14 238.777 288.457 240.171 288.457 241.792C288.457 241.893 288.45 242.077 288.438 242.343C288.425 242.596 288.412 242.774 288.4 242.875H276.069ZM285.303 240.386C285.29 239.867 285.138 239.297 284.847 238.676C284.568 238.055 284.112 237.523 283.479 237.08C282.845 236.637 281.99 236.415 280.914 236.415C279.799 236.415 278.9 236.63 278.216 237.061C277.544 237.492 277.05 238.017 276.734 238.638C276.417 239.246 276.233 239.829 276.183 240.386H285.303ZM304.04 234.401H307.099V227.998H310.386V234.401H314.395V237.232H310.386V244.946C310.386 245.858 310.544 246.529 310.861 246.96C311.19 247.391 311.627 247.606 312.172 247.606C312.653 247.606 313.027 247.517 313.293 247.34C313.559 247.163 313.717 247.042 313.768 246.979L315.079 249.411C315.003 249.474 314.8 249.595 314.471 249.772C314.142 249.949 313.717 250.108 313.198 250.247C312.679 250.386 312.071 250.456 311.374 250.456C310.158 250.456 309.138 250.089 308.315 249.354C307.504 248.607 307.099 247.429 307.099 245.82V237.232H304.04V234.401ZM328.685 233.945C329.711 233.945 330.705 234.16 331.668 234.591C332.643 235.022 333.441 235.706 334.062 236.643C334.695 237.568 335.012 238.777 335.012 240.272V250H331.668V240.918C331.668 239.373 331.313 238.252 330.604 237.555C329.907 236.846 328.989 236.491 327.849 236.491C327.089 236.491 326.361 236.706 325.664 237.137C324.967 237.555 324.391 238.138 323.935 238.885C323.492 239.62 323.27 240.456 323.27 241.393V250H319.926V223.856H323.27V237.175C323.384 236.744 323.688 236.276 324.182 235.769C324.689 235.262 325.335 234.832 326.12 234.477C326.905 234.122 327.76 233.945 328.685 233.945ZM344.63 250H341.343V234.401H344.63V237.099H344.535C344.598 236.77 344.833 236.358 345.238 235.864C345.643 235.37 346.201 234.927 346.91 234.534C347.619 234.141 348.468 233.945 349.456 233.945C350.178 233.945 350.811 234.046 351.356 234.249C351.913 234.439 352.306 234.629 352.534 234.819L351.185 237.555C351.008 237.378 350.697 237.2 350.254 237.023C349.811 236.833 349.26 236.738 348.601 236.738C347.765 236.738 347.049 236.998 346.454 237.517C345.859 238.036 345.403 238.663 345.086 239.398C344.782 240.12 344.63 240.791 344.63 241.412V250ZM363.452 250.456C361.843 250.456 360.412 250.095 359.158 249.373C357.917 248.651 356.941 247.676 356.232 246.447C355.523 245.206 355.168 243.806 355.168 242.248C355.168 240.69 355.523 239.284 356.232 238.03C356.941 236.776 357.917 235.782 359.158 235.047C360.412 234.312 361.843 233.945 363.452 233.945C365.048 233.945 366.46 234.312 367.689 235.047C368.93 235.782 369.899 236.776 370.596 238.03C371.293 239.284 371.641 240.69 371.641 242.248C371.641 243.806 371.293 245.206 370.596 246.447C369.899 247.676 368.93 248.651 367.689 249.373C366.46 250.095 365.048 250.456 363.452 250.456ZM363.452 247.625C364.465 247.625 365.346 247.391 366.093 246.922C366.853 246.453 367.442 245.814 367.86 245.003C368.278 244.18 368.487 243.255 368.487 242.229C368.487 241.203 368.278 240.278 367.86 239.455C367.442 238.632 366.853 237.979 366.093 237.498C365.346 237.017 364.465 236.776 363.452 236.776C362.426 236.776 361.533 237.017 360.773 237.498C360.013 237.979 359.418 238.632 358.987 239.455C358.569 240.278 358.36 241.203 358.36 242.229C358.36 243.255 358.569 244.18 358.987 245.003C359.418 245.814 360.013 246.453 360.773 246.922C361.533 247.391 362.426 247.625 363.452 247.625ZM380.303 242.267C380.303 243.901 380.652 245.206 381.348 246.181C382.058 247.144 383.141 247.625 384.597 247.625C386.067 247.625 387.15 247.144 387.846 246.181C388.543 245.206 388.891 243.901 388.891 242.267V234.401H392.159V242.723C392.159 244.243 391.862 245.586 391.266 246.751C390.684 247.916 389.829 248.828 388.701 249.487C387.587 250.133 386.219 250.456 384.597 250.456C382.989 250.456 381.621 250.133 380.493 249.487C379.379 248.828 378.524 247.916 377.928 246.751C377.346 245.586 377.054 244.243 377.054 242.723V234.401H380.303V242.267ZM406 258.341C404.771 258.341 403.656 258.214 402.656 257.961C401.668 257.708 400.8 257.347 400.053 256.878C399.318 256.422 398.729 255.884 398.286 255.263L400.452 253.192C400.692 253.521 401.015 253.87 401.421 254.237C401.839 254.617 402.402 254.94 403.112 255.206C403.821 255.472 404.746 255.605 405.886 255.605C407 255.605 407.944 255.364 408.717 254.883C409.489 254.414 410.078 253.775 410.484 252.964C410.889 252.153 411.092 251.241 411.092 250.228V249.715H414.322V250.437C414.322 252.16 413.948 253.604 413.201 254.769C412.466 255.947 411.472 256.834 410.218 257.429C408.964 258.037 407.558 258.341 406 258.341ZM411.092 250V246.96C410.99 247.277 410.693 247.714 410.199 248.271C409.717 248.828 409.052 249.335 408.204 249.791C407.368 250.234 406.38 250.456 405.24 250.456C403.796 250.456 402.485 250.114 401.307 249.43C400.141 248.746 399.21 247.79 398.514 246.561C397.83 245.32 397.488 243.869 397.488 242.21C397.488 240.551 397.83 239.107 398.514 237.878C399.21 236.637 400.141 235.674 401.307 234.99C402.485 234.293 403.796 233.945 405.24 233.945C406.367 233.945 407.342 234.148 408.166 234.553C409.002 234.958 409.667 235.427 410.161 235.959C410.667 236.491 410.965 236.947 411.054 237.327V234.401H414.322V250H411.092ZM400.756 242.21C400.756 243.337 401.003 244.313 401.497 245.136C401.991 245.959 402.63 246.599 403.416 247.055C404.214 247.498 405.062 247.72 405.962 247.72C406.924 247.72 407.786 247.492 408.546 247.036C409.306 246.58 409.907 245.94 410.351 245.117C410.794 244.281 411.016 243.312 411.016 242.21C411.016 241.108 410.794 240.145 410.351 239.322C409.907 238.486 409.306 237.84 408.546 237.384C407.786 236.915 406.924 236.681 405.962 236.681C405.062 236.681 404.214 236.909 403.416 237.365C402.63 237.821 401.991 238.461 401.497 239.284C401.003 240.107 400.756 241.083 400.756 242.21ZM429.623 233.945C430.649 233.945 431.643 234.16 432.606 234.591C433.581 235.022 434.379 235.706 435 236.643C435.633 237.568 435.95 238.777 435.95 240.272V250H432.606V240.918C432.606 239.373 432.251 238.252 431.542 237.555C430.845 236.846 429.927 236.491 428.787 236.491C428.027 236.491 427.298 236.706 426.602 237.137C425.905 237.555 425.329 238.138 424.873 238.885C424.429 239.62 424.208 240.456 424.208 241.393V250H420.864V223.856H424.208V237.175C424.322 236.744 424.626 236.276 425.12 235.769C425.626 235.262 426.272 234.832 427.058 234.477C427.843 234.122 428.698 233.945 429.623 233.945ZM469.033 238.885H457.006V250H453.795V224.92H457.006V235.959H469.033V224.92H472.244V250H469.033V238.885ZM484.131 227.865H477.367V224.92H494.163V227.865H487.399V250H484.131V227.865ZM499.621 224.92H502.87V247.055H512.731V250H499.621V224.92ZM530.288 224.92H539.047C540.403 224.92 541.631 225.205 542.733 225.775C543.848 226.332 544.735 227.156 545.393 228.245C546.065 229.322 546.4 230.639 546.4 232.197C546.4 233.742 546.09 235.022 545.469 236.035C544.861 237.048 544.127 237.815 543.265 238.334C542.404 238.841 541.606 239.119 540.871 239.17L547.084 250H543.398L537.584 239.398H533.537V250H530.288V224.92ZM533.537 236.985H537.907C539.402 236.985 540.637 236.611 541.612 235.864C542.588 235.117 543.075 233.92 543.075 232.273C543.075 230.626 542.588 229.442 541.612 228.72C540.65 227.998 539.421 227.637 537.926 227.637H533.537V236.985ZM555.243 242.875C555.255 243.812 555.458 244.667 555.851 245.44C556.243 246.213 556.826 246.827 557.599 247.283C558.384 247.739 559.347 247.967 560.487 247.967C561.449 247.967 562.266 247.828 562.938 247.549C563.622 247.258 564.179 246.916 564.61 246.523C565.04 246.118 565.351 245.757 565.541 245.44L567.156 247.435C566.738 248.043 566.225 248.575 565.617 249.031C565.021 249.487 564.293 249.835 563.432 250.076C562.57 250.329 561.519 250.456 560.278 250.456C558.606 250.456 557.155 250.101 555.927 249.392C554.711 248.67 553.773 247.676 553.115 246.409C552.456 245.13 552.127 243.667 552.127 242.02C552.127 240.5 552.437 239.132 553.058 237.916C553.678 236.687 554.578 235.718 555.756 235.009C556.946 234.3 558.378 233.945 560.05 233.945C561.582 233.945 562.912 234.268 564.04 234.914C565.18 235.547 566.06 236.447 566.681 237.612C567.314 238.777 567.631 240.171 567.631 241.792C567.631 241.893 567.624 242.077 567.612 242.343C567.599 242.596 567.586 242.774 567.574 242.875H555.243ZM564.477 240.386C564.464 239.867 564.312 239.297 564.021 238.676C563.742 238.055 563.286 237.523 562.653 237.08C562.019 236.637 561.164 236.415 560.088 236.415C558.973 236.415 558.074 236.63 557.39 237.061C556.718 237.492 556.224 238.017 555.908 238.638C555.591 239.246 555.407 239.829 555.357 240.386H564.477ZM581.902 233.945C582.928 233.945 583.922 234.16 584.885 234.591C585.86 235.022 586.658 235.706 587.279 236.643C587.912 237.568 588.229 238.777 588.229 240.272V250H584.885V240.918C584.885 239.373 584.524 238.252 583.802 237.555C583.08 236.846 582.149 236.491 581.009 236.491C580.262 236.491 579.54 236.706 578.843 237.137C578.159 237.555 577.595 238.138 577.152 238.885C576.709 239.62 576.487 240.456 576.487 241.393V250H573.181V234.401H576.487V237.175C576.601 236.744 576.911 236.276 577.418 235.769C577.925 235.262 578.571 234.832 579.356 234.477C580.141 234.122 580.99 233.945 581.902 233.945ZM603.173 233.945C604.199 233.945 605.193 234.16 606.156 234.591C607.131 235.022 607.929 235.706 608.55 236.643C609.183 237.568 609.5 238.777 609.5 240.272V250H606.156V240.918C606.156 239.373 605.795 238.252 605.073 237.555C604.351 236.846 603.42 236.491 602.28 236.491C601.533 236.491 600.811 236.706 600.114 237.137C599.43 237.555 598.866 238.138 598.423 238.885C597.98 239.62 597.758 240.456 597.758 241.393V250H594.452V234.401H597.758V237.175C597.872 236.744 598.182 236.276 598.689 235.769C599.196 235.262 599.842 234.832 600.627 234.477C601.412 234.122 602.261 233.945 603.173 233.945ZM626.002 238.315L622.031 250H618.611L614.374 234.401H617.889L620.72 246.39L624.634 234.705H627.37L631.246 246.39L634.096 234.401H637.63L633.393 250H629.973L626.002 238.315ZM644.854 242.875C644.867 243.812 645.07 244.667 645.462 245.44C645.855 246.213 646.438 246.827 647.21 247.283C647.996 247.739 648.958 247.967 650.098 247.967C651.061 247.967 651.878 247.828 652.549 247.549C653.233 247.258 653.791 246.916 654.221 246.523C654.652 246.118 654.962 245.757 655.152 245.44L656.767 247.435C656.349 248.043 655.836 248.575 655.228 249.031C654.633 249.487 653.905 249.835 653.043 250.076C652.182 250.329 651.131 250.456 649.889 250.456C648.217 250.456 646.767 250.101 645.538 249.392C644.322 248.67 643.385 247.676 642.726 246.409C642.068 245.13 641.738 243.667 641.738 242.02C641.738 240.5 642.049 239.132 642.669 237.916C643.29 236.687 644.189 235.718 645.367 235.009C646.558 234.3 647.989 233.945 649.661 233.945C651.194 233.945 652.524 234.268 653.651 234.914C654.791 235.547 655.672 236.447 656.292 237.612C656.926 238.777 657.242 240.171 657.242 241.792C657.242 241.893 657.236 242.077 657.223 242.343C657.211 242.596 657.198 242.774 657.185 242.875H644.854ZM654.088 240.386C654.076 239.867 653.924 239.297 653.632 238.676C653.354 238.055 652.898 237.523 652.264 237.08C651.631 236.637 650.776 236.415 649.699 236.415C648.585 236.415 647.685 236.63 647.001 237.061C646.33 237.492 645.836 238.017 645.519 238.638C645.203 239.246 645.019 239.829 644.968 240.386H654.088ZM670.241 258.341C669.012 258.341 667.897 258.214 666.897 257.961C665.909 257.708 665.041 257.347 664.294 256.878C663.559 256.422 662.97 255.884 662.527 255.263L664.693 253.192C664.933 253.521 665.256 253.87 665.662 254.237C666.08 254.617 666.643 254.94 667.353 255.206C668.062 255.472 668.987 255.605 670.127 255.605C671.241 255.605 672.185 255.364 672.958 254.883C673.73 254.414 674.319 253.775 674.725 252.964C675.13 252.153 675.333 251.241 675.333 250.228V249.715H678.563V250.437C678.563 252.16 678.189 253.604 677.442 254.769C676.707 255.947 675.713 256.834 674.459 257.429C673.205 258.037 671.799 258.341 670.241 258.341ZM675.333 250V246.96C675.231 247.277 674.934 247.714 674.44 248.271C673.958 248.828 673.293 249.335 672.445 249.791C671.609 250.234 670.621 250.456 669.481 250.456C668.037 250.456 666.726 250.114 665.548 249.43C664.382 248.746 663.451 247.79 662.755 246.561C662.071 245.32 661.729 243.869 661.729 242.21C661.729 240.551 662.071 239.107 662.755 237.878C663.451 236.637 664.382 235.674 665.548 234.99C666.726 234.293 668.037 233.945 669.481 233.945C670.608 233.945 671.583 234.148 672.407 234.553C673.243 234.958 673.908 235.427 674.402 235.959C674.908 236.491 675.206 236.947 675.295 237.327V234.401H678.563V250H675.333ZM664.997 242.21C664.997 243.337 665.244 244.313 665.738 245.136C666.232 245.959 666.871 246.599 667.657 247.055C668.455 247.498 669.303 247.72 670.203 247.72C671.165 247.72 672.027 247.492 672.787 247.036C673.547 246.58 674.148 245.94 674.592 245.117C675.035 244.281 675.257 243.312 675.257 242.21C675.257 241.108 675.035 240.145 674.592 239.322C674.148 238.486 673.547 237.84 672.787 237.384C672.027 236.915 671.165 236.681 670.203 236.681C669.303 236.681 668.455 236.909 667.657 237.365C666.871 237.821 666.232 238.461 665.738 239.284C665.244 240.107 664.997 241.083 664.997 242.21Z"
          fill="#030303"/>
    <path d="M72.5147 73.1254H147.251V81.5242C147.251 91.9707 145.461 101.745 141.881 110.816C138.301 119.887 133.25 127.87 126.729 134.781C120.208 141.692 112.504 147.083 103.618 150.97C94.747 154.858 84.9335 156.793 74.1929 156.793C63.4524 156.793 53.3351 154.794 44.2568 150.794C35.1945 146.795 27.3628 141.292 20.7619 134.285C14.1609 127.278 9.04636 119.135 5.43421 109.872C1.82206 100.609 0 90.6909 0 80.0844C0 69.478 1.80607 59.6714 5.43421 50.4087C9.04636 41.1461 14.1609 33.0192 20.7619 25.9962C27.3628 18.9733 35.1945 13.4861 44.2568 9.53462C53.3192 5.58319 63.2925 3.59948 74.1929 3.59948C82.1684 3.59948 89.3448 4.47935 95.7379 6.2391C102.115 7.99884 107.805 10.3665 112.792 13.3421C117.794 16.3336 122.158 19.7092 125.882 23.4686C129.606 27.2441 132.786 31.0995 135.392 35.0669L113.687 46.0413C109.659 40.2982 104.401 35.4989 97.9116 31.6434C91.4225 27.804 83.511 25.8683 74.1929 25.8683C66.9526 25.8683 60.3037 27.2921 54.2142 30.1236C48.1407 32.9552 42.8823 36.8747 38.439 41.8819C33.9958 46.8892 30.5754 52.6484 28.146 59.1754C25.7166 65.7025 24.5019 72.6775 24.5019 80.0684C24.5019 87.4594 25.7166 94.4343 28.146 101.009C30.5754 107.584 33.9958 113.36 38.439 118.367C42.8823 123.374 48.1407 127.31 54.2142 130.173C60.2877 133.053 66.9526 134.493 74.1929 134.493C80.9857 134.493 87.1551 133.389 92.7012 131.181C98.2632 128.973 103.09 125.934 107.182 122.062C111.289 118.175 114.534 113.648 116.915 108.448C119.297 103.265 120.687 97.6819 121.055 91.7147H72.4987V73.1254H72.5147Z"
          fill="#030303"/>
    <path d="M190.773 107.281C190.773 116.239 192.611 123.374 196.303 128.669C199.995 133.965 205.829 136.62 213.82 136.62C221.812 136.62 227.725 133.965 231.385 128.669C235.045 123.374 236.867 116.239 236.867 107.281V62.151H260.586V110.304C260.586 119.567 258.764 127.678 255.104 134.669C251.444 141.644 246.154 147.083 239.217 150.954C232.28 154.826 223.809 156.777 213.82 156.777C203.831 156.777 195.472 154.842 188.535 150.954C181.598 147.067 176.308 141.644 172.648 134.669C168.988 127.694 167.166 119.567 167.166 110.304V62.151H190.773V107.281Z"
          fill="#030303"/>
    <path d="M299.297 34.603C295.269 34.603 291.817 33.1472 288.94 30.2356C286.063 27.3241 284.625 23.8526 284.625 19.8211C284.625 15.7897 286.063 12.3022 288.94 9.35865C291.817 6.41508 295.269 4.92729 299.297 4.92729C301.982 4.92729 304.459 5.61519 306.729 6.99099C308.999 8.36679 310.837 10.1585 312.211 12.3662C313.586 14.5739 314.273 17.0535 314.273 19.8211C314.273 23.8526 312.818 27.3241 309.91 30.2356C307.001 33.1472 303.452 34.603 299.281 34.603H299.297ZM287.102 154.09V62.151H310.932V154.09H287.102Z"
          fill="#030303"/>
    <path d="M379.068 156.777C370.421 156.777 362.765 154.73 356.132 150.618C349.499 146.507 344.289 140.796 340.517 133.485C336.745 126.174 334.875 117.727 334.875 108.176C334.875 98.6257 336.761 90.179 340.517 82.868C344.289 75.5571 349.483 69.8139 356.132 65.6705C362.765 61.5271 370.421 59.4474 379.068 59.4474C385.477 59.4474 391.183 60.5512 396.186 62.7589C401.188 64.9666 405.168 67.5102 408.157 70.4218C411.146 73.3334 412.888 75.909 413.415 78.1487V0H437.358V154.09H413.751V137.068C412.712 139.676 410.586 142.523 407.374 145.579C404.161 148.635 400.117 151.274 395.227 153.482C390.336 155.689 384.95 156.777 379.068 156.777ZM385.221 137.404C390.448 137.404 395.179 136.172 399.43 133.709C403.682 131.245 407.07 127.838 409.611 123.47C412.153 119.103 413.415 114 413.415 108.176C413.415 102.353 412.153 97.2499 409.611 92.8986C407.07 88.5312 403.682 85.0917 399.43 82.5961C395.179 80.1004 390.448 78.8526 385.221 78.8526C380.442 78.8526 376.031 80.0684 371.971 82.5001C367.912 84.9317 364.635 88.3392 362.19 92.7386C359.729 97.138 358.498 102.289 358.498 108.192C358.498 114.096 359.729 119.247 362.19 123.646C364.651 128.045 367.912 131.453 371.971 133.837C376.031 136.22 380.458 137.42 385.221 137.42V137.404Z"
          fill="#030303"/>
    <path d="M474.95 113.776C475.094 118.623 476.26 122.99 478.418 126.878C480.576 130.765 483.772 133.805 487.976 136.012C492.195 138.22 497.358 139.308 503.479 139.308C508.77 139.308 513.341 138.572 517.177 137.116C521.013 135.66 524.209 133.901 526.75 131.853C529.292 129.805 531.146 127.87 532.344 126.078L542.973 140.524C540.656 143.659 537.747 146.459 534.246 148.922C530.746 151.386 526.399 153.306 521.22 154.682C516.042 156.057 509.633 156.745 502.025 156.745C492.035 156.745 483.341 154.698 475.957 150.586C468.572 146.475 462.851 140.7 458.791 133.229C454.731 125.758 452.701 117.023 452.701 107.025C452.701 98.0658 454.571 89.987 458.295 82.788C462.019 75.5891 467.454 69.8939 474.566 65.7025C481.694 61.5271 490.245 59.4314 500.251 59.4314C509.569 59.4314 517.656 61.3031 524.529 65.0306C531.386 68.758 536.708 74.1173 540.464 81.0923C544.236 88.0673 546.122 96.482 546.122 106.353C546.122 106.945 546.106 108.176 546.058 110.048C546.026 111.92 545.93 113.152 545.786 113.744H474.966L474.95 113.776ZM523.73 96.3061C523.65 93.9224 522.851 91.1868 521.332 88.1313C519.798 85.0757 517.352 82.4041 513.996 80.1324C510.64 77.8607 506.164 76.7249 500.57 76.7249C494.976 76.7249 490.165 77.8287 486.585 80.0364C483.005 82.2441 480.352 84.8517 478.642 87.8753C476.932 90.8989 475.909 93.7144 475.621 96.3381H523.73V96.3061Z"
          fill="#030303"/>
    <path d="M94.0598 201.651L123.82 222.208C126.777 224.24 130.789 222.128 130.789 218.544V177.414C130.789 173.831 126.761 171.719 123.82 173.751L94.0598 194.308C91.5025 196.084 91.5025 199.859 94.0598 201.635V201.651Z"
          fill="#355070"/>
    <path d="M596.356 122.43C596.372 129.565 596.388 136.604 596.42 143.419V144.715C596.468 159.465 591.29 171.623 584.609 180.79C582.403 183.797 580.054 186.485 577.656 188.837C556.383 209.73 524.401 209.186 524.401 209.186L116.132 209.266L115.685 185.877C115.685 185.877 479.297 185.605 524.289 185.909C541.167 186.021 553.186 178.022 560.41 170.343C570.448 159.673 572.43 147.275 572.797 143.451C572.877 142.683 572.893 142.267 572.893 142.267L572.845 117.327L572.637 0.111996H596.42C596.42 0.111996 596.26 62.8389 596.356 120.511V122.43Z"
          fill="#355070"/>
    <path d="M596.356 120.511L596.58 0.111996H572.637L572.845 117.327C572.845 126.206 572.829 135.004 572.797 143.451C572.43 147.275 570.448 159.673 560.41 170.343C553.186 178.022 541.167 186.021 524.289 185.909C479.297 185.605 127.64 185.909 127.64 185.909V209.186H524.401C524.401 209.186 556.383 209.73 577.656 188.837C580.054 186.485 582.403 183.797 584.609 180.79C591.29 171.623 596.468 159.465 596.42 144.715V143.419C596.388 136.604 596.372 129.565 596.356 122.43V120.511ZM580.837 174.983C578.184 178.966 575.403 182.07 573.165 184.261C554.257 202.851 525.152 202.755 524.497 202.787H134.033V192.292C181.95 192.26 483.149 192.02 524.257 192.308H524.657C545.418 192.308 558.876 181.318 565.062 174.743C569.569 169.943 572.653 164.84 574.747 160.153C578.967 150.73 579.27 142.939 579.286 142.459V142.347L579.031 6.51107H590.011C589.963 27.0521 589.851 92.8506 590.027 144.731C590.075 157.609 585.664 167.752 580.837 174.983Z"
          fill="#355070"/>
    <path d="M708.86 185.781V209.186H644.817C644.817 209.186 612.835 209.73 591.562 188.837C590.619 187.909 589.676 186.917 588.749 185.893C593.655 179.494 598.722 170.663 601.215 159.481C603.021 163.032 605.467 166.792 608.807 170.343C616.031 178.022 628.051 186.021 644.913 185.909C654.47 185.845 677.901 185.797 708.86 185.781Z"
          fill="#6D597A"/>
    <path d="M741.082 201.651L711.322 222.208C708.365 224.24 704.353 222.128 704.353 218.544V177.414C704.353 173.831 708.381 171.719 711.322 173.751L741.082 194.308C743.639 196.084 743.639 199.859 741.082 201.635V201.651Z"
          fill="#6D597A"/>
    <path d="M661.567 21.1969H623.192V0.143974H723.549V21.1969H685.174V147.963H661.567V21.1969Z" fill="#82B4B8"/>
</svg>
