<?xml version="1.0" encoding="UTF-8"?>
<svg id="Ebene_2" xmlns="http://www.w3.org/2000/svg" viewBox="0 0 464.86 139.4">
    <defs>
        <style>.cls-1{fill:#355070;}.cls-2{fill:#82b4b8;}.cls-3{fill:#030303;}.cls-4{fill:#6d597a;}</style>
    </defs>
    <g id="Logos">
        <g id="Mainlogo">
            <path class="cls-3"
                  d="M45.36,45.71h46.76v5.25c0,6.53-1.12,12.64-3.36,18.31-2.24,5.67-5.4,10.66-9.48,14.98-4.08,4.32-8.9,7.69-14.46,10.12-5.55,2.43-11.69,3.64-18.41,3.64s-13.05-1.25-18.73-3.75c-5.67-2.5-10.57-5.94-14.7-10.32s-7.33-9.47-9.59-15.26c-2.26-5.79-3.4-11.99-3.4-18.62s1.13-12.76,3.4-18.55c2.26-5.79,5.46-10.87,9.59-15.26,4.13-4.39,9.03-7.82,14.7-10.29,5.67-2.47,11.91-3.71,18.73-3.71,4.99,0,9.48.55,13.48,1.65,3.99,1.1,7.55,2.58,10.67,4.44,3.13,1.87,5.86,3.98,8.19,6.33,2.33,2.36,4.32,4.77,5.95,7.25l-13.58,6.86c-2.52-3.59-5.81-6.59-9.87-9-4.06-2.4-9.01-3.61-14.84-3.61-4.53,0-8.69.89-12.5,2.66-3.8,1.77-7.09,4.22-9.87,7.35-2.78,3.13-4.92,6.73-6.44,10.81-1.52,4.08-2.28,8.44-2.28,13.06s.76,8.98,2.28,13.09c1.52,4.11,3.66,7.72,6.44,10.85,2.78,3.13,6.07,5.59,9.87,7.38,3.8,1.8,7.97,2.7,12.5,2.7,4.25,0,8.11-.69,11.58-2.07,3.48-1.38,6.5-3.28,9.06-5.7,2.57-2.43,4.6-5.26,6.09-8.51,1.49-3.24,2.36-6.73,2.59-10.46h-30.38v-11.62Z"/>
            <path class="cls-3"
                  d="M119.35,67.06c0,5.6,1.15,10.06,3.46,13.37s5.96,4.97,10.96,4.97,8.7-1.66,10.99-4.97c2.29-3.31,3.43-7.77,3.43-13.37v-28.21h14.84v30.1c0,5.79-1.14,10.86-3.43,15.23-2.29,4.36-5.6,7.76-9.94,10.18s-9.64,3.64-15.89,3.64-11.48-1.21-15.82-3.64c-4.34-2.43-7.65-5.82-9.94-10.18-2.29-4.36-3.43-9.44-3.43-15.23v-30.1h14.77v28.21Z"/>
            <path class="cls-3"
                  d="M187.25,21.63c-2.52,0-4.68-.91-6.48-2.73-1.8-1.82-2.7-3.99-2.7-6.51s.9-4.7,2.7-6.54c1.8-1.84,3.96-2.77,6.48-2.77,1.68,0,3.23.43,4.65,1.29,1.42.86,2.57,1.98,3.43,3.36.86,1.38,1.29,2.93,1.29,4.66,0,2.52-.91,4.69-2.73,6.51-1.82,1.82-4.04,2.73-6.65,2.73ZM179.62,96.32v-57.47h14.91v57.47h-14.91Z"/>
            <path class="cls-3"
                  d="M237.16,98c-5.41,0-10.2-1.28-14.35-3.85-4.15-2.57-7.41-6.14-9.77-10.71-2.36-4.57-3.53-9.85-3.53-15.82s1.18-11.25,3.53-15.82c2.36-4.57,5.61-8.16,9.77-10.75,4.15-2.59,8.94-3.89,14.35-3.89,4.01,0,7.58.69,10.71,2.07,3.13,1.38,5.62,2.97,7.49,4.79,1.87,1.82,2.96,3.43,3.29,4.83V0h14.98v96.32h-14.77v-10.64c-.65,1.63-1.98,3.41-3.99,5.32-2.01,1.91-4.54,3.56-7.6,4.94-3.06,1.38-6.43,2.06-10.11,2.06ZM241.01,85.89c3.27,0,6.23-.77,8.89-2.31,2.66-1.54,4.78-3.67,6.37-6.4,1.59-2.73,2.38-5.92,2.38-9.56s-.79-6.83-2.38-9.55c-1.59-2.73-3.71-4.88-6.37-6.44-2.66-1.56-5.62-2.34-8.89-2.34-2.99,0-5.75.76-8.29,2.28-2.54,1.52-4.59,3.65-6.12,6.4-1.54,2.75-2.31,5.97-2.31,9.66s.77,6.91,2.31,9.66c1.54,2.75,3.58,4.88,6.12,6.37,2.54,1.49,5.31,2.24,8.29,2.24Z"/>
            <path class="cls-3"
                  d="M297.15,71.12c.09,3.03.82,5.76,2.17,8.19,1.35,2.43,3.35,4.33,5.98,5.71,2.64,1.38,5.87,2.06,9.7,2.06,3.31,0,6.17-.46,8.57-1.37,2.4-.91,4.4-2.01,5.99-3.29,1.59-1.28,2.75-2.49,3.5-3.61l6.65,9.03c-1.45,1.96-3.27,3.71-5.46,5.25s-4.91,2.74-8.15,3.6c-3.24.86-7.25,1.29-12.01,1.29-6.25,0-11.69-1.28-16.31-3.85-4.62-2.57-8.2-6.18-10.74-10.85-2.54-4.67-3.81-10.13-3.81-16.38,0-5.6,1.17-10.65,3.5-15.15,2.33-4.5,5.73-8.06,10.18-10.68,4.46-2.61,9.81-3.92,16.07-3.92,5.83,0,10.89,1.17,15.19,3.5,4.29,2.33,7.62,5.68,9.97,10.04,2.36,4.36,3.54,9.62,3.54,15.79,0,.37-.01,1.14-.04,2.31-.02,1.17-.08,1.94-.17,2.31h-44.31ZM327.67,60.2c-.05-1.49-.55-3.2-1.5-5.11-.96-1.91-2.49-3.58-4.59-5-2.1-1.42-4.9-2.13-8.4-2.13s-6.51.69-8.75,2.07c-2.24,1.38-3.9,3.01-4.97,4.9-1.07,1.89-1.71,3.65-1.89,5.29h30.1Z"/>
            <path class="cls-1"
                  d="M58.84,126.05l18.62,12.85c1.85,1.27,4.36-.05,4.36-2.29v-25.71c0-2.24-2.52-3.56-4.36-2.29l-18.62,12.85c-1.6,1.11-1.6,3.47,0,4.58Z"/>
            <path class="cls-1"
                  d="M373.11,76.53c.01,4.46.02,8.86.04,13.12v.81c.03,9.22-3.21,16.82-7.39,22.55-1.38,1.88-2.85,3.56-4.35,5.03-13.31,13.06-33.32,12.72-33.32,12.72l-255.44.05-.28-14.62s227.5-.17,255.65.02c10.56.07,18.08-4.93,22.6-9.73,6.28-6.67,7.52-14.42,7.75-16.81.05-.48.06-.74.06-.74l-.03-15.59-.13-73.27h14.88s-.1,39.21-.04,75.26v1.2Z"/>
            <path class="cls-1"
                  d="M373.11,75.33l.14-75.26h-14.98l.13,73.27c0,5.55-.01,11.05-.03,16.33-.23,2.39-1.47,10.14-7.75,16.81-4.52,4.8-12.04,9.8-22.6,9.73-28.15-.19-248.17,0-248.17,0v14.55h248.24s20.01.34,33.32-12.72c1.5-1.47,2.97-3.15,4.35-5.03,4.18-5.73,7.42-13.33,7.39-22.55v-.81c-.02-4.26-.03-8.66-.04-13.12v-1.2ZM363.4,109.38c-1.66,2.49-3.4,4.43-4.8,5.8-11.83,11.62-30.04,11.56-30.45,11.58H83.85v-6.56c29.98-.02,218.43-.17,244.15.01h.25c12.99,0,21.41-6.87,25.28-10.98,2.82-3,4.75-6.19,6.06-9.12,2.64-5.89,2.83-10.76,2.84-11.06v-.07l-.16-84.91h6.87c-.03,12.84-.1,53.97.01,86.4.03,8.05-2.73,14.39-5.75,18.91Z"/>
            <path class="cls-4"
                  d="M443.5,116.13v14.63h-40.07s-20.01.34-33.32-12.72c-.59-.58-1.18-1.2-1.76-1.84,3.07-4,6.24-9.52,7.8-16.51,1.13,2.22,2.66,4.57,4.75,6.79,4.52,4.8,12.04,9.8,22.59,9.73,5.98-.04,20.64-.07,40.01-.08Z"/>
            <path class="cls-4"
                  d="M463.66,126.05l-18.62,12.85c-1.85,1.27-4.36-.05-4.36-2.29v-25.71c0-2.24,2.52-3.56,4.36-2.29l18.62,12.85c1.6,1.11,1.6,3.47,0,4.58Z"/>
            <path class="cls-2" d="M413.91,13.25h-24.01V.09h62.79v13.16h-24.01v79.24h-14.77V13.25Z"/>
        </g>
    </g>
</svg>
