<svg width="785" height="585" viewBox="0 0 785 585" fill="none" xmlns="http://www.w3.org/2000/svg">
<path d="M784.998 514.017H0V514.409H784.998V514.017Z" fill="#EBEBEB"/>
<path d="M706.342 539.278H654.344V539.671H706.342V539.278Z" fill="#EBEBEB"/>
<path d="M520.015 543.549H506.372V543.941H520.015V543.549Z" fill="#EBEBEB"/>
<path d="M652.774 524.709H622.646V525.101H652.774V524.709Z" fill="#EBEBEB"/>
<path d="M150.17 527.347H82.3623V527.739H150.17V527.347Z" fill="#EBEBEB"/>
<path d="M174.097 527.347H164.159V527.739H174.097V527.347Z" fill="#EBEBEB"/>
<path d="M353.485 533.973H206.407V534.365H353.485V533.973Z" fill="#EBEBEB"/>
<path d="M711.696 443.995H408.529C406.153 443.991 403.875 443.045 402.195 441.365C400.514 439.685 399.569 437.407 399.564 435.031V8.88618C399.589 6.52352 400.544 4.2658 402.222 2.60242C403.9 0.939029 406.166 0.00400081 408.529 0H711.696C714.054 0.00817104 716.315 0.945529 717.987 2.60891C719.659 4.27229 720.608 6.52766 720.629 8.88618V435.031C720.629 437.403 719.689 439.678 718.014 441.358C716.34 443.039 714.068 443.987 711.696 443.995ZM408.529 0.314001C406.257 0.318151 404.079 1.22262 402.472 2.82932C400.866 4.43602 399.961 6.61397 399.957 8.88618V435.031C399.961 437.303 400.866 439.481 402.472 441.087C404.079 442.694 406.257 443.599 408.529 443.603H711.696C713.968 443.599 716.146 442.694 717.752 441.087C719.359 439.481 720.264 437.303 720.268 435.031V8.88618C720.264 6.61397 719.359 4.43602 717.752 2.82932C716.146 1.22262 713.968 0.318151 711.696 0.314001H408.529Z" fill="#EBEBEB"/>
<path d="M425.093 512.322H637.514V200.866H425.093V512.322Z" fill="#F0F0F0"/>
<path d="M432.597 268.202H630.009V210.677L432.597 210.677V268.202Z" fill="#E0E0E0"/>
<path d="M618.799 268.202H630.009V219.988H618.799V268.202Z" fill="#EBEBEB"/>
<path d="M564.571 268.202H575.78V219.988H564.571V268.202Z" fill="#EBEBEB"/>
<path d="M494.833 266.28L505.88 268.185L514.07 220.671L503.023 218.767L494.833 266.28Z" fill="#EBEBEB"/>
<path d="M604.904 268.202H616.113V226.346H604.904V268.202Z" fill="#EBEBEB"/>
<path d="M579.124 268.202H590.334V226.346H579.124V268.202Z" fill="#EBEBEB"/>
<path d="M514.064 268.202H525.273V226.346H514.064V268.202Z" fill="#EBEBEB"/>
<path d="M540.787 265.753L551.729 268.185L560.81 227.325L549.867 224.893L540.787 265.753Z" fill="#EBEBEB"/>
<path d="M595.202 268.202H600.807V217.601H595.202V268.202Z" fill="#EBEBEB"/>
<path d="M528.507 268.202H534.112V217.601H528.507V268.202Z" fill="#EBEBEB"/>
<path d="M630.008 277.309H432.597V334.833H630.008V277.309Z" fill="#E0E0E0"/>
<path d="M443.806 286.618H432.597V334.833H443.806V286.618Z" fill="#EBEBEB"/>
<path d="M498.035 286.618H486.825V334.833H498.035V286.618Z" fill="#EBEBEB"/>
<path d="M559.609 285.388L548.562 287.292L556.753 334.806L567.799 332.902L559.609 285.388Z" fill="#EBEBEB"/>
<path d="M457.701 292.977H446.491V334.833H457.701V292.977Z" fill="#EBEBEB"/>
<path d="M483.48 292.977H472.271V334.833H483.48V292.977Z" fill="#EBEBEB"/>
<path d="M548.541 292.977H537.331V334.833H548.541V292.977Z" fill="#EBEBEB"/>
<path d="M512.789 291.508L501.847 293.94L510.927 334.8L521.87 332.368L512.789 291.508Z" fill="#EBEBEB"/>
<path d="M467.404 284.233H461.799V334.834H467.404V284.233Z" fill="#EBEBEB"/>
<path d="M534.097 284.233H528.492V334.834H534.097V284.233Z" fill="#EBEBEB"/>
<path d="M618.799 334.833H630.009V286.618H618.799V334.833Z" fill="#EBEBEB"/>
<path d="M604.904 334.833H616.113V292.977H604.904V334.833Z" fill="#EBEBEB"/>
<path d="M579.124 334.833H590.334V292.977H579.124V334.833Z" fill="#EBEBEB"/>
<path d="M595.202 334.833H600.807V284.232H595.202V334.833Z" fill="#EBEBEB"/>
<path d="M432.597 401.464H630.009V343.939H432.597V401.464Z" fill="#E0E0E0"/>
<path d="M505.492 401.464H516.702V353.249H505.492V401.464Z" fill="#EBEBEB"/>
<path d="M435.756 399.535L446.803 401.439L454.993 353.926L443.946 352.021L435.756 399.535Z" fill="#EBEBEB"/>
<path d="M545.825 401.464H557.035V359.608H545.825V401.464Z" fill="#EBEBEB"/>
<path d="M520.045 401.464H531.255V359.608H520.045V401.464Z" fill="#EBEBEB"/>
<path d="M454.986 401.464H466.195V359.608H454.986V401.464Z" fill="#EBEBEB"/>
<path d="M481.706 399.007L492.648 401.439L501.729 360.58L490.786 358.148L481.706 399.007Z" fill="#EBEBEB"/>
<path d="M536.123 401.464H541.728V350.863H536.123V401.464Z" fill="#EBEBEB"/>
<path d="M469.429 401.464H475.034V350.863H469.429V401.464Z" fill="#EBEBEB"/>
<path d="M564.785 399.538L575.832 401.442L584.022 353.928L572.975 352.024L564.785 399.538Z" fill="#EBEBEB"/>
<path d="M584.007 401.464H595.217V359.608H584.007V401.464Z" fill="#EBEBEB"/>
<path d="M610.739 399.011L621.682 401.443L630.762 360.584L619.82 358.152L610.739 399.011Z" fill="#EBEBEB"/>
<path d="M598.436 401.464H604.041V350.863H598.436V401.464Z" fill="#EBEBEB"/>
<path d="M674.157 200.882H637.514V513.139H674.157V200.882Z" fill="#E0E0E0"/>
<path d="M163.939 133.828C163.939 133.828 162.102 121.707 170.941 113.92C179.781 106.133 179.011 101.517 176.484 100.92C173.956 100.324 171.632 108.095 167.739 110.23C167.739 110.23 167.613 99.1463 171.569 95.0643C175.526 90.9823 177.583 80.4633 173.83 80.2749C170.078 80.0865 169.686 86.5549 168.901 91.0765C168.116 95.5981 163.939 102.067 163.939 102.067C163.939 102.067 163.123 92.1441 160.564 88.0621C158.005 83.9801 164.819 74.6387 162.134 70.5567C159.449 66.4747 154.849 74.2619 155.226 83.0067C155.603 91.7516 161.506 101.093 160.093 110.23C160.093 110.23 157.518 103.809 155.21 103.228C152.902 102.647 150.5 98.3927 148.93 96.8227C147.36 95.2527 145.429 100.701 148.93 105.756C152.431 110.811 161.38 124.329 160.014 135.272L163.939 133.828Z" fill="#E6E6E6"/>
<path d="M169.23 128.315L172.119 146.496C172.33 147.816 172.253 149.165 171.891 150.452C171.53 151.738 170.894 152.931 170.026 153.948C169.159 154.964 168.081 155.781 166.868 156.34C165.654 156.899 164.333 157.189 162.997 157.188H159.857C158.519 157.191 157.197 156.903 155.982 156.345C154.766 155.787 153.686 154.971 152.817 153.954C151.948 152.937 151.31 151.743 150.948 150.456C150.586 149.168 150.508 147.817 150.72 146.496L153.609 128.315H169.23Z" fill="#E6E6E6"/>
<path d="M125.396 161.003L330.187 161.003V150.484L125.396 150.484V161.003Z" fill="#E0E0E0"/>
<path d="M311.739 150.484H320.767V111.705H311.739V150.484Z" fill="#EBEBEB"/>
<path d="M268.124 150.484H277.151V111.705H268.124V150.484Z" fill="#EBEBEB"/>
<path d="M211.997 148.951L220.894 150.484L227.481 112.269L218.584 110.736L211.997 148.951Z" fill="#EBEBEB"/>
<path d="M300.559 150.484H309.587V116.808H300.559V150.484Z" fill="#EBEBEB"/>
<path d="M279.82 150.484H288.848V116.808H279.82V150.484Z" fill="#EBEBEB"/>
<path d="M227.477 150.484H236.505V116.808H227.477V150.484Z" fill="#EBEBEB"/>
<path d="M248.972 148.508L257.784 150.467L265.09 117.592L256.278 115.634L248.972 148.508Z" fill="#EBEBEB"/>
<path d="M292.773 150.469H297.279V109.759H292.773V150.469Z" fill="#EBEBEB"/>
<path d="M239.11 150.469H243.616V109.759H239.11V150.469Z" fill="#EBEBEB"/>
<path d="M330.202 229.031H125.411V239.55H330.202V229.031Z" fill="#E0E0E0"/>
<path d="M143.859 190.253H134.831V229.032H143.859V190.253Z" fill="#EBEBEB"/>
<path d="M187.488 190.253H178.461V229.032H187.488V190.253Z" fill="#EBEBEB"/>
<path d="M237.021 189.276L228.125 190.81L234.712 229.025L243.608 227.491L237.021 189.276Z" fill="#EBEBEB"/>
<path d="M155.036 195.354H146.009V229.031H155.036V195.354Z" fill="#EBEBEB"/>
<path d="M175.777 195.354H166.749V229.031H175.777V195.354Z" fill="#EBEBEB"/>
<path d="M228.12 195.354H219.093V229.031H228.12V195.354Z" fill="#EBEBEB"/>
<path d="M199.353 194.178L190.54 196.137L197.846 229.011L206.659 227.053L199.353 194.178Z" fill="#EBEBEB"/>
<path d="M162.824 188.321H158.318V229.031H162.824V188.321Z" fill="#EBEBEB"/>
<path d="M216.487 188.321H211.981V229.031H216.487V188.321Z" fill="#EBEBEB"/>
<path d="M310.546 198.339H266.586V228.687H310.546V198.339Z" fill="#EBEBEB"/>
<path d="M542.701 133.544C559.635 133.544 573.363 119.816 573.363 102.882C573.363 85.9476 559.635 72.2197 542.701 72.2197C525.767 72.2197 512.039 85.9476 512.039 102.882C512.039 119.816 525.767 133.544 542.701 133.544Z" fill="#E0E0E0"/>
<path d="M542.701 128.959C557.103 128.959 568.778 117.284 568.778 102.881C568.778 88.4791 557.103 76.8037 542.701 76.8037C528.298 76.8037 516.623 88.4791 516.623 102.881C516.623 117.284 528.298 128.959 542.701 128.959Z" fill="#F0F0F0"/>
<path d="M541.477 85V103.228L529.388 96.3825" fill="#F0F0F0"/>
<path d="M541.476 104.797C541.207 104.793 540.943 104.723 540.707 104.593L528.618 97.7481C528.256 97.5436 527.99 97.204 527.878 96.8038C527.766 96.4035 527.818 95.9753 528.021 95.6129C528.122 95.4317 528.259 95.2723 528.422 95.1441C528.585 95.0158 528.772 94.9212 528.972 94.8657C529.172 94.8103 529.381 94.795 529.587 94.8208C529.793 94.8467 529.992 94.9131 530.172 95.0163L539.906 100.527V84.9997C539.906 84.5833 540.071 84.184 540.366 83.8895C540.66 83.5951 541.06 83.4297 541.476 83.4297C541.892 83.4297 542.292 83.5951 542.586 83.8895C542.881 84.184 543.046 84.5833 543.046 84.9997V103.227C543.046 103.644 542.881 104.043 542.586 104.338C542.292 104.632 541.892 104.797 541.476 104.797Z" fill="#E0E0E0"/>
<path d="M392.499 584.919C560.619 584.919 696.906 576.962 696.906 567.146C696.906 557.331 560.619 549.374 392.499 549.374C224.38 549.374 88.0928 557.331 88.0928 567.146C88.0928 576.962 224.38 584.919 392.499 584.919Z" fill="#F5F5F5"/>
<path d="M663.341 114.108H350.88V409.959H663.341V114.108Z" fill="#82B4B8"/>
<path opacity="0.7" d="M663.341 114.108H350.88V409.959H663.341V114.108Z" fill="white"/>
<path d="M663.341 114.108H350.88V129.165H663.341V114.108Z" fill="#82B4B8"/>
<path opacity="0.2" d="M663.34 129.181H653.01V410.242H663.34V129.181Z" fill="black"/>
<path opacity="0.6" d="M658.757 135.838H657.815C656.359 135.838 655.178 137.019 655.178 138.475V172.356C655.178 173.813 656.359 174.994 657.815 174.994H658.757C660.214 174.994 661.395 173.813 661.395 172.356V138.475C661.395 137.019 660.214 135.838 658.757 135.838Z" fill="white"/>
<path opacity="0.2" d="M646.18 323.421H357.301C357.094 323.417 356.896 323.333 356.75 323.186C356.604 323.04 356.52 322.843 356.516 322.636C356.516 322.427 356.598 322.228 356.746 322.081C356.893 321.933 357.092 321.851 357.301 321.851H646.18C646.388 321.851 646.588 321.933 646.735 322.081C646.882 322.228 646.965 322.427 646.965 322.636C646.965 322.844 646.882 323.043 646.735 323.191C646.588 323.338 646.388 323.421 646.18 323.421Z" fill="black"/>
<path opacity="0.2" d="M646.18 255.91H357.301C357.094 255.906 356.896 255.822 356.75 255.675C356.604 255.529 356.52 255.332 356.516 255.125C356.516 254.917 356.598 254.717 356.746 254.57C356.893 254.423 357.092 254.34 357.301 254.34H646.18C646.388 254.34 646.588 254.423 646.735 254.57C646.882 254.717 646.965 254.917 646.965 255.125C646.965 255.333 646.882 255.533 646.735 255.68C646.588 255.827 646.388 255.91 646.18 255.91Z" fill="black"/>
<path d="M646.196 135.821H357.379V179.985H646.196V135.821Z" fill="#82B4B8"/>
<path opacity="0.6" d="M659.745 121.645C659.745 122.393 659.523 123.125 659.107 123.747C658.692 124.369 658.101 124.854 657.409 125.141C656.718 125.427 655.957 125.502 655.223 125.356C654.489 125.21 653.815 124.85 653.286 124.32C652.757 123.791 652.396 123.117 652.25 122.383C652.104 121.649 652.179 120.888 652.466 120.197C652.752 119.506 653.237 118.915 653.859 118.499C654.482 118.083 655.213 117.861 655.961 117.861C656.965 117.861 657.927 118.26 658.637 118.97C659.346 119.679 659.745 120.642 659.745 121.645Z" fill="white"/>
<path opacity="0.6" d="M646.4 121.645C646.4 122.393 646.178 123.125 645.763 123.747C645.347 124.369 644.756 124.854 644.065 125.141C643.373 125.427 642.613 125.502 641.879 125.356C641.145 125.21 640.47 124.85 639.941 124.32C639.412 123.791 639.052 123.117 638.906 122.383C638.76 121.649 638.835 120.888 639.121 120.197C639.407 119.506 639.892 118.915 640.515 118.499C641.137 118.083 641.868 117.861 642.617 117.861C643.62 117.861 644.583 118.26 645.292 118.97C646.002 119.679 646.4 120.642 646.4 121.645Z" fill="white"/>
<path opacity="0.6" d="M633.056 121.645C633.056 122.393 632.834 123.125 632.418 123.747C632.002 124.369 631.411 124.854 630.72 125.141C630.029 125.427 629.268 125.502 628.534 125.356C627.8 125.21 627.126 124.85 626.596 124.32C626.067 123.791 625.707 123.117 625.561 122.383C625.415 121.649 625.49 120.888 625.776 120.197C626.063 119.506 626.548 118.915 627.17 118.499C627.792 118.083 628.524 117.861 629.272 117.861C630.275 117.861 631.238 118.26 631.947 118.97C632.657 119.679 633.056 120.642 633.056 121.645Z" fill="white"/>
<path opacity="0.4" d="M369.751 209.565C367.922 209.565 366.134 209.023 364.614 208.006C363.093 206.99 361.908 205.546 361.208 203.856C360.508 202.167 360.325 200.307 360.682 198.514C361.038 196.72 361.919 195.072 363.212 193.779C364.506 192.486 366.153 191.605 367.947 191.248C369.741 190.891 371.6 191.074 373.29 191.774C374.98 192.474 376.424 193.659 377.44 195.18C378.456 196.701 378.998 198.489 378.998 200.318C378.994 202.769 378.019 205.119 376.285 206.852C374.552 208.585 372.202 209.561 369.751 209.565Z" fill="black"/>
<path d="M370.881 196.8V203.818H369.311V198.103H367.914V196.8H370.881Z" fill="white"/>
<path opacity="0.4" d="M633.699 191.353H387.696C386.708 191.353 385.906 192.154 385.906 193.142V194.257C385.906 195.245 386.708 196.047 387.696 196.047H633.699C634.687 196.047 635.489 195.245 635.489 194.257V193.142C635.489 192.154 634.687 191.353 633.699 191.353Z" fill="black"/>
<path opacity="0.4" d="M633.699 203.551H387.696C386.708 203.551 385.906 204.352 385.906 205.341V206.455C385.906 207.444 386.708 208.245 387.696 208.245H633.699C634.687 208.245 635.489 207.444 635.489 206.455V205.341C635.489 204.352 634.687 203.551 633.699 203.551Z" fill="black"/>
<path opacity="0.4" d="M548.605 215.734H387.696C386.708 215.734 385.906 216.536 385.906 217.524V218.639C385.906 219.627 386.708 220.429 387.696 220.429H548.605C549.593 220.429 550.395 219.627 550.395 218.639V217.524C550.395 216.536 549.593 215.734 548.605 215.734Z" fill="black"/>
<path opacity="0.2" d="M390.208 243.414C392.575 243.414 394.494 241.495 394.494 239.128C394.494 236.761 392.575 234.842 390.208 234.842C387.841 234.842 385.922 236.761 385.922 239.128C385.922 241.495 387.841 243.414 390.208 243.414Z" fill="black"/>
<path d="M393.16 239.127C393.163 239.716 392.991 240.291 392.667 240.782C392.342 241.272 391.878 241.655 391.336 241.882C390.793 242.108 390.195 242.168 389.618 242.054C389.041 241.94 388.511 241.657 388.095 241.241C387.679 240.825 387.396 240.295 387.282 239.718C387.168 239.141 387.228 238.543 387.454 238C387.681 237.457 388.064 236.994 388.554 236.669C389.044 236.345 389.62 236.173 390.209 236.176C390.991 236.176 391.742 236.487 392.296 237.04C392.849 237.594 393.16 238.345 393.16 239.127Z" fill="white"/>
<path opacity="0.4" d="M445.755 236.788H404.213C403.224 236.788 402.423 237.589 402.423 238.578V239.693C402.423 240.681 403.224 241.482 404.213 241.482H445.755C446.743 241.482 447.545 240.681 447.545 239.693V238.578C447.545 237.589 446.743 236.788 445.755 236.788Z" fill="black"/>
<path opacity="0.2" d="M481.582 239.033C481.582 239.881 481.331 240.71 480.86 241.414C480.389 242.119 479.719 242.669 478.936 242.993C478.153 243.317 477.291 243.402 476.46 243.237C475.628 243.072 474.865 242.663 474.265 242.064C473.666 241.464 473.257 240.701 473.092 239.869C472.927 239.038 473.012 238.176 473.336 237.393C473.66 236.61 474.21 235.94 474.915 235.469C475.619 234.998 476.448 234.747 477.296 234.747C478.433 234.747 479.523 235.199 480.327 236.002C481.13 236.806 481.582 237.896 481.582 239.033Z" fill="black"/>
<path d="M480.263 239.033C480.266 239.62 480.094 240.195 479.77 240.685C479.446 241.175 478.984 241.558 478.442 241.785C477.9 242.012 477.303 242.073 476.726 241.961C476.15 241.848 475.619 241.566 475.203 241.152C474.786 240.738 474.502 240.209 474.386 239.633C474.271 239.057 474.328 238.46 474.553 237.916C474.777 237.373 475.157 236.909 475.645 236.582C476.134 236.255 476.708 236.081 477.295 236.081C478.08 236.081 478.832 236.392 479.388 236.945C479.944 237.498 480.259 238.248 480.263 239.033Z" fill="#82B4B8"/>
<path opacity="0.4" d="M532.873 236.693H491.315C490.327 236.693 489.525 237.495 489.525 238.483V239.598C489.525 240.586 490.327 241.388 491.315 241.388H532.873C533.862 241.388 534.663 240.586 534.663 239.598V238.483C534.663 237.495 533.862 236.693 532.873 236.693Z" fill="black"/>
<path opacity="0.2" d="M568.685 238.938C568.685 239.786 568.434 240.615 567.963 241.32C567.492 242.025 566.823 242.574 566.04 242.898C565.256 243.223 564.395 243.308 563.563 243.142C562.732 242.977 561.968 242.569 561.369 241.969C560.769 241.37 560.361 240.606 560.196 239.775C560.03 238.943 560.115 238.081 560.44 237.298C560.764 236.515 561.313 235.846 562.018 235.375C562.723 234.904 563.552 234.652 564.399 234.652C565.536 234.652 566.626 235.104 567.43 235.908C568.234 236.711 568.685 237.802 568.685 238.938Z" fill="black"/>
<path d="M567.367 238.939C567.367 239.526 567.193 240.1 566.867 240.587C566.541 241.075 566.078 241.456 565.535 241.68C564.993 241.905 564.397 241.964 563.821 241.849C563.245 241.735 562.717 241.452 562.302 241.037C561.887 240.622 561.604 240.093 561.49 239.518C561.375 238.942 561.434 238.346 561.658 237.803C561.883 237.261 562.263 236.798 562.751 236.472C563.239 236.146 563.813 235.972 564.4 235.972C565.187 235.972 565.942 236.284 566.498 236.841C567.055 237.397 567.367 238.152 567.367 238.939Z" fill="white"/>
<path opacity="0.4" d="M619.962 236.584H578.42C577.431 236.584 576.63 237.385 576.63 238.374V239.488C576.63 240.477 577.431 241.278 578.42 241.278H619.962C620.95 241.278 621.752 240.477 621.752 239.488V238.374C621.752 237.385 620.95 236.584 619.962 236.584Z" fill="black"/>
<path opacity="0.4" d="M369.751 287.781C374.858 287.781 378.998 283.641 378.998 278.533C378.998 273.426 374.858 269.286 369.751 269.286C364.644 269.286 360.504 273.426 360.504 278.533C360.504 283.641 364.644 287.781 369.751 287.781Z" fill="black"/>
<path d="M372.42 280.779V282.098H367.129V281.03L369.83 278.471C370.458 277.875 370.568 277.514 370.568 277.184C370.568 276.854 370.191 276.305 369.437 276.305C369.157 276.295 368.879 276.355 368.627 276.478C368.375 276.601 368.157 276.784 367.993 277.011L366.815 276.242C367.136 275.814 367.558 275.471 368.042 275.244C368.527 275.016 369.06 274.912 369.594 274.939C371.164 274.939 372.201 275.739 372.201 277.011C372.191 277.447 372.08 277.874 371.876 278.258C371.671 278.643 371.379 278.974 371.023 279.225L369.453 280.795L372.42 280.779Z" fill="white"/>
<path opacity="0.4" d="M633.699 269.616H387.696C386.708 269.616 385.906 270.418 385.906 271.406V272.521C385.906 273.509 386.708 274.311 387.696 274.311H633.699C634.687 274.311 635.489 273.509 635.489 272.521V271.406C635.489 270.418 634.687 269.616 633.699 269.616Z" fill="black"/>
<path opacity="0.4" d="M434.451 281.8H387.696C386.708 281.8 385.906 282.601 385.906 283.59V284.704C385.906 285.693 386.708 286.494 387.696 286.494H434.451C435.439 286.494 436.24 285.693 436.24 284.704V283.59C436.24 282.601 435.439 281.8 434.451 281.8Z" fill="black"/>
<path opacity="0.2" d="M390.208 309.29C392.575 309.29 394.494 307.371 394.494 305.004C394.494 302.637 392.575 300.718 390.208 300.718C387.841 300.718 385.922 302.637 385.922 305.004C385.922 307.371 387.841 309.29 390.208 309.29Z" fill="black"/>
<path d="M390.209 307.972C391.847 307.972 393.176 306.643 393.176 305.004C393.176 303.366 391.847 302.037 390.209 302.037C388.57 302.037 387.241 303.366 387.241 305.004C387.241 306.643 388.57 307.972 390.209 307.972Z" fill="white"/>
<path opacity="0.4" d="M445.755 302.665H404.213C403.224 302.665 402.423 303.466 402.423 304.455V305.57C402.423 306.558 403.224 307.359 404.213 307.359H445.755C446.743 307.359 447.545 306.558 447.545 305.57V304.455C447.545 303.466 446.743 302.665 445.755 302.665Z" fill="black"/>
<path opacity="0.2" d="M477.296 309.196C479.663 309.196 481.582 307.277 481.582 304.91C481.582 302.543 479.663 300.624 477.296 300.624C474.929 300.624 473.01 302.543 473.01 304.91C473.01 307.277 474.929 309.196 477.296 309.196Z" fill="black"/>
<path d="M477.295 307.878C478.934 307.878 480.263 306.549 480.263 304.911C480.263 303.272 478.934 301.943 477.295 301.943C475.657 301.943 474.328 303.272 474.328 304.911C474.328 306.549 475.657 307.878 477.295 307.878Z" fill="white"/>
<path opacity="0.4" d="M532.873 302.556H491.315C490.327 302.556 489.525 303.357 489.525 304.345V305.46C489.525 306.449 490.327 307.25 491.315 307.25H532.873C533.862 307.25 534.663 306.449 534.663 305.46V304.345C534.663 303.357 533.862 302.556 532.873 302.556Z" fill="black"/>
<path opacity="0.2" d="M568.685 304.815C568.685 305.663 568.434 306.492 567.963 307.197C567.492 307.901 566.823 308.451 566.04 308.775C565.256 309.1 564.395 309.185 563.563 309.019C562.732 308.854 561.968 308.446 561.369 307.846C560.769 307.247 560.361 306.483 560.196 305.652C560.03 304.82 560.115 303.958 560.44 303.175C560.764 302.392 561.313 301.723 562.018 301.252C562.723 300.781 563.552 300.529 564.399 300.529C565.536 300.529 566.626 300.981 567.43 301.785C568.234 302.588 568.685 303.679 568.685 304.815Z" fill="black"/>
<path d="M567.367 304.815C567.367 305.402 567.193 305.976 566.867 306.463C566.541 306.951 566.078 307.332 565.535 307.556C564.993 307.781 564.397 307.84 563.821 307.725C563.245 307.611 562.717 307.328 562.302 306.913C561.887 306.498 561.604 305.969 561.49 305.394C561.375 304.818 561.434 304.222 561.658 303.679C561.883 303.137 562.263 302.674 562.751 302.348C563.239 302.022 563.813 301.848 564.4 301.848C565.187 301.848 565.942 302.16 566.498 302.717C567.055 303.273 567.367 304.028 567.367 304.815Z" fill="#82B4B8"/>
<path opacity="0.4" d="M619.962 302.461H578.42C577.431 302.461 576.63 303.262 576.63 304.251V305.365C576.63 306.354 577.431 307.155 578.42 307.155H619.962C620.95 307.155 621.752 306.354 621.752 305.365V304.251C621.752 303.262 620.95 302.461 619.962 302.461Z" fill="black"/>
<path opacity="0.4" d="M369.751 355.7C367.922 355.7 366.134 355.157 364.614 354.141C363.093 353.125 361.908 351.681 361.208 349.991C360.508 348.301 360.325 346.442 360.682 344.648C361.038 342.854 361.919 341.207 363.212 339.914C364.506 338.62 366.153 337.74 367.947 337.383C369.741 337.026 371.6 337.209 373.29 337.909C374.98 338.609 376.424 339.794 377.44 341.315C378.456 342.836 378.998 344.623 378.998 346.452C378.998 348.905 378.024 351.257 376.29 352.991C374.556 354.725 372.204 355.7 369.751 355.7Z" fill="black"/>
<path d="M372.358 347.755C372.358 348.933 371.447 350.016 369.453 350.016C368.508 350.039 367.578 349.776 366.784 349.263L367.412 348.022C367.996 348.433 368.693 348.652 369.406 348.65C370.222 348.65 370.725 348.321 370.725 347.755C370.725 347.19 370.332 346.892 369.406 346.892H368.668V345.824L370.113 344.254H367.13V342.951H372.091V344.003L370.521 345.809C371.015 345.844 371.478 346.064 371.818 346.424C372.159 346.785 372.351 347.26 372.358 347.755Z" fill="white"/>
<path opacity="0.4" d="M633.699 337.472H387.696C386.708 337.472 385.906 338.273 385.906 339.261V340.376C385.906 341.365 386.708 342.166 387.696 342.166H633.699C634.687 342.166 635.489 341.365 635.489 340.376V339.261C635.489 338.273 634.687 337.472 633.699 337.472Z" fill="black"/>
<path opacity="0.4" d="M633.699 349.655H387.696C386.708 349.655 385.906 350.457 385.906 351.445V352.56C385.906 353.548 386.708 354.35 387.696 354.35H633.699C634.687 354.35 635.489 353.548 635.489 352.56V351.445C635.489 350.457 634.687 349.655 633.699 349.655Z" fill="black"/>
<path opacity="0.4" d="M510.925 361.854H387.696C386.708 361.854 385.906 362.655 385.906 363.643V364.758C385.906 365.746 386.708 366.548 387.696 366.548H510.925C511.914 366.548 512.715 365.746 512.715 364.758V363.643C512.715 362.655 511.914 361.854 510.925 361.854Z" fill="black"/>
<path opacity="0.4" d="M480.954 381.259H473.638C473.291 381.259 473.01 381.54 473.01 381.887V389.203C473.01 389.55 473.291 389.831 473.638 389.831H480.954C481.301 389.831 481.582 389.55 481.582 389.203V381.887C481.582 381.54 481.301 381.259 480.954 381.259Z" fill="black"/>
<path d="M480.562 388.81V382.295H474.046V388.81H480.562Z" fill="white"/>
<path opacity="0.4" d="M532.873 383.206H491.315C490.327 383.206 489.525 384.007 489.525 384.996V386.111C489.525 387.099 490.327 387.9 491.315 387.9H532.873C533.862 387.9 534.663 387.099 534.663 386.111V384.996C534.663 384.007 533.862 383.206 532.873 383.206Z" fill="black"/>
<path d="M476.951 387.43C476.901 387.431 476.852 387.422 476.806 387.403C476.76 387.384 476.718 387.356 476.684 387.32L475.114 385.844C475.041 385.768 475 385.667 475 385.561C475 385.456 475.041 385.355 475.114 385.279C475.15 385.241 475.194 385.211 475.243 385.19C475.291 385.169 475.343 385.159 475.396 385.159C475.449 385.159 475.501 385.169 475.55 385.19C475.598 385.211 475.642 385.241 475.679 385.279L477.013 386.488L479.29 383.787C479.356 383.706 479.453 383.655 479.557 383.644C479.662 383.634 479.766 383.666 479.847 383.732C479.928 383.799 479.98 383.895 479.99 384C480 384.104 479.969 384.209 479.902 384.29L477.28 387.288C477.211 387.366 477.116 387.416 477.013 387.43H476.951Z" fill="#82B4B8"/>
<path opacity="0.4" d="M568.057 381.165H560.741C560.394 381.165 560.113 381.446 560.113 381.793V389.109C560.113 389.456 560.394 389.737 560.741 389.737H568.057C568.404 389.737 568.685 389.456 568.685 389.109V381.793C568.685 381.446 568.404 381.165 568.057 381.165Z" fill="black"/>
<path d="M567.649 388.717V382.201H561.134V388.717H567.649Z" fill="white"/>
<path opacity="0.4" d="M619.962 383.097H578.42C577.431 383.097 576.63 383.898 576.63 384.886V386.001C576.63 386.99 577.431 387.791 578.42 387.791H619.962C620.95 387.791 621.752 386.99 621.752 386.001V384.886C621.752 383.898 620.95 383.097 619.962 383.097Z" fill="black"/>
<path d="M564.054 387.335C563.955 387.33 563.861 387.291 563.787 387.225L562.217 385.734C562.171 385.701 562.133 385.659 562.105 385.611C562.077 385.562 562.059 385.508 562.054 385.452C562.048 385.397 562.055 385.34 562.073 385.287C562.091 385.234 562.12 385.185 562.159 385.144C562.197 385.104 562.244 385.072 562.296 385.05C562.348 385.029 562.404 385.02 562.46 385.022C562.516 385.024 562.571 385.038 562.621 385.064C562.672 385.089 562.716 385.125 562.751 385.169L564.07 386.378L566.362 383.677C566.392 383.631 566.432 383.592 566.479 383.563C566.526 383.533 566.578 383.514 566.633 383.506C566.688 383.498 566.743 383.502 566.797 383.517C566.85 383.532 566.899 383.559 566.941 383.594C566.984 383.63 567.018 383.674 567.042 383.724C567.066 383.774 567.079 383.828 567.081 383.883C567.083 383.938 567.072 383.993 567.051 384.044C567.03 384.096 566.998 384.142 566.958 384.18L564.415 387.194C564.339 387.271 564.24 387.321 564.132 387.335H564.054Z" fill="#82B4B8"/>
<path opacity="0.4" d="M393.85 381.354H386.534C386.187 381.354 385.906 381.635 385.906 381.982V389.298C385.906 389.645 386.187 389.926 386.534 389.926H393.85C394.197 389.926 394.478 389.645 394.478 389.298V381.982C394.478 381.635 394.197 381.354 393.85 381.354Z" fill="black"/>
<path d="M393.459 388.905V382.39H386.944V388.905H393.459Z" fill="white"/>
<path opacity="0.4" d="M445.755 383.3H404.213C403.224 383.3 402.423 384.101 402.423 385.09V386.204C402.423 387.193 403.224 387.994 404.213 387.994H445.755C446.743 387.994 447.545 387.193 447.545 386.204V385.09C447.545 384.101 446.743 383.3 445.755 383.3Z" fill="black"/>
<path d="M375.672 156.096H381.056V156.768C381.056 157.525 380.928 158.232 380.672 158.888C380.421 159.544 380.061 160.12 379.592 160.616C379.123 161.112 378.563 161.499 377.912 161.776C377.261 162.053 376.541 162.192 375.752 162.192C374.936 162.192 374.195 162.053 373.528 161.776C372.867 161.493 372.296 161.101 371.816 160.6C371.336 160.099 370.968 159.517 370.712 158.856C370.456 158.189 370.328 157.475 370.328 156.712C370.328 155.955 370.456 155.245 370.712 154.584C370.968 153.917 371.336 153.336 371.816 152.84C372.296 152.339 372.867 151.949 373.528 151.672C374.195 151.389 374.936 151.248 375.752 151.248C376.419 151.248 377.005 151.32 377.512 151.464C378.024 151.608 378.464 151.8 378.832 152.04C379.2 152.28 379.512 152.544 379.768 152.832C380.024 153.115 380.237 153.392 380.408 153.664L378.136 154.736C377.917 154.4 377.619 154.107 377.24 153.856C376.867 153.605 376.371 153.48 375.752 153.48C375.32 153.48 374.923 153.565 374.56 153.736C374.203 153.907 373.893 154.141 373.632 154.44C373.371 154.733 373.168 155.077 373.024 155.472C372.885 155.861 372.816 156.275 372.816 156.712C372.816 157.155 372.885 157.571 373.024 157.96C373.168 158.349 373.371 158.693 373.632 158.992C373.893 159.291 374.203 159.525 374.56 159.696C374.923 159.861 375.32 159.944 375.752 159.944C376.131 159.944 376.475 159.896 376.784 159.8C377.093 159.704 377.36 159.565 377.584 159.384C377.813 159.203 377.992 158.989 378.12 158.744C378.253 158.493 378.333 158.219 378.36 157.92H375.672V156.096ZM384.742 158.472C384.742 158.995 384.84 159.413 385.038 159.728C385.235 160.037 385.566 160.192 386.03 160.192C386.504 160.192 386.838 160.037 387.03 159.728C387.227 159.413 387.326 158.995 387.326 158.472V155.432H389.726V158.728C389.726 159.432 389.579 160.045 389.286 160.568C388.998 161.085 388.579 161.485 388.03 161.768C387.48 162.051 386.814 162.192 386.03 162.192C385.251 162.192 384.587 162.051 384.038 161.768C383.488 161.485 383.07 161.085 382.782 160.568C382.494 160.045 382.35 159.432 382.35 158.728V155.432H384.742V158.472ZM391.283 162V155.432H393.715V162H391.283ZM392.531 154.08C392.147 154.08 391.822 153.947 391.555 153.68C391.289 153.408 391.155 153.085 391.155 152.712C391.155 152.339 391.289 152.016 391.555 151.744C391.827 151.467 392.153 151.328 392.531 151.328C392.782 151.328 393.011 151.392 393.219 151.52C393.427 151.643 393.595 151.808 393.723 152.016C393.851 152.224 393.915 152.456 393.915 152.712C393.915 153.085 393.779 153.408 393.507 153.68C393.235 153.947 392.91 154.08 392.531 154.08ZM398.207 162.192C397.572 162.192 397.02 162.037 396.551 161.728C396.081 161.413 395.716 160.995 395.455 160.472C395.199 159.944 395.071 159.36 395.071 158.72C395.071 158.08 395.199 157.499 395.455 156.976C395.716 156.448 396.081 156.027 396.551 155.712C397.02 155.397 397.572 155.24 398.207 155.24C398.628 155.24 399.001 155.307 399.327 155.44C399.652 155.568 399.916 155.723 400.119 155.904C400.321 156.08 400.444 156.243 400.487 156.392V150.992H402.919V162H400.511V160.936C400.409 161.133 400.244 161.331 400.015 161.528C399.785 161.72 399.516 161.877 399.207 162C398.897 162.128 398.564 162.192 398.207 162.192ZM398.951 160.28C399.244 160.28 399.505 160.213 399.735 160.08C399.969 159.947 400.153 159.763 400.287 159.528C400.42 159.288 400.487 159.019 400.487 158.72C400.487 158.421 400.42 158.155 400.287 157.92C400.153 157.68 399.969 157.493 399.735 157.36C399.505 157.221 399.244 157.152 398.951 157.152C398.668 157.152 398.412 157.221 398.183 157.36C397.959 157.493 397.78 157.68 397.647 157.92C397.519 158.155 397.455 158.421 397.455 158.72C397.455 159.019 397.519 159.288 397.647 159.528C397.78 159.763 397.959 159.947 398.183 160.08C398.412 160.213 398.668 160.28 398.951 160.28ZM406.264 159.232C406.28 159.467 406.355 159.675 406.488 159.856C406.622 160.037 406.806 160.181 407.04 160.288C407.28 160.389 407.563 160.44 407.888 160.44C408.198 160.44 408.475 160.408 408.72 160.344C408.971 160.28 409.187 160.2 409.368 160.104C409.555 160.008 409.699 159.909 409.8 159.808L410.744 161.312C410.611 161.456 410.422 161.597 410.176 161.736C409.936 161.869 409.619 161.979 409.224 162.064C408.83 162.149 408.331 162.192 407.728 162.192C407.003 162.192 406.358 162.056 405.792 161.784C405.227 161.512 404.782 161.112 404.456 160.584C404.131 160.056 403.968 159.411 403.968 158.648C403.968 158.008 404.107 157.432 404.384 156.92C404.667 156.403 405.075 155.995 405.608 155.696C406.142 155.392 406.784 155.24 407.536 155.24C408.251 155.24 408.87 155.371 409.392 155.632C409.92 155.893 410.326 156.283 410.608 156.8C410.896 157.312 411.04 157.952 411.04 158.72C411.04 158.763 411.038 158.848 411.032 158.976C411.032 159.104 411.027 159.189 411.016 159.232H406.264ZM408.752 157.96C408.747 157.789 408.702 157.621 408.616 157.456C408.531 157.285 408.403 157.147 408.232 157.04C408.062 156.928 407.843 156.872 407.576 156.872C407.31 156.872 407.083 156.925 406.896 157.032C406.715 157.133 406.576 157.267 406.48 157.432C406.384 157.597 406.331 157.773 406.32 157.96H408.752ZM412.377 151.44H414.769V162H412.377V151.44ZM418.46 153.536H415.94V151.44H423.364V153.536H420.852V162H418.46V153.536ZM436.795 162.328C437.099 162.328 437.371 162.291 437.611 162.216C437.856 162.147 438.053 162.072 438.203 161.992C438.352 161.912 438.437 161.859 438.459 161.832L439.267 163.4C439.107 163.667 438.816 163.92 438.395 164.16C437.979 164.4 437.451 164.52 436.811 164.52C436.416 164.52 436.08 164.475 435.803 164.384C435.531 164.293 435.277 164.187 435.043 164.064C434.808 163.947 434.552 163.843 434.275 163.752C434.003 163.661 433.667 163.616 433.267 163.616C432.941 163.616 432.653 163.664 432.403 163.76C432.152 163.861 431.955 163.963 431.811 164.064C431.672 164.165 431.597 164.227 431.587 164.248L430.611 163.096C430.936 162.717 431.371 162.405 431.915 162.16C432.459 161.92 433.077 161.8 433.771 161.8C434.213 161.8 434.597 161.845 434.923 161.936C435.248 162.021 435.555 162.107 435.843 162.192C436.136 162.283 436.453 162.328 436.795 162.328ZM431.035 156.712C431.035 157.315 431.157 157.861 431.403 158.352C431.653 158.837 431.997 159.224 432.435 159.512C432.877 159.8 433.389 159.944 433.971 159.944C434.552 159.944 435.061 159.8 435.499 159.512C435.941 159.224 436.285 158.837 436.531 158.352C436.781 157.861 436.907 157.315 436.907 156.712C436.907 156.109 436.781 155.565 436.531 155.08C436.285 154.595 435.941 154.208 435.499 153.92C435.061 153.627 434.552 153.48 433.971 153.48C433.389 153.48 432.877 153.627 432.435 153.92C431.997 154.208 431.653 154.595 431.403 155.08C431.157 155.565 431.035 156.109 431.035 156.712ZM428.547 156.712C428.547 155.944 428.683 155.229 428.955 154.568C429.227 153.901 429.608 153.32 430.099 152.824C430.589 152.328 431.165 151.941 431.827 151.664C432.488 151.387 433.203 151.248 433.971 151.248C434.749 151.248 435.467 151.387 436.123 151.664C436.784 151.941 437.357 152.328 437.843 152.824C438.333 153.32 438.712 153.901 438.979 154.568C439.251 155.229 439.387 155.944 439.387 156.712C439.387 157.485 439.256 158.205 438.995 158.872C438.733 159.533 438.36 160.115 437.875 160.616C437.389 161.112 436.816 161.499 436.155 161.776C435.493 162.053 434.765 162.192 433.971 162.192C433.16 162.192 432.421 162.053 431.755 161.776C431.093 161.499 430.523 161.112 430.043 160.616C429.563 160.115 429.192 159.533 428.931 158.872C428.675 158.205 428.547 157.485 428.547 156.712ZM442.882 158.472C442.882 158.995 442.981 159.413 443.178 159.728C443.376 160.037 443.706 160.192 444.17 160.192C444.645 160.192 444.978 160.037 445.17 159.728C445.368 159.413 445.466 158.995 445.466 158.472V155.432H447.866V158.728C447.866 159.432 447.72 160.045 447.426 160.568C447.138 161.085 446.72 161.485 446.17 161.768C445.621 162.051 444.954 162.192 444.17 162.192C443.392 162.192 442.728 162.051 442.178 161.768C441.629 161.485 441.21 161.085 440.922 160.568C440.634 160.045 440.49 159.432 440.49 158.728V155.432H442.882V158.472ZM449.424 162V155.432H451.856V162H449.424ZM450.672 154.08C450.288 154.08 449.963 153.947 449.696 153.68C449.429 153.408 449.296 153.085 449.296 152.712C449.296 152.339 449.429 152.016 449.696 151.744C449.968 151.467 450.293 151.328 450.672 151.328C450.923 151.328 451.152 151.392 451.36 151.52C451.568 151.643 451.736 151.808 451.864 152.016C451.992 152.224 452.056 152.456 452.056 152.712C452.056 153.085 451.92 153.408 451.648 153.68C451.376 153.947 451.051 154.08 450.672 154.08ZM453.355 155.432H459.859L456.579 160.304H459.603V162H452.827L456.099 157.12H453.355V155.432Z" fill="#FCFCFC"/>
<path d="M597.212 541.304C597.212 541.304 603.994 509.229 591.639 491.865C579.283 474.5 602.801 491.66 605.517 507.926C605.517 507.926 609.568 478.849 597.573 458.408C585.578 437.967 608.014 454.734 609.929 475.819C609.929 475.819 613.603 449.883 608.092 435.298C602.581 420.712 612.158 430.101 615.848 439.238C619.537 448.376 614.702 470.999 614.702 470.999C614.702 470.999 624.31 429.159 633.416 432.487C642.522 435.816 619.804 463.228 616.664 477.483C616.664 477.483 627.387 458.298 635.504 462.301C643.621 466.305 622.944 468.283 613.399 496.841L610.086 510.249C610.086 510.249 619.961 491.315 626.414 497.297C632.867 503.278 607.276 513.578 601.294 542.277L597.212 541.304Z" fill="#263238"/>
<path d="M598.546 543.219C598.546 543.219 599.959 502.791 619.945 485.678C639.932 468.565 606.632 482.114 598.546 500.782C598.546 500.782 602.346 464.75 622.787 443.822C643.228 422.894 611.373 436.333 602.817 460.998C602.817 460.998 606.145 428.844 617.088 413.035C628.031 397.225 613.76 405.577 606.632 415.421C599.504 425.265 598.546 453.729 598.546 453.729C598.546 453.729 599.488 400.757 587.556 402.045C575.624 403.332 594.684 442.865 594.213 460.919C594.213 460.919 587.07 434.748 576.143 437.103C565.215 439.458 589.456 448.093 592.313 485.113V502.179C592.313 502.179 586.128 476.557 576.614 481.769C567.099 486.981 594.684 506.983 593.255 543.125L598.546 543.219Z" fill="#263238"/>
<path opacity="0.2" d="M598.546 543.219C598.546 543.219 599.959 502.791 619.945 485.678C639.932 468.565 606.632 482.114 598.546 500.782C598.546 500.782 602.346 464.75 622.787 443.822C643.228 422.894 611.373 436.333 602.817 460.998C602.817 460.998 606.145 428.844 617.088 413.035C628.031 397.225 613.76 405.577 606.632 415.421C599.504 425.265 598.546 453.729 598.546 453.729C598.546 453.729 599.488 400.757 587.556 402.045C575.624 403.332 594.684 442.865 594.213 460.919C594.213 460.919 587.07 434.748 576.143 437.103C565.215 439.458 589.456 448.093 592.313 485.113V502.179C592.313 502.179 586.128 476.557 576.614 481.769C567.099 486.981 594.684 506.983 593.255 543.125L598.546 543.219Z" fill="white"/>
<path d="M608.407 571.621H584.198C579.617 571.621 575.225 569.802 571.986 566.563C568.747 563.324 566.928 558.931 566.928 554.351V551.101H625.661V554.351C625.661 558.929 623.844 563.319 620.608 566.557C617.373 569.796 612.984 571.617 608.407 571.621Z" fill="#82B4B8"/>
<path d="M565.859 557.616H626.744C630.394 557.616 633.354 554.657 633.354 551.007V545.857C633.354 542.207 630.394 539.247 626.744 539.247H565.859C562.209 539.247 559.25 542.207 559.25 545.857V551.007C559.25 554.657 562.209 557.616 565.859 557.616Z" fill="#82B4B8"/>
<path opacity="0.2" d="M565.859 557.616H626.744C630.394 557.616 633.354 554.657 633.354 551.007V545.857C633.354 542.207 630.394 539.247 626.744 539.247H565.859C562.209 539.247 559.25 542.207 559.25 545.857V551.007C559.25 554.657 562.209 557.616 565.859 557.616Z" fill="white"/>
<path d="M269.584 350.849C269.365 351.303 269.27 351.807 269.31 352.309C269.349 352.811 269.521 353.294 269.809 353.708C270.097 354.122 270.489 354.452 270.946 354.664C271.403 354.876 271.909 354.963 272.41 354.915H346.765C348.001 354.856 349.194 354.44 350.199 353.719C351.205 352.998 351.981 352.001 352.433 350.849L368.133 305.476C368.289 305.054 368.369 304.608 368.368 304.157C368.366 303.77 368.283 303.388 368.124 303.034C367.965 302.681 367.734 302.365 367.446 302.106C367.157 301.848 366.818 301.652 366.45 301.532C366.082 301.412 365.692 301.371 365.307 301.41H290.999C289.763 301.469 288.57 301.885 287.565 302.606C286.559 303.328 285.784 304.324 285.331 305.476L269.584 350.849Z" fill="#263238"/>
<path d="M347.33 352.638C347.937 352.61 348.522 352.407 349.015 352.053C349.508 351.699 349.888 351.21 350.109 350.644L365.809 305.271C365.875 305.09 365.907 304.899 365.903 304.706C365.903 304.078 365.448 303.686 364.726 303.686H290.449C289.843 303.714 289.258 303.917 288.765 304.271C288.271 304.625 287.891 305.114 287.671 305.679L271.971 351.052C271.89 351.236 271.855 351.435 271.869 351.635C271.883 351.835 271.945 352.028 272.049 352.198C272.166 352.35 272.32 352.469 272.495 352.546C272.671 352.623 272.863 352.655 273.054 352.638H347.33Z" fill="#82B4B8"/>
<path opacity="0.8" d="M347.33 352.638C347.937 352.61 348.522 352.407 349.015 352.053C349.508 351.699 349.888 351.21 350.109 350.644L365.809 305.271C365.875 305.09 365.907 304.899 365.903 304.706C365.903 304.078 365.448 303.686 364.726 303.686H290.449C289.843 303.714 289.258 303.917 288.765 304.271C288.271 304.625 287.891 305.114 287.671 305.679L271.971 351.052C271.89 351.236 271.855 351.435 271.869 351.635C271.883 351.835 271.945 352.028 272.049 352.198C272.166 352.35 272.32 352.469 272.495 352.546C272.671 352.623 272.863 352.655 273.054 352.638H347.33Z" fill="white"/>
<path d="M237.76 351.556V353.644L252.486 357.427H346.419C347.115 357.427 347.782 357.151 348.273 356.659C348.765 356.168 349.041 355.501 349.041 354.806V351.556H237.76Z" fill="#263238"/>
<path opacity="0.2" d="M316.354 351.556V353.644L331.096 357.427H252.486L237.76 353.644V351.556H316.354Z" fill="white"/>
<g opacity="0.2">
<path d="M361.131 314.347H285.976L288.896 306.151H364.052L361.131 314.347Z" fill="#82B4B8"/>
</g>
<g opacity="0.1">
<path d="M357.362 324.897H282.206C281.986 324.897 281.876 324.725 281.955 324.489C281.998 324.379 282.07 324.282 282.164 324.21C282.259 324.138 282.371 324.093 282.489 324.081H357.66C357.864 324.081 357.974 324.269 357.896 324.489C357.858 324.603 357.787 324.703 357.692 324.776C357.597 324.848 357.482 324.891 357.362 324.897Z" fill="black"/>
</g>
<g opacity="0.1">
<path d="M353.249 336.405H278.093C277.873 336.405 277.763 336.217 277.842 335.997C277.886 335.884 277.96 335.786 278.058 335.714C278.155 335.642 278.27 335.598 278.391 335.589H353.547C353.767 335.589 353.877 335.762 353.798 335.997C353.754 336.11 353.679 336.208 353.582 336.28C353.485 336.352 353.369 336.396 353.249 336.405Z" fill="black"/>
</g>
<g opacity="0.1">
<path d="M349.152 347.913H273.996C273.776 347.913 273.667 347.725 273.745 347.505C273.782 347.389 273.852 347.287 273.947 347.212C274.043 347.136 274.158 347.091 274.279 347.081H349.435C349.654 347.081 349.764 347.269 349.686 347.505C349.645 347.617 349.573 347.714 349.478 347.786C349.384 347.859 349.27 347.903 349.152 347.913Z" fill="black"/>
</g>
<path d="M324.157 571.434H332.337L347.048 366.644H336.183L324.157 571.434Z" fill="#263238"/>
<path opacity="0.2" d="M324.142 571.434H332.337L346.326 376.818L347.048 366.974H336.183L335.603 376.818L324.142 571.434Z" fill="white"/>
<path opacity="0.2" d="M335.602 376.331H346.325L347.047 366.974H336.182L335.602 376.331Z" fill="black"/>
<path d="M264.074 571.434H272.253L273.588 366.644H262.739L264.074 571.434Z" fill="#263238"/>
<path opacity="0.3" d="M262.723 366.974L262.942 400.006L264.057 571.434H272.253L273.383 400.006L273.587 366.974H262.723Z" fill="white"/>
<path opacity="0.2" d="M262.723 366.974L262.942 400.383H273.383L273.587 366.974H262.723Z" fill="black"/>
<path d="M177.158 571.434H185.338L200.049 366.644H189.184L177.158 571.434Z" fill="#263238"/>
<path opacity="0.3" d="M177.158 571.434H185.338L199.342 376.818L200.049 366.974H189.184L188.603 376.818L177.158 571.434Z" fill="white"/>
<path opacity="0.2" d="M188.604 376.331H199.342L200.049 366.974H189.184L188.604 376.331Z" fill="black"/>
<path d="M417.807 571.434H425.986L413.96 366.644H403.096L417.807 571.434Z" fill="#263238"/>
<path opacity="0.3" d="M403.096 366.974L403.818 376.818L417.807 571.434H425.986L414.541 376.818L413.96 366.974H403.096Z" fill="white"/>
<path opacity="0.2" d="M413.96 366.974H403.096L403.818 376.331H414.541L413.96 366.974Z" fill="black"/>
<path d="M419.174 371.777L183.957 371.777C183.512 371.777 183.071 371.69 182.659 371.519C182.248 371.349 181.874 371.099 181.559 370.784C181.244 370.469 180.995 370.095 180.824 369.684C180.654 369.272 180.566 368.831 180.566 368.386V361.525L422.597 361.525V368.386C422.597 368.834 422.508 369.278 422.336 369.691C422.163 370.105 421.911 370.48 421.592 370.795C421.274 371.11 420.897 371.36 420.481 371.528C420.066 371.697 419.622 371.781 419.174 371.777Z" fill="#82B4B8"/>
<path opacity="0.2" d="M180.582 366.644L422.565 366.644V361.51L180.582 361.51V366.644Z" fill="black"/>
<path d="M175.51 362.844H427.636C428.402 362.844 429.137 362.54 429.678 361.998C430.22 361.456 430.524 360.721 430.524 359.955C430.524 359.189 430.22 358.454 429.678 357.913C429.137 357.371 428.402 357.066 427.636 357.066H175.51C174.744 357.066 174.009 357.371 173.467 357.913C172.925 358.454 172.621 359.189 172.621 359.955C172.621 360.721 172.925 361.456 173.467 361.998C174.009 362.54 174.744 362.844 175.51 362.844Z" fill="#82B4B8"/>
<path d="M419.581 349.797C419.692 352.289 419.236 354.775 418.247 357.066H360.801V355.7H361.963V343.831H360.801V342.465H418.247C419.23 344.78 419.686 347.284 419.581 349.797Z" fill="#263238"/>
<path opacity="0.2" d="M419.581 349.797C419.692 352.289 419.236 354.775 418.247 357.066H360.801V355.7H361.963V343.831H360.801V342.465H418.247C419.23 344.78 419.686 347.284 419.581 349.797Z" fill="white"/>
<path opacity="0.2" d="M388.842 349.797C388.952 352.289 388.496 354.775 387.507 357.066H360.817V355.7H361.979V343.831H360.817V342.465H387.507C388.49 344.78 388.946 347.284 388.842 349.797Z" fill="black"/>
<path opacity="0.8" d="M386.015 349.797C386.106 351.821 385.736 353.84 384.932 355.7H361.963V343.831H384.932C385.729 345.715 386.099 347.753 386.015 349.797Z" fill="white"/>
<path opacity="0.6" d="M410.225 349.796C410.336 352.289 409.88 354.775 408.891 357.066H398.199C399.188 354.775 399.644 352.289 399.534 349.796C399.631 347.3 399.175 344.812 398.199 342.512H408.891C409.867 344.812 410.323 347.3 410.225 349.796Z" fill="white"/>
<path d="M424.7 335.243C424.81 337.736 424.354 340.221 423.365 342.512H365.919V341.146H367.081V329.324H365.919V327.958H423.365C424.338 330.259 424.794 332.746 424.7 335.243Z" fill="#82B4B8"/>
<path opacity="0.2" d="M393.959 335.243C394.07 337.736 393.613 340.221 392.625 342.512H365.935V341.146H367.096V329.324H365.935V327.958H392.625C393.598 330.259 394.053 332.746 393.959 335.243Z" fill="black"/>
<path opacity="0.8" d="M391.133 335.243C391.224 337.267 390.854 339.286 390.05 341.146H367.081V329.324H390.05C390.841 331.194 391.211 333.215 391.133 335.243Z" fill="white"/>
<path opacity="0.2" d="M415.343 335.243C415.453 337.736 414.997 340.221 414.008 342.512H403.316C404.305 340.221 404.761 337.736 404.651 335.243C404.745 332.746 404.29 330.259 403.316 327.958H414.008C414.981 330.259 415.437 332.746 415.343 335.243Z" fill="black"/>
<path d="M231.965 536.423L226.91 559.816L214.931 559.612L219.939 536.423H231.965Z" fill="#EBB376"/>
<path opacity="0.2" d="M231.982 536.423L229.47 547.994L217.601 547.193L219.94 536.423H231.982Z" fill="black"/>
<path d="M228.715 559.22H228.966C228.966 559.22 229.233 559.314 229.265 559.345C229.279 559.352 229.295 559.356 229.312 559.356C229.328 559.356 229.344 559.352 229.359 559.345C230.378 559.673 231.432 559.883 232.499 559.973C233.288 560.118 234.102 559.955 234.775 559.518C234.996 559.33 235.156 559.08 235.235 558.8C235.313 558.52 235.306 558.224 235.215 557.948C235.193 557.768 235.127 557.597 235.023 557.449C234.919 557.301 234.78 557.181 234.618 557.1C233.471 556.91 232.294 557.127 231.29 557.712C232.001 556.975 232.419 556.004 232.467 554.981C232.423 554.739 232.301 554.52 232.119 554.355C231.938 554.19 231.707 554.09 231.463 554.07C231.23 554.028 230.992 554.035 230.763 554.089C230.533 554.143 230.317 554.243 230.128 554.384C228.872 555.467 228.668 558.858 228.668 559.094L228.715 559.22ZM230.002 558.529L229.767 558.67C229.692 557.373 230.045 556.088 230.772 555.012C230.853 554.935 230.949 554.875 231.055 554.837C231.16 554.799 231.272 554.784 231.384 554.792H231.525C231.918 554.792 232.012 555.059 232.012 555.232C231.755 556.535 231.043 557.703 230.002 558.529ZM230.175 559.125C231.62 558.325 233.676 557.461 234.446 557.807C234.523 557.846 234.59 557.903 234.639 557.975C234.688 558.046 234.719 558.128 234.728 558.215C234.772 558.389 234.77 558.571 234.723 558.744C234.677 558.917 234.586 559.075 234.461 559.204C233.927 559.706 232.357 559.675 230.175 559.125Z" fill="#82B4B8"/>
<path d="M228.433 557.76L215.009 556.928C214.898 556.915 214.785 556.924 214.677 556.955C214.569 556.986 214.468 557.038 214.381 557.108C214.293 557.178 214.22 557.265 214.166 557.363C214.113 557.461 214.079 557.57 214.067 557.681L212.748 568.279C212.718 568.835 212.906 569.381 213.273 569.801C213.639 570.22 214.155 570.48 214.711 570.524C219.421 570.728 221.65 570.602 227.553 570.916C232.798 571.474 238.076 571.663 243.348 571.482C248.356 570.995 247.744 566.049 245.577 565.814C240.459 565.233 233.676 561.465 230.458 558.608C229.895 558.109 229.183 557.811 228.433 557.76Z" fill="#263238"/>
<path d="M302.097 536.423L297.042 559.816L285.047 559.612L290.071 536.423H302.097Z" fill="#EBB376"/>
<path opacity="0.2" d="M302.096 536.423L299.584 547.994L287.715 547.193L290.054 536.423H302.096Z" fill="black"/>
<path d="M298.831 559.219H299.082C299.082 559.219 299.349 559.313 299.396 559.344C299.411 559.351 299.427 559.355 299.443 559.355C299.46 559.355 299.476 559.351 299.491 559.344C300.51 559.67 301.564 559.881 302.631 559.972C303.425 560.121 304.246 559.958 304.923 559.517C305.141 559.327 305.298 559.076 305.374 558.796C305.449 558.517 305.44 558.221 305.347 557.947C305.329 557.766 305.265 557.593 305.16 557.444C305.056 557.296 304.914 557.177 304.75 557.099C303.603 556.909 302.426 557.126 301.422 557.711C302.13 556.971 302.553 556.003 302.615 554.98C302.565 554.738 302.439 554.519 302.255 554.355C302.072 554.191 301.84 554.091 301.594 554.069C301.362 554.028 301.124 554.035 300.895 554.089C300.666 554.143 300.45 554.243 300.26 554.383C299.004 555.466 298.8 558.857 298.8 559.093L298.831 559.219ZM300.119 558.528L299.883 558.669C299.816 557.373 300.168 556.091 300.888 555.011C300.969 554.934 301.066 554.875 301.171 554.837C301.277 554.8 301.389 554.784 301.5 554.791H301.641C302.034 554.791 302.128 555.058 302.144 555.231C301.873 556.532 301.157 557.698 300.119 558.528ZM300.291 559.124C301.736 558.324 303.792 557.46 304.562 557.806C304.639 557.845 304.706 557.902 304.755 557.974C304.804 558.045 304.835 558.128 304.844 558.214C304.89 558.386 304.891 558.568 304.847 558.741C304.803 558.914 304.715 559.073 304.593 559.203C303.981 559.705 302.411 559.674 300.291 559.124Z" fill="#82B4B8"/>
<path d="M298.55 557.76L285.126 556.928C285.015 556.915 284.902 556.924 284.794 556.955C284.686 556.986 284.585 557.038 284.498 557.108C284.41 557.178 284.337 557.265 284.284 557.363C284.23 557.461 284.196 557.57 284.184 557.681L282.865 568.279C282.835 568.835 283.023 569.381 283.39 569.801C283.757 570.22 284.273 570.48 284.828 570.524C289.538 570.728 291.767 570.602 297.671 570.916C302.911 571.458 308.184 571.631 313.449 571.434C318.457 570.948 317.845 566.002 315.694 565.767C310.56 565.186 303.778 561.418 300.575 558.56C300.006 558.079 299.294 557.798 298.55 557.76Z" fill="#263238"/>
<path d="M253.458 491.898C248.896 509.494 243.061 526.736 236 543.488L214.114 541.823C214.114 541.823 223.094 506.75 226.344 474.628C228.354 454.799 228.181 438.392 222.372 437.12C218.714 436.304 210.173 436.335 199.215 436.587V395.767C229.955 402.047 260.539 413.979 262.863 423.524C266.112 436.979 260.429 465.427 253.458 491.898Z" fill="#82B4B8"/>
<path opacity="0.4" d="M253.458 491.898C248.896 509.494 243.061 526.736 236 543.488L214.114 541.823C214.114 541.823 223.094 506.75 226.344 474.628C228.354 454.799 228.181 438.392 222.372 437.12C218.714 436.304 210.173 436.335 199.215 436.587V395.767C229.955 402.047 260.539 413.979 262.863 423.524C266.112 436.979 260.429 465.427 253.458 491.898Z" fill="white"/>
<path opacity="0.2" d="M253.458 491.898C245.294 486.717 235.733 480.641 226.344 474.628C228.354 454.799 228.181 438.392 222.372 437.12C218.714 436.304 210.173 436.335 199.215 436.587V395.767C229.955 402.047 260.539 413.979 262.863 423.524C266.112 436.979 260.429 465.427 253.458 491.898Z" fill="black"/>
<path d="M241.495 391.763L243.426 376.267L180.783 365.952C180.783 365.952 160.295 406.631 170.327 426.444C179.512 444.688 277.417 433.823 292.489 437.104C307.561 440.386 284.168 541.808 284.168 541.808L306.148 543.487C306.148 543.487 339.965 452.239 333.01 423.54C329.949 411.027 278.327 394.448 241.495 391.763Z" fill="#82B4B8"/>
<path opacity="0.6" d="M241.495 391.763L243.426 376.267L180.783 365.952C180.783 365.952 160.295 406.631 170.327 426.444C179.512 444.688 277.417 433.823 292.489 437.104C307.561 440.386 284.168 541.808 284.168 541.808L306.148 543.487C306.148 543.487 339.965 452.239 333.01 423.54C329.949 411.027 278.327 394.448 241.495 391.763Z" fill="white"/>
<path d="M275.956 265.708C275.422 266.634 275.485 267.686 276.098 268.032C276.71 268.377 277.668 267.906 278.154 266.964C278.641 266.022 278.625 265.002 278.029 264.64C277.432 264.279 276.537 264.813 275.956 265.708Z" fill="#263238"/>
<path d="M274.968 260.699C274.839 260.636 274.73 260.538 274.654 260.417C274.594 260.262 274.595 260.09 274.656 259.936C274.717 259.782 274.834 259.656 274.983 259.585C275.896 259.168 276.896 258.976 277.899 259.025C278.901 259.074 279.877 259.363 280.745 259.867C280.882 259.955 280.98 260.092 281.018 260.25C281.057 260.408 281.032 260.575 280.949 260.715C280.854 260.852 280.709 260.947 280.545 260.979C280.381 261.012 280.21 260.979 280.07 260.888C279.382 260.501 278.611 260.284 277.822 260.254C277.033 260.224 276.249 260.382 275.533 260.715C275.444 260.757 275.347 260.777 275.248 260.774C275.15 260.772 275.054 260.746 274.968 260.699Z" fill="#263238"/>
<path d="M276.836 264.515C276.32 268.005 276.283 271.549 276.726 275.049C275.826 275.134 274.918 275.024 274.064 274.726C273.211 274.428 272.432 273.949 271.78 273.322L276.836 264.515Z" fill="#DE5753"/>
<path d="M271.216 277.64C270.839 278.095 270.462 278.535 270.054 278.943C267.765 281.345 264.795 282.988 261.545 283.653C260.722 283.824 259.887 283.935 259.048 283.983C256.844 284.13 254.635 283.783 252.582 282.968C250.528 282.154 248.683 280.891 247.179 279.273C245.83 277.798 244.789 276.068 244.118 274.186C241.197 266.336 244.118 260.056 248.372 249.207C249.311 246.643 250.89 244.362 252.96 242.58C255.03 240.799 257.521 239.577 260.196 239.031C262.872 238.485 265.642 238.633 268.245 239.461C270.847 240.288 273.194 241.768 275.062 243.759C283.572 252.645 277.888 269.115 271.216 277.64Z" fill="#E4897B"/>
<path opacity="0.2" d="M261.544 283.622C260.721 283.793 259.887 283.904 259.048 283.952C256.844 284.099 254.635 283.752 252.581 282.937C250.528 282.123 248.682 280.86 247.179 279.242C248.235 278.18 249.422 277.256 250.711 276.494C254.928 277.788 258.687 280.261 261.544 283.622Z" fill="black"/>
<path d="M226.172 284.03C227.239 291.723 244.038 294.596 244.038 294.596C244.038 294.596 252.328 298.364 252.673 295.083C249.235 291.111 248.858 287.641 250.052 284.611C250.839 282.774 251.987 281.114 253.427 279.728C254.202 278.931 255.019 278.176 255.876 277.468L250.742 256.43C247.053 264.421 234.43 282.9 226.172 284.03Z" fill="#E4897B"/>
<path d="M274.104 237.731C274.104 237.731 277.699 237.276 280.384 244.011C282.708 249.647 277.244 250.872 277.48 256.869C277.715 262.867 272.252 266.179 272.252 266.179C272.252 266.179 267.636 270.151 263.727 268C263.727 268 258.608 270.512 257.258 274.893C255.908 279.273 247.979 271.36 240.836 272.569C240.836 272.569 236.016 268.048 236.361 257.089C236.637 252.33 237.803 247.665 239.8 243.336C240.748 241.044 242.143 238.965 243.903 237.218C245.663 235.472 247.753 234.093 250.052 233.162C258.279 229.488 272.581 232.252 274.104 237.731Z" fill="#263238"/>
<path d="M262.8 264.735C262.557 265.821 262.558 266.948 262.802 268.033C263.046 269.119 263.528 270.138 264.213 271.015C265.955 272.915 268.75 270.497 269.896 267.168C270.87 264.201 271.215 259.554 268.656 259.036C266.097 258.518 263.349 261.532 262.8 264.735Z" fill="#E4897B"/>
<path d="M250.742 286.84C246.117 282.753 240.408 280.092 234.304 279.179C231.637 278.85 228.936 279.427 226.636 280.816C224.336 282.205 222.569 284.327 221.618 286.84L249.784 292.54L250.742 286.84Z" fill="#82B4B8"/>
<path d="M245.954 346.28L257.431 347.992C260.042 347.177 262.722 346.605 265.438 346.28C268.389 346.03 271.357 346.03 274.308 346.28C274.308 346.28 279.458 348.227 279.458 353.251C279.458 353.251 267.337 356.501 262.69 354.554L245.954 353.251V346.28Z" fill="#E4897B"/>
<path opacity="0.2" d="M245.954 346.28L257.431 347.992C260.042 347.177 262.722 346.605 265.438 346.28C268.389 346.03 271.357 346.03 274.308 346.28C274.308 346.28 279.458 348.227 279.458 353.251C279.458 353.251 267.337 356.501 262.69 354.554L245.954 353.251V346.28Z" fill="black"/>
<path d="M264.606 290.451C262.272 296.982 260.178 303.262 258.326 309.291C257.132 313.028 256.049 316.686 255.06 320.281C254.212 323.249 253.49 326.122 252.721 328.916C252.375 330.251 252.03 331.585 251.7 332.904C249.895 340.126 248.435 346.736 247.289 352.545C245.38 361.688 243.965 370.928 243.05 380.224L178.68 372.17C180.909 361.101 182.652 351.446 185.085 341.021C186.42 335.306 187.958 329.372 189.921 322.856C191.302 318.146 192.904 313.201 194.819 307.8C201.272 289.258 207.238 284.124 207.238 284.124C231.95 280.058 264.606 290.451 264.606 290.451Z" fill="#82B4B8"/>
<path d="M286.021 347.474L297.497 349.201C300.107 348.377 302.787 347.799 305.504 347.474C308.456 347.233 311.423 347.233 314.375 347.474C314.375 347.474 319.571 349.42 319.571 354.397C319.571 354.397 307.451 357.647 302.788 355.7L286.021 354.397V347.474Z" fill="#E4897B"/>
<path d="M211.79 542.844L237.852 544.571L241.683 533.314L212.968 531.964L211.79 542.844Z" fill="#82B4B8"/>
<path opacity="0.2" d="M211.79 542.844L237.852 544.571L241.683 533.314L212.968 531.964L211.79 542.844Z" fill="white"/>
<path d="M281.907 542.844L307.969 544.571L311.8 533.314L283.085 531.964L281.907 542.844Z" fill="#82B4B8"/>
<path opacity="0.2" d="M281.907 542.844L307.969 544.571L311.8 533.314L283.085 531.964L281.907 542.844Z" fill="white"/>
<path d="M178.476 373.002L207.505 376.817L208.447 372.531L179.37 368.308L178.476 373.002Z" fill="black"/>
<path d="M210.865 372.562L210.504 376.817L237.335 380.507V376.299L210.865 372.562Z" fill="black"/>
<path d="M238.999 376.534V380.506L242.893 381.024V377.178L238.999 376.534Z" fill="black"/>
<path opacity="0.2" d="M258.311 309.291C257.118 313.028 256.035 316.686 255.045 320.281C254.198 323.248 253.475 326.121 252.706 328.916C250.697 317.926 254.276 304.785 254.276 304.785L258.311 309.291Z" fill="black"/>
<path d="M262.658 294.156C267.902 295.208 270.618 331.632 271.78 336.452C272.8 340.66 297.496 349.2 297.496 349.2V355.119C297.496 355.119 270.178 353.251 263.757 350.613C257.336 347.976 253.458 312.007 253.458 312.007L262.658 294.156Z" fill="#E4897B"/>
<g opacity="0.2">
<path d="M264.605 290.45C262.271 296.981 260.177 303.261 258.325 309.29C257.131 313.027 256.048 316.685 255.059 320.28C254.211 323.248 253.489 326.121 252.72 328.915C252.374 330.25 252.029 331.584 251.699 332.903C249.894 340.125 248.434 346.735 247.288 352.544C245.379 361.687 243.964 370.927 243.049 380.223L178.679 372.169C180.908 361.1 182.651 351.445 185.084 341.02C186.419 335.305 187.957 329.371 189.92 322.855C191.301 318.145 192.903 313.2 194.818 307.799C201.271 289.257 207.237 284.123 207.237 284.123C231.949 280.057 264.605 290.45 264.605 290.45Z" fill="white"/>
</g>
<path d="M264.605 290.451C269.41 292.021 271.78 323.421 271.78 323.421L254.338 325.729L250.727 312.824C250.727 312.824 252.171 306.732 254.243 300.342C257.258 291.079 264.605 290.451 264.605 290.451Z" fill="#82B4B8"/>
<path d="M152.085 566.079C152.085 564.985 151.76 563.916 151.153 563.007C150.545 562.098 149.681 561.39 148.67 560.972C147.659 560.554 146.547 560.446 145.475 560.66C144.402 560.875 143.418 561.402 142.645 562.177C141.873 562.951 141.348 563.938 141.137 565.011C140.925 566.084 141.037 567.195 141.457 568.205C141.878 569.214 142.589 570.076 143.5 570.682C144.411 571.287 145.481 571.609 146.574 571.605C147.299 571.605 148.017 571.462 148.687 571.184C149.356 570.907 149.965 570.499 150.477 569.986C150.988 569.472 151.394 568.863 151.67 568.193C151.946 567.522 152.087 566.804 152.085 566.079Z" fill="#263238"/>
<path opacity="0.2" d="M152.085 566.079C152.085 564.985 151.76 563.916 151.153 563.007C150.545 562.098 149.681 561.39 148.67 560.972C147.659 560.554 146.547 560.446 145.475 560.66C144.402 560.875 143.418 561.402 142.645 562.177C141.873 562.951 141.348 563.938 141.137 565.011C140.925 566.084 141.037 567.195 141.457 568.205C141.878 569.214 142.589 570.076 143.5 570.682C144.411 571.287 145.481 571.609 146.574 571.605C147.299 571.605 148.017 571.462 148.687 571.184C149.356 570.907 149.965 570.499 150.477 569.986C150.988 569.472 151.394 568.863 151.67 568.193C151.946 567.522 152.087 566.804 152.085 566.079Z" fill="white"/>
<path d="M284.922 566.079C284.922 564.986 284.598 563.918 283.991 563.009C283.383 562.1 282.52 561.392 281.51 560.973C280.501 560.555 279.389 560.446 278.317 560.659C277.245 560.872 276.261 561.398 275.488 562.171C274.715 562.944 274.189 563.929 273.975 565.001C273.762 566.073 273.872 567.184 274.29 568.194C274.708 569.204 275.416 570.067 276.325 570.674C277.234 571.281 278.303 571.605 279.396 571.605C280.122 571.608 280.841 571.466 281.513 571.189C282.184 570.912 282.794 570.505 283.308 569.992C283.822 569.478 284.228 568.868 284.505 568.196C284.782 567.525 284.924 566.805 284.922 566.079Z" fill="#263238"/>
<path opacity="0.2" d="M284.922 566.079C284.922 564.986 284.598 563.918 283.991 563.009C283.383 562.1 282.52 561.392 281.51 560.973C280.501 560.555 279.389 560.446 278.317 560.659C277.245 560.872 276.261 561.398 275.488 562.171C274.715 562.944 274.189 563.929 273.975 565.001C273.762 566.073 273.872 567.184 274.29 568.194C274.708 569.204 275.416 570.067 276.325 570.674C277.234 571.281 278.303 571.605 279.396 571.605C280.122 571.608 280.841 571.466 281.513 571.189C282.184 570.912 282.794 570.505 283.308 569.992C283.822 569.478 284.228 568.868 284.505 568.196C284.782 567.525 284.924 566.805 284.922 566.079Z" fill="white"/>
<path opacity="0.2" d="M149.32 566.08C149.32 565.532 149.158 564.998 148.854 564.543C148.549 564.088 148.117 563.734 147.611 563.525C147.105 563.317 146.549 563.263 146.012 563.371C145.476 563.479 144.984 563.743 144.598 564.131C144.212 564.519 143.95 565.013 143.845 565.55C143.74 566.087 143.797 566.643 144.009 567.148C144.22 567.653 144.577 568.083 145.033 568.385C145.49 568.686 146.026 568.846 146.573 568.843C146.935 568.843 147.294 568.771 147.628 568.632C147.962 568.493 148.266 568.289 148.521 568.032C148.777 567.776 148.979 567.471 149.116 567.136C149.253 566.801 149.322 566.442 149.32 566.08Z" fill="white"/>
<path opacity="0.2" d="M279.395 568.843C280.921 568.843 282.158 567.606 282.158 566.08C282.158 564.554 280.921 563.316 279.395 563.316C277.869 563.316 276.632 564.554 276.632 566.08C276.632 567.606 277.869 568.843 279.395 568.843Z" fill="white"/>
<path d="M217.553 541.869V482.508H208.416V541.869C172.871 542.78 151.268 555.214 146.935 557.93C146.688 558.089 146.485 558.308 146.345 558.566C146.205 558.824 146.132 559.113 146.134 559.406V564.336C146.134 564.798 146.317 565.242 146.644 565.568C146.971 565.895 147.414 566.079 147.877 566.079C148.193 566.089 148.507 566.012 148.784 565.857C149.06 565.703 149.29 565.475 149.447 565.2L151.55 561.494C169.967 555.623 189.137 552.45 208.463 552.074V561.84C208.467 562.437 208.707 563.008 209.13 563.428C209.554 563.849 210.127 564.085 210.723 564.085H215.339C215.936 564.085 216.509 563.849 216.932 563.428C217.356 563.008 217.596 562.437 217.6 561.84V552.074C236.926 552.45 256.096 555.623 274.512 561.494L276.616 565.2C276.773 565.475 277.002 565.703 277.279 565.857C277.556 566.012 277.869 566.089 278.186 566.079C278.648 566.079 279.092 565.895 279.419 565.568C279.745 565.242 279.929 564.798 279.929 564.336V559.406C279.931 559.113 279.858 558.824 279.718 558.566C279.578 558.308 279.375 558.089 279.128 557.93C274.748 555.214 253.098 542.78 217.553 541.869Z" fill="#263238"/>
<path opacity="0.2" d="M217.553 541.869V482.508H208.416V541.869C172.871 542.78 151.268 555.214 146.935 557.93C146.688 558.089 146.485 558.308 146.345 558.566C146.205 558.824 146.132 559.113 146.134 559.406V564.336C146.134 564.798 146.317 565.242 146.644 565.568C146.971 565.895 147.414 566.079 147.877 566.079C148.193 566.089 148.507 566.012 148.784 565.857C149.06 565.703 149.29 565.475 149.447 565.2L151.55 561.494C169.967 555.623 189.137 552.45 208.463 552.074V561.84C208.467 562.437 208.707 563.008 209.13 563.428C209.554 563.849 210.127 564.085 210.723 564.085H215.339C215.936 564.085 216.509 563.849 216.932 563.428C217.356 563.008 217.596 562.437 217.6 561.84V552.074C236.926 552.45 256.096 555.623 274.512 561.494L276.616 565.2C276.773 565.475 277.002 565.703 277.279 565.857C277.556 566.012 277.869 566.089 278.186 566.079C278.648 566.079 279.092 565.895 279.419 565.568C279.745 565.242 279.929 564.798 279.929 564.336V559.406C279.931 559.113 279.858 558.824 279.718 558.566C279.578 558.308 279.375 558.089 279.128 557.93C274.748 555.214 253.098 542.78 217.553 541.869Z" fill="black"/>
<path d="M214.775 560.568H211.195C210.528 560.568 209.986 561.11 209.986 561.777V570.397C209.986 571.064 210.528 571.605 211.195 571.605H214.775C215.442 571.605 215.984 571.064 215.984 570.397V561.777C215.984 561.11 215.442 560.568 214.775 560.568Z" fill="#263238"/>
<path opacity="0.2" d="M214.775 560.568H211.195C210.528 560.568 209.986 561.11 209.986 561.777V570.397C209.986 571.064 210.528 571.605 211.195 571.605H214.775C215.442 571.605 215.984 571.064 215.984 570.397V561.777C215.984 561.11 215.442 560.568 214.775 560.568Z" fill="white"/>
<path d="M153.152 424.073H272.833C276.127 424.073 279.285 425.382 281.614 427.711C283.943 430.04 285.252 433.198 285.252 436.492V443.997H140.718V436.461C140.726 433.17 142.04 430.017 144.372 427.694C146.703 425.371 149.861 424.069 153.152 424.073Z" fill="#82B4B8"/>
<path d="M192.261 374.744H271.828C272.803 374.713 273.772 374.91 274.658 375.318C275.544 375.727 276.323 376.336 276.932 377.098C277.542 377.86 277.965 378.753 278.169 379.707C278.374 380.661 278.353 381.65 278.108 382.594L263.758 444.013H260.477L272.597 390.13C272.809 389.194 272.805 388.221 272.586 387.286C272.368 386.351 271.94 385.478 271.336 384.731C270.732 383.985 269.966 383.385 269.097 382.977C268.228 382.569 267.278 382.363 266.318 382.375H193.894L192.261 374.744Z" fill="#263238"/>
<path d="M222.373 446.163V498.099C222.369 498.897 222.05 499.661 221.485 500.226C220.921 500.79 220.157 501.109 219.358 501.113H206.626C206.229 501.115 205.836 501.039 205.47 500.888C205.103 500.737 204.77 500.515 204.49 500.235C204.209 499.954 203.987 499.621 203.837 499.255C203.686 498.888 203.609 498.495 203.611 498.099V446.163H222.373Z" fill="#263238"/>
<path opacity="0.2" d="M222.388 446.163H203.611V467.735H222.388V446.163Z" fill="black"/>
<path d="M289.192 440.809V447.089C289.192 447.922 288.861 448.72 288.272 449.309C287.684 449.898 286.885 450.229 286.052 450.229H140.042C139.21 450.229 138.411 449.898 137.822 449.309C137.233 448.72 136.902 447.922 136.902 447.089V440.809C136.902 439.976 137.233 439.177 137.822 438.589C138.411 438 139.21 437.669 140.042 437.669H286.052C286.885 437.669 287.684 438 288.272 438.589C288.861 439.177 289.192 439.976 289.192 440.809Z" fill="#263238"/>
<path d="M221.996 444.012H136.777C136.777 444.012 109.71 398.985 109.71 324.583V297.249C109.71 291.836 111.86 286.645 115.688 282.817C119.516 278.989 124.707 276.839 130.12 276.839H166.23C171.54 276.813 176.65 278.866 180.465 282.561C184.28 286.255 186.496 291.297 186.64 296.605C187.566 335.008 193.218 418.029 221.996 444.012Z" fill="#263238"/>
<path opacity="0.2" d="M203.25 444.012H140.639C139.451 444.015 138.286 443.691 137.27 443.076C136.254 442.461 135.426 441.58 134.877 440.527C128.722 428.642 109.757 386.911 109.757 324.582V297.249C109.757 291.836 111.907 286.644 115.735 282.817C119.562 278.989 124.754 276.839 130.167 276.839H161.394C166.697 276.836 171.794 278.898 175.603 282.587C179.413 286.277 181.637 291.304 181.804 296.605C182.746 330.847 187.346 400.759 208.839 433.807C209.529 434.8 209.929 435.965 209.993 437.172C210.057 438.379 209.784 439.579 209.203 440.64C208.623 441.7 207.758 442.577 206.706 443.173C205.655 443.768 204.458 444.059 203.25 444.012Z" fill="white"/>
<path opacity="0.2" d="M289.193 440.809V447.089C289.193 447.922 288.862 448.72 288.273 449.309C287.684 449.898 286.886 450.229 286.053 450.229H220.584C219.448 450.225 218.361 449.772 217.558 448.969C216.755 448.166 216.302 447.078 216.298 445.943V441.971C216.298 440.834 216.749 439.744 217.553 438.94C218.357 438.136 219.447 437.685 220.584 437.685H286.037C286.449 437.683 286.858 437.762 287.24 437.918C287.622 438.074 287.969 438.303 288.262 438.593C288.555 438.883 288.788 439.228 288.948 439.608C289.107 439.989 289.191 440.397 289.193 440.809Z" fill="black"/>
</svg>
