<svg xmlns="http://www.w3.org/2000/svg" version="1.1" xmlns:xlink="http://www.w3.org/1999/xlink" xmlns:svgjs="http://svgjs.dev/svgjs" width="198.05" height="139.33"><svg id="SvgjsSvg1039" xmlns="http://www.w3.org/2000/svg" viewBox="0 0 198.05 139.33">
  <defs>
    <style>
      .cls-1 {
        fill: #3faf84;
      }

      .cls-2 {
        fill: #3fa5af;
      }
    </style>
  </defs>
  <g id="SvgjsG1038">
    <g id="SvgjsG1037">
      <g id="SvgjsG1036" data-name="Bildlogo">
        <path class="cls-2" d="M147.09,13.18h-24.01V.02h62.79v13.16h-24.01v79.24h-14.77V13.18Z"></path>
        <g>
          <path class="cls-1" d="M1.2,125.98l18.62,12.85c1.85,1.27,4.36-.05,4.36-2.29v-25.71c0-2.24-2.52-3.56-4.36-2.29L1.2,121.4c-1.6,1.11-1.6,3.47,0,4.58Z"></path>
          <path class="cls-1" d="M106.3,76.46c.01,4.46.02,8.86.04,13.12v.81c.03,9.22-3.21,16.82-7.39,22.55-1.38,1.88-2.85,3.56-4.35,5.03-13.31,13.06-33.32,12.72-33.32,12.72l-37.1.04v-14.64s8.88-.14,37.03.05c10.56.07,18.08-4.93,22.6-9.73,6.28-6.67,7.52-14.42,7.75-16.81.05-.48.06-.74.06-.74l-.03-15.59-.13-73.27h14.88s-.1,39.21-.04,75.26v1.2Z"></path>
        </g>
        <g>
          <path class="cls-2" d="M176.69,116.06v14.63h-40.07s-20.01.34-33.32-12.72c-.59-.58-1.18-1.2-1.76-1.84,3.07-4,6.24-9.52,7.8-16.51,1.13,2.22,2.66,4.57,4.75,6.79,4.52,4.8,12.04,9.8,22.59,9.73,5.98-.04,20.64-.07,40.01-.08Z"></path>
          <path class="cls-2" d="M196.85,125.98l-18.62,12.85c-1.85,1.27-4.36-.05-4.36-2.29v-25.71c0-2.24,2.52-3.56,4.36-2.29l18.62,12.85c1.6,1.11,1.6,3.47,0,4.58Z"></path>
        </g>
      </g>
    </g>
  </g>
</svg><style>@media (prefers-color-scheme: light) { :root { filter: none; } }
@media (prefers-color-scheme: dark) { :root { filter: none; } }
</style></svg>