<svg width="460" height="450" viewBox="0 0 460 450" fill="none" xmlns="http://www.w3.org/2000/svg">
<path d="M387.737 335.075C406.532 353.465 409.68 381.922 405.721 406.846C405.617 407.407 404.745 407.252 404.745 406.722C404.745 401.049 404.921 395.428 404.901 389.818C404.797 389.569 404.714 389.33 404.61 389.07C399.706 385.506 395.197 381.475 392.402 375.958C389.285 369.787 388.038 362.826 385.638 356.384C385.41 355.761 386.064 355.948 386.501 356.26C397.929 364.686 401.566 373.756 404.849 385.88C404.78 379.539 404.115 373.219 402.864 367.003C400.392 355.501 395.508 344.146 387.28 335.574C386.937 335.262 387.415 334.774 387.737 335.075Z" fill="#263238"/>
<path d="M384.215 337.236C380.984 337.35 378.958 342.514 376.433 344.02C376.169 344.236 375.863 344.393 375.535 344.482C375.206 344.571 374.862 344.589 374.526 344.536C374.19 344.483 373.868 344.36 373.583 344.174C373.297 343.989 373.054 343.745 372.869 343.459C370.376 339.979 373.794 335.677 377.025 333.277C374.719 334.223 372.818 335.885 370.334 336.394C370.017 336.499 369.681 336.535 369.349 336.498C369.016 336.462 368.696 336.354 368.409 336.182C368.122 336.011 367.876 335.779 367.686 335.504C367.497 335.229 367.369 334.916 367.311 334.587C366.21 329.839 372.173 327.729 376.256 327.626C374.272 326.254 368.599 322.504 371.612 320.665C374.625 318.826 381.337 324.166 383.508 325.932C386.708 328.529 390.511 332.394 390.656 336.457C390.833 341.142 386.698 338.192 384.215 337.236Z" fill="#B56576"/>
<path opacity="0.1" d="M384.215 337.236C380.984 337.35 378.958 342.514 376.433 344.02C376.169 344.236 375.863 344.393 375.535 344.482C375.206 344.571 374.862 344.589 374.526 344.536C374.19 344.483 373.868 344.36 373.583 344.174C373.297 343.989 373.054 343.745 372.869 343.459C370.376 339.979 373.794 335.677 377.025 333.277C374.719 334.223 372.818 335.885 370.334 336.394C370.017 336.499 369.681 336.535 369.349 336.498C369.016 336.462 368.696 336.354 368.409 336.182C368.122 336.011 367.876 335.779 367.686 335.504C367.497 335.229 367.369 334.916 367.311 334.587C366.21 329.839 372.173 327.729 376.256 327.626C374.272 326.254 368.599 322.504 371.612 320.665C374.625 318.826 381.337 324.166 383.508 325.932C386.708 328.529 390.511 332.394 390.656 336.457C390.833 341.142 386.698 338.192 384.215 337.236Z" fill="black"/>
<path d="M385.15 338.036C380.995 336.156 373.078 338.857 372.402 337.298C371.031 334.109 377.379 331.927 380.797 331.511C377.68 330.649 371.602 329.288 371.789 326.254C372.018 322.535 381.057 325.735 385.639 329.236C391.394 333.662 391.363 337.922 390.407 338.774C389.098 339.948 385.826 338.348 385.15 338.036Z" fill="#B56576"/>
<path d="M430.532 333.278C411.052 350.94 406.823 379.252 409.826 404.311C409.909 404.872 410.792 404.758 410.813 404.228C411.031 398.555 411.072 392.935 411.301 387.335C411.415 387.075 411.509 386.836 411.623 386.587C416.651 383.21 421.316 379.314 424.309 373.953C427.685 367.906 429.181 360.997 431.82 354.649C432.07 354.036 431.405 354.192 430.958 354.493C419.228 362.483 415.239 371.407 411.498 383.397C411.806 377.064 412.714 370.774 414.21 364.613C417.109 353.184 422.428 342.005 431.01 333.787C431.322 333.475 430.864 332.997 430.532 333.278Z" fill="#263238"/>
<path d="M433.97 335.553C437.201 335.781 439.03 341.018 441.482 342.628C442.791 343.48 444.089 343.48 445.066 342.202C447.695 338.815 444.443 334.389 441.315 331.865C443.58 332.903 445.419 334.628 447.882 335.2C448.197 335.319 448.534 335.37 448.87 335.347C449.206 335.325 449.533 335.23 449.829 335.069C450.125 334.908 450.383 334.685 450.585 334.415C450.787 334.146 450.928 333.835 450.999 333.506C452.276 328.8 446.396 326.462 442.323 326.233C444.401 324.935 450.167 321.413 447.227 319.459C444.287 317.506 437.378 322.576 435.134 324.27C431.851 326.742 427.861 330.503 427.591 334.514C427.206 339.231 431.445 336.446 433.97 335.553Z" fill="#B56576"/>
<path opacity="0.1" d="M433.97 335.553C437.201 335.781 439.03 341.018 441.482 342.628C442.791 343.48 444.089 343.48 445.066 342.202C447.695 338.815 444.443 334.389 441.315 331.865C443.58 332.903 445.419 334.628 447.882 335.2C448.197 335.319 448.534 335.37 448.87 335.347C449.206 335.325 449.533 335.23 449.829 335.069C450.125 334.908 450.383 334.685 450.585 334.415C450.787 334.146 450.928 333.835 450.999 333.506C452.276 328.8 446.396 326.462 442.323 326.233C444.401 324.935 450.167 321.413 447.227 319.459C444.287 317.506 437.378 322.576 435.134 324.27C431.851 326.742 427.861 330.503 427.591 334.514C427.206 339.231 431.445 336.446 433.97 335.553Z" fill="black"/>
<path d="M433.005 336.311C437.212 334.587 445.036 337.6 445.773 336.062C447.259 332.945 441.004 330.504 437.597 329.953C440.786 329.215 446.875 328.093 446.802 325.039C446.719 321.319 437.566 324.166 432.859 327.501C426.927 331.657 426.802 335.968 427.727 336.852C429.036 338.077 432.319 336.592 433.005 336.311Z" fill="#B56576"/>
<path d="M410.614 379.927C409.294 389.373 407.273 398.708 404.568 407.854C404.52 408.022 404.41 408.166 404.261 408.257C404.112 408.349 403.934 408.38 403.763 408.346C403.591 408.312 403.439 408.215 403.336 408.074C403.233 407.933 403.187 407.758 403.207 407.584C404.485 398.971 406.822 390.524 408.1 381.922C409.496 373.213 409.998 364.385 409.596 355.574C408.776 341.029 404.838 325.642 395.373 314.296C395.165 314.026 395.602 313.642 395.82 313.891C414.76 335.99 411.747 363.075 411.737 365.506C414.417 356.353 417.181 345.87 427.321 336.561C427.757 336.156 428.1 336.343 428.027 337.029C426.209 353.995 421.492 362.847 411.653 371.917C411.373 374.608 411.04 377.288 410.614 379.927Z" fill="#263238"/>
<path d="M395.197 316.831C391.79 315.324 387.094 319.657 383.717 319.948C381.93 320.104 380.6 319.408 380.299 317.569C379.457 312.696 385.182 309.963 389.733 309.091C386.865 308.914 384.039 309.673 381.234 308.914C379.53 308.447 378.595 307.283 379 305.517C380.257 300.041 387.509 300.841 391.8 302.795C390.429 300.374 386.429 293.631 390.481 293.236C394.533 292.842 398.792 301.766 400.174 304.665C402.179 308.956 404.184 314.899 402.252 319.21C400.101 324.218 397.275 319.117 395.197 316.831Z" fill="#B56576"/>
<path opacity="0.1" d="M395.197 316.831C391.79 315.324 387.094 319.657 383.717 319.948C381.93 320.104 380.6 319.408 380.299 317.569C379.457 312.696 385.182 309.963 389.733 309.091C386.865 308.914 384.039 309.673 381.234 308.914C379.53 308.447 378.595 307.283 379 305.517C380.257 300.041 387.509 300.841 391.8 302.795C390.429 300.374 386.429 293.631 390.481 293.236C394.533 292.842 398.792 301.766 400.174 304.665C402.179 308.956 404.184 314.899 402.252 319.21C400.101 324.218 397.275 319.117 395.197 316.831Z" fill="black"/>
<path d="M395.789 318.13C392.443 314.098 382.854 312.935 382.937 310.95C383.114 306.961 390.802 307.885 394.563 309.174C391.727 306.691 386.137 302.244 387.862 299.179C389.94 295.439 397.742 303.335 400.724 309.247C404.475 316.737 402.293 321.143 400.869 321.548C398.906 322.109 396.319 318.794 395.789 318.13Z" fill="#B56576"/>
<path d="M423.082 385.028L431.393 448.882H380.588C381.627 443.22 391.092 384.956 391.092 384.956L423.082 385.028Z" fill="#B56576"/>
<path d="M7.9585 448.85C149.932 448.217 309.182 448.217 451.155 448.85C309.182 449.494 149.932 449.494 7.9585 448.85Z" fill="#263238"/>
<path d="M136.051 279.761C165.246 329.787 203.479 322.441 246.908 317.226C290.336 312.01 308.486 343.854 349.629 323.594C379.904 308.696 364.85 278.358 386.47 258.016C397.982 247.179 451.218 235.678 451.218 176.78C451.218 126.089 388.746 113.539 354.481 89.5908C320.216 65.6429 307.24 3.08753 249.65 0.791444C192.061 -1.50464 158.908 58.8274 127.615 60.0845C96.3216 61.3417 56.966 50.0275 32.7792 90.6194C16.3013 118.256 23.9896 166.515 61.6725 186.369C61.6725 186.369 106.794 229.735 136.051 279.761Z" fill="#455A64"/>
<path d="M425.286 241.206C421.722 255.211 404.361 267.107 390.169 261.548C396.38 259 402.368 255.939 408.07 252.395C413.919 248.748 419.125 244.863 425.286 241.206Z" fill="#455A64"/>
<path d="M271.999 326.899C284.466 329.589 296.383 333.008 308.726 335.304C317.764 336.914 326.793 338.161 335.905 337.06C339.028 336.678 342.105 335.982 345.089 334.982C326.938 352.311 289.401 340.727 271.999 326.888V326.899Z" fill="#455A64"/>
<path d="M130.586 50.5466C134.83 47.9744 138.873 45.0848 142.68 41.9025C149.101 36.7077 155.251 31.3363 161.869 26.2454C172.467 18.1935 184.3 9.88189 197.879 8.15723C186.451 15.2533 176.934 23.8766 166.306 32.0532C159.719 37.0817 152.799 42.1414 145.246 45.944C140.704 48.4222 135.727 49.9992 130.586 50.5881V50.5466Z" fill="#455A64"/>
<path d="M289.255 255.502L292.694 252.063C292.929 251.829 293.115 251.551 293.242 251.246C293.369 250.94 293.434 250.612 293.434 250.281C293.434 249.95 293.369 249.622 293.242 249.316C293.115 249.01 292.929 248.733 292.694 248.499C292.46 248.265 292.183 248.078 291.877 247.951C291.571 247.824 291.243 247.759 290.912 247.759C290.581 247.759 290.253 247.824 289.947 247.951C289.642 248.078 289.364 248.265 289.13 248.499L285.66 251.959C285.426 252.192 285.239 252.47 285.112 252.776C284.985 253.082 284.92 253.41 284.92 253.741C284.92 254.072 284.985 254.4 285.112 254.705C285.239 255.011 285.426 255.289 285.66 255.522C285.896 255.761 286.177 255.949 286.486 256.077C286.795 256.205 287.127 256.27 287.462 256.268C287.797 256.266 288.128 256.198 288.436 256.066C288.744 255.934 289.022 255.742 289.255 255.502Z" fill="#EBEBEB"/>
<path d="M336.215 289.579L338.397 285.236C338.694 284.637 338.743 283.946 338.533 283.312C338.323 282.677 337.871 282.152 337.275 281.849C336.677 281.549 335.985 281.499 335.349 281.709C334.714 281.92 334.189 282.373 333.888 282.971L331.706 287.314C331.406 287.912 331.356 288.604 331.567 289.239C331.777 289.875 332.231 290.4 332.828 290.701C333.426 291.001 334.119 291.051 334.754 290.841C335.389 290.63 335.915 290.176 336.215 289.579Z" fill="#EBEBEB"/>
<path d="M306.118 245.798L308.705 245.424C309.364 245.328 309.96 244.975 310.359 244.441C310.758 243.907 310.929 243.237 310.834 242.577C310.789 242.249 310.678 241.934 310.51 241.649C310.342 241.364 310.12 241.115 309.855 240.916C309.591 240.717 309.29 240.572 308.969 240.49C308.649 240.408 308.315 240.39 307.988 240.437L305.401 240.8C304.738 240.895 304.14 241.25 303.739 241.786C303.338 242.321 303.165 242.995 303.26 243.657C303.356 244.32 303.71 244.918 304.246 245.319C304.782 245.72 305.455 245.893 306.118 245.798Z" fill="#EBEBEB"/>
<path d="M285.598 279.906L285.224 277.319C285.129 276.659 284.776 276.063 284.243 275.661C283.709 275.26 283.039 275.087 282.378 275.179C281.715 275.274 281.117 275.628 280.716 276.164C280.315 276.7 280.142 277.373 280.237 278.036L280.611 280.623C280.707 281.284 281.06 281.88 281.593 282.281C282.127 282.682 282.797 282.855 283.458 282.763C284.121 282.668 284.719 282.314 285.12 281.778C285.521 281.242 285.693 280.569 285.598 279.906Z" fill="#EBEBEB"/>
<path d="M341.037 274.743V271.574C341.037 270.334 340.032 269.33 338.792 269.33H338.242C337.002 269.33 335.998 270.334 335.998 271.574V274.743C335.998 275.982 337.002 276.987 338.242 276.987H338.792C340.032 276.987 341.037 275.982 341.037 274.743Z" fill="#EBEBEB"/>
<path d="M301.432 301.828L303.956 302.503C304.278 302.594 304.615 302.62 304.947 302.579C305.279 302.538 305.6 302.432 305.89 302.265C306.181 302.099 306.435 301.876 306.638 301.61C306.841 301.344 306.989 301.04 307.073 300.716C307.163 300.395 307.188 300.059 307.147 299.728C307.106 299.397 307 299.077 306.835 298.788C306.67 298.498 306.449 298.244 306.184 298.04C305.92 297.836 305.619 297.686 305.296 297.6L302.772 296.924C302.45 296.833 302.113 296.808 301.781 296.848C301.449 296.889 301.128 296.996 300.838 297.163C300.547 297.329 300.293 297.552 300.09 297.818C299.887 298.084 299.739 298.387 299.655 298.711C299.565 299.033 299.54 299.369 299.581 299.7C299.622 300.031 299.728 300.35 299.893 300.64C300.059 300.93 300.28 301.184 300.544 301.388C300.808 301.592 301.109 301.742 301.432 301.828Z" fill="#EBEBEB"/>
<path d="M310.17 301.142C326.23 301.142 339.25 288.122 339.25 272.062C339.25 256.001 326.23 242.981 310.17 242.981C294.109 242.981 281.089 256.001 281.089 272.062C281.089 288.122 294.109 301.142 310.17 301.142Z" fill="#EBEBEB"/>
<path d="M320.746 254.805C320.832 256.199 320.467 257.583 319.707 258.753C318.926 259.957 317.83 260.923 316.538 261.548C315.215 262.215 313.685 262.346 312.268 261.912C310.924 261.483 309.774 260.597 309.016 259.408C310.049 260.177 311.242 260.702 312.507 260.945C313.098 261.049 313.703 261.049 314.294 260.945C314.883 260.847 315.454 260.662 315.987 260.395C316.258 260.26 316.538 260.114 316.798 259.958C317.058 259.803 317.317 259.626 317.556 259.429C318.049 259.065 318.502 258.651 318.907 258.192C319.739 257.197 320.364 256.045 320.746 254.805Z" fill="#C7C7C7"/>
<path d="M310.294 256.478C310.163 255.511 310.376 254.529 310.897 253.704C311.422 252.843 312.182 252.151 313.089 251.709C314.032 251.24 315.122 251.161 316.123 251.491C317.06 251.807 317.838 252.473 318.294 253.351C317.557 252.897 316.738 252.594 315.884 252.457C315.116 252.366 314.339 252.503 313.65 252.852C312.122 253.605 310.927 254.896 310.294 256.478Z" fill="#C7C7C7"/>
<path d="M300.445 276.457C300.802 277.342 300.828 278.327 300.517 279.231C300.21 280.167 299.622 280.986 298.834 281.579C298.434 281.893 297.975 282.124 297.485 282.258C296.994 282.392 296.481 282.426 295.977 282.358C295.026 282.227 294.157 281.75 293.536 281.018C294.337 281.277 295.177 281.393 296.019 281.36C296.775 281.313 297.499 281.037 298.097 280.571C298.722 280.101 299.249 279.511 299.645 278.836C300.047 278.095 300.318 277.29 300.445 276.457Z" fill="#C7C7C7"/>
<path d="M294.419 279.761C294.099 279.161 294.028 278.46 294.222 277.808C294.42 277.129 294.832 276.532 295.396 276.104C295.686 275.876 296.021 275.712 296.379 275.623C296.737 275.533 297.11 275.52 297.474 275.584C297.804 275.639 298.121 275.759 298.404 275.937C298.688 276.116 298.933 276.349 299.126 276.623C298.564 276.514 297.99 276.489 297.422 276.551C296.962 276.615 296.527 276.801 296.164 277.091C295.304 277.764 294.691 278.703 294.419 279.761Z" fill="#C7C7C7"/>
<path d="M290.013 269.984C290.271 270.223 290.478 270.512 290.621 270.834C290.764 271.155 290.84 271.502 290.845 271.854C290.853 272.238 290.785 272.619 290.644 272.976C290.503 273.333 290.292 273.658 290.024 273.932C289.747 274.207 289.412 274.415 289.043 274.541C288.674 274.668 288.281 274.708 287.894 274.659C287.204 274.58 286.561 274.273 286.065 273.786C286.671 273.802 287.276 273.76 287.873 273.662C288.344 273.59 288.78 273.372 289.12 273.038C289.466 272.683 289.719 272.247 289.858 271.771C290.013 271.189 290.066 270.584 290.013 269.984Z" fill="#C7C7C7"/>
<path d="M286.409 272.81C286.198 272.665 286.024 272.473 285.899 272.25C285.775 272.026 285.704 271.777 285.692 271.522C285.675 271.241 285.717 270.961 285.815 270.698C285.914 270.434 286.066 270.195 286.263 269.995C286.468 269.788 286.719 269.634 286.996 269.546C287.272 269.457 287.566 269.436 287.853 269.486C288.101 269.522 288.339 269.609 288.553 269.739C288.767 269.869 288.953 270.041 289.099 270.244C288.686 270.299 288.277 270.378 287.873 270.483C287.606 270.552 287.361 270.692 287.167 270.888C286.957 271.099 286.791 271.35 286.679 271.626C286.535 272.006 286.444 272.405 286.409 272.81Z" fill="#C7C7C7"/>
<path d="M329.857 261.372C329.893 261.72 329.856 262.072 329.751 262.406C329.646 262.74 329.473 263.049 329.244 263.314C329.001 263.612 328.699 263.858 328.358 264.036C328.017 264.215 327.644 264.323 327.26 264.353C326.87 264.376 326.48 264.31 326.12 264.158C325.759 264.007 325.439 263.775 325.182 263.481C324.716 262.965 324.441 262.305 324.403 261.611C324.843 262.027 325.323 262.4 325.837 262.722C326.236 262.978 326.703 263.105 327.177 263.086C327.672 263.055 328.152 262.897 328.569 262.629C329.066 262.285 329.502 261.86 329.857 261.372Z" fill="#C7C7C7"/>
<path d="M325.296 261.091C325.234 260.843 325.23 260.583 325.284 260.333C325.338 260.082 325.449 259.848 325.608 259.647C325.78 259.424 325.998 259.241 326.247 259.11C326.497 258.979 326.771 258.903 327.052 258.889C327.342 258.871 327.632 258.923 327.898 259.041C328.164 259.158 328.397 259.338 328.58 259.564C328.741 259.755 328.861 259.977 328.934 260.217C329.008 260.456 329.032 260.707 329.006 260.956C328.675 260.721 328.327 260.509 327.967 260.322C327.72 260.196 327.443 260.138 327.167 260.156C326.87 260.175 326.581 260.252 326.315 260.385C325.939 260.562 325.594 260.801 325.296 261.091Z" fill="#C7C7C7"/>
<path d="M313.556 281.132C314.718 281.657 316.01 281.824 317.268 281.614C318.525 281.404 319.692 280.826 320.621 279.952C321.549 279.078 322.198 277.948 322.484 276.706C322.77 275.463 322.68 274.164 322.227 272.972C321.774 271.78 320.977 270.749 319.938 270.011C318.899 269.272 317.664 268.858 316.389 268.822C315.115 268.786 313.858 269.129 312.778 269.807C311.699 270.486 310.845 271.469 310.325 272.633C309.63 274.189 309.58 275.957 310.185 277.55C310.791 279.143 312.003 280.431 313.556 281.132Z" fill="#DBDBDB"/>
<path d="M319.198 272.218C320.036 272.59 320.774 273.157 321.35 273.87C321.926 274.584 322.325 275.424 322.513 276.322C322.689 275.257 322.594 274.166 322.237 273.148C321.88 272.13 321.272 271.218 320.469 270.497C319.667 269.776 318.695 269.269 317.645 269.022C316.595 268.776 315.499 268.798 314.46 269.087C313.42 269.376 312.47 269.922 311.697 270.674C310.925 271.427 310.354 272.363 310.038 273.395C309.723 274.426 309.672 275.521 309.891 276.577C310.11 277.634 310.592 278.618 311.292 279.439C310.932 278.364 310.892 277.207 311.177 276.11C311.461 275.013 312.059 274.022 312.897 273.258C313.734 272.495 314.776 271.991 315.895 271.808C317.013 271.625 318.161 271.771 319.198 272.228V272.218Z" fill="#C7C7C7"/>
<path d="M325.068 276.322C325.1 278.034 324.603 279.714 323.644 281.132C322.682 282.584 321.347 283.75 319.779 284.509C318.17 285.319 316.314 285.49 314.584 284.987C312.939 284.479 311.514 283.428 310.543 282.005C311.792 283.003 313.258 283.694 314.823 284.02C315.194 284.084 315.569 284.122 315.946 284.135C316.321 284.139 316.697 284.111 317.068 284.052C317.812 283.941 318.535 283.713 319.208 283.376C319.551 283.2 319.894 283.013 320.247 282.815C320.6 282.618 320.901 282.4 321.192 282.15C321.809 281.682 322.37 281.146 322.865 280.55C323.878 279.305 324.628 277.866 325.068 276.322Z" fill="#C7C7C7"/>
<path d="M332.112 278.774C332.572 278.883 333.055 278.853 333.499 278.688C333.942 278.523 334.327 278.231 334.605 277.848C334.883 277.465 335.042 277.008 335.061 276.536C335.08 276.063 334.959 275.595 334.713 275.19C334.467 274.786 334.107 274.464 333.678 274.263C333.25 274.063 332.771 273.994 332.303 274.065C331.835 274.136 331.399 274.344 331.049 274.662C330.699 274.981 330.45 275.395 330.335 275.854C330.258 276.163 330.243 276.484 330.29 276.798C330.338 277.112 330.448 277.414 330.613 277.686C330.778 277.957 330.996 278.193 331.253 278.38C331.511 278.567 331.802 278.701 332.112 278.774Z" fill="#DBDBDB"/>
<path d="M333.535 275.106C333.869 275.182 334.18 275.337 334.442 275.558C334.704 275.778 334.91 276.058 335.042 276.374C335.03 275.973 334.918 275.582 334.715 275.236C334.512 274.89 334.226 274.6 333.882 274.394C333.538 274.188 333.148 274.072 332.747 274.056C332.346 274.04 331.948 274.126 331.589 274.304C331.23 274.483 330.922 274.749 330.693 275.078C330.463 275.407 330.321 275.788 330.278 276.187C330.234 276.585 330.292 276.988 330.446 277.359C330.599 277.729 330.844 278.055 331.156 278.306C330.949 277.939 330.853 277.519 330.879 277.098C330.906 276.676 331.054 276.272 331.306 275.933C331.558 275.594 331.902 275.336 332.298 275.189C332.694 275.043 333.124 275.014 333.535 275.106Z" fill="#C7C7C7"/>
<path d="M335.977 276.197C336.141 276.82 336.101 277.479 335.862 278.078C335.614 278.694 335.205 279.232 334.678 279.636C334.147 280.049 333.479 280.244 332.81 280.182C332.14 280.12 331.519 279.806 331.073 279.304C331.609 279.555 332.195 279.683 332.787 279.678C333.335 279.659 333.863 279.466 334.294 279.127C334.756 278.776 335.143 278.336 335.432 277.833C335.722 277.33 335.907 276.773 335.977 276.197Z" fill="#C7C7C7"/>
<path d="M315.613 294.337C316.288 294.377 316.961 294.216 317.545 293.874C318.129 293.531 318.598 293.023 318.893 292.414C319.187 291.804 319.295 291.121 319.201 290.451C319.107 289.78 318.816 289.153 318.365 288.648C317.914 288.143 317.324 287.784 316.668 287.615C316.013 287.446 315.322 287.476 314.683 287.7C314.044 287.924 313.487 288.333 313.081 288.875C312.675 289.416 312.439 290.066 312.402 290.742C312.354 291.644 312.665 292.528 313.266 293.202C313.868 293.875 314.711 294.284 315.613 294.337Z" fill="#DBDBDB"/>
<path d="M316.715 288.852C317.2 288.877 317.671 289.017 318.091 289.261C318.51 289.505 318.865 289.846 319.126 290.255C319.011 289.696 318.756 289.175 318.387 288.74C318.018 288.306 317.545 287.971 317.012 287.767C316.479 287.563 315.903 287.497 315.338 287.574C314.773 287.652 314.236 287.87 313.777 288.209C313.319 288.549 312.953 288.998 312.714 289.516C312.475 290.034 312.37 290.604 312.409 291.173C312.448 291.742 312.63 292.293 312.938 292.773C313.245 293.253 313.669 293.649 314.17 293.922C313.795 293.456 313.561 292.892 313.498 292.298C313.434 291.703 313.543 291.103 313.811 290.568C314.08 290.034 314.496 289.588 315.011 289.283C315.526 288.979 316.118 288.829 316.715 288.852Z" fill="#C7C7C7"/>
<path d="M320.403 289.776C320.735 290.616 320.8 291.537 320.59 292.415C320.388 293.314 319.95 294.142 319.322 294.815C318.686 295.518 317.805 295.953 316.86 296.031C315.953 296.089 315.051 295.848 314.294 295.345C315.107 295.628 315.976 295.713 316.829 295.595C317.629 295.448 318.359 295.043 318.907 294.441C319.468 293.846 319.897 293.137 320.164 292.363C320.427 291.528 320.508 290.646 320.403 289.776Z" fill="#C7C7C7"/>
<path d="M300.403 261.392C298.866 263.751 295.458 264.249 292.798 262.514C290.138 260.779 289.235 257.455 290.772 255.106C292.31 252.758 295.718 252.249 298.367 253.984C301.016 255.719 301.941 259.044 300.403 261.392Z" fill="#DBDBDB"/>
<path d="M291.946 257.309C291.545 257.944 291.311 258.672 291.267 259.422C291.224 260.173 291.372 260.922 291.697 261.6C290.827 260.782 290.262 259.692 290.094 258.51C289.926 257.328 290.165 256.124 290.772 255.096C292.31 252.748 295.718 252.249 298.367 253.984C299.258 254.534 299.984 255.313 300.47 256.24C300.956 257.166 301.185 258.207 301.131 259.252C300.731 258.029 299.92 256.982 298.835 256.291C297.784 255.518 296.471 255.191 295.181 255.382C293.891 255.573 292.728 256.265 291.946 257.309Z" fill="#C7C7C7"/>
<path d="M302.284 257.506C302.677 258.115 302.946 258.796 303.074 259.509C303.203 260.223 303.188 260.954 303.032 261.662C302.878 262.418 302.555 263.128 302.086 263.74C301.625 264.342 301.063 264.859 300.424 265.267C299.757 265.639 299.029 265.886 298.273 265.995C297.543 266.083 296.804 266.062 296.081 265.932C294.686 265.684 293.369 265.111 292.237 264.26C293.523 264.635 294.847 264.865 296.185 264.945C297.428 265.035 298.672 264.768 299.769 264.176C300.29 263.857 300.756 263.457 301.151 262.992C301.556 262.531 301.873 261.999 302.086 261.423C302.516 260.162 302.585 258.805 302.284 257.506Z" fill="#C7C7C7"/>
<path d="M378.949 172.119C396.554 169.135 408.408 152.444 405.423 134.838C402.439 117.233 385.748 105.38 368.143 108.364C350.537 111.348 338.684 128.039 341.668 145.645C344.652 163.25 361.343 175.103 378.949 172.119Z" fill="#B56576"/>
<g opacity="0.1">
<path d="M342.023 133.019C345.938 132.256 349.948 132.108 353.909 132.582C360.87 133.32 377.524 139.325 386.553 139.855C399.238 140.541 403.529 135.897 405.067 133.102C404.129 129.05 402.422 125.216 400.038 121.808C397.711 124.25 390.002 131.575 370.355 127.959C360.215 126.089 353.275 119.471 350.927 117.227C346.504 121.527 343.413 127.009 342.023 133.019Z" fill="black"/>
<path d="M344.693 154.878C348.051 161.488 353.575 166.745 360.343 169.77C367.111 172.796 374.713 173.407 381.877 171.502C380.786 169.722 379.481 168.082 377.991 166.619C371.508 160.458 361.14 159.294 357.129 159.263C352.594 159.329 348.184 157.774 344.693 154.878Z" fill="black"/>
<path d="M341.275 138.183C341.275 138.474 341.275 138.764 341.275 139.066C341.275 139.367 341.275 139.596 341.275 139.866C341.275 140.468 341.275 141.071 341.275 141.663C341.275 142.255 341.327 142.702 341.379 143.273L341.442 143.866C341.442 144.094 341.494 144.312 341.525 144.531L341.618 145.196C341.618 145.455 341.701 145.725 341.753 145.985C341.805 146.245 341.847 146.505 341.899 146.764C341.951 147.024 342.003 147.211 342.044 147.429C342.158 147.918 342.273 148.396 342.408 148.873C343.842 150.411 346.314 151.512 350.512 152.136C356.745 153.06 364.995 151.398 376.87 153.518C384.141 154.872 390.901 158.197 396.413 163.128C401.138 158.413 404.283 152.347 405.41 145.767C403.665 144.676 397.42 142.183 379.322 145.279C373.638 146.321 367.863 146.777 362.086 146.64C348.423 146.11 343.291 140.998 341.494 138.266L341.275 138.183Z" fill="black"/>
</g>
<g opacity="0.1">
<path d="M385.4 125.725C385.255 127.159 386.823 128.478 388.901 128.686C390.979 128.894 392.777 127.907 392.922 126.473C393.067 125.04 391.499 123.72 389.421 123.512C387.343 123.304 385.525 124.302 385.4 125.725Z" fill="black"/>
<path d="M392.237 132.209C392.153 133.009 393.099 133.767 394.314 133.892C395.53 134.016 396.642 133.466 396.725 132.655C396.808 131.845 395.852 131.097 394.647 130.972C393.442 130.848 392.32 131.44 392.237 132.209Z" fill="black"/>
<path d="M350.958 154.587C350.834 155.813 352.216 156.946 354.075 157.133C355.935 157.32 357.462 156.468 357.587 155.242C357.712 154.016 356.33 152.894 354.47 152.707C352.61 152.52 351.114 153.372 350.958 154.587Z" fill="black"/>
<path d="M355.602 158.452C355.54 159.107 356.184 159.699 357.036 159.782C357.395 159.861 357.771 159.796 358.083 159.602C358.396 159.408 358.62 159.1 358.709 158.743C358.771 158.089 358.137 157.497 357.275 157.414C356.916 157.338 356.542 157.403 356.23 157.597C355.918 157.791 355.693 158.097 355.602 158.452Z" fill="black"/>
<path d="M357.909 156.375C357.909 156.759 358.283 157.123 358.823 157.175C359.363 157.227 359.862 156.956 359.862 156.572C359.862 156.188 359.488 155.814 358.948 155.762C358.407 155.71 357.95 155.938 357.909 156.375Z" fill="black"/>
<path d="M375.551 166.12C375.447 167.211 376.59 168.198 377.993 168.354C379.395 168.509 380.715 167.73 380.819 166.639C380.922 165.548 379.842 164.561 378.387 164.406C376.933 164.25 375.665 165.029 375.551 166.12Z" fill="black"/>
<path d="M377.016 161.891C376.966 162.147 376.995 162.411 377.099 162.65C377.203 162.889 377.377 163.09 377.598 163.228C377.819 163.366 378.076 163.434 378.336 163.422C378.596 163.411 378.847 163.321 379.055 163.165C379.263 163.009 379.419 162.793 379.502 162.546C379.585 162.3 379.591 162.033 379.52 161.783C379.449 161.533 379.303 161.31 379.103 161.144C378.903 160.978 378.657 160.876 378.397 160.852C378.238 160.829 378.076 160.837 377.92 160.877C377.764 160.917 377.618 160.987 377.49 161.083C377.361 161.18 377.253 161.301 377.172 161.44C377.09 161.579 377.037 161.732 377.016 161.891Z" fill="black"/>
</g>
<path d="M341.235 141.663C350.558 145.57 360.102 148.932 369.816 151.73C379.743 154.681 389.84 157.029 400.05 158.764C415.842 161.351 426.896 161.039 427.987 157.32C429.078 153.6 420.133 147.419 405.858 141.185C405.858 141.943 405.785 142.712 405.702 143.481C405.702 143.761 405.639 144.052 405.608 144.343C412.881 148.094 417.089 151.533 416.434 153.798C415.78 156.063 410.2 156.738 401.837 155.876C391.339 154.644 380.972 152.485 370.855 149.424C360.673 146.557 350.764 142.795 341.245 138.182C333.764 134.38 329.463 130.91 330.128 128.572C330.793 126.234 336.154 125.663 344.289 126.432C344.755 125.434 345.275 124.463 345.848 123.523C330.128 120.967 318.835 121.445 317.796 125.102C316.757 128.759 326.18 135.232 341.235 141.663Z" fill="#B56576"/>
<g opacity="0.2">
<path d="M341.235 141.663C350.558 145.571 360.102 148.932 369.816 151.731C379.743 154.681 389.84 157.03 400.05 158.764C415.842 161.351 426.896 161.04 427.987 157.32C429.078 153.601 420.133 147.419 405.858 141.185C405.858 141.944 405.785 142.713 405.702 143.481C405.702 143.762 405.639 144.053 405.608 144.344C412.881 148.094 417.089 151.533 416.434 153.798C415.78 156.063 410.2 156.738 401.837 155.876C391.339 154.644 380.972 152.485 370.855 149.424C360.673 146.557 350.764 142.796 341.245 138.183C333.764 134.38 329.463 130.91 330.128 128.572C330.793 126.235 336.154 125.663 344.289 126.432C344.755 125.435 345.275 124.464 345.848 123.523C330.128 120.967 318.835 121.445 317.796 125.102C316.757 128.759 326.18 135.232 341.235 141.663Z" fill="black"/>
</g>
<path d="M341.483 144.52C350.62 148.28 359.945 151.564 369.421 154.359C378.829 157.18 388.376 159.517 398.023 161.362C419.644 165.424 435.426 165.164 436.974 159.907C438.522 154.65 425.743 145.985 405.764 137.673C405.764 138.172 405.836 138.712 405.847 139.18C422.47 146.453 432.859 153.808 431.519 158.307C430.179 162.806 417.161 163.315 399.01 160.198C389.13 158.454 379.361 156.129 369.753 153.237C360.082 150.388 350.586 146.971 341.317 143.003C324.497 135.731 313.93 128.24 315.281 123.7C316.632 119.159 329.297 118.723 347.083 121.694C347.374 121.293 347.676 120.887 347.987 120.479C326.772 116.572 311.375 116.894 309.827 122.079C308.278 127.263 321.255 136.105 341.483 144.52Z" fill="#B56576"/>
<path d="M83.3895 107.615C85.9226 98.475 80.5664 89.0117 71.426 86.4786C62.2856 83.9455 52.8224 89.3017 50.2893 98.4421C47.7561 107.582 53.1124 117.046 62.2527 119.579C71.3931 122.112 80.8563 116.756 83.3895 107.615Z" fill="#B56576"/>
<path opacity="0.1" d="M83.3895 107.615C85.9226 98.475 80.5664 89.0117 71.426 86.4786C62.2856 83.9455 52.8224 89.3017 50.2893 98.4421C47.7561 107.582 53.1124 117.046 62.2527 119.579C71.3931 122.112 80.8563 116.756 83.3895 107.615Z" fill="black"/>
<g opacity="0.1">
<path d="M83.2724 108.022C81.6709 106.634 79.862 105.505 77.9114 104.676C74.5036 103.18 65.2465 101.56 60.966 99.3778C54.9401 96.3337 54.1817 93.061 54.2232 91.3675C55.7203 89.7431 57.5202 88.4267 59.5219 87.4922C59.9479 89.2272 61.5998 94.6402 71.5738 98.1726C75.3997 99.3739 79.4915 99.4425 83.3555 98.37C84.2575 101.528 84.2286 104.88 83.2724 108.022Z" fill="black"/>
<path d="M76.2591 117.383C73.8498 118.968 71.079 119.92 68.2038 120.149C65.3286 120.378 62.4422 119.876 59.8124 118.692C57.9202 117.852 56.1982 116.672 54.7319 115.211C55.719 114.681 56.7652 114.27 57.8488 113.985C62.4618 112.863 67.5422 115.076 69.402 116.115C71.4633 117.342 73.8953 117.791 76.2591 117.383Z" fill="black"/>
<path d="M82.244 110.598C82.1816 110.733 82.1089 110.879 82.0362 111.014C81.9635 111.149 81.9011 111.263 81.8284 111.388C81.6725 111.668 81.5167 111.949 81.3505 112.209C81.1842 112.468 81.0388 112.697 80.8726 112.926L80.6855 113.185L80.4778 113.466L80.2492 113.746C80.1661 113.861 80.0726 113.965 79.979 114.079C79.8946 114.187 79.8044 114.292 79.7089 114.391L79.47 114.661L78.9193 115.232C77.8804 115.565 76.4258 115.419 74.3271 114.598C71.2103 113.372 67.8441 110.443 61.8597 108.261C58.1346 106.958 54.1221 106.71 50.265 107.544C49.3264 104.12 49.4789 100.488 50.7013 97.1543C51.8026 97.1543 55.3351 97.6114 62.8571 103.824C65.1937 105.815 67.7321 107.556 70.4311 109.019C76.8622 112.396 80.5816 111.388 82.1297 110.609H82.244V110.598Z" fill="black"/>
</g>
<g opacity="0.1">
<path d="M65.9324 117.06C66.2337 116.354 67.3038 116.156 68.322 116.593C69.3402 117.029 69.9116 117.964 69.6103 118.67C69.309 119.377 68.2285 119.574 67.2207 119.138C66.2129 118.702 65.6207 117.756 65.9324 117.06Z" fill="black"/>
<path d="M70.7839 115.856C70.9605 115.461 71.5943 115.357 72.2073 115.627C72.8203 115.897 73.1631 116.427 72.9969 116.822C72.8306 117.217 72.1865 117.321 71.5839 117.05C70.9813 116.78 70.5969 116.23 70.7839 115.856Z" fill="black"/>
<path d="M57.4645 94.744C57.7346 94.1518 58.6593 93.9856 59.5424 94.37C60.4255 94.7544 60.945 95.5544 60.6852 96.157C60.4255 96.7596 59.4904 96.9154 58.6073 96.531C57.7242 96.1466 57.2047 95.3466 57.4645 94.744Z" fill="black"/>
<path d="M60.6334 94.1517C60.6592 93.9732 60.7404 93.8073 60.8655 93.6774C60.9906 93.5475 61.1532 93.46 61.3306 93.4273C61.508 93.3947 61.6912 93.4185 61.8543 93.4953C62.0175 93.5722 62.1524 93.6983 62.2402 93.8559C62.3279 94.0135 62.3641 94.1946 62.3435 94.3738C62.3229 94.553 62.2467 94.7212 62.1255 94.8548C62.0043 94.9884 61.8443 95.0806 61.6679 95.1185C61.4916 95.1564 61.3078 95.138 61.1424 95.066C60.9549 95.0104 60.7966 94.8836 60.7014 94.7127C60.6063 94.5418 60.5818 94.3404 60.6334 94.1517Z" fill="black"/>
<path d="M61.1427 95.7517C61.2258 95.5543 61.5063 95.492 61.7764 95.6167C62.0466 95.7413 62.192 95.9803 62.1089 96.1673C62.0395 96.2653 61.9358 96.3336 61.8184 96.3586C61.701 96.3837 61.5784 96.3636 61.4751 96.3024C61.2466 96.1881 61.0595 95.9387 61.1427 95.7517Z" fill="black"/>
<path d="M71.8535 95.793C72.031 95.5164 72.3089 95.3195 72.6288 95.244C72.9486 95.1684 73.2853 95.2199 73.5678 95.3878C73.7386 95.4077 73.9023 95.4674 74.046 95.562C74.1896 95.6566 74.309 95.7835 74.3947 95.9326C74.4805 96.0817 74.5301 96.2488 74.5397 96.4205C74.5492 96.5922 74.5185 96.7637 74.4498 96.9214C74.3811 97.079 74.2765 97.2184 74.1443 97.3284C74.0121 97.4384 73.8559 97.5158 73.6884 97.5546C73.5209 97.5934 73.3466 97.5924 73.1795 97.5517C73.0124 97.511 72.8572 97.4317 72.7262 97.3203C72.4129 97.2259 72.1476 97.0148 71.9853 96.7307C71.8229 96.4465 71.7757 96.1109 71.8535 95.793Z" fill="black"/>
<path d="M71.4383 98.1308C71.4757 98.055 71.5279 97.9875 71.5918 97.9323C71.6557 97.877 71.73 97.8351 71.8103 97.8089C71.8907 97.7828 71.9755 97.773 72.0596 97.7801C72.1438 97.7872 72.2258 97.811 72.3006 97.8502C72.4599 97.9088 72.5896 98.0279 72.6616 98.1816C72.7335 98.3353 72.742 98.5112 72.685 98.671C72.6053 98.8201 72.471 98.9325 72.3103 98.9848C72.1495 99.0371 71.9748 99.0252 71.8227 98.9515C71.6634 98.893 71.5337 98.7739 71.4617 98.6202C71.3897 98.4665 71.3813 98.2906 71.4383 98.1308Z" fill="black"/>
</g>
<path d="M231.115 54.744C230.783 54.4115 212.497 47.9077 197.744 61.4972C184.238 73.9646 181.058 95.3983 183.043 95.7203C185.463 96.1047 191.043 85.5178 203.022 78.8685C207.261 76.5101 214.45 77.8295 214.45 77.8295L231.115 54.744Z" fill="#B56576"/>
<path opacity="0.1" d="M214.492 77.7985C212.349 77.4567 210.173 77.3695 208.009 77.5388C210.222 71.5129 214.368 60.2921 217.059 53.0195C221.814 52.5443 226.616 53.1334 231.116 54.7441L214.492 77.7985Z" fill="black"/>
<path d="M263.157 86.1309C263.5 86.4633 270.429 104.603 257.1 119.637C244.892 133.455 223.552 137.019 223.188 135.045C222.741 132.624 233.224 126.827 239.624 114.723C241.889 110.422 240.445 103.232 240.445 103.232L263.157 86.1309Z" fill="#B56576"/>
<path opacity="0.1" d="M265.162 100.271L240.84 109.861C240.974 107.651 240.845 105.433 240.456 103.253L263.157 86.1519C264.872 90.6494 265.557 95.4741 265.162 100.271Z" fill="black"/>
<path d="M224.456 112.738L205.464 94.0371C205.464 94.0371 212.165 69.2581 231.895 51.2115C241.617 42.5806 252.57 35.4445 264.393 30.0376C279.24 23.1078 291.946 20.3234 294.159 22.4844C296.372 24.6454 293.837 37.4038 287.23 52.4063C282.061 64.3326 275.149 75.425 266.721 85.3203C249.079 105.466 224.456 112.738 224.456 112.738Z" fill="#C7C7C7"/>
<path d="M263.095 76.9777C260.973 79.1452 258.256 80.6348 255.288 81.2581C252.319 81.8815 249.233 81.6105 246.418 80.4796C243.604 79.3486 241.188 77.4085 239.476 74.9045C237.765 72.4005 236.834 69.4451 236.802 66.4121C236.77 63.3792 237.638 60.4049 239.297 57.8653C240.955 55.3258 243.33 53.3351 246.12 52.1451C248.91 50.9551 251.99 50.6191 254.971 51.1798C257.952 51.7404 260.699 53.1724 262.866 55.2947C265.771 58.14 267.427 62.0227 267.47 66.0889C267.513 70.155 265.939 74.0718 263.095 76.9777Z" fill="#A6A6A6"/>
<path d="M263.842 75.4816C261.721 77.6491 259.004 79.1387 256.035 79.762C253.067 80.3854 249.98 80.1144 247.166 78.9835C244.352 77.8525 241.936 75.9124 240.224 73.4084C238.512 70.9044 237.582 67.949 237.55 64.916C237.518 61.8831 238.386 58.9088 240.044 56.3692C241.703 53.8297 244.077 51.839 246.867 50.649C249.657 49.459 252.737 49.123 255.718 49.6837C258.699 50.2443 261.447 51.6763 263.614 53.7986C266.519 56.6439 268.175 60.5266 268.218 64.5928C268.261 68.6589 266.687 72.5757 263.842 75.4816Z" fill="#B56576"/>
<path d="M260.445 72.2194C258.974 73.7237 257.089 74.758 255.03 75.1913C252.971 75.6247 250.83 75.4377 248.877 74.654C246.924 73.8703 245.247 72.5252 244.059 70.7886C242.871 69.0521 242.224 67.0021 242.201 64.898C242.178 62.794 242.779 60.7302 243.928 58.9678C245.078 57.2055 246.725 55.8236 248.66 54.9969C250.595 54.1703 252.731 53.936 254.8 54.3238C256.868 54.7116 258.775 55.7039 260.279 57.1753C261.279 58.1516 262.076 59.3154 262.626 60.6002C263.175 61.885 263.466 63.2656 263.482 64.6629C263.497 66.0602 263.237 67.4469 262.716 68.7435C262.195 70.0402 261.423 71.2213 260.445 72.2194Z" fill="white"/>
<path d="M260.445 72.2193C259.527 73.1615 258.442 73.9259 257.245 74.4738L248.674 74.5673C247.459 74.0513 246.352 73.3111 245.412 72.3855C244.726 71.7217 244.135 70.9665 243.656 70.1414L262.16 69.9336C261.697 70.7714 261.12 71.5407 260.445 72.2193Z" fill="#EBEBEB"/>
<path d="M261.318 58.3286L244.237 58.5156C244.551 58.09 244.898 57.6904 245.276 57.3208C246.252 56.3209 247.416 55.5233 248.701 54.9737C249.986 54.4241 251.366 54.1333 252.764 54.1178C254.161 54.1024 255.548 54.3627 256.844 54.8837C258.141 55.4048 259.322 56.1765 260.32 57.1546C260.685 57.5174 261.019 57.9101 261.318 58.3286Z" fill="#EBEBEB"/>
<path d="M263.094 67.5752L242.658 67.8038C242.566 67.4997 242.49 67.191 242.43 66.8791L263.313 66.6401C263.261 66.9518 263.178 67.2635 263.094 67.5752Z" fill="#EBEBEB"/>
<path d="M287.23 52.479L264.373 30.1103C279.219 23.1805 291.926 20.3961 294.139 22.5571C296.352 24.7182 293.837 37.4453 287.23 52.479Z" fill="#B56576"/>
<path d="M270.638 31.5754C270.468 31.7416 270.241 31.8348 270.004 31.8348C269.767 31.8348 269.539 31.7416 269.37 31.5754C269.212 31.4076 269.125 31.1854 269.127 30.9551C269.13 30.7248 269.221 30.5042 269.381 30.3394C269.542 30.1745 269.76 30.0781 269.991 30.0703C270.221 30.0625 270.445 30.1439 270.617 30.2975C270.789 30.4642 270.888 30.6925 270.892 30.9321C270.896 31.1718 270.804 31.4031 270.638 31.5754Z" fill="white"/>
<path d="M274.7 35.5549C274.53 35.7211 274.303 35.8143 274.066 35.8143C273.829 35.8143 273.601 35.7211 273.432 35.5549C273.274 35.3871 273.187 35.1649 273.189 34.9346C273.192 34.7043 273.283 34.4837 273.443 34.3189C273.604 34.154 273.822 34.0576 274.053 34.0498C274.283 34.042 274.507 34.1234 274.679 34.277C274.851 34.4437 274.95 34.672 274.954 34.9116C274.958 35.1513 274.866 35.3826 274.7 35.5549Z" fill="white"/>
<path d="M278.762 39.5339C278.592 39.7001 278.365 39.7933 278.128 39.7933C277.891 39.7933 277.663 39.7001 277.494 39.5339C277.336 39.3661 277.249 39.1439 277.252 38.9136C277.254 38.6833 277.345 38.4627 277.505 38.2979C277.666 38.133 277.885 38.0366 278.115 38.0288C278.345 38.021 278.569 38.1024 278.741 38.256C278.913 38.4227 279.012 38.651 279.016 38.8906C279.02 39.1303 278.928 39.3616 278.762 39.5339Z" fill="white"/>
<path d="M282.824 43.5129C282.655 43.6791 282.427 43.7723 282.19 43.7723C281.953 43.7723 281.726 43.6791 281.556 43.5129C281.399 43.3451 281.312 43.1229 281.314 42.8926C281.316 42.6623 281.407 42.4417 281.568 42.2769C281.729 42.112 281.947 42.0156 282.177 42.0078C282.407 42 282.632 42.0814 282.803 42.235C282.975 42.4017 283.074 42.63 283.078 42.8696C283.082 43.1093 282.991 43.3406 282.824 43.5129Z" fill="white"/>
<path d="M286.887 47.4924C286.717 47.6586 286.49 47.7518 286.253 47.7518C286.016 47.7518 285.788 47.6586 285.619 47.4924C285.461 47.3246 285.374 47.1024 285.377 46.8721C285.379 46.6418 285.47 46.4212 285.63 46.2564C285.791 46.0915 286.009 45.9951 286.24 45.9873C286.47 45.9795 286.694 46.0609 286.866 46.2145C287.038 46.3812 287.137 46.6095 287.141 46.8491C287.145 47.0888 287.053 47.3201 286.887 47.4924Z" fill="white"/>
<path d="M210.357 93.1437C210.274 93.2273 210.175 93.2936 210.066 93.3388C209.958 93.3841 209.841 93.4074 209.723 93.4074C209.605 93.4074 209.489 93.3841 209.38 93.3388C209.271 93.2936 209.172 93.2273 209.089 93.1437C209.006 93.0616 208.94 92.9637 208.895 92.8558C208.85 92.7479 208.827 92.6321 208.827 92.5151C208.827 92.3982 208.85 92.2824 208.895 92.1745C208.94 92.0666 209.006 91.9687 209.089 91.8866C209.17 91.7967 209.268 91.7241 209.377 91.673C209.486 91.6219 209.605 91.5935 209.725 91.5894C209.846 91.5853 209.966 91.6056 210.078 91.6492C210.191 91.6928 210.293 91.7586 210.379 91.8428C210.466 91.927 210.534 92.0278 210.58 92.1392C210.627 92.2505 210.65 92.37 210.649 92.4906C210.648 92.6112 210.622 92.7303 210.574 92.8407C210.525 92.9512 210.455 93.0507 210.367 93.1333L210.357 93.1437Z" fill="#A6A6A6"/>
<path d="M214.419 97.154C214.336 97.2375 214.238 97.3038 214.129 97.3491C214.02 97.3943 213.904 97.4176 213.786 97.4176C213.668 97.4176 213.551 97.3943 213.442 97.3491C213.334 97.3038 213.235 97.2375 213.152 97.154C213.069 97.0718 213.003 96.9739 212.958 96.866C212.912 96.7581 212.889 96.6423 212.889 96.5254C212.889 96.4084 212.912 96.2926 212.958 96.1847C213.003 96.0768 213.069 95.979 213.152 95.8968C213.232 95.807 213.33 95.7343 213.439 95.6832C213.549 95.6322 213.667 95.6037 213.788 95.5996C213.908 95.5955 214.028 95.6159 214.141 95.6594C214.253 95.703 214.355 95.7689 214.442 95.8531C214.528 95.9373 214.596 96.0381 214.643 96.1494C214.689 96.2607 214.712 96.3803 214.711 96.5009C214.71 96.6214 214.685 96.7405 214.636 96.851C214.588 96.9614 214.518 97.061 214.43 97.1436L214.419 97.154Z" fill="#A6A6A6"/>
<path d="M218.482 101.103C218.313 101.269 218.085 101.362 217.848 101.362C217.611 101.362 217.383 101.269 217.214 101.103C217.131 101.02 217.064 100.921 217.019 100.812C216.974 100.703 216.951 100.587 216.951 100.469C216.951 100.351 216.974 100.234 217.019 100.126C217.064 100.017 217.131 99.9181 217.214 99.8351C217.383 99.6688 217.611 99.5757 217.848 99.5757C218.085 99.5757 218.313 99.6688 218.482 99.8351C218.646 100.005 218.737 100.233 218.737 100.469C218.737 100.705 218.646 100.932 218.482 101.103Z" fill="#A6A6A6"/>
<path d="M222.544 105.082C222.461 105.165 222.362 105.232 222.253 105.277C222.145 105.322 222.028 105.345 221.91 105.345C221.792 105.345 221.676 105.322 221.567 105.277C221.458 105.232 221.36 105.165 221.276 105.082C221.193 105 221.127 104.902 221.082 104.794C221.037 104.686 221.014 104.57 221.014 104.453C221.014 104.336 221.037 104.22 221.082 104.112C221.127 104.005 221.193 103.907 221.276 103.825C221.357 103.735 221.455 103.662 221.564 103.611C221.673 103.56 221.792 103.531 221.912 103.527C222.033 103.523 222.153 103.544 222.265 103.587C222.378 103.631 222.48 103.697 222.566 103.781C222.653 103.865 222.721 103.966 222.767 104.077C222.814 104.188 222.837 104.308 222.836 104.429C222.835 104.549 222.809 104.668 222.761 104.779C222.712 104.889 222.642 104.989 222.554 105.071L222.544 105.082Z" fill="#A6A6A6"/>
<path d="M226.606 109.06C226.523 109.144 226.425 109.21 226.316 109.256C226.207 109.301 226.091 109.324 225.973 109.324C225.855 109.324 225.738 109.301 225.63 109.256C225.521 109.21 225.422 109.144 225.339 109.06C225.256 108.978 225.19 108.88 225.145 108.773C225.099 108.665 225.076 108.549 225.076 108.432C225.076 108.315 225.099 108.199 225.145 108.091C225.19 107.983 225.256 107.886 225.339 107.803C225.508 107.637 225.736 107.544 225.973 107.544C226.21 107.544 226.437 107.637 226.606 107.803C226.767 107.973 226.857 108.198 226.857 108.432C226.857 108.666 226.767 108.891 226.606 109.06Z" fill="#A6A6A6"/>
<path opacity="0.2" d="M293.141 22.0174C281.359 23.9603 261.504 33.0407 241.463 51.9912C226.668 65.986 217.089 88.978 212.705 101.175L205.432 94.0793C205.432 94.0793 212.144 69.3002 231.874 51.2536C241.596 42.6227 252.549 35.4866 264.372 30.0797C277.702 23.8668 289.286 20.9889 293.141 22.0174Z" fill="white"/>
<path d="M217.11 116.687L201.661 101.549L206.534 95.1284L223.427 111.679L217.11 116.687Z" fill="#B56576"/>
<path opacity="0.1" d="M223.427 111.679L220.352 114.12L204.664 97.5906L206.534 95.1387L223.427 111.679Z" fill="black"/>
<path opacity="0.6" d="M213.713 113.3C207.579 118.222 202.543 124.373 198.928 131.357C195.276 138.429 193.579 146.349 194.014 154.297C194.277 158.319 195.138 162.28 196.57 166.048C198.029 169.885 200.038 173.489 202.534 176.749C205.079 180.075 208.043 183.057 211.354 185.621C214.717 188.231 218.341 190.484 222.17 192.344C218.1 190.923 214.189 189.081 210.502 186.847C206.755 184.58 203.315 181.839 200.269 178.692C193.967 172.183 189.73 163.956 188.092 155.045C186.53 145.914 187.434 136.531 190.71 127.866C194.008 119.131 199.101 111.185 205.661 104.542L213.713 113.3Z" fill="#B56576"/>
<path d="M203.583 124.219L201.09 124.925L200.767 127.658L199.957 125.029L197.37 124.801L199.843 123.949L200.186 121.362L201.006 123.835L203.583 124.219Z" fill="white"/>
<path d="M198.898 175.222L197.495 175.616L197.319 177.144L196.862 175.679L195.417 175.544L196.799 175.066L196.997 173.622L197.443 175.003L198.898 175.222Z" fill="white"/>
<path d="M196.924 162.307L195.532 162.702L195.355 164.229L194.898 162.754L193.454 162.629L194.835 162.151L195.022 160.707L195.48 162.089L196.924 162.307Z" fill="white"/>
<path d="M200.934 116.053L199.542 116.447L199.365 117.975L198.908 116.51L197.464 116.375L198.846 115.897L199.043 114.453L199.49 115.834L200.934 116.053Z" fill="white"/>
<path d="M202.544 178.193C202.434 178.202 202.332 178.255 202.261 178.34C202.19 178.425 202.155 178.534 202.165 178.644C202.174 178.755 202.227 178.857 202.312 178.928C202.397 178.999 202.506 179.033 202.617 179.024C202.727 179.014 202.829 178.961 202.9 178.876C202.971 178.791 203.005 178.682 202.996 178.572C202.986 178.462 202.933 178.36 202.848 178.289C202.764 178.217 202.654 178.183 202.544 178.193Z" fill="white"/>
<path d="M208.384 113.341C208.285 113.363 208.198 113.42 208.139 113.501C208.079 113.582 208.051 113.683 208.06 113.783C208.069 113.883 208.114 113.977 208.187 114.047C208.26 114.116 208.356 114.157 208.456 114.162C208.555 114.14 208.642 114.083 208.701 114.001C208.761 113.92 208.788 113.82 208.78 113.719C208.771 113.619 208.726 113.525 208.653 113.456C208.58 113.386 208.484 113.345 208.384 113.341Z" fill="white"/>
<path d="M189.63 152.084C189.52 152.095 189.418 152.149 189.348 152.235C189.278 152.32 189.245 152.431 189.256 152.541C189.267 152.651 189.321 152.752 189.407 152.822C189.493 152.893 189.603 152.926 189.713 152.915C189.823 152.904 189.925 152.849 189.995 152.764C190.065 152.678 190.098 152.568 190.087 152.458C190.076 152.347 190.022 152.246 189.936 152.176C189.85 152.106 189.74 152.073 189.63 152.084Z" fill="white"/>
<path d="M201.62 176.115C201.542 176.115 201.468 176.145 201.414 176.2C201.359 176.255 201.329 176.328 201.329 176.406C201.329 176.483 201.359 176.557 201.414 176.611C201.468 176.666 201.542 176.697 201.62 176.697C201.697 176.697 201.771 176.666 201.825 176.611C201.88 176.557 201.91 176.483 201.91 176.406C201.91 176.328 201.88 176.255 201.825 176.2C201.771 176.145 201.697 176.115 201.62 176.115Z" fill="white"/>
<path d="M188.155 137.725C188.078 137.725 188.004 137.756 187.949 137.81C187.894 137.865 187.864 137.939 187.864 138.016C187.864 138.093 187.894 138.167 187.949 138.222C188.004 138.276 188.078 138.307 188.155 138.307C188.232 138.307 188.306 138.276 188.36 138.222C188.415 138.167 188.446 138.093 188.446 138.016C188.446 137.939 188.415 137.865 188.36 137.81C188.306 137.756 188.232 137.725 188.155 137.725Z" fill="white"/>
<path d="M193.879 167.221C193.67 167.24 193.477 167.342 193.342 167.504C193.208 167.666 193.143 167.874 193.163 168.083C193.182 168.293 193.283 168.486 193.445 168.62C193.607 168.755 193.815 168.82 194.025 168.8C194.234 168.781 194.427 168.679 194.562 168.518C194.696 168.356 194.761 168.147 194.742 167.938C194.722 167.729 194.621 167.535 194.459 167.401C194.297 167.267 194.089 167.202 193.879 167.221Z" fill="white"/>
<path d="M191.635 134.702C191.426 134.721 191.233 134.823 191.098 134.985C190.964 135.146 190.899 135.355 190.918 135.564C190.938 135.774 191.039 135.967 191.201 136.101C191.363 136.236 191.571 136.301 191.781 136.281C191.99 136.262 192.183 136.16 192.318 135.999C192.452 135.837 192.517 135.628 192.498 135.419C192.478 135.21 192.377 135.016 192.215 134.882C192.053 134.747 191.845 134.683 191.635 134.702Z" fill="white"/>
<path d="M353.12 279.906L358.097 280.831L359.208 286.078L360.33 280.831L365.307 279.906L360.341 278.691L359.208 273.735L358.076 278.691L353.12 279.906Z" fill="white"/>
<path d="M386.512 115.46L391.489 116.375L392.6 121.621L393.712 116.375L398.689 115.46L393.733 114.245L392.6 109.289L391.468 114.245L386.512 115.46Z" fill="white"/>
<path d="M35.688 139.056L40.6646 139.98L41.7866 145.227L42.8983 139.98L47.8749 139.056L42.9191 137.84L41.7866 132.884L40.6438 137.84L35.688 139.056Z" fill="white"/>
<path d="M302.284 129.362L307.26 130.286L308.372 135.533L309.484 130.286L314.46 129.362L309.504 128.146L308.372 123.19L307.239 128.146L302.284 129.362Z" fill="white"/>
<path d="M417.348 217.777L420.132 218.286L420.755 221.216L421.379 218.286L424.153 217.777L421.389 217.091L420.755 214.328L420.122 217.091L417.348 217.777Z" fill="white"/>
<path d="M403.208 132.884L405.992 133.403L406.616 136.333L407.239 133.403L410.013 132.884L407.25 132.209L406.616 129.435L405.982 132.209L403.208 132.884Z" fill="white"/>
<path d="M62.5454 149.663L65.3298 150.172L65.9532 153.102L66.5765 150.172L69.3609 149.652L66.5869 148.977L65.9532 146.213L65.3194 148.977L62.5454 149.663Z" fill="white"/>
<path d="M353.753 172.479L356.538 172.988L357.161 175.928L357.785 172.988L360.569 172.479L357.795 171.803L357.161 169.029L356.527 171.803L353.753 172.479Z" fill="white"/>
<path d="M246.876 172.717L249.661 173.226L250.284 176.167L250.908 173.226L253.692 172.717L250.918 172.032L250.284 169.268L249.65 172.032L246.876 172.717Z" fill="white"/>
<path d="M164.311 50.5777L167.095 51.0868L167.708 54.0271L168.331 51.0868L171.116 50.5777L168.342 49.9024L167.708 47.1284L167.085 49.9024L164.311 50.5777Z" fill="white"/>
<path d="M347.188 296.041L349.972 296.56L350.596 299.49L351.209 296.56L353.993 296.041L351.23 295.365L350.596 292.591L349.952 295.365L347.188 296.041Z" fill="white"/>
<path d="M268.798 135.907C269.013 135.907 269.219 135.993 269.371 136.145C269.523 136.297 269.609 136.503 269.609 136.718C269.609 136.933 269.523 137.139 269.371 137.291C269.219 137.443 269.013 137.528 268.798 137.528C268.583 137.528 268.377 137.443 268.225 137.291C268.073 137.139 267.988 136.933 267.988 136.718C267.988 136.503 268.073 136.297 268.225 136.145C268.377 135.993 268.583 135.907 268.798 135.907Z" fill="white"/>
<path d="M257.785 217.538C257.983 217.56 258.166 217.655 258.298 217.803C258.431 217.952 258.504 218.144 258.504 218.343C258.504 218.542 258.431 218.734 258.298 218.882C258.166 219.031 257.983 219.125 257.785 219.148C257.587 219.125 257.405 219.031 257.272 218.882C257.14 218.734 257.066 218.542 257.066 218.343C257.066 218.144 257.14 217.952 257.272 217.803C257.405 217.655 257.587 217.56 257.785 217.538Z" fill="white"/>
<path d="M360.57 197.995C360.768 198.018 360.95 198.112 361.083 198.261C361.215 198.409 361.289 198.601 361.289 198.8C361.289 198.999 361.215 199.191 361.083 199.34C360.95 199.488 360.768 199.583 360.57 199.605C360.372 199.583 360.189 199.488 360.057 199.34C359.924 199.191 359.851 198.999 359.851 198.8C359.851 198.601 359.924 198.409 360.057 198.261C360.189 198.112 360.372 198.018 360.57 197.995Z" fill="white"/>
<path d="M364.964 226.275C365.162 226.298 365.344 226.392 365.477 226.541C365.609 226.689 365.683 226.882 365.683 227.081C365.683 227.28 365.609 227.472 365.477 227.62C365.344 227.769 365.162 227.863 364.964 227.886C364.766 227.863 364.584 227.769 364.451 227.62C364.318 227.472 364.245 227.28 364.245 227.081C364.245 226.882 364.318 226.689 364.451 226.541C364.584 226.392 364.766 226.298 364.964 226.275Z" fill="white"/>
<path d="M166.482 65.082C166.634 65.082 166.779 65.1422 166.886 65.2494C166.993 65.3566 167.053 65.5019 167.053 65.6535C167.053 65.805 166.993 65.9504 166.886 66.0575C166.779 66.1647 166.634 66.2249 166.482 66.2249C166.331 66.2249 166.185 66.1647 166.078 66.0575C165.971 65.9504 165.911 65.805 165.911 65.6535C165.911 65.5019 165.971 65.3566 166.078 65.2494C166.185 65.1422 166.331 65.082 166.482 65.082Z" fill="white"/>
<path d="M346.626 176.177C346.778 176.177 346.923 176.237 347.03 176.345C347.137 176.452 347.198 176.597 347.198 176.749C347.198 176.9 347.137 177.046 347.03 177.153C346.923 177.26 346.778 177.32 346.626 177.32C346.475 177.32 346.329 177.26 346.222 177.153C346.115 177.046 346.055 176.9 346.055 176.749C346.055 176.597 346.115 176.452 346.222 176.345C346.329 176.237 346.475 176.177 346.626 176.177Z" fill="white"/>
<path d="M205.1 217.777C205.237 217.796 205.363 217.864 205.454 217.968C205.544 218.072 205.595 218.205 205.595 218.344C205.595 218.482 205.544 218.615 205.454 218.719C205.363 218.824 205.237 218.891 205.1 218.91C204.963 218.891 204.837 218.824 204.747 218.719C204.656 218.615 204.605 218.482 204.605 218.344C204.605 218.205 204.656 218.072 204.747 217.968C204.837 217.864 204.963 217.796 205.1 217.777Z" fill="white"/>
<path d="M236.352 213.216C236.503 213.216 236.649 213.276 236.756 213.383C236.863 213.49 236.923 213.636 236.923 213.787C236.923 213.939 236.863 214.084 236.756 214.191C236.649 214.298 236.503 214.359 236.352 214.359C236.2 214.359 236.055 214.298 235.948 214.191C235.84 214.084 235.78 213.939 235.78 213.787C235.78 213.636 235.84 213.49 235.948 213.383C236.055 213.276 236.2 213.216 236.352 213.216Z" fill="white"/>
<path d="M293.411 120.084C293.824 120.084 294.221 120.248 294.513 120.54C294.805 120.833 294.969 121.229 294.969 121.642C294.969 122.056 294.805 122.452 294.513 122.744C294.221 123.037 293.824 123.201 293.411 123.201C292.998 123.201 292.601 123.037 292.309 122.744C292.017 122.452 291.853 122.056 291.853 121.642C291.853 121.229 292.017 120.833 292.309 120.54C292.601 120.248 292.998 120.084 293.411 120.084Z" fill="white"/>
<path d="M276.092 83.5542L281.068 84.4789L282.18 89.7256L283.292 84.4789L288.268 83.5542L283.313 82.3386L282.18 77.3828L281.048 82.3386L276.092 83.5542Z" fill="white"/>
<path d="M229.536 27.6485L232.321 28.168L232.944 31.0979L233.567 28.168L236.352 27.6485L233.578 26.9732L232.944 24.1992L232.31 26.9732L229.536 27.6485Z" fill="white"/>
<path d="M60.8936 102.931C61.0914 102.953 61.274 103.048 61.4065 103.196C61.5391 103.345 61.6123 103.537 61.6123 103.736C61.6123 103.935 61.5391 104.127 61.4065 104.276C61.274 104.424 61.0914 104.519 60.8936 104.541C60.6958 104.519 60.5132 104.424 60.3806 104.276C60.2481 104.127 60.1748 103.935 60.1748 103.736C60.1748 103.537 60.2481 103.345 60.3806 103.196C60.5132 103.048 60.6958 102.953 60.8936 102.931Z" fill="white"/>
<path d="M93.0176 170.536C93.2154 170.558 93.398 170.653 93.5305 170.801C93.6631 170.95 93.7364 171.142 93.7364 171.341C93.7364 171.54 93.6631 171.732 93.5305 171.881C93.398 172.029 93.2154 172.124 93.0176 172.146C92.8198 172.124 92.6372 172.029 92.5047 171.881C92.3721 171.732 92.2988 171.54 92.2988 171.341C92.2988 171.142 92.3721 170.95 92.5047 170.801C92.6372 170.653 92.8198 170.558 93.0176 170.536Z" fill="white"/>
<path d="M424.725 147.522C424.922 147.545 425.105 147.639 425.238 147.788C425.37 147.936 425.443 148.129 425.443 148.328C425.443 148.527 425.37 148.719 425.238 148.867C425.105 149.016 424.922 149.11 424.725 149.133C424.527 149.11 424.344 149.016 424.212 148.867C424.079 148.719 424.006 148.527 424.006 148.328C424.006 148.129 424.079 147.936 424.212 147.788C424.344 147.639 424.527 147.545 424.725 147.522Z" fill="white"/>
<path d="M329.992 90.4844C330.144 90.4844 330.289 90.5446 330.396 90.6517C330.504 90.7589 330.564 90.9042 330.564 91.0558C330.564 91.2073 330.504 91.3527 330.396 91.4599C330.289 91.567 330.144 91.6272 329.992 91.6272C329.841 91.6272 329.695 91.567 329.588 91.4599C329.481 91.3527 329.421 91.2073 329.421 91.0558C329.421 90.9042 329.481 90.7589 329.588 90.6517C329.695 90.5446 329.841 90.4844 329.992 90.4844Z" fill="white"/>
<path d="M179.303 102.453C179.454 102.453 179.6 102.513 179.707 102.62C179.814 102.728 179.874 102.873 179.874 103.025C179.874 103.176 179.814 103.321 179.707 103.429C179.6 103.536 179.454 103.596 179.303 103.596C179.151 103.596 179.006 103.536 178.899 103.429C178.792 103.321 178.731 103.176 178.731 103.025C178.731 102.873 178.792 102.728 178.899 102.62C179.006 102.513 179.151 102.453 179.303 102.453Z" fill="white"/>
<path d="M226.939 55.5962C227.076 55.6148 227.201 55.6824 227.292 55.7865C227.383 55.8906 227.433 56.0242 227.433 56.1624C227.433 56.3007 227.383 56.4342 227.292 56.5383C227.201 56.6424 227.076 56.7101 226.939 56.7286C226.802 56.7101 226.676 56.6424 226.585 56.5383C226.494 56.4342 226.444 56.3007 226.444 56.1624C226.444 56.0242 226.494 55.8906 226.585 55.7865C226.676 55.6824 226.802 55.6148 226.939 55.5962Z" fill="white"/>
<path d="M192.726 191.969C193.139 191.969 193.536 192.133 193.828 192.426C194.12 192.718 194.284 193.114 194.284 193.528C194.284 193.941 194.12 194.337 193.828 194.63C193.536 194.922 193.139 195.086 192.726 195.086C192.313 195.086 191.916 194.922 191.624 194.63C191.332 194.337 191.167 193.941 191.167 193.528C191.167 193.114 191.332 192.718 191.624 192.426C191.916 192.133 192.313 191.969 192.726 191.969Z" fill="white"/>
<path d="M389.701 159.492C390.114 159.492 390.511 159.656 390.803 159.948C391.095 160.24 391.259 160.637 391.259 161.05C391.259 161.463 391.095 161.86 390.803 162.152C390.511 162.444 390.114 162.609 389.701 162.609C389.288 162.609 388.891 162.444 388.599 162.152C388.307 161.86 388.143 161.463 388.143 161.05C388.143 160.637 388.307 160.24 388.599 159.948C388.891 159.656 389.288 159.492 389.701 159.492Z" fill="white"/>
<path d="M125.205 97.7882L127.989 98.2973L128.602 101.238L129.225 98.2973L132.01 97.7882L129.236 97.1025L128.602 94.3389L127.968 97.1025L125.205 97.7882Z" fill="white"/>
<path d="M161.567 144.676L165.588 145.33L166.482 149.081L167.386 145.33L171.406 144.676L167.396 143.803L166.482 140.271L165.567 143.803L161.567 144.676Z" fill="white"/>
<path d="M303.115 309.101C303.33 309.101 303.536 309.186 303.688 309.338C303.84 309.49 303.925 309.697 303.925 309.911C303.925 310.126 303.84 310.333 303.688 310.484C303.536 310.636 303.33 310.722 303.115 310.722C302.9 310.722 302.694 310.636 302.542 310.484C302.39 310.333 302.305 310.126 302.305 309.911C302.305 309.697 302.39 309.49 302.542 309.338C302.694 309.186 302.9 309.101 303.115 309.101Z" fill="white"/>
<path d="M415.997 175.139C416.195 175.161 416.377 175.256 416.51 175.404C416.643 175.553 416.716 175.745 416.716 175.944C416.716 176.143 416.643 176.335 416.51 176.484C416.377 176.632 416.195 176.727 415.997 176.749C415.799 176.727 415.617 176.632 415.484 176.484C415.352 176.335 415.278 176.143 415.278 175.944C415.278 175.745 415.352 175.553 415.484 175.404C415.617 175.256 415.799 175.161 415.997 175.139Z" fill="white"/>
<path d="M327.779 77.3413C327.977 77.3638 328.16 77.4583 328.292 77.6068C328.425 77.7553 328.498 77.9474 328.498 78.1465C328.498 78.3456 328.425 78.5377 328.292 78.6862C328.16 78.8347 327.977 78.9292 327.779 78.9517C327.582 78.9292 327.399 78.8347 327.266 78.6862C327.134 78.5377 327.061 78.3456 327.061 78.1465C327.061 77.9474 327.134 77.7553 327.266 77.6068C327.399 77.4583 327.582 77.3638 327.779 77.3413Z" fill="white"/>
<path d="M243.334 159.782C243.531 159.805 243.714 159.899 243.846 160.048C243.979 160.196 244.052 160.388 244.052 160.587C244.052 160.786 243.979 160.979 243.846 161.127C243.714 161.276 243.531 161.37 243.334 161.393C243.136 161.37 242.953 161.276 242.821 161.127C242.688 160.979 242.615 160.786 242.615 160.587C242.615 160.388 242.688 160.196 242.821 160.048C242.953 159.899 243.136 159.805 243.334 159.782Z" fill="white"/>
<path d="M347.178 302.587C347.315 302.606 347.44 302.673 347.531 302.777C347.622 302.881 347.672 303.015 347.672 303.153C347.672 303.291 347.622 303.425 347.531 303.529C347.44 303.633 347.315 303.701 347.178 303.719C347.041 303.701 346.915 303.633 346.824 303.529C346.733 303.425 346.683 303.291 346.683 303.153C346.683 303.015 346.733 302.881 346.824 302.777C346.915 302.673 347.041 302.606 347.178 302.587Z" fill="white"/>
<path d="M104.425 205.59L107.21 206.099L107.833 209.039L108.446 206.099L111.23 205.59L108.456 204.915L107.833 202.141L107.199 204.915L104.425 205.59Z" fill="white"/>
<path d="M183.511 190.566C183.726 190.566 183.932 190.652 184.084 190.804C184.236 190.956 184.321 191.162 184.321 191.377C184.321 191.592 184.236 191.798 184.084 191.95C183.932 192.102 183.726 192.187 183.511 192.187C183.296 192.187 183.09 192.102 182.938 191.95C182.786 191.798 182.7 191.592 182.7 191.377C182.7 191.162 182.786 190.956 182.938 190.804C183.09 190.652 183.296 190.566 183.511 190.566Z" fill="white"/>
<path d="M89.007 109.102C89.1585 109.102 89.3039 109.162 89.411 109.269C89.5182 109.377 89.5784 109.522 89.5784 109.673C89.5784 109.825 89.5182 109.97 89.411 110.078C89.3039 110.185 89.1585 110.245 89.007 110.245C88.8554 110.245 88.7101 110.185 88.6029 110.078C88.4958 109.97 88.4355 109.825 88.4355 109.673C88.4355 109.522 88.4958 109.377 88.6029 109.269C88.7101 109.162 88.8554 109.102 89.007 109.102Z" fill="white"/>
<path d="M81.7035 103.855C82.1168 103.855 82.5132 104.02 82.8054 104.312C83.0977 104.604 83.2619 105.001 83.2619 105.414C83.2619 105.827 83.0977 106.224 82.8054 106.516C82.5132 106.808 82.1168 106.972 81.7035 106.972C81.2901 106.972 80.8937 106.808 80.6015 106.516C80.3092 106.224 80.145 105.827 80.145 105.414C80.145 105.001 80.3092 104.604 80.6015 104.312C80.8937 104.02 81.2901 103.855 81.7035 103.855Z" fill="white"/>
<path d="M229.817 161.902C230.23 161.902 230.626 162.066 230.919 162.358C231.211 162.651 231.375 163.047 231.375 163.46C231.375 163.874 231.211 164.27 230.919 164.562C230.626 164.855 230.23 165.019 229.817 165.019C229.403 165.019 229.007 164.855 228.715 164.562C228.422 164.27 228.258 163.874 228.258 163.46C228.258 163.047 228.422 162.651 228.715 162.358C229.007 162.066 229.403 161.902 229.817 161.902Z" fill="white"/>
<path d="M147.334 90.1831C147.747 90.1831 148.144 90.3473 148.436 90.6396C148.728 90.9318 148.892 91.3282 148.892 91.7415C148.892 92.1549 148.728 92.5513 148.436 92.8435C148.144 93.1358 147.747 93.3 147.334 93.3C146.92 93.3 146.524 93.1358 146.232 92.8435C145.94 92.5513 145.775 92.1549 145.775 91.7415C145.775 91.3282 145.94 90.9318 146.232 90.6396C146.524 90.3473 146.92 90.1831 147.334 90.1831Z" fill="white"/>
<path d="M386.879 171.022L386.145 171.756L412.68 198.292L413.415 197.557L386.879 171.022Z" fill="white"/>
<path d="M238.325 132.838L237.568 133.549L249.191 145.923L249.948 145.211L238.325 132.838Z" fill="white"/>
<path d="M353.209 239.812L334.511 254.857L335.162 255.666L353.861 240.621L353.209 239.812Z" fill="white"/>
<path d="M421.026 200.873H415.997V202.66H421.026V200.873Z" fill="white"/>
<path d="M426.273 206.566H421.244V208.353H426.273V206.566Z" fill="white"/>
<path d="M432.392 200.873H422.854V202.66H432.392V200.873Z" fill="white"/>
<path d="M435.748 200.873H434.148V202.66H435.748V200.873Z" fill="white"/>
<path d="M438.315 200.873H436.715V202.66H438.315V200.873Z" fill="white"/>
<path d="M440.871 200.873H439.271V202.66H440.871V200.873Z" fill="white"/>
<path d="M425.535 203.688H415.997V205.475H425.535V203.688Z" fill="white"/>
<path d="M428.89 203.688H427.29V205.475H428.89V203.688Z" fill="white"/>
<path d="M431.457 203.688H429.857V205.475H431.457V203.688Z" fill="white"/>
<path d="M434.013 203.688H432.413V205.475H434.013V203.688Z" fill="white"/>
<path d="M417.597 206.566H415.997V208.353H417.597V206.566Z" fill="white"/>
<path d="M420.163 206.566H418.563V208.353H420.163V206.566Z" fill="white"/>
<path d="M362.231 233.444H357.203V235.231H362.231V233.444Z" fill="white"/>
<path d="M367.478 239.138H362.45V240.925H367.478V239.138Z" fill="white"/>
<path d="M373.598 233.444H364.06V235.231H373.598V233.444Z" fill="white"/>
<path d="M376.953 233.444H375.353V235.231H376.953V233.444Z" fill="white"/>
<path d="M379.519 233.444H377.919V235.231H379.519V233.444Z" fill="white"/>
<path d="M382.076 233.444H380.476V235.231H382.076V233.444Z" fill="white"/>
<path d="M366.74 236.271H357.203V238.058H366.74V236.271Z" fill="white"/>
<path d="M370.097 236.271H368.497V238.058H370.097V236.271Z" fill="white"/>
<path d="M372.652 236.271H371.052V238.058H372.652V236.271Z" fill="white"/>
<path d="M375.219 236.271H373.619V238.058H375.219V236.271Z" fill="white"/>
<path d="M358.803 239.138H357.203V240.925H358.803V239.138Z" fill="white"/>
<path d="M361.359 239.138H359.759V240.925H361.359V239.138Z" fill="white"/>
<path d="M100.582 77.0681L81.8701 92.0967L82.5207 92.9067L101.233 77.8781L100.582 77.0681Z" fill="white"/>
<path d="M109.589 70.6714H104.561V72.4584H109.589V70.6714Z" fill="white"/>
<path d="M114.836 76.3545H109.807V78.1415H114.836V76.3545Z" fill="white"/>
<path d="M120.956 70.6714H111.418V72.4584H120.956V70.6714Z" fill="white"/>
<path d="M124.311 70.6714H122.711V72.4584H124.311V70.6714Z" fill="white"/>
<path d="M126.877 70.6714H125.277V72.4584H126.877V70.6714Z" fill="white"/>
<path d="M129.433 70.6714H127.833V72.4584H129.433V70.6714Z" fill="white"/>
<path d="M114.098 73.4863H104.561V75.2733H114.098V73.4863Z" fill="white"/>
<path d="M117.454 73.4863H115.854V75.2733H117.454V73.4863Z" fill="white"/>
<path d="M120.01 73.4863H118.41V75.2733H120.01V73.4863Z" fill="white"/>
<path d="M122.576 73.4863H120.976V75.2733H122.576V73.4863Z" fill="white"/>
<path d="M106.161 76.3545H104.561V78.1415H106.161V76.3545Z" fill="white"/>
<path d="M108.716 76.3545H107.116V78.1415H108.716V76.3545Z" fill="white"/>
<path d="M255.105 147.533H250.077V149.32H255.105V147.533Z" fill="white"/>
<path d="M260.341 153.227H255.312V155.014H260.341V153.227Z" fill="white"/>
<path d="M266.471 147.533H256.934V149.32H266.471V147.533Z" fill="white"/>
<path d="M269.827 147.533H268.227V149.32H269.827V147.533Z" fill="white"/>
<path d="M272.383 147.533H270.783V149.32H272.383V147.533Z" fill="white"/>
<path d="M274.949 147.533H273.349V149.32H274.949V147.533Z" fill="white"/>
<path d="M259.614 150.349H250.077V152.136H259.614V150.349Z" fill="white"/>
<path d="M262.97 150.349H261.37V152.136H262.97V150.349Z" fill="white"/>
<path d="M265.526 150.349H263.926V152.136H265.526V150.349Z" fill="white"/>
<path d="M268.081 150.349H266.481V152.136H268.081V150.349Z" fill="white"/>
<path d="M251.677 153.227H250.077V155.014H251.677V153.227Z" fill="white"/>
<path d="M254.232 153.227H252.632V155.014H254.232V153.227Z" fill="white"/>
<path d="M334.044 140.271C334.112 144.54 333.325 148.779 331.727 152.738C329.255 159.232 322.72 164.167 316.725 158.286C308.579 149.725 308.579 130.827 316.725 122.266C322.72 116.364 329.255 121.31 331.727 127.814C333.323 131.773 334.111 136.012 334.044 140.281V140.271ZM334.044 140.271C334.063 136.01 333.229 131.789 331.592 127.855C329.151 121.809 322.73 116.936 317.234 122.764C309.753 131.18 309.753 149.351 317.234 157.777C322.73 163.585 329.14 158.733 331.592 152.676C333.23 148.746 334.063 144.528 334.044 140.271Z" fill="#B56576"/>
<path d="M306.107 140.271C305.992 129.995 310.065 111.523 322.605 110.598C335.364 111.325 339.665 129.829 339.613 140.271C339.561 150.712 335.395 169.174 322.605 169.933C310.065 169.008 305.982 150.536 306.107 140.271ZM306.107 140.271C306.283 149.268 308.185 159.055 314.616 165.756C323 173.964 331.707 166.982 335.249 158.016C339.682 146.597 339.682 133.934 335.249 122.515C331.727 113.559 323 106.557 314.616 114.775C308.195 121.486 306.304 131.263 306.107 140.271Z" fill="#B56576"/>
<path d="M350.824 140.271C350.824 156.894 345.972 180.219 330.263 188.915C322.928 192.904 313.972 190.182 308.445 184.323C297.401 172.707 294.055 155.803 293.816 140.271C294.055 124.687 297.401 107.825 308.445 96.1986C313.931 90.3493 322.886 87.6169 330.263 91.6168C345.92 100.271 350.793 123.658 350.824 140.271ZM350.824 140.271C350.585 124.853 347.281 108.063 336.351 96.5726C328.206 88.1363 317.037 88.1675 308.996 96.7077C298.305 108.292 295.053 124.926 294.897 140.271C295.053 155.606 298.305 172.24 308.985 183.824C317.027 192.354 328.195 192.406 336.351 183.959C347.281 172.447 350.585 155.689 350.824 140.271Z" fill="#B56576"/>
<g opacity="0.6">
<path d="M334.045 140.271C334.113 144.54 333.326 148.779 331.728 152.738C329.256 159.232 322.721 164.167 316.726 158.286C308.58 149.725 308.58 130.827 316.726 122.266C322.721 116.364 329.256 121.31 331.728 127.814C333.324 131.773 334.112 136.012 334.045 140.281V140.271ZM334.045 140.271C334.064 136.01 333.23 131.789 331.593 127.855C329.152 121.809 322.731 116.936 317.235 122.764C309.754 131.18 309.754 149.351 317.235 157.777C322.731 163.585 329.141 158.733 331.593 152.676C333.231 148.746 334.064 144.528 334.045 140.271Z" fill="white"/>
<path d="M306.107 140.271C305.992 129.995 310.065 111.523 322.605 110.598C335.364 111.325 339.665 129.829 339.613 140.271C339.561 150.712 335.395 169.174 322.605 169.933C310.065 169.008 305.982 150.536 306.107 140.271ZM306.107 140.271C306.283 149.268 308.185 159.055 314.616 165.756C323 173.964 331.707 166.982 335.249 158.016C339.682 146.597 339.682 133.934 335.249 122.515C331.727 113.559 323 106.557 314.616 114.775C308.195 121.486 306.304 131.263 306.107 140.271Z" fill="white"/>
<path d="M350.824 140.271C350.824 156.894 345.972 180.219 330.263 188.915C322.928 192.904 313.972 190.182 308.445 184.323C297.401 172.707 294.055 155.803 293.816 140.271C294.055 124.687 297.401 107.825 308.445 96.1986C313.931 90.3493 322.886 87.6169 330.263 91.6168C345.92 100.271 350.793 123.658 350.824 140.271ZM350.824 140.271C350.585 124.853 347.281 108.063 336.351 96.5726C328.206 88.1363 317.037 88.1675 308.996 96.7077C298.305 108.292 295.053 124.926 294.897 140.271C295.053 155.606 298.305 172.24 308.985 183.824C317.027 192.354 328.195 192.406 336.351 183.959C347.281 172.447 350.585 155.689 350.824 140.271Z" fill="white"/>
</g>
<path d="M185.423 448.85H58.0469C58.0469 448.601 58.0469 448.341 58.0469 448.092C59.1689 427.167 59.9586 412.082 60.2079 406.762C60.2079 406.461 60.2079 406.201 60.2079 405.962C60.2025 405.886 60.2025 405.81 60.2079 405.734L60.2702 404.695H175.012C175.012 404.695 180.727 427.375 185.423 448.85Z" fill="#37474F"/>
<path d="M170.524 448.851H165.329C163.772 447.772 162.318 446.551 160.986 445.204C157.869 442.015 155.687 437.516 153.9 432.518C153.277 430.773 151.677 425.578 150.555 421.745C149.973 419.739 149.516 418.108 149.423 417.526C149.36 417.225 149.703 417.059 149.838 417.35C149.838 417.35 150.233 418.389 150.784 419.812C152.217 423.552 154.846 430.389 155.563 432.041C157.443 436.363 159.49 440.207 162.358 442.97C164.794 445.3 167.542 447.279 170.524 448.851Z" fill="#263238"/>
<path d="M79.2413 410.232L78.5452 428.456L78.327 434.284L77.7763 448.85H76.9556L77.7452 435.479L78.1192 429.256L79.2413 410.232Z" fill="#263238"/>
<path d="M124.197 448.85H58.0469V448.092C59.1689 427.178 59.9378 412.092 60.2079 406.762C60.2079 406.461 60.2079 406.201 60.2079 405.962C60.2025 405.886 60.2025 405.81 60.2079 405.734C60.2079 405.09 60.2079 404.695 60.2079 404.695H117.35L124.197 448.85Z" fill="#263238"/>
<path d="M152.186 404.685C152.186 404.685 151.822 410.617 150.773 419.822C150.7 420.446 150.628 421.09 150.545 421.755C149.661 429.318 148.332 438.793 146.389 448.892H7.9585C14.3169 425.557 22.5039 404.685 22.5039 404.685H152.186Z" fill="#37474F"/>
<path d="M83.9061 419.926C83.5736 421.536 79.7503 431.126 78.3269 434.284L78.1295 434.71L77.7451 435.479C75.4074 440.071 72.4153 444.134 67.9789 446.908C66.864 447.612 65.7126 448.257 64.5296 448.84H55.979C56.6855 448.612 57.3816 448.352 58.0569 448.082C60.6492 447.106 63.1549 445.913 65.5478 444.518C69.8802 441.973 72.8205 438.284 75.3971 434.066C75.8646 433.308 76.9139 431.417 78.0879 429.246L78.5139 428.446C80.6957 424.383 83.1477 419.739 83.1788 419.687C83.397 419.417 83.9684 419.625 83.9061 419.926Z" fill="#263238"/>
<path d="M126.43 415.365C127.616 426.492 127.696 437.708 126.669 448.851H124.436C125.475 437.734 125.734 426.565 125.828 415.386C125.825 415.306 125.854 415.228 125.909 415.17C125.963 415.112 126.039 415.077 126.119 415.074C126.199 415.072 126.276 415.101 126.335 415.155C126.393 415.21 126.428 415.285 126.43 415.365Z" fill="#263238"/>
<path d="M142.15 448.851H139.854C140.944 437.651 141.786 427.033 141.807 414.96C141.807 414.565 142.451 414.648 142.472 415.012C143.319 426.28 143.212 437.6 142.15 448.851Z" fill="#263238"/>
<path d="M32.2284 404.685C28.9765 417.152 25.9012 429.619 23.096 442.087C22.5973 444.338 22.102 446.596 21.6103 448.861H20.8311C21.3609 446.554 21.87 444.248 22.4622 441.941C25.4752 429.443 28.7583 417.017 32.2284 404.685Z" fill="#263238"/>
<path d="M150.264 201.538C154.69 212.832 160.996 223.107 164.529 234.785C167.75 245.517 169.204 256.977 167.5 268.146C161.215 309.132 107.833 333.724 70.3373 320.997C52.4049 314.899 36.7999 300.353 32.0414 281.694C26.2129 258.837 38.4206 236.852 45.8284 215.969C49.9253 204.288 51.9607 191.984 51.8439 179.606C51.8439 168.759 51.1894 157.715 53.3919 147.003C54.9608 139.367 60.1763 117.154 88.3112 108.282C108.519 101.913 128.976 112.947 138.389 132.178C149.339 154.453 141.526 179.118 150.264 201.538Z" fill="#263238"/>
<path d="M53.9739 204.873C45.2467 223.574 33.7766 242.67 30.4208 263.304C27.6676 280.416 32.2805 298.919 47.1687 309.101C47.1949 309.114 47.2248 309.117 47.2531 309.11C47.2813 309.103 47.3063 309.086 47.3236 309.063C47.3409 309.039 47.3494 309.011 47.3477 308.982C47.346 308.953 47.3341 308.925 47.3142 308.904C31.6779 296.789 29.7351 275.855 34.1195 257.829C38.6181 239.367 49.4232 223.304 54.8985 205.247C54.9481 205.125 54.947 204.987 54.8954 204.866C54.8437 204.744 54.7458 204.648 54.6232 204.598C54.5006 204.548 54.3633 204.549 54.2415 204.601C54.1197 204.653 54.0235 204.751 53.9739 204.873Z" fill="#263238"/>
<path d="M50.0571 203.782C43.4494 228.312 23.2625 247.626 22.0054 273.724C22.0054 274.036 22.4729 274.109 22.4937 273.797C24.1976 247.74 46.639 229.236 50.5454 203.855C50.587 203.543 50.1402 203.491 50.0571 203.782Z" fill="#263238"/>
<path d="M151.635 201.133C147.397 192.051 144.801 182.29 143.968 172.302C143.968 171.783 143.074 171.741 143.033 172.302C140.716 208.323 181.962 235.336 170.981 272.509C170.908 272.769 171.292 272.946 171.386 272.686C176.653 257.32 172.56 241.954 165.661 227.793C161.266 218.764 155.926 210.224 151.635 201.133Z" fill="#263238"/>
<path d="M143.324 166.941C143.231 166.255 142.285 166.463 142.285 167.117C143.263 180.595 147.615 193.611 154.94 204.966C158.524 210.577 162.919 215.595 166.368 221.278C170.171 227.512 173.09 234.192 176.29 240.727C176.31 240.754 176.338 240.773 176.37 240.781C176.402 240.79 176.435 240.787 176.466 240.774C176.496 240.76 176.521 240.737 176.536 240.708C176.551 240.679 176.556 240.645 176.55 240.613C172.394 228.208 165.89 218.338 158.451 207.782C149.807 195.481 145.236 181.798 143.324 166.941Z" fill="#263238"/>
<path d="M113.786 267.054C153.806 311.636 225.058 352.342 246.18 338.192C269.037 322.888 290.346 284.104 300.538 264.893C305.12 256.26 257.037 215.481 250.668 223.74C245.473 230.41 216.507 272.301 214.938 271.844C210.024 270.389 173.619 258.338 126.71 240.332C99.2925 229.808 87.2926 237.538 113.786 267.054Z" fill="#AD6359"/>
<path d="M229.557 314.472C225.401 308.238 215.313 290.379 215.396 271.667C215.396 271.459 215.635 271.428 215.656 271.667C217.339 286.888 226.128 307.896 229.754 314.327C229.879 314.462 229.692 314.628 229.557 314.472Z" fill="#263238"/>
<path d="M262.056 198.463C269.765 191.512 278.045 182.878 288.165 178.941C298.284 175.003 312.123 184.748 313.712 188.582C315.302 192.416 321.338 217.621 311.302 221.829C301.266 226.037 299.77 205.289 298.523 203.367C297.276 201.444 295.791 198.93 293.983 199.917C292.175 200.904 265.557 230.4 265.557 230.4L262.056 198.463Z" fill="#AD6359"/>
<path d="M263.271 199.574C263.842 199.346 286.336 177.548 296.445 173.6C306.554 169.652 320.413 179.408 321.993 183.2C323.572 186.992 329.619 212.291 319.572 216.447C309.525 220.603 308.04 199.917 306.793 197.984C305.546 196.052 304.06 193.559 302.253 194.535C300.445 195.512 273.827 224.945 273.827 224.945L263.271 199.574Z" fill="#AD6359"/>
<path d="M315.645 216.53C313.743 215.491 312.528 213.154 311.489 211.335C310.39 209.278 309.616 207.063 309.193 204.769C308.808 202.785 308.829 200.613 308.154 198.743C307.373 196.887 306.132 195.26 304.549 194.016C303.198 192.977 301.92 194.016 300.84 195.003C299.266 196.487 297.784 198.066 296.403 199.73C294.876 201.486 293.39 203.263 291.905 205.039C290.285 206.817 288.782 208.698 287.406 210.671C287.312 210.816 287.5 211.024 287.645 210.889C289.104 209.492 290.492 208.022 291.801 206.484C293.338 204.794 294.89 203.121 296.455 201.465C297.92 199.917 299.302 198.286 300.788 196.769C301.318 196.229 302.315 195.014 303.105 194.878C303.894 194.743 305.11 196.458 305.536 196.956C306.699 198.588 307.36 200.523 307.437 202.525C307.658 204.539 308.076 206.526 308.684 208.458C309.241 210.286 310.121 211.999 311.281 213.517C312.529 214.787 313.925 215.903 315.437 216.842C315.614 216.998 315.853 216.634 315.645 216.53Z" fill="#263238"/>
<path d="M242.378 239.169C242.378 239.169 259.687 202.244 263.365 194.816C270.783 179.876 311.406 139.554 317.931 136.001C324.455 132.448 332.715 145.403 305.546 173.725C291.219 188.655 292.269 199.969 294.918 205.393C297.567 210.816 307.167 218.961 316.403 214.826C325.64 210.691 326.035 194.525 333.993 189.445C341.951 184.364 342.824 202.452 340.538 214.068C338.253 225.683 330.377 237.746 323.551 244.135C316.725 250.525 296.196 271.699 296.196 271.699L242.378 239.169Z" fill="#AD6359"/>
<path d="M325.266 203.418C322.886 207.574 320.362 212.769 315.811 214.899C311.094 217.07 306.689 215.252 302.845 212.27C299.001 209.289 295.811 205.33 295.022 200.374C294.438 195.885 295.16 191.322 297.099 187.232C299.481 182.251 302.567 177.639 306.263 173.538C306.419 173.351 306.118 173.133 305.951 173.32C302.45 177.029 291.344 188.063 293.577 200.987C294.492 206.265 297.733 209.964 301.66 213.07C305.276 215.928 309.785 218.265 314.46 216.748C320.175 214.899 323.063 208.437 325.629 203.439C325.712 203.221 325.39 203.2 325.266 203.418Z" fill="#263238"/>
<path d="M213.879 268.426L210.045 345.61C198.649 348.322 186.658 346.847 176.258 341.454C159.324 332.384 120.467 288.644 102.711 262.276C84.9552 235.907 90.4201 228.52 118.441 233.112C146.461 237.704 192.445 257.434 199.541 259.346C206.637 261.257 213.879 268.426 213.879 268.426Z" fill="#B56576"/>
<path d="M196.892 267.543C195.729 280.914 193.609 317.277 195.324 341.09C195.324 341.236 195.874 341.256 195.885 341.09C197.453 321.069 197.703 280.976 197.713 267.553C197.713 267.335 196.913 267.304 196.892 267.543Z" fill="#263238"/>
<path opacity="0.1" d="M213.349 279.19L210.056 345.61C198.656 348.325 186.661 346.85 176.259 341.454C159.324 332.384 120.477 288.644 102.711 262.275C89.2046 242.234 89.1319 233.185 102.192 231.979L213.349 279.19Z" fill="black"/>
<path d="M16.3115 414.762L177.1 414.326L161.183 354.555C161.183 354.555 175.666 336.976 172.923 317.911C169.921 297.018 133.786 245.444 130.617 242.462C117.869 230.504 103.604 227.917 89.2149 235.678C49.4438 257.153 16.3115 414.762 16.3115 414.762Z" fill="#B56576"/>
<path d="M139.022 345.652C131.531 346.318 124.099 347.54 116.789 349.309C113.163 350.233 109.61 351.324 106.056 352.488C104.29 353.08 102.514 353.6 100.716 354.109C98.8575 354.688 96.935 355.036 94.9915 355.148C94.9557 355.148 94.9213 355.162 94.896 355.187C94.8707 355.212 94.8564 355.247 94.8564 355.283C94.8564 355.318 94.8707 355.353 94.896 355.378C94.9213 355.403 94.9557 355.418 94.9915 355.418C96.8342 355.508 98.6808 355.473 100.519 355.314C102.291 355.103 104.048 354.774 105.776 354.327C109.454 353.412 113.049 352.342 116.768 351.397C124.176 349.496 131.583 347.594 139.116 346.202C139.459 346.202 139.376 345.61 139.022 345.652Z" fill="#263238"/>
<path d="M157.537 352.28C151.366 351.634 145.164 351.336 138.96 351.386C135.843 351.386 132.727 351.646 129.682 351.947C128.207 352.082 126.732 352.259 125.267 352.446C123.646 352.654 122.056 353.069 120.436 353.256C120.269 353.256 120.269 353.537 120.436 353.527C121.973 353.402 123.553 353.527 125.069 353.527C126.586 353.527 128.186 353.443 129.703 353.402C132.82 353.329 135.937 353.288 138.981 353.184C145.215 352.976 151.345 352.83 157.547 352.83C157.869 352.789 157.869 352.321 157.537 352.28Z" fill="#263238"/>
<path d="M95.4591 238.119C96.498 241.174 113.454 259.989 127.667 257.859C132.3 257.163 129.661 231.698 129.661 231.698L129.9 229.776L133.163 202.836L100.228 186.068L95.4902 183.886C95.4902 183.886 95.085 191.314 94.6695 200.571C94.6695 200.997 94.6695 201.423 94.6071 201.88C94.5448 202.338 94.5344 202.919 94.524 203.387C94.4409 204.769 94.3682 206.182 94.3162 207.595C94.3162 208.634 94.2331 209.673 94.2331 210.826C94.2331 211.979 94.2331 213.06 94.1708 214.182C94.15 225.371 95.0331 236.82 95.4591 238.119Z" fill="#AD6359"/>
<path d="M94.6904 200.613C98.0901 207.747 103.003 214.055 109.087 219.098C115.171 224.142 122.281 227.8 129.921 229.818L133.184 202.878L100.249 186.109L95.5112 183.927C95.5112 183.927 95.106 191.356 94.6904 200.613Z" fill="#263238"/>
<path d="M160.363 155.969C173.371 201.787 147.407 214.753 137.506 217.548C128.54 220.083 97.6723 227.574 79.9997 183.356C62.3271 139.138 79.5114 118.608 99.7399 111.72C119.968 104.832 147.355 110.162 160.363 155.969Z" fill="#AD6359"/>
<path d="M86.1817 189.85C94.7842 188.998 89.8388 162.162 89.8388 162.162C89.8388 162.162 120.768 157.84 124.405 126.297C124.405 126.297 142.067 142.463 154.42 139.752C158.742 138.806 146.181 107.222 120.768 109.622C120.768 109.622 90.0674 102.9 74.0883 129.476C58.1092 156.053 74.3065 191.024 86.1817 189.85Z" fill="#263238"/>
<path d="M86.6277 161.361C96.3835 161.933 106.368 160.883 113.859 153.839C122.378 145.787 123.708 133.798 124.944 122.785C124.944 122.598 125.266 122.587 125.256 122.785C125.09 134.213 122.991 147.013 114.129 155.065C106.856 161.621 95.9679 163.564 86.5654 161.901C86.2641 161.849 86.3264 161.351 86.6277 161.361Z" fill="#263238"/>
<path d="M123.688 120.344C126.524 126.068 129.412 130.993 134.524 135.055C139.445 138.804 145.203 141.3 151.303 142.328C151.333 142.328 151.362 142.34 151.384 142.361C151.405 142.383 151.417 142.412 151.417 142.442C151.417 142.473 151.405 142.502 151.384 142.523C151.362 142.545 151.333 142.557 151.303 142.557C139.334 141.985 126.243 132.385 123.127 120.572C123.002 120.25 123.521 120.011 123.688 120.344Z" fill="#263238"/>
<path d="M150.597 152.717C149.475 152.811 148.415 152.717 147.293 152.717C146.171 152.717 144.997 152.811 143.916 152.052C143.621 151.805 143.418 151.465 143.34 151.088C143.263 150.71 143.316 150.318 143.49 149.974C144.28 148.561 145.849 148.198 147.376 148.156C148.92 148.068 150.442 148.557 151.646 149.528C151.918 149.762 152.114 150.072 152.21 150.418C152.306 150.764 152.298 151.131 152.185 151.473C152.073 151.814 151.862 152.114 151.58 152.336C151.297 152.557 150.955 152.69 150.597 152.717Z" fill="#263238"/>
<path d="M118.732 160.219C119.79 159.884 120.83 159.496 121.848 159.055C123.033 158.588 124.03 158.349 124.789 157.258C124.975 156.925 125.045 156.54 124.986 156.163C124.928 155.787 124.745 155.44 124.467 155.18C123.23 154.141 121.641 154.338 120.196 154.837C118.717 155.284 117.46 156.271 116.674 157.601C116.508 157.912 116.436 158.265 116.466 158.617C116.497 158.969 116.63 159.304 116.848 159.582C117.066 159.859 117.36 160.067 117.695 160.181C118.029 160.294 118.39 160.307 118.732 160.219Z" fill="#263238"/>
<path d="M128.02 170.078C128.02 169.964 127.792 170.276 127.823 170.411C128.498 173.611 128.727 177.382 126.015 178.972C125.932 179.024 125.963 179.18 126.015 179.148C129.537 178.016 129.174 172.998 128.02 170.078Z" fill="#263238"/>
<path d="M124.55 167.232C119.355 167.762 120.747 178.203 125.589 177.715C130.43 177.227 128.944 166.764 124.55 167.232Z" fill="#263238"/>
<path d="M122.545 168.063C121.714 168.78 120.966 169.954 119.875 170.213C118.628 170.515 117.517 169.548 116.53 168.613C116.436 168.52 116.353 168.613 116.374 168.759C116.623 170.764 117.673 172.707 119.854 172.717C121.849 172.717 122.971 170.754 123.241 168.665C123.314 168.281 122.909 167.803 122.545 168.063Z" fill="#263238"/>
<path d="M146.794 165.725C146.794 165.601 147.074 165.829 147.085 165.964C147.573 169.196 148.674 172.822 151.771 173.362C151.864 173.362 151.885 173.538 151.771 173.538C148.134 173.663 146.732 168.842 146.794 165.725Z" fill="#263238"/>
<path d="M149.049 161.829C154.15 160.499 156.435 170.785 151.719 172.021C147.002 173.258 144.778 162.941 149.049 161.829Z" fill="#263238"/>
<path d="M151.345 162.026C152.28 162.39 153.308 163.2 154.295 163.065C155.438 162.889 156.02 161.59 156.498 160.354C156.498 160.229 156.654 160.354 156.685 160.437C157.183 162.39 156.986 164.592 155.178 165.382C153.526 166.109 151.885 164.707 151.022 162.847C150.815 162.494 150.971 161.881 151.345 162.026Z" fill="#263238"/>
<path d="M132.675 195.855C133.527 196.541 134.399 197.517 135.584 197.517C136.794 197.381 137.962 196.991 139.012 196.375C139.034 196.362 139.059 196.357 139.084 196.361C139.109 196.364 139.132 196.375 139.15 196.393C139.167 196.411 139.179 196.434 139.182 196.459C139.185 196.484 139.181 196.509 139.168 196.53C138.76 197.211 138.176 197.769 137.478 198.145C136.779 198.522 135.992 198.704 135.199 198.671C134.521 198.557 133.892 198.246 133.389 197.777C132.887 197.307 132.533 196.701 132.373 196.032C132.311 195.855 132.55 195.772 132.675 195.855Z" fill="#263238"/>
<path d="M144.436 182.172C144.436 182.172 145.828 186.899 146.161 189.175C146.161 189.393 145.662 189.569 144.893 189.736C144.893 189.736 144.893 189.736 144.81 189.736C142.909 190.385 140.867 190.499 138.906 190.065C136.945 189.63 135.142 188.665 133.693 187.273C133.66 187.231 133.641 187.178 133.642 187.124C133.642 187.07 133.66 187.018 133.694 186.976C133.728 186.934 133.775 186.904 133.827 186.892C133.88 186.88 133.935 186.886 133.984 186.91C137.319 188.655 140.716 188.728 144.29 188.26C144.353 187.606 141.641 180.24 141.994 180.167C143.22 179.866 145.797 180.354 147.335 180.562C144.727 170.629 140.55 161.206 138.098 151.284C138.026 150.92 138.524 150.733 138.67 151.045C143.75 160.614 146.981 171.97 149.963 182.151C150.348 183.388 145.402 182.421 144.436 182.172Z" fill="#263238"/>
<path d="M142.805 189.143C141.838 190.885 140.439 192.348 138.742 193.392C137.797 193.931 136.708 194.163 135.625 194.057C133.257 193.797 132.893 191.72 133.049 189.901C133.135 188.921 133.341 187.954 133.662 187.023C136.405 188.687 139.609 189.43 142.805 189.143Z" fill="#263238"/>
<path d="M138.742 193.392C137.797 193.931 136.708 194.163 135.625 194.057C133.257 193.797 132.893 191.719 133.049 189.901C135.532 189.766 138.181 191.054 138.742 193.392Z" fill="#FF9CBD"/>
<path d="M92.5812 165.434C92.5812 165.434 54.5866 169.496 49.3088 173.59C47.1373 175.263 48.9867 185.091 50.6075 186.369C51.6464 187.179 77.3917 181.777 93.1318 180.447C91.4893 175.603 91.2979 170.385 92.5812 165.434Z" fill="#B56576"/>
<path d="M98.9292 188.645C97.0414 188.183 95.2715 187.33 93.7345 186.141C87.6982 181.164 83.9475 166.557 91.3345 157.351C96.3007 151.118 110.607 147.731 121.36 146.681C131.324 145.705 143.947 146.193 149.516 150.474C158.69 157.538 153.578 174.027 134.285 179.284C130.036 180.437 131.698 180.614 125.152 185.019C119.137 189.071 105.558 190.421 98.9292 188.645Z" fill="#B56576"/>
<path opacity="0.2" d="M98.9292 188.645C97.0414 188.183 95.2715 187.33 93.7345 186.141C87.6982 181.164 83.9475 166.557 91.3345 157.351C96.3007 151.118 110.607 147.731 121.36 146.681C131.324 145.705 143.947 146.193 149.516 150.474C158.69 157.538 153.578 174.027 134.285 179.284C130.036 180.437 131.698 180.614 125.152 185.019C119.137 189.071 105.558 190.421 98.9292 188.645Z" fill="black"/>
<path d="M167.293 176.115C166.862 176.653 166.39 177.157 165.88 177.621C163.802 179.46 161.163 180.26 156.768 179.076C153.89 178.307 151.739 175.73 146.991 175.959C144.096 176.005 141.259 176.781 138.742 178.213C137.146 179.102 135.605 180.087 134.129 181.164C133.755 181.403 133.392 181.673 133.017 181.943C132.683 182.19 132.337 182.419 131.979 182.629C131.401 182.963 130.801 183.255 130.181 183.502C123.044 186.494 111.48 186.109 107.085 183.024C103.127 180.208 100.311 172.343 101.09 164.904C101.241 163.299 101.59 161.718 102.129 160.198C102.647 158.675 103.378 157.234 104.301 155.917C104.477 155.678 104.644 155.45 104.831 155.232C105.341 154.593 105.919 154.011 106.555 153.497C110.95 149.86 119.21 147.128 128.155 145.673C129.069 145.528 129.973 145.393 130.898 145.268C132.872 144.998 134.888 144.801 136.862 144.665C139.147 144.51 141.433 144.426 143.625 144.458C151.417 144.53 158.171 145.798 161.713 148.478C164.103 150.423 165.902 152.996 166.908 155.907C167.438 157.255 167.855 158.645 168.155 160.063C169.121 164.507 169.185 169.1 168.342 173.569C168.167 174.48 167.81 175.345 167.293 176.115Z" fill="#263238"/>
<g opacity="0.2">
<path d="M168.259 173.611C168.087 174.511 167.733 175.366 167.22 176.125C166.792 176.669 166.32 177.177 165.807 177.642L147.958 168.842C147.85 168.796 147.749 168.736 147.656 168.665L152.176 165.694L168.259 173.611Z" fill="white"/>
<path d="M138.742 178.255C137.145 179.143 135.605 180.128 134.129 181.205L101.059 164.946C101.21 163.34 101.559 161.759 102.098 160.239L138.742 178.255Z" fill="white"/>
<path d="M128.685 164.748L126.004 166.65L104.249 155.959C104.425 155.72 104.591 155.491 104.778 155.273C105.287 154.632 105.87 154.054 106.513 153.548L127.968 164.083C128.268 164.228 128.518 164.459 128.685 164.748Z" fill="white"/>
<path d="M168.113 160.094L136.81 144.707C139.095 144.552 141.381 144.468 143.573 144.5L166.867 155.928C167.397 157.28 167.814 158.673 168.113 160.094Z" fill="white"/>
<path d="M160.789 160.021L159.251 161.06L128.083 145.736L130.825 145.341L160.789 160.021Z" fill="white"/>
<path d="M131.947 182.67C131.375 183.006 130.777 183.298 130.16 183.543L113.62 175.429L115.085 174.39L131.947 182.67Z" fill="white"/>
</g>
<path d="M111.646 186.12C109.757 185.661 107.987 184.808 106.451 183.616C100.415 178.64 96.6642 164.032 104.041 154.817C109.007 148.583 123.324 145.206 134.067 144.157C144.041 143.18 156.664 143.669 162.222 147.949C171.407 155.014 170.804 171.429 168.092 176.468C166.243 179.907 161.692 181.227 156.508 179.835C155.43 179.51 154.387 179.082 153.391 178.557C151.441 177.441 149.247 176.824 147.002 176.759C142.607 176.759 140.113 178.183 133.557 182.588C127.542 186.64 118.264 187.897 111.646 186.12ZM105.495 155.72C98.8356 164.032 102.036 177.881 107.656 182.505C112.851 186.754 125.319 186.172 132.477 181.372C138.815 177.113 141.828 175.222 147.022 175.222C149.574 175.276 152.073 175.961 154.295 177.216C155.184 177.688 156.117 178.075 157.079 178.37C160.508 179.294 164.809 179.097 166.586 175.793C169.059 171.201 169.578 155.575 161.162 149.092C156.872 145.798 146.617 144.489 134.378 145.684C120.695 147.014 109.381 150.952 105.568 155.72H105.495Z" fill="#B56576"/>
<path d="M91.7089 182.878C91.7089 182.878 78.7012 170.245 72.7792 175.159C66.8571 180.073 78.5973 199.751 86.9297 201.133C87.9863 201.384 89.0827 201.419 90.1532 201.236C91.2237 201.053 92.2461 200.655 93.1592 200.067C94.0722 199.479 94.8571 198.713 95.4666 197.814C96.0761 196.915 96.4978 195.903 96.7063 194.837L91.7089 182.878Z" fill="#AD6359"/>
<path d="M76.2801 180.717C76.1554 180.717 76.1658 180.904 76.2801 180.936C82.1606 182.089 86.0047 186.598 89.0177 191.45C87.0125 189.746 84.5917 189.06 82.2645 191.512C82.1398 191.637 82.2645 191.834 82.4619 191.772C83.3627 191.283 84.3929 191.085 85.4107 191.206C86.4285 191.327 87.3838 191.761 88.1449 192.447C89.4115 193.6 90.5505 194.885 91.5423 196.281C91.8852 196.717 92.7163 196.281 92.4254 195.761L92.3527 195.647C91.1579 188.665 83.8852 179.98 76.2801 180.717Z" fill="#263238"/>
<path d="M73.5167 280.062C95.6152 343.916 155.791 439.51 179.054 438.627C205.027 437.588 180.695 332.831 176.757 333.184C173.422 333.485 136.02 295.48 105.07 268.395C68.9245 236.779 68.0518 264.27 73.5167 280.062Z" fill="#AD6359"/>
<path d="M174.316 331.625L137.36 403.438C125.328 401.096 114.539 394.507 106.96 384.872C94.7526 368.934 76.654 310.535 71.1268 277.766C65.5996 244.997 76.893 244.519 101.579 261.008C126.264 277.496 158.638 311.916 164.56 316.768C170.482 321.62 174.316 331.625 174.316 331.625Z" fill="#B56576"/>
<path d="M160.062 324.249C152.644 336.145 133.433 369.017 123.698 391.999C123.636 392.144 124.135 392.425 124.218 392.3C135.168 374.389 154.347 337.163 160.768 324.664C160.924 324.425 160.207 324.02 160.062 324.249Z" fill="#263238"/>
<path d="M135.324 402.326C127.22 400.342 119.241 396.851 113.059 391.116C106.472 385.017 103.096 376.383 99.6151 368.311C95.9995 359.916 92.668 351.407 89.6204 342.784C86.5728 334.16 83.8022 325.412 81.3087 316.54C78.836 307.74 76.4568 298.877 74.3477 290.015C74.0776 288.914 73.7867 287.802 73.5062 286.701C73.4127 286.316 72.8724 286.493 72.9244 286.857C73.5685 291.189 74.4412 295.49 75.3659 299.771C75.0542 299.023 74.7322 298.285 74.4101 297.548C73.5581 295.563 72.7166 293.589 72.0309 291.532C72.0185 291.489 71.9896 291.453 71.9506 291.432C71.9117 291.41 71.8658 291.405 71.8231 291.418C71.7804 291.43 71.7443 291.459 71.7229 291.498C71.7015 291.537 71.6964 291.583 71.7088 291.625C72.1978 293.744 72.8296 295.826 73.5997 297.859C73.9788 298.83 74.4159 299.777 74.9088 300.696C75.1789 301.184 75.449 301.672 75.7399 302.15C75.8127 302.275 75.8854 302.399 75.9685 302.514C76.8101 306.389 77.714 310.264 78.7633 314.088C81.1944 323.043 83.9338 331.913 86.9814 340.695C90.029 349.478 93.3606 358.136 96.9762 366.669C98.7528 370.825 100.55 375.085 102.555 379.199C104.434 383.293 106.906 387.088 109.89 390.461C112.775 393.584 116.2 396.16 119.999 398.066C123.836 399.955 127.896 401.351 132.082 402.222C133.121 402.44 134.16 402.596 135.199 402.742C135.49 402.794 135.615 402.399 135.324 402.326Z" fill="#263238"/>
<path d="M169.796 321.028C167.415 317.696 164.699 314.615 161.693 311.833C157.931 308.156 154.087 304.561 150.264 300.945C146.441 297.33 142.597 293.548 138.628 289.995C137.038 288.561 135.438 287.158 133.828 285.735C133.662 285.486 133.537 285.205 133.371 284.945C133.204 284.686 132.997 284.395 132.799 284.125C132.394 283.574 131.999 283.023 131.594 282.493C130.794 281.454 129.942 280.416 129.059 279.429C129.059 279.429 128.955 279.429 128.986 279.491C129.703 280.634 130.441 281.756 131.251 282.836C131.636 283.356 132.041 283.875 132.436 284.395L132.768 284.8C130.212 282.545 127.646 280.301 125.111 278.026C125.079 278.006 125.042 277.998 125.005 278.003C124.967 278.007 124.933 278.024 124.907 278.05C124.88 278.077 124.863 278.111 124.859 278.148C124.855 278.185 124.863 278.223 124.882 278.254C128.602 282.005 132.238 285.839 135.947 289.6C139.656 293.361 143.448 296.945 147.241 300.561L158.731 311.491C161.798 314.264 164.701 317.213 167.428 320.322C170.366 323.686 172.498 327.677 173.661 331.989C173.668 332.01 173.681 332.028 173.699 332.041C173.717 332.054 173.738 332.061 173.76 332.061C173.782 332.061 173.803 332.054 173.821 332.041C173.839 332.028 173.852 332.01 173.859 331.989C173.557 328.027 172.15 324.23 169.796 321.028Z" fill="#263238"/>
<path d="M180.851 438.316C198.814 433.339 221.64 397.152 241.484 329.568C244.362 319.75 185.017 302.369 180.934 312.509C174.794 327.729 164.155 348.768 162.607 352.394C149.558 383.012 168.664 441.692 180.851 438.316Z" fill="#AD6359"/>
<path d="M158.212 385.454C157.578 378.597 157.266 359.875 166.16 345.61C166.253 345.454 166.471 345.558 166.388 345.724C160.674 358.192 158.357 378.68 158.461 385.423C158.463 385.439 158.462 385.456 158.458 385.471C158.453 385.487 158.446 385.502 158.436 385.515C158.425 385.528 158.413 385.539 158.399 385.547C158.384 385.556 158.368 385.561 158.352 385.563C158.336 385.565 158.319 385.564 158.303 385.559C158.287 385.555 158.272 385.547 158.259 385.537C158.246 385.527 158.235 385.515 158.227 385.5C158.219 385.486 158.214 385.47 158.212 385.454Z" fill="#263238"/>
<path d="M180.56 315.335C180.56 315.335 184.425 291.013 187.137 274.722C188.654 265.631 192.643 250.275 196.809 244.104C203.043 234.868 235.012 200.25 243.562 207.824C251.313 214.67 220.071 240.925 220.071 240.925C220.071 240.925 249.297 211.647 257.079 221.611C264.861 231.574 225.651 256.551 225.651 256.551C225.651 256.551 256.31 227.138 262.741 238.691C267.604 247.418 233.329 272.042 233.329 272.042C233.329 272.042 259.853 246.94 265.245 255.709C271.198 265.392 240.986 290.099 240.986 290.099C250.928 314.68 247.012 334.929 236.31 344.124C234.118 346.015 180.56 315.335 180.56 315.335Z" fill="#AD6359"/>
<path d="M209.339 250.411C212.643 246.847 215.957 243.221 219.573 239.959C223.188 236.696 226.908 233.569 230.804 230.66C240.352 223.533 247.427 220.561 247.032 220.79C237.141 226.255 224.04 237.725 220.425 240.977C216.809 244.229 213.058 247.304 209.453 250.556C209.37 250.629 209.256 250.494 209.339 250.411Z" fill="#263238"/>
<path d="M220.861 263.657C225.276 259.283 229.505 254.784 234.107 250.618C238.71 246.452 243.458 242.919 248.279 239.096C248.653 238.794 248.684 239.096 248.279 239.407C243.572 243.428 239.531 247.501 234.876 251.574C230.222 255.646 225.401 259.542 220.923 263.771C220.892 263.833 220.798 263.719 220.861 263.657Z" fill="#263238"/>
<path d="M228.715 276.799C235.115 269.776 242.814 263.948 250.534 258.41C250.918 258.14 250.918 258.524 250.534 258.826C243.178 264.81 237.37 269.444 228.986 277.028C228.83 277.142 228.58 276.945 228.715 276.799Z" fill="#263238"/>
<path d="M240.789 339.054C248.892 321.901 246.43 307.605 240.176 290.389L239.968 289.828L240.435 289.433C247.905 282.992 255.282 276.093 260.996 268.031C264.622 262.774 268.414 251.73 257.516 255.927C253.36 257.413 247.521 261.423 243.677 263.667C247.76 259.719 253.173 254.701 256.788 250.389C258.929 247.823 261.142 245.195 262.149 242.202C264.165 235.886 257.287 235.854 253.1 237.517C250.295 238.39 246.544 240.81 243.937 242.223L247.885 238.66C251.269 235.651 254.226 232.194 256.674 228.384C257.315 227.489 257.702 226.437 257.796 225.34C258.004 221.974 254.555 218.784 251.188 219.636C254.648 218.535 258.461 221.777 258.326 225.351C258.288 226.546 257.929 227.708 257.287 228.717C254.965 232.717 252.058 236.349 248.664 239.491L247.978 238.545C250.934 236.616 254.314 235.432 257.827 235.096C262.44 234.784 265.204 238.213 263.77 242.649C262.731 246.109 260.383 248.8 258.181 251.522C255.978 254.244 253.62 256.644 251.157 259.054L249.994 257.558C253.287 255.584 256.757 253.569 260.685 253.028C266.513 252.28 267.739 257.537 266.118 262.14C263.666 269.537 257.962 275.106 252.716 280.581C249.142 284.135 245.443 287.522 241.537 290.732L241.807 289.766C247.687 307.293 249.963 322.088 240.768 339.012L240.789 339.054Z" fill="#263238"/>
</svg>
