<svg width="583" height="554" viewBox="0 0 583 554" fill="none" xmlns="http://www.w3.org/2000/svg">
<path d="M47.3916 490.599L108.235 490.268L169.077 490.161L290.75 489.936L412.423 490.161L473.266 490.268L534.109 490.599L473.266 490.918L412.423 491.038L290.75 491.263L169.077 491.038L108.235 490.918L47.3916 490.599Z" fill="#263238"/>
<path d="M73.0859 553.355C105.559 553.355 131.884 548.302 131.884 542.068C131.884 535.835 105.559 530.781 73.0859 530.781C40.6126 530.781 14.2878 535.835 14.2878 542.068C14.2878 548.302 40.6126 553.355 73.0859 553.355Z" fill="#EBEBEB"/>
<path d="M309.301 548.336C437.214 548.336 540.907 537.094 540.907 523.226C540.907 509.358 437.214 498.116 309.301 498.116C181.388 498.116 77.6936 509.358 77.6936 523.226C77.6936 537.094 181.388 548.336 309.301 548.336Z" fill="#EBEBEB"/>
<path d="M436.271 13.6689H331.224V80.6865H436.271V13.6689Z" fill="white"/>
<path d="M436.935 81.3503H330.586V13.0049H436.962L436.935 81.3503ZM331.888 80.0224H435.608V14.3328H331.914L331.888 80.0224Z" fill="#EBEBEB"/>
<path d="M436.271 13.6689H331.224V26.3368H436.271V13.6689Z" fill="#6D597A"/>
<path d="M436.935 27.0139H330.586V13.0049H436.962L436.935 27.0139ZM331.888 25.686H435.608V14.3328H331.914L331.888 25.686Z" fill="#EBEBEB"/>
<path d="M343.108 20.0956C343.1 20.7225 342.908 21.3331 342.554 21.851C342.201 22.3689 341.703 22.7712 341.123 23.0075C340.542 23.2437 339.904 23.3035 339.29 23.1792C338.675 23.055 338.111 22.7523 337.668 22.309C337.225 21.8657 336.922 21.3016 336.798 20.6871C336.674 20.0726 336.733 19.4352 336.97 18.8545C337.206 18.2738 337.608 17.7757 338.126 17.4226C338.644 17.0694 339.255 16.8768 339.881 16.8689C340.307 16.8636 340.729 16.9434 341.123 17.1036C341.516 17.2639 341.874 17.5014 342.175 17.8021C342.476 18.1028 342.713 18.4606 342.873 18.8545C343.034 19.2484 343.113 19.6704 343.108 20.0956Z" fill="#A6A6A6"/>
<path d="M356.135 20.0961C356.135 20.7264 355.948 21.3425 355.597 21.8666C355.247 22.3907 354.75 22.7992 354.167 23.0404C353.585 23.2816 352.944 23.3447 352.326 23.2217C351.708 23.0987 351.14 22.7952 350.694 22.3495C350.248 21.9038 349.945 21.336 349.822 20.7178C349.699 20.0996 349.762 19.4588 350.003 18.8765C350.245 18.2942 350.653 17.7964 351.177 17.4463C351.701 17.0961 352.317 16.9092 352.948 16.9092C353.793 16.9092 354.603 17.2449 355.201 17.8426C355.799 18.4403 356.135 19.2509 356.135 20.0961Z" fill="#EBEBEB"/>
<path d="M369.161 20.0961C369.161 20.7264 368.974 21.3425 368.624 21.8666C368.274 22.3907 367.776 22.7992 367.194 23.0404C366.611 23.2816 365.97 23.3447 365.352 23.2217C364.734 23.0987 364.166 22.7952 363.721 22.3495C363.275 21.9038 362.971 21.336 362.848 20.7178C362.725 20.0996 362.788 19.4588 363.03 18.8765C363.271 18.2942 363.679 17.7964 364.203 17.4463C364.728 17.0961 365.344 16.9092 365.974 16.9092C366.819 16.9092 367.63 17.2449 368.227 17.8426C368.825 18.4403 369.161 19.2509 369.161 20.0961Z" fill="white"/>
<path d="M349.349 51.3938C349.412 48.0017 350.803 44.7697 353.224 42.3932C355.646 40.0166 358.903 38.6855 362.296 38.686C365.236 38.6817 368.094 39.6531 370.422 41.448C370.825 41.7894 371.085 42.2703 371.149 42.7946C371.213 43.3189 371.076 43.848 370.767 44.2764C370.438 44.6901 369.961 44.9609 369.437 45.0326C368.913 45.1043 368.381 44.9714 367.952 44.6615C366.34 43.3662 364.323 42.6799 362.256 42.7228C359.895 42.7314 357.625 43.6381 355.909 45.259C354.284 46.8874 353.372 49.0937 353.372 51.3938C353.371 52.5365 353.598 53.6679 354.04 54.7215C354.483 55.7751 355.131 56.7295 355.948 57.5285C357.663 59.1542 359.933 60.0658 362.296 60.078C364.364 60.1093 366.378 59.4191 367.992 58.1261C368.429 57.8358 368.957 57.716 369.476 57.7895C369.995 57.8629 370.468 58.1245 370.807 58.5244C371.115 58.9564 371.246 59.4894 371.175 60.0148C371.103 60.5403 370.834 61.0187 370.422 61.3528C368.086 63.1615 365.21 64.1341 362.256 64.1147C358.866 64.1117 355.613 62.7763 353.198 60.3965C350.784 58.0168 349.401 54.7835 349.349 51.3938Z" fill="#EBEBEB"/>
<path d="M376.876 58.033C377.188 57.6635 377.633 57.4314 378.115 57.3867C378.597 57.342 379.077 57.4882 379.452 57.794C381.357 59.3809 383.722 60.3122 386.198 60.4498C387.769 60.4704 389.308 60.0068 390.606 59.1219C391.047 58.8523 391.415 58.4791 391.679 58.0348C391.943 57.5905 392.094 57.0885 392.12 56.5724C392.131 56.1744 392.025 55.7819 391.814 55.4437C391.545 55.0179 391.181 54.6592 390.752 54.3947C389.259 53.5423 387.62 52.9749 385.919 52.7216H385.839C384.271 52.4704 382.741 52.0243 381.284 51.3937C379.951 50.8088 378.813 49.8551 378.005 48.645C377.466 47.7761 377.185 46.7723 377.195 45.7502C377.227 44.7293 377.499 43.7305 377.991 42.8351C378.483 41.9397 379.179 41.1732 380.023 40.5981C381.812 39.3476 383.949 38.6925 386.131 38.7258C388.919 38.8687 391.599 39.8499 393.819 41.5409C394.215 41.8104 394.489 42.225 394.581 42.6948C394.672 43.1646 394.576 43.6518 394.311 44.0506C394.185 44.2535 394.02 44.4288 393.825 44.5661C393.63 44.7034 393.409 44.7998 393.176 44.8494C392.943 44.8991 392.702 44.9009 392.468 44.8549C392.234 44.8089 392.011 44.716 391.814 44.5817C390.192 43.2715 388.21 42.4844 386.131 42.3243C384.711 42.2941 383.317 42.7123 382.147 43.5194C381.764 43.7582 381.444 44.0854 381.212 44.4735C380.981 44.8616 380.847 45.2994 380.82 45.7502C380.796 46.0964 380.885 46.4408 381.072 46.7329C381.321 47.099 381.642 47.4107 382.015 47.6491C383.372 48.4537 384.874 48.9818 386.437 49.2027H386.503C388.182 49.4986 389.818 49.998 391.376 50.6899C392.806 51.311 394.027 52.3296 394.895 53.6245C395.452 54.5216 395.746 55.5565 395.745 56.6122C395.704 57.6868 395.409 58.7365 394.885 59.6757C394.362 60.6149 393.623 61.417 392.731 62.0166C390.817 63.3537 388.532 64.0552 386.198 64.0217C382.879 63.8603 379.704 62.6201 377.155 60.4896C376.82 60.1824 376.608 59.7647 376.556 59.3134C376.505 58.8621 376.619 58.4074 376.876 58.033Z" fill="#EBEBEB"/>
<path d="M400.074 58.033C400.386 57.6635 400.831 57.4314 401.313 57.3867C401.795 57.342 402.275 57.4882 402.65 57.794C404.549 59.3808 406.911 60.3122 409.382 60.4498C410.957 60.4706 412.501 60.0071 413.804 59.1219C414.242 58.8497 414.609 58.4759 414.872 58.0322C415.136 57.5884 415.289 57.0877 415.318 56.5724C415.325 56.173 415.214 55.7804 414.999 55.4437C414.729 55.0179 414.366 54.6592 413.937 54.3947C412.443 53.5423 410.804 52.9749 409.103 52.7216H409.037C407.469 52.4704 405.939 52.0243 404.482 51.3937C403.147 50.8127 402.008 49.8582 401.202 48.645C400.66 47.7772 400.375 46.7736 400.379 45.7502C400.414 44.73 400.688 43.7323 401.18 42.8374C401.671 41.9425 402.366 41.1755 403.207 40.5981C404.996 39.3476 407.133 38.6925 409.316 38.7258C412.103 38.8687 414.783 39.8499 417.004 41.5409C417.402 41.8084 417.678 42.222 417.772 42.692C417.867 43.1619 417.772 43.6502 417.509 44.0506C417.382 44.2539 417.215 44.4295 417.019 44.567C416.823 44.7044 416.601 44.8008 416.367 44.8504C416.132 44.9 415.89 44.9018 415.655 44.8556C415.42 44.8094 415.197 44.7163 414.999 44.5817C413.377 43.2715 411.395 42.4844 409.316 42.3243C407.895 42.2941 406.501 42.7123 405.332 43.5194C404.949 43.7582 404.628 44.0854 404.397 44.4735C404.166 44.8616 404.031 45.2994 404.004 45.7502C403.987 46.0958 404.075 46.4383 404.256 46.7329C404.507 47.1021 404.833 47.4143 405.213 47.6491C406.565 48.4521 408.064 48.9801 409.621 49.2027H409.687C411.367 49.4948 413.004 49.9944 414.561 50.6899C415.994 51.3108 417.22 52.3291 418.093 53.6245C418.649 54.5216 418.944 55.5565 418.943 56.6122C418.899 57.6878 418.602 58.7378 418.076 59.6769C417.55 60.616 416.81 61.4177 415.915 62.0166C414.003 63.3562 411.716 64.0579 409.382 64.0217C406.067 63.8633 402.895 62.6225 400.353 60.4896C400.013 60.1855 399.797 59.7673 399.746 59.3144C399.694 58.8615 399.811 58.4055 400.074 58.033Z" fill="#EBEBEB"/>
<path d="M508.773 75.0566H365.297V176.652H508.773V75.0566Z" fill="white"/>
<path d="M509.45 177.316H364.633V74.3926H509.45V177.316ZM365.961 175.988H508.123V75.7204H365.961V175.988Z" fill="#EBEBEB"/>
<path d="M508.773 75.0566H365.297V87.7245H508.773V75.0566Z" fill="#6D597A"/>
<path d="M509.45 88.4016H364.633V74.3926H509.45V88.4016ZM365.961 87.0737H508.123V75.7204H365.961V87.0737Z" fill="#EBEBEB"/>
<path d="M377.195 81.4833C377.195 82.1136 377.008 82.7297 376.657 83.2538C376.307 83.7779 375.81 84.1864 375.227 84.4276C374.645 84.6688 374.004 84.7319 373.386 84.6089C372.768 84.486 372.2 84.1824 371.754 83.7367C371.308 83.291 371.005 82.7232 370.882 82.105C370.759 81.4868 370.822 80.846 371.063 80.2637C371.305 79.6814 371.713 79.1837 372.237 78.8335C372.761 78.4833 373.377 78.2964 374.008 78.2964C374.426 78.2964 374.841 78.3788 375.227 78.539C375.614 78.6991 375.965 78.9339 376.261 79.2298C376.557 79.5257 376.792 79.8771 376.952 80.2637C377.112 80.6504 377.195 81.0648 377.195 81.4833Z" fill="#A6A6A6"/>
<path d="M390.221 81.4833C390.223 82.1174 390.038 82.7379 389.687 83.2662C389.336 83.7945 388.837 84.2067 388.252 84.4506C387.666 84.6944 387.022 84.7589 386.4 84.6359C385.778 84.5128 385.206 84.2078 384.758 83.7594C384.31 83.3111 384.004 82.7396 383.881 82.1176C383.758 81.4956 383.823 80.8511 384.067 80.2658C384.311 79.6805 384.723 79.1808 385.251 78.8302C385.779 78.4796 386.4 78.2938 387.034 78.2964C387.453 78.2964 387.867 78.3788 388.254 78.539C388.64 78.6992 388.992 78.9339 389.287 79.2298C389.583 79.5258 389.818 79.8771 389.978 80.2637C390.138 80.6504 390.221 81.0648 390.221 81.4833Z" fill="#EBEBEB"/>
<path d="M403.247 81.4833C403.25 82.1168 403.064 82.7368 402.714 83.2648C402.364 83.7928 401.865 84.2051 401.281 84.4493C400.696 84.6936 400.053 84.7588 399.431 84.6369C398.809 84.5149 398.238 84.2112 397.789 83.7641C397.34 83.3171 397.034 82.7469 396.909 82.1258C396.785 81.5047 396.847 80.8605 397.089 80.275C397.331 79.6895 397.741 79.1889 398.268 78.8367C398.794 78.4844 399.414 78.2964 400.047 78.2964C400.467 78.2947 400.883 78.3758 401.271 78.5352C401.659 78.6946 402.012 78.929 402.309 79.2251C402.606 79.5212 402.842 79.8731 403.003 80.2607C403.164 80.6482 403.247 81.0637 403.247 81.4833Z" fill="white"/>
<path d="M385.666 112.94H378.894V115.41H385.666V112.94Z" fill="#EBEBEB"/>
<path d="M436.617 112.94H390.606V115.41H436.617V112.94Z" fill="#EBEBEB"/>
<path d="M453.64 112.94H440.773V115.41H453.64V112.94Z" fill="#6D597A"/>
<path d="M483.079 146.058H470.212V148.527H483.079V146.058Z" fill="#EBEBEB"/>
<path d="M478.683 112.94H456.442V115.41H478.683V112.94Z" fill="#A6A6A6"/>
<path d="M392.438 119.567H385.666V122.037H392.438V119.567Z" fill="#EBEBEB"/>
<path d="M427.083 119.567H397.219V122.037H427.083V119.567Z" fill="#A6A6A6"/>
<path d="M467.158 146.058H437.294V148.527H467.158V146.058Z" fill="#A6A6A6"/>
<path d="M418.186 139.432H390.606V141.901H418.186V139.432Z" fill="#A6A6A6"/>
<path d="M410.259 126.193H397.219V128.663H410.259V126.193Z" fill="#6D597A"/>
<path d="M462.431 132.819H449.391V135.289H462.431V132.819Z" fill="#A6A6A6"/>
<path d="M458.048 126.193H414.043V128.663H458.048V126.193Z" fill="#A6A6A6"/>
<path d="M434.612 146.058H390.606V148.527H434.612V146.058Z" fill="#6D597A"/>
<path d="M490.316 119.567H455.008V122.037H490.316V119.567Z" fill="#6D597A"/>
<path d="M452.219 119.567H430.283V122.037H452.219V119.567Z" fill="#EBEBEB"/>
<path d="M482.547 126.193H460.611V128.663H482.547V126.193Z" fill="#EBEBEB"/>
<path d="M392.438 126.193H385.666V128.663H392.438V126.193Z" fill="#EBEBEB"/>
<path d="M385.666 132.819H378.894V135.289H385.666V132.819Z" fill="#A6A6A6"/>
<path d="M409.502 132.819H390.606V135.289H409.502V132.819Z" fill="#EBEBEB"/>
<path d="M416.115 152.684H397.219V155.153H416.115V152.684Z" fill="#EBEBEB"/>
<path d="M470.61 159.31H440.162V161.78H470.61V159.31Z" fill="#6D597A"/>
<path d="M448.953 152.684H419.368V155.153H448.953V152.684Z" fill="#6D597A"/>
<path d="M436.656 159.31H412.277V161.78H436.656V159.31Z" fill="#EBEBEB"/>
<path d="M490.316 152.684H452.418V155.153H490.316V152.684Z" fill="#A6A6A6"/>
<path d="M408.811 159.31H397.219V161.78H408.811V159.31Z" fill="#A6A6A6"/>
<path d="M453.64 139.432H420.935V141.901H453.64V139.432Z" fill="#EBEBEB"/>
<path d="M483.982 139.432H456.442V141.901H483.982V139.432Z" fill="#6D597A"/>
<path d="M446.23 132.819H413.578V135.289H446.23V132.819Z" fill="#6D597A"/>
<path d="M385.666 139.432H378.894V141.901H385.666V139.432Z" fill="#EBEBEB"/>
<path d="M385.666 146.058H378.894V148.527H385.666V146.058Z" fill="#EBEBEB"/>
<path d="M392.438 152.684H385.666V155.153H392.438V152.684Z" fill="#A6A6A6"/>
<path d="M392.438 159.31H385.666V161.78H392.438V159.31Z" fill="#EBEBEB"/>
<path d="M383.077 106.42C383.135 106.474 383.18 106.538 383.212 106.61C383.243 106.682 383.259 106.76 383.259 106.839C383.259 106.917 383.243 106.995 383.212 107.067C383.18 107.139 383.135 107.203 383.077 107.257C383.024 107.312 382.96 107.356 382.889 107.386C382.818 107.416 382.742 107.431 382.665 107.429C382.587 107.431 382.508 107.416 382.435 107.387C382.362 107.357 382.296 107.313 382.24 107.257L379.585 104.601C379.585 104.601 379.585 104.601 379.585 104.535C379.585 104.535 379.585 104.535 379.585 104.455C379.593 104.434 379.593 104.41 379.585 104.389V104.322C379.591 104.296 379.591 104.269 379.585 104.243C379.585 104.243 379.585 104.176 379.585 104.15L382.24 101.494C382.355 101.39 382.504 101.333 382.659 101.333C382.813 101.333 382.962 101.39 383.077 101.494C383.135 101.547 383.18 101.612 383.212 101.684C383.243 101.756 383.259 101.834 383.259 101.912C383.259 101.991 383.243 102.068 383.212 102.14C383.18 102.212 383.135 102.277 383.077 102.33L380.873 104.561L383.077 106.42Z" fill="#6D597A"/>
<path d="M385.454 106.726L387.725 101.295C387.782 101.173 387.885 101.078 388.011 101.028C388.136 100.979 388.276 100.979 388.402 101.03C388.523 101.085 388.618 101.185 388.668 101.308C388.717 101.432 388.717 101.57 388.667 101.694L386.357 107.164C386.316 107.254 386.251 107.331 386.169 107.385C386.087 107.439 385.991 107.468 385.892 107.47C385.831 107.484 385.767 107.484 385.706 107.47C385.634 107.446 385.568 107.406 385.514 107.352C385.46 107.299 385.419 107.233 385.394 107.161C385.37 107.089 385.363 107.012 385.373 106.937C385.383 106.861 385.411 106.789 385.454 106.726Z" fill="#6D597A"/>
<path d="M393.169 104.509L393.103 104.575L390.447 107.231C390.394 107.286 390.33 107.33 390.259 107.36C390.188 107.39 390.112 107.404 390.035 107.403C389.956 107.405 389.878 107.39 389.805 107.36C389.732 107.331 389.666 107.287 389.61 107.231C389.501 107.119 389.439 106.969 389.439 106.812C389.439 106.656 389.501 106.506 389.61 106.394L391.815 104.177L389.61 101.946C389.501 101.834 389.439 101.684 389.439 101.527C389.439 101.371 389.501 101.221 389.61 101.109C389.725 101.006 389.874 100.948 390.029 100.948C390.183 100.948 390.332 101.006 390.447 101.109L393.103 103.765H393.169V103.858V103.938V104.177C393.171 104.207 393.171 104.239 393.169 104.269C393.145 104.305 393.132 104.346 393.132 104.389C393.132 104.432 393.145 104.473 393.169 104.509Z" fill="#6D597A"/>
<path d="M575.074 167.768H470.026V234.786H575.074V167.768Z" fill="white"/>
<path d="M575.737 235.436H469.362V167.104H575.737V235.436ZM470.69 234.108H574.41V168.432H470.69V234.108Z" fill="#EBEBEB"/>
<path d="M575.074 167.768H470.026V180.436H575.074V167.768Z" fill="#6D597A"/>
<path d="M575.737 181.1H469.362V167.104H575.737V181.1ZM470.69 179.772H574.41V168.432H470.69V179.772Z" fill="#EBEBEB"/>
<path d="M481.963 174.195C481.966 174.828 481.78 175.448 481.43 175.976C481.08 176.504 480.582 176.916 479.997 177.161C479.413 177.405 478.769 177.47 478.147 177.348C477.525 177.226 476.954 176.923 476.505 176.476C476.056 176.029 475.75 175.458 475.625 174.837C475.501 174.216 475.564 173.572 475.805 172.986C476.047 172.401 476.457 171.9 476.984 171.548C477.51 171.196 478.13 171.008 478.763 171.008C479.183 171.006 479.599 171.087 479.987 171.247C480.375 171.406 480.728 171.64 481.025 171.937C481.323 172.233 481.558 172.585 481.719 172.972C481.88 173.36 481.963 173.775 481.963 174.195Z" fill="#A6A6A6"/>
<path d="M494.937 174.195C494.937 174.825 494.75 175.441 494.4 175.965C494.05 176.489 493.552 176.898 492.969 177.139C492.387 177.38 491.746 177.443 491.128 177.32C490.51 177.197 489.942 176.894 489.496 176.448C489.051 176.003 488.747 175.435 488.624 174.816C488.501 174.198 488.564 173.557 488.806 172.975C489.047 172.393 489.455 171.895 489.979 171.545C490.503 171.195 491.12 171.008 491.75 171.008C492.169 171.006 492.584 171.087 492.972 171.247C493.359 171.406 493.711 171.641 494.007 171.937C494.304 172.234 494.538 172.586 494.698 172.973C494.857 173.361 494.939 173.776 494.937 174.195Z" fill="#EBEBEB"/>
<path d="M507.963 174.195C507.963 174.825 507.776 175.441 507.426 175.965C507.076 176.489 506.578 176.898 505.996 177.139C505.414 177.38 504.773 177.443 504.155 177.32C503.536 177.197 502.968 176.894 502.523 176.448C502.077 176.003 501.774 175.435 501.651 174.816C501.528 174.198 501.591 173.557 501.832 172.975C502.073 172.393 502.482 171.895 503.006 171.545C503.53 171.195 504.146 171.008 504.776 171.008C505.195 171.006 505.61 171.087 505.998 171.247C506.385 171.406 506.737 171.641 507.034 171.937C507.33 172.234 507.565 172.586 507.724 172.973C507.884 173.361 507.965 173.776 507.963 174.195Z" fill="white"/>
<path d="M489.638 205.493C489.704 202.102 491.097 198.872 493.518 196.496C495.938 194.121 499.194 192.788 502.585 192.786C505.536 192.764 508.408 193.737 510.738 195.547C511.122 195.889 511.363 196.363 511.411 196.874C511.46 197.386 511.312 197.897 510.999 198.304C510.686 198.711 510.23 198.985 509.724 199.07C509.217 199.154 508.697 199.044 508.268 198.761C506.663 197.462 504.65 196.771 502.585 196.809C500.222 196.821 497.953 197.733 496.238 199.358C495.426 200.161 494.781 201.117 494.339 202.169C493.897 203.222 493.667 204.352 493.662 205.493C493.659 206.638 493.886 207.772 494.328 208.828C494.771 209.884 495.42 210.84 496.238 211.641C497.955 213.262 500.224 214.169 502.585 214.177C504.648 214.216 506.659 213.53 508.268 212.239C508.705 211.946 509.235 211.824 509.756 211.895C510.277 211.966 510.754 212.225 511.097 212.624C511.407 213.053 511.543 213.584 511.477 214.109C511.41 214.634 511.146 215.114 510.738 215.452C508.404 217.253 505.534 218.221 502.585 218.201C499.189 218.212 495.926 216.884 493.503 214.505C491.079 212.127 489.691 208.889 489.638 205.493Z" fill="#EBEBEB"/>
<path d="M523.486 207.724H518.466C517.952 207.724 517.459 207.52 517.095 207.156C516.732 206.793 516.528 206.299 516.528 205.785C516.531 205.271 516.736 204.778 517.098 204.413C517.461 204.049 517.952 203.84 518.466 203.833H523.486V198.933C523.482 198.669 523.531 198.406 523.631 198.16C523.73 197.914 523.877 197.691 524.064 197.503C524.251 197.315 524.473 197.166 524.718 197.065C524.963 196.964 525.226 196.913 525.491 196.915C526.026 196.915 526.539 197.128 526.918 197.506C527.296 197.885 527.509 198.398 527.509 198.933V203.833H532.515C533.029 203.84 533.521 204.049 533.883 204.413C534.245 204.778 534.45 205.271 534.454 205.785C534.454 206.299 534.25 206.793 533.886 207.156C533.522 207.52 533.029 207.724 532.515 207.724H527.509V212.624C527.509 213.159 527.296 213.672 526.918 214.051C526.539 214.429 526.026 214.642 525.491 214.642C525.226 214.644 524.963 214.593 524.718 214.492C524.473 214.391 524.251 214.242 524.064 214.054C523.877 213.866 523.73 213.643 523.631 213.397C523.531 213.152 523.482 212.889 523.486 212.624V207.724Z" fill="#EBEBEB"/>
<path d="M545.369 207.724H540.389C539.875 207.724 539.382 207.52 539.018 207.156C538.655 206.793 538.451 206.299 538.451 205.785C538.454 205.271 538.659 204.778 539.021 204.413C539.384 204.049 539.875 203.84 540.389 203.833H545.409V198.933C545.405 198.669 545.455 198.406 545.554 198.16C545.653 197.914 545.801 197.691 545.987 197.503C546.174 197.315 546.396 197.166 546.641 197.065C546.886 196.964 547.149 196.913 547.414 196.915C547.948 196.919 548.459 197.132 548.837 197.51C549.215 197.888 549.429 198.399 549.432 198.933V203.833H554.438C554.953 203.84 555.444 204.049 555.806 204.413C556.169 204.778 556.373 205.271 556.377 205.785C556.377 206.299 556.173 206.793 555.809 207.156C555.445 207.52 554.952 207.724 554.438 207.724H549.432V212.624C549.429 213.158 549.215 213.669 548.837 214.047C548.459 214.425 547.948 214.639 547.414 214.642C547.149 214.644 546.886 214.593 546.641 214.492C546.396 214.391 546.174 214.242 545.987 214.054C545.801 213.866 545.653 213.643 545.554 213.397C545.455 213.152 545.405 212.889 545.409 212.624L545.369 207.724Z" fill="#EBEBEB"/>
<path d="M558.316 56.4263H486.757V82.9173H558.316V56.4263Z" fill="#455A64"/>
<path d="M497.088 75.1756V63.424C497.086 63.2788 497.113 63.1346 497.168 63.0001C497.223 62.8656 497.304 62.7434 497.407 62.6407C497.509 62.538 497.632 62.4569 497.766 62.4021C497.901 62.3474 498.045 62.3201 498.19 62.3219C498.336 62.3201 498.481 62.3473 498.616 62.4019C498.751 62.4565 498.874 62.5374 498.978 62.6399C499.082 62.7424 499.164 62.8645 499.22 62.9991C499.277 63.1337 499.306 63.2781 499.305 63.424V68.2043H504.458V63.424C504.456 63.2788 504.483 63.1346 504.538 63.0001C504.593 62.8656 504.674 62.7434 504.776 62.6407C504.879 62.538 505.001 62.4569 505.136 62.4021C505.27 62.3474 505.415 62.3201 505.56 62.3219C505.706 62.3201 505.85 62.3473 505.986 62.4019C506.121 62.4565 506.244 62.5374 506.348 62.6399C506.451 62.7424 506.534 62.8645 506.59 62.9991C506.646 63.1337 506.675 63.2781 506.675 63.424V75.1756C506.673 75.3204 506.643 75.4633 506.586 75.5964C506.529 75.7295 506.447 75.85 506.343 75.9511C506.239 76.0522 506.117 76.1319 505.983 76.1857C505.848 76.2395 505.704 76.2662 505.56 76.2645C505.415 76.2681 505.271 76.2424 505.137 76.1892C505.002 76.1359 504.88 76.056 504.777 75.9544C504.674 75.8527 504.593 75.7314 504.538 75.5976C504.483 75.4638 504.456 75.3203 504.458 75.1756V70.3953H499.305V75.1756C499.304 75.3204 499.274 75.4633 499.217 75.5964C499.16 75.7295 499.077 75.85 498.973 75.9511C498.87 76.0522 498.747 76.1319 498.613 76.1857C498.478 76.2395 498.335 76.2662 498.19 76.2645C498.046 76.2681 497.902 76.2424 497.767 76.1892C497.633 76.1359 497.51 76.056 497.408 75.9544C497.305 75.8527 497.223 75.7314 497.168 75.5976C497.113 75.4638 497.086 75.3203 497.088 75.1756Z" fill="white"/>
<path d="M519.741 64.5394H516.567V75.1624C516.569 75.3058 516.542 75.4482 516.488 75.5811C516.434 75.7141 516.354 75.8348 516.253 75.9363C516.151 76.0377 516.03 76.1179 515.897 76.172C515.765 76.226 515.622 76.253 515.479 76.2512C515.189 76.2512 514.91 76.1369 514.704 75.9331C514.498 75.7293 514.38 75.4524 514.377 75.1624V64.5394H511.176C511.032 64.5377 510.889 64.5074 510.756 64.4504C510.623 64.3934 510.502 64.3108 510.401 64.2072C510.3 64.1036 510.22 63.9812 510.166 63.8468C510.113 63.7124 510.086 63.5687 510.087 63.424C510.084 63.2794 510.11 63.1356 510.163 63.0011C510.216 62.8667 510.296 62.7443 510.398 62.6414C510.499 62.5385 510.621 62.4572 510.754 62.4023C510.888 62.3474 511.032 62.32 511.176 62.3219H519.688C519.832 62.3219 519.975 62.3504 520.108 62.406C520.241 62.4615 520.361 62.5429 520.463 62.6455C520.564 62.748 520.644 62.8696 520.698 63.0032C520.752 63.1369 520.779 63.2799 520.777 63.424C520.778 63.7065 520.671 63.9788 520.479 64.1858C520.287 64.3929 520.023 64.5192 519.741 64.5394Z" fill="white"/>
<path d="M536.114 63.424V75.1756C536.107 75.4668 535.986 75.7437 535.778 75.9472C535.569 76.1507 535.29 76.2645 534.998 76.2645C534.854 76.2662 534.711 76.2393 534.578 76.1854C534.444 76.1315 534.322 76.0516 534.22 75.9503C534.117 75.849 534.036 75.7284 533.98 75.5954C533.925 75.4624 533.896 75.3197 533.896 75.1756V66.7835L531.028 70.7671C530.929 70.9119 530.797 71.0301 530.641 71.1112C530.486 71.1922 530.313 71.2337 530.138 71.2318C529.959 71.2346 529.782 71.1937 529.623 71.1128C529.463 71.0318 529.326 70.9131 529.222 70.7671L526.367 66.7835V75.1756C526.367 75.4679 526.251 75.7482 526.044 75.9549C525.838 76.1616 525.557 76.2777 525.265 76.2777C524.973 76.2777 524.692 76.1616 524.486 75.9549C524.279 75.7482 524.163 75.4679 524.163 75.1756V63.424C524.163 63.1339 524.277 62.8556 524.481 62.6493C524.685 62.443 524.962 62.3253 525.252 62.3218H525.318C525.491 62.3221 525.661 62.3646 525.814 62.4456C525.967 62.5266 526.097 62.6437 526.194 62.7866L530.178 68.284L534.162 62.7866C534.26 62.6418 534.393 62.5236 534.548 62.4425C534.703 62.3614 534.876 62.32 535.051 62.3218C535.333 62.3414 535.598 62.465 535.795 62.6686C535.991 62.8722 536.104 63.1413 536.114 63.424Z" fill="white"/>
<path d="M540.934 75.1756V63.4239C540.934 63.1339 541.048 62.8555 541.252 62.6492C541.456 62.4429 541.733 62.3253 542.023 62.3218C542.316 62.3218 542.598 62.4374 542.807 62.6438C543.016 62.8501 543.135 63.1304 543.138 63.4239V74.0469H548.543C548.835 74.0469 549.115 74.163 549.322 74.3697C549.529 74.5764 549.645 74.8567 549.645 75.149C549.645 75.4413 549.529 75.7216 549.322 75.9283C549.115 76.135 548.835 76.2511 548.543 76.2511H542.023C541.736 76.2511 541.461 76.1382 541.258 75.9369C541.054 75.7356 540.938 75.462 540.934 75.1756Z" fill="white"/>
<path d="M377.181 142.26H318.21V168.751H377.181V142.26Z" fill="#455A64"/>
<path d="M335.752 156.694H333.308V161.009C333.278 161.283 333.149 161.535 332.944 161.718C332.74 161.902 332.474 162.003 332.2 162.003C331.925 162.003 331.66 161.902 331.455 161.718C331.25 161.535 331.121 161.283 331.091 161.009V149.258C331.094 148.968 331.212 148.691 331.418 148.487C331.625 148.283 331.903 148.169 332.193 148.169H335.752C336.311 148.169 336.866 148.279 337.383 148.493C337.9 148.708 338.37 149.022 338.766 149.417C339.161 149.813 339.475 150.283 339.69 150.8C339.904 151.317 340.014 151.872 340.014 152.431C340.014 152.991 339.904 153.545 339.69 154.063C339.475 154.58 339.161 155.05 338.766 155.445C338.37 155.841 337.9 156.155 337.383 156.369C336.866 156.584 336.311 156.694 335.752 156.694ZM333.308 154.476H335.752C336.035 154.499 336.32 154.463 336.589 154.37C336.857 154.278 337.104 154.13 337.313 153.937C337.521 153.745 337.688 153.511 337.802 153.25C337.916 152.99 337.975 152.709 337.975 152.425C337.975 152.141 337.916 151.859 337.802 151.599C337.688 151.339 337.521 151.105 337.313 150.912C337.104 150.719 336.857 150.572 336.589 150.479C336.32 150.386 336.035 150.35 335.752 150.373H333.308V154.476Z" fill="white"/>
<path d="M342.71 161.01V149.258C342.71 148.966 342.826 148.685 343.033 148.479C343.239 148.272 343.52 148.156 343.812 148.156C344.104 148.156 344.384 148.272 344.591 148.479C344.798 148.685 344.914 148.966 344.914 149.258V154.038H350.079V149.258C350.078 149.113 350.105 148.97 350.16 148.836C350.215 148.702 350.296 148.581 350.399 148.479C350.502 148.378 350.624 148.298 350.759 148.244C350.893 148.191 351.037 148.165 351.182 148.169C351.326 148.167 351.47 148.194 351.604 148.248C351.739 148.302 351.861 148.381 351.965 148.482C352.068 148.584 352.151 148.704 352.208 148.837C352.265 148.97 352.295 149.113 352.297 149.258V161.01C352.297 161.155 352.268 161.3 352.212 161.434C352.156 161.569 352.073 161.691 351.969 161.794C351.866 161.896 351.743 161.977 351.607 162.032C351.472 162.086 351.327 162.113 351.182 162.112C351.036 162.113 350.892 162.086 350.758 162.031C350.623 161.977 350.501 161.896 350.398 161.793C350.296 161.69 350.214 161.568 350.16 161.433C350.105 161.299 350.078 161.155 350.079 161.01V156.296H344.914V161.076C344.914 161.368 344.798 161.649 344.591 161.855C344.384 162.062 344.104 162.178 343.812 162.178C343.52 162.178 343.239 162.062 343.033 161.855C342.826 161.649 342.71 161.368 342.71 161.076V161.01Z" fill="white"/>
<path d="M361.499 156.694H359.042V161.009C359.039 161.303 358.92 161.583 358.711 161.79C358.502 161.996 358.221 162.112 357.927 162.112C357.637 162.108 357.36 161.99 357.156 161.784C356.952 161.578 356.838 161.299 356.838 161.009V149.258C356.838 148.969 356.953 148.692 357.157 148.488C357.361 148.284 357.638 148.169 357.927 148.169H361.499C362.059 148.169 362.613 148.279 363.13 148.493C363.647 148.708 364.117 149.022 364.513 149.417C364.909 149.813 365.223 150.283 365.437 150.8C365.651 151.317 365.761 151.872 365.761 152.431C365.761 152.991 365.651 153.545 365.437 154.063C365.223 154.58 364.909 155.05 364.513 155.445C364.117 155.841 363.647 156.155 363.13 156.369C362.613 156.584 362.059 156.694 361.499 156.694ZM359.042 154.476H361.499C361.782 154.499 362.067 154.463 362.336 154.37C362.605 154.278 362.851 154.13 363.06 153.937C363.269 153.745 363.435 153.511 363.549 153.25C363.664 152.99 363.722 152.709 363.722 152.425C363.722 152.141 363.664 151.859 363.549 151.599C363.435 151.339 363.269 151.105 363.06 150.912C362.851 150.719 362.605 150.572 362.336 150.479C362.067 150.386 361.782 150.35 361.499 150.373H359.042V154.476Z" fill="white"/>
<path d="M300.709 362.686L304.135 383.281L327.399 508.91H331.157L314.24 383.281L311.731 362.686H300.709Z" fill="#A6A6A6"/>
<path d="M311.731 362.686H300.709L304.135 383.281H314.24L311.731 362.686Z" fill="#263238"/>
<path d="M227.65 508.91H231.408L254.659 383.281L258.098 362.686H247.063L244.567 383.281L227.65 508.91Z" fill="#A6A6A6"/>
<path d="M247.063 362.686L244.567 383.281H254.658L258.098 362.686H247.063Z" fill="#263238"/>
<path d="M157.884 508.91H161.628L184.892 383.281L188.318 362.686H177.297L174.801 383.281L157.884 508.91Z" fill="#A6A6A6"/>
<path d="M174.801 383.281H184.892L188.318 362.686H177.297L174.801 383.281Z" fill="#263238"/>
<path d="M163.819 372.366H334.291V354.4H270.474L249.028 203.063H170.326L163.819 372.366Z" fill="#A6A6A6"/>
<path d="M163.819 372.366H173.114L179.169 203.063H170.326L163.819 372.366Z" fill="#DBDBDB"/>
<path d="M275.626 215L272.333 214.655C272.426 210.419 270.421 203.713 270.766 207.02C270.937 209.507 270.826 212.006 270.434 214.469L220.161 209.317C220.161 202.917 224.051 192.798 224.051 192.798C220.293 197.711 218.288 205.001 217.412 209.038L212.101 208.494C211.954 204.656 213.946 198.335 213.946 198.335C212.247 200.739 210.892 205.413 210.188 208.308L204.2 207.684C205.052 199.75 208.294 192.263 213.495 186.212C218.156 180.569 220.134 175.669 220.931 162.563C221.834 146.827 232.802 142.459 234.502 140.719C249.52 125.303 274.258 140.865 271.788 160.412C269.929 175.124 268.203 176.718 273.621 190.647C277.711 201.111 275.626 215 275.626 215Z" fill="#263238"/>
<path d="M242.694 208.467C250.303 236.193 256.65 257.678 264.591 262.91C271.005 267.119 280.008 270.08 289.263 272.205C299.163 274.28 309.187 275.713 319.273 276.494C322.38 276.746 324.969 276.906 326.802 277.038C331.343 277.331 338.752 247.347 335.566 243.696C334.822 242.859 331.834 242.208 327.598 241.677C313.47 239.911 285.638 239.486 283.978 237.906C282.318 236.326 273.355 224.388 261.139 208.786C252.746 198.004 245.868 194.83 243.053 197.818C241.513 199.451 241.234 203.116 242.694 208.467Z" fill="#EB9481"/>
<path d="M317.692 273.944C322.08 275.898 326.591 277.562 331.197 278.924C334.875 279.84 345.511 282.204 346.919 278.26C347.888 275.604 341.793 273.44 337.518 271.846C335.273 271.01 332.445 268.779 333.056 267.331C334.105 264.795 339.908 267.092 343.745 269.137C351.155 273.121 361.114 280.318 365.416 276.48C367.036 275.02 364.991 272.563 362.057 270.173C366.784 272.908 371.803 275.099 373.662 273.559C374.146 273.163 374.459 272.597 374.538 271.977C374.617 271.357 374.456 270.731 374.087 270.226C374.679 270.48 375.334 270.549 375.966 270.426C376.598 270.303 377.179 269.993 377.632 269.536C379.08 267.916 378.257 265.618 376.53 263.295C376.811 263.255 377.078 263.148 377.308 262.984C377.539 262.82 377.728 262.603 377.858 262.352C380.859 257.386 364.42 244.041 358.87 242.952C342.524 239.698 325.341 241.73 325.341 241.73C319.166 247.055 317.679 273.931 317.692 273.944Z" fill="#EB9481"/>
<path d="M340.97 257.957C344.856 258.388 348.597 259.676 351.925 261.728C355.802 264.184 358.936 267.623 362.548 270.425C362.654 270.505 362.548 270.651 362.429 270.571C360.729 269.111 358.87 267.823 357.117 266.428C355.364 265.034 353.718 263.653 351.912 262.445C348.645 260.169 344.903 258.666 340.97 258.05C340.97 258.05 340.917 257.957 340.97 257.957Z" fill="#263238"/>
<path d="M343.732 250.972C348.097 251.838 352.363 253.142 356.466 254.863C360.875 256.908 364.434 260.387 367.846 263.72C369.918 265.72 371.949 267.77 373.941 269.868C374.021 269.947 373.941 270.093 373.808 270.014C370.267 266.561 366.656 263.22 362.973 259.988C359.552 256.97 355.567 254.659 351.248 253.19C348.778 252.34 346.242 251.702 343.719 251.052C343.666 251.039 343.679 250.972 343.732 250.972Z" fill="#263238"/>
<path d="M348.061 244.798C352.23 245.488 355.869 246.126 359.613 248.171C363.82 250.756 367.691 253.851 371.139 257.386C373.025 259.258 374.844 261.197 376.637 263.149C376.716 263.229 376.57 263.361 376.504 263.282C372.405 258.992 368.031 254.973 363.411 251.251C361.244 249.439 358.807 247.978 356.187 246.922C353.539 245.99 350.816 245.289 348.048 244.824C348.048 244.824 348.034 244.798 348.061 244.798Z" fill="#263238"/>
<path d="M242.695 208.468C250.303 236.194 256.65 257.679 264.591 262.91C271.005 267.12 280.008 270.081 289.263 272.205L243.093 197.845C241.513 199.451 241.234 203.116 242.695 208.468Z" fill="#263238"/>
<path d="M240.291 203.793C241.088 212.238 246.625 226.765 246.625 226.765L275.931 224.282C275.931 224.282 264.604 207.684 252.813 198.243C251.707 197.347 250.488 196.601 249.188 196.025C244.049 193.821 239.547 195.879 240.291 203.793Z" fill="#6D597A"/>
<path d="M240.291 203.793C240.291 204.231 240.384 204.696 240.464 205.121C240.543 205.546 240.596 205.851 240.676 206.236C242.117 213.212 244.106 220.063 246.625 226.725L247.793 226.633L248.935 226.54L258.151 225.756L259.479 225.637L268.654 224.853L269.836 224.76L273.209 224.468L249.188 196.025C244.049 193.821 239.481 195.892 240.291 203.793Z" fill="#263238"/>
<path d="M453.055 508.845C449.895 509.894 357.117 509.123 353.691 506.906C353.279 506.667 353.173 498.275 353.213 486.789V486.563C353.113 478.454 352.581 470.356 351.619 462.303L351.46 460.975C349.017 439.556 344.821 418.735 344.821 418.735L402.889 418.523L410.856 461.015L411.002 462.343L412.635 478.171C412.635 478.171 425.144 483.482 436.032 488.701C442.751 491.914 448.58 494.849 449.922 495.924C453.467 498.726 456.216 507.822 453.055 508.845Z" fill="#EB9481"/>
<path d="M453.056 508.845C449.895 509.894 357.117 509.124 353.691 506.906C353.28 506.667 353.173 498.275 353.213 486.789V486.563C353.113 478.454 352.581 470.356 351.62 462.303L351.46 460.975H410.896L411.042 462.303L412.675 478.131C412.675 478.131 425.184 483.443 436.072 488.661C442.791 491.875 448.621 494.809 449.962 495.885C453.467 498.726 456.216 507.822 453.056 508.845Z" fill="#EBEBEB"/>
<path d="M453.441 509.203C450.187 510.252 357.29 509.203 353.771 506.972C352.443 506.122 351.195 491.781 352.629 475.953L412.516 476.67C412.516 476.67 446.761 492.963 450.36 495.871C453.959 498.779 456.734 508.18 453.441 509.203Z" fill="#6D597A"/>
<path d="M452.152 505.525C436.577 504.967 373.742 504.197 358.312 504.861C358.179 504.861 358.179 504.954 358.312 504.954C373.729 505.844 436.577 506.083 452.139 505.777C452.471 505.711 452.471 505.525 452.152 505.525Z" fill="#263238"/>
<path d="M444.411 492.459C442.69 492.403 440.976 492.703 439.377 493.34C437.777 493.978 436.327 494.939 435.116 496.164C432.9 498.361 431.62 501.33 431.544 504.449C431.544 504.542 431.717 504.542 431.73 504.449C432.291 501.371 433.835 498.557 436.132 496.431C438.428 494.305 441.352 492.981 444.464 492.658C444.485 492.647 444.501 492.628 444.511 492.607C444.52 492.585 444.522 492.561 444.516 492.538C444.509 492.515 444.496 492.495 444.477 492.48C444.458 492.466 444.435 492.458 444.411 492.459Z" fill="#263238"/>
<path d="M417.389 478.277C411.161 478.131 403.911 480.256 399.981 485.301C399.834 485.501 400.113 485.713 400.299 485.62C405.779 482.818 411.544 480.615 417.495 479.047C417.58 479.016 417.651 478.956 417.698 478.878C417.744 478.8 417.763 478.709 417.75 478.62C417.738 478.53 417.695 478.447 417.63 478.385C417.564 478.323 417.479 478.285 417.389 478.277Z" fill="#263238"/>
<path d="M422.209 480.216C415.982 480.056 408.732 482.181 404.801 487.24C404.642 487.426 404.934 487.639 405.12 487.546C410.598 484.752 416.358 482.548 422.302 480.973C422.392 480.949 422.47 480.893 422.522 480.816C422.573 480.739 422.596 480.646 422.585 480.554C422.573 480.462 422.529 480.377 422.46 480.315C422.391 480.253 422.302 480.218 422.209 480.216Z" fill="#263238"/>
<path d="M426.976 482.141C420.735 481.982 413.485 484.106 409.568 489.166C409.408 489.351 409.687 489.577 409.873 489.484C415.373 486.677 421.161 484.473 427.135 482.911C427.224 482.878 427.297 482.813 427.343 482.73C427.388 482.647 427.403 482.551 427.383 482.458C427.364 482.366 427.313 482.283 427.238 482.225C427.163 482.167 427.07 482.137 426.976 482.141Z" fill="#263238"/>
<path d="M431.77 484.066C425.529 483.907 418.279 486.032 414.362 491.091C414.202 491.29 414.481 491.502 414.667 491.41C420.146 488.606 425.911 486.403 431.863 484.837C431.947 484.806 432.019 484.747 432.066 484.671C432.113 484.594 432.133 484.504 432.122 484.415C432.111 484.325 432.07 484.242 432.006 484.179C431.943 484.116 431.859 484.076 431.77 484.066Z" fill="#263238"/>
<path d="M362.455 490.055C355.47 490.055 355.364 500.877 362.375 500.93C369.386 500.983 369.44 490.121 362.455 490.055Z" fill="#263238"/>
<path d="M424.307 461.705C421.173 459.049 417.177 461.572 415.198 464.268C411.883 468.972 409.871 474.47 409.369 480.202C409.366 480.227 409.37 480.252 409.378 480.275C409.387 480.297 409.401 480.318 409.419 480.335C409.437 480.352 409.458 480.364 409.482 480.371C409.506 480.378 409.53 480.379 409.555 480.375C409.577 480.493 409.627 480.604 409.701 480.699C409.775 480.794 409.87 480.87 409.979 480.92C410.088 480.971 410.208 480.995 410.328 480.99C410.448 480.985 410.565 480.952 410.67 480.893C415.145 477.879 420.297 475.196 423.71 470.894C425.701 468.345 427.268 464.228 424.307 461.705ZM416.513 474.878C414.348 476.418 412.131 477.839 410.019 479.459C411.175 476.365 412.171 473.231 413.631 470.257C414.311 468.812 415.088 467.415 415.955 466.074C417.283 464.029 423.511 458.89 424.055 465.676C424.36 469.433 419.089 473.058 416.513 474.891V474.878Z" fill="#263238"/>
<path d="M393.859 482.3C399.277 483.19 404.894 481.716 410.232 480.973C410.349 480.944 410.457 480.888 410.549 480.81C410.64 480.732 410.712 480.633 410.758 480.522C410.805 480.411 410.825 480.291 410.816 480.171C410.808 480.05 410.771 479.934 410.71 479.831C410.729 479.816 410.745 479.797 410.755 479.775C410.766 479.753 410.772 479.729 410.772 479.704C410.772 479.68 410.766 479.656 410.755 479.634C410.745 479.612 410.729 479.593 410.71 479.578C406.48 475.698 401.306 472.996 395.705 471.744C392.438 471.08 387.738 471.903 387.246 475.98C386.768 479.791 390.699 481.783 393.859 482.3ZM390.128 478.715C385.972 473.324 394.005 472.979 396.395 473.563C397.937 473.977 399.449 474.491 400.923 475.103C404.004 476.325 406.846 477.958 409.78 479.472C407.124 479.698 404.535 480.136 401.893 480.455C398.746 480.826 392.425 481.69 390.128 478.715Z" fill="#263238"/>
<path d="M415.716 456.393L348.38 456.101C348.38 456.101 325.049 366.311 319.578 360.03C309.446 348.398 228.911 354.028 207.041 329.901C185.795 306.53 207.041 264.224 207.041 264.224H266.676C267.389 271.85 268.524 279.43 270.075 286.931C270.075 286.931 345.113 298.881 367.395 321.973C384.405 339.541 415.716 456.393 415.716 456.393Z" fill="#37474F"/>
<path d="M411.082 445.771C406.925 445.439 402.796 445.014 398.639 444.841C394.483 444.668 390.3 444.589 386.131 444.522C377.845 444.39 369.564 444.39 361.286 444.522C356.612 444.615 351.991 444.815 347.251 444.841C347.131 444.841 347.158 445.054 347.251 445.054C355.656 445.054 364.088 445.386 372.48 445.598C380.873 445.81 388.933 446.076 397.166 446.209C401.8 446.275 406.461 446.142 411.042 446.103C411.281 446.156 411.281 445.771 411.082 445.771Z" fill="#263238"/>
<path d="M339.031 388.925C336.376 380.285 333.485 371.715 330.36 363.217C329.033 359.592 327.944 355.449 325.341 352.488C322.738 349.527 318.954 348.637 315.356 347.854C298.093 344.043 280.459 342.542 263.077 339.528C254.465 338.115 245.963 336.096 237.635 333.486C233.551 332.245 229.601 330.599 225.844 328.573C222.45 326.651 219.417 324.153 216.881 321.19C212.131 315.412 209.063 308.438 208.011 301.033C206.878 292.27 207.671 283.365 210.334 274.94C210.945 272.882 211.662 270.837 212.419 268.832C212.419 268.713 212.273 268.659 212.22 268.832C206.404 283.957 204.014 301.418 212.22 316.157C213.979 319.341 216.219 322.234 218.859 324.735C221.768 327.426 225.096 329.624 228.712 331.242C236.48 334.867 245.032 337.018 253.384 338.824C270.646 342.542 288.373 344.016 305.795 347.11C310.042 347.782 314.252 348.668 318.41 349.766C320.379 350.235 322.218 351.143 323.788 352.421C325.251 353.831 326.381 355.551 327.094 357.454C328.794 361.504 330.148 365.727 331.595 369.883C333.043 374.039 334.57 378.488 335.977 382.803C341.608 400.11 346.565 417.611 350.85 435.307L352.403 441.774C352.403 441.986 352.762 441.893 352.722 441.681C349.06 423.874 344.491 406.265 339.031 388.925Z" fill="#263238"/>
<path d="M351.699 524.514C348.433 525.191 256.411 513.426 253.264 510.823C252.893 510.531 253.875 502.206 255.177 490.786C255.933 484.146 257.447 475.821 259.16 467.349C263.901 444.842 270.62 420.874 270.62 420.874L330.945 430.939L318.742 473.802L314.559 488.409C314.559 488.409 326.961 495.911 337.133 502.405C343.413 506.388 348.871 510 350.066 511.222C353.319 514.515 354.966 523.863 351.699 524.514Z" fill="#EB9481"/>
<path d="M351.699 524.513C348.433 525.191 256.411 513.426 253.264 510.823C252.893 510.531 253.875 502.205 255.177 490.786C255.933 484.146 257.447 475.82 259.16 467.349L318.742 473.789L314.559 488.395C314.559 488.395 326.961 495.898 337.133 502.391C343.413 506.375 348.871 509.987 350.066 511.208C353.319 514.515 354.966 523.863 351.699 524.513Z" fill="#EBEBEB"/>
<path d="M352.084 524.832C348.725 525.509 256.558 513.864 253.318 511.195C252.096 510.186 253.464 495.911 256.704 480.362L314.798 487.838C314.798 487.838 347.304 507.942 350.504 511.235C353.704 514.528 355.431 524.115 352.084 524.832Z" fill="#6D597A"/>
<path d="M351.221 520.981C335.818 518.644 273.475 510.703 258.071 509.562C257.952 509.562 257.938 509.641 258.071 509.668C273.275 512.323 335.685 519.746 351.195 521.233C351.513 521.26 351.553 521.034 351.221 520.981Z" fill="#263238"/>
<path d="M345.033 507.171C343.318 506.913 341.567 507.016 339.893 507.474C338.22 507.931 336.66 508.732 335.313 509.827C332.87 511.758 331.259 514.552 330.812 517.635C330.812 517.728 330.985 517.754 331.011 517.635C331.92 514.641 333.775 512.023 336.299 510.175C338.823 508.326 341.879 507.347 345.007 507.384C345.035 507.387 345.064 507.379 345.086 507.362C345.108 507.345 345.123 507.319 345.126 507.291C345.13 507.263 345.122 507.234 345.105 507.212C345.087 507.189 345.062 507.175 345.033 507.171Z" fill="#263238"/>
<path d="M319.817 489.989C313.642 489.126 306.193 490.401 301.718 494.969C301.532 495.155 301.798 495.394 301.984 495.327C307.75 493.177 313.728 491.646 319.817 490.76C319.919 490.76 320.017 490.719 320.089 490.647C320.162 490.575 320.202 490.477 320.202 490.374C320.202 490.272 320.162 490.174 320.089 490.102C320.017 490.03 319.919 489.989 319.817 489.989Z" fill="#263238"/>
<path d="M324.345 492.459C318.184 491.582 310.735 492.87 306.246 497.438C306.074 497.611 306.326 497.863 306.525 497.783C312.29 495.632 318.268 494.105 324.359 493.229C324.461 493.227 324.558 493.185 324.629 493.111C324.7 493.038 324.739 492.939 324.737 492.837C324.735 492.735 324.693 492.638 324.62 492.567C324.546 492.496 324.447 492.457 324.345 492.459Z" fill="#263238"/>
<path d="M328.887 494.902C322.712 494.039 315.276 495.314 310.788 499.881C310.615 500.067 310.867 500.306 311.067 500.24C316.83 498.086 322.809 496.56 328.9 495.685C328.991 495.667 329.073 495.617 329.132 495.545C329.19 495.472 329.221 495.381 329.219 495.288C329.218 495.195 329.184 495.105 329.123 495.035C329.062 494.964 328.978 494.917 328.887 494.902Z" fill="#263238"/>
<path d="M333.428 497.385C327.253 496.509 319.817 497.797 315.329 502.364C315.156 502.537 315.408 502.789 315.608 502.71C321.371 500.556 327.35 499.029 333.441 498.155C333.543 498.153 333.64 498.111 333.711 498.038C333.782 497.964 333.821 497.866 333.819 497.763C333.818 497.661 333.775 497.564 333.702 497.493C333.628 497.422 333.53 497.383 333.428 497.385Z" fill="#263238"/>
<path d="M263.861 495.393C256.929 494.53 255.588 505.312 262.533 506.175C269.478 507.038 270.832 496.229 263.861 495.393Z" fill="#263238"/>
<path d="M328.581 474.334C325.779 471.346 321.517 473.377 319.286 475.834C315.454 480.104 312.812 485.306 311.624 490.919C311.617 490.944 311.617 490.97 311.623 490.995C311.629 491.021 311.641 491.044 311.658 491.064C311.675 491.084 311.696 491.099 311.72 491.108C311.745 491.117 311.771 491.121 311.797 491.118C311.807 491.237 311.845 491.353 311.908 491.455C311.97 491.557 312.056 491.643 312.158 491.706C312.26 491.769 312.375 491.808 312.494 491.819C312.614 491.829 312.734 491.812 312.846 491.768C317.639 489.272 323.057 487.201 326.948 483.323C329.258 481.066 331.237 477.162 328.581 474.334ZM319.286 486.523C316.949 487.851 314.585 488.953 312.301 490.321C313.802 487.386 315.156 484.399 316.949 481.597C317.784 480.239 318.716 478.944 319.737 477.72C321.331 475.847 328.05 471.439 327.824 478.251C327.744 481.995 322.101 484.983 319.339 486.523H319.286Z" fill="#263238"/>
<path d="M295.969 491.29C301.28 492.79 307.003 491.967 312.395 491.808C312.513 491.795 312.628 491.755 312.728 491.689C312.828 491.624 312.911 491.536 312.971 491.432C313.031 491.329 313.065 491.212 313.071 491.093C313.077 490.974 313.054 490.854 313.005 490.745C313.025 490.729 313.041 490.709 313.051 490.686C313.062 490.663 313.068 490.638 313.068 490.613C313.068 490.587 313.062 490.562 313.051 490.539C313.041 490.516 313.025 490.496 313.005 490.48C309.253 486.143 304.427 482.868 299.01 480.986C295.836 479.95 291.122 480.242 290.126 484.212C289.13 488.183 292.888 490.4 295.969 491.29ZM292.689 487.306C289.17 481.477 297.191 481.995 299.501 482.911C300.984 483.495 302.426 484.178 303.817 484.956C306.671 486.585 309.441 488.358 312.116 490.267C309.46 490.174 306.804 490.267 304.149 490.267C301.001 490.387 294.628 490.506 292.689 487.293V487.306Z" fill="#263238"/>
<path d="M333.773 471.239L260.342 462.303C260.342 462.303 285.93 361.225 284.775 359.712C280.725 354.48 218.766 356.591 197.64 335.584C175.265 313.342 196.737 264.171 196.737 264.171L252.507 264.384C252.507 264.384 252.879 286.426 255.389 288.498C257.049 289.826 334.092 302.879 346.627 319.238C365.735 344.229 333.773 471.239 333.773 471.239Z" fill="#37474F"/>
<path d="M351.832 328.255C350.786 325.461 349.288 322.859 347.397 320.553C345.273 318.084 342.778 315.961 340.001 314.259C334.136 310.71 327.947 307.726 321.517 305.349C314.958 302.748 308.265 300.501 301.466 298.616C294.574 296.678 287.59 295.045 280.592 293.544C273.594 292.044 266.596 290.888 259.585 289.56L256.279 288.95C259.89 287.516 263.476 286.002 267.088 284.515C267.123 284.493 267.151 284.46 267.166 284.422C267.181 284.383 267.182 284.34 267.17 284.3C267.158 284.26 267.132 284.226 267.098 284.202C267.064 284.178 267.023 284.167 266.981 284.169C259.683 285.559 252.719 288.336 246.466 292.349C246.373 292.349 246.466 292.575 246.545 292.535C249.679 291.512 252.76 290.344 255.84 289.136C262.201 290.463 268.522 291.884 274.856 293.292C281.707 294.819 288.533 296.439 295.278 298.351C308.663 302.149 321.968 306.61 334.344 313.037C339.948 315.945 345.246 319.584 348.393 325.214C351.314 330.432 352.191 336.54 352.377 342.476C352.381 349.131 352.004 355.782 351.248 362.394C350.575 369.883 349.787 377.359 348.884 384.822C347.968 392.284 342.723 431.403 342.125 433.077C342.046 433.302 342.431 433.462 342.537 433.236C343.307 431.642 352.377 375.128 353.054 367.533C353.678 360.535 354.382 353.497 354.461 346.473C354.753 340.288 353.861 334.104 351.832 328.255Z" fill="#263238"/>
<path d="M292.981 351.585C291.031 351.064 289.041 350.709 287.032 350.522L280.393 349.474L267.18 347.375C258.722 346.048 250.237 344.799 241.805 343.312C227.424 340.763 211.795 336.128 203.522 323.049C201.61 320.035 200.298 316.681 199.658 313.17C199.01 308.863 198.712 304.511 198.769 300.156C198.633 291.384 199.197 282.614 200.455 273.931C200.76 271.793 201.145 269.682 201.557 267.571C201.557 267.438 201.384 267.385 201.358 267.571C199.695 276.039 198.652 284.618 198.237 293.238C198.052 297.541 198.052 301.843 198.237 306.145C198.236 310.103 198.836 314.039 200.017 317.817C204.744 331.454 218.607 338.824 231.766 342.197C239.879 344.282 248.232 345.344 256.504 346.632L282.57 350.722L289.077 351.744C290.83 352.023 294.003 351.957 294.388 354.214C294.473 355.134 294.383 356.062 294.123 356.949C293.871 358.091 293.632 359.22 293.379 360.362L291.945 367.001C290.068 375.632 288.223 384.268 286.408 392.908C282.703 410.303 279.224 427.751 275.626 445.173L274.298 451.653C274.298 451.759 274.444 451.812 274.47 451.653C278.281 434.298 282.172 416.943 285.943 399.574C287.855 390.828 289.723 382.073 291.547 373.309C292.463 368.98 293.366 364.664 294.203 360.335C294.753 358.48 295.096 356.57 295.225 354.639C295.231 353.956 295.016 353.289 294.612 352.738C294.207 352.188 293.635 351.783 292.981 351.585Z" fill="#263238"/>
<path d="M332.206 462.21C327.917 461.307 323.641 460.311 319.313 459.554C314.984 458.797 310.628 458.133 306.273 457.496C297.633 456.212 288.962 455.074 280.26 454.083C275.36 453.512 270.434 453.061 265.534 452.45C265.401 452.45 265.401 452.636 265.534 452.649C274.338 453.764 283.102 455.305 291.866 456.699C300.629 458.093 309.022 459.461 317.626 460.683C322.46 461.4 327.306 461.904 332.153 462.515C332.366 462.608 332.405 462.263 332.206 462.21Z" fill="#263238"/>
<path d="M270.288 276.428C266.421 277.193 262.516 277.747 258.589 278.087C252.414 278.698 243.797 279.256 232.669 279.243H231.766H227.451C217.16 279.07 204.983 278.446 190.894 277.025C190.894 277.025 207.201 216.939 223.852 197.353C224.224 196.901 224.609 196.477 224.994 196.025L225.22 195.786C226.511 194.411 228.012 193.25 229.668 192.347C229.96 192.188 230.252 192.041 230.558 191.909C236.971 188.961 243.743 191.404 248.63 195.587C250.184 196.915 267.738 219.754 269.292 228.465C270.62 236.153 265.441 244.399 265.441 244.399L270.288 276.428Z" fill="#6D597A"/>
<path d="M232.669 279.243H231.766H227.451C217.16 279.07 204.983 278.446 190.894 277.026C190.894 277.026 207.201 216.94 223.852 197.353C224.224 196.902 224.609 196.477 224.994 196.026L225.22 195.787C226.511 194.411 228.012 193.251 229.668 192.347C229.96 192.188 230.252 192.042 230.558 191.909L232.669 279.243Z" fill="#263238"/>
<path d="M219.151 202.89C204.439 225.345 187.097 263.853 197.799 270.492C215.314 281.367 262.453 282.748 273.209 282.629C277.857 282.629 283.075 251.49 279.503 248.025C275.931 244.559 226.787 248.277 226.043 245.369C225.631 243.696 229.522 228.253 231.899 209.516C234.595 187.779 223.321 196.543 219.151 202.89Z" fill="#EB9481"/>
<path d="M271.151 246.59C271.151 246.59 285.133 244.638 294.349 243.789C299.488 243.324 308.371 243.297 312.302 244.665C318.184 246.736 341.515 259.112 338.593 264.835C335.938 270.001 317.348 256.868 317.348 256.868C317.348 256.868 337.345 268.513 333.056 274.13C328.767 279.747 309.672 262.087 309.672 262.087C309.672 262.087 329.962 274.502 324.624 279.628C320.641 283.492 302.382 268.447 302.382 268.447C302.382 268.447 319.738 279.243 315.767 283.399C311.372 288.007 293.698 275.166 293.698 275.166C281.747 284.036 272.452 283.399 265.946 282.164C264.339 281.819 271.151 246.59 271.151 246.59Z" fill="#EB9481"/>
<path d="M310.668 252.34C313.072 253.668 315.502 254.903 317.786 256.324C320.069 257.745 322.287 259.391 324.425 261.078C327.251 263.24 329.818 265.722 332.073 268.474C327.705 263.893 319.645 258.422 317.361 256.935C315.077 255.448 312.899 253.841 310.615 252.354C310.549 252.38 310.668 252.314 310.668 252.34Z" fill="#263238"/>
<path d="M305.131 260.467C308.132 262.233 311.159 263.879 314.081 265.778C317.002 267.677 320.959 270.465 323.721 272.55C323.933 272.71 323.787 273.081 323.575 272.935C320.733 270.957 316.537 268.301 313.669 266.362C310.801 264.424 308.012 262.379 305.091 260.533C305.038 260.506 305.091 260.44 305.131 260.467Z" fill="#263238"/>
<path d="M299.129 266.588C303.786 269.193 308.164 272.267 312.195 275.764C312.394 275.923 312.195 275.99 311.969 275.764C307.68 272.63 304.347 270.134 299.049 266.681C298.97 266.695 299.036 266.509 299.129 266.588Z" fill="#263238"/>
<path d="M271.058 246.404C277.432 245.514 294.269 242.992 300.696 242.633C306.076 242.14 311.489 243.108 316.365 245.435C323.985 249.087 330.934 253.998 336.92 259.962C338.089 261.29 339.828 263.321 338.726 265.074C337.398 267.212 331.237 266.11 324.292 261.316C324.04 261.143 324.159 260.997 324.412 261.144C334.065 267.066 337.438 265.791 338.182 264.463C338.673 263.6 337.929 262.325 337.266 261.356C336.215 259.971 334.992 258.726 333.627 257.651C329.062 253.888 324.128 250.596 318.901 247.825C313.257 244.671 306.833 243.184 300.377 243.536C293.738 243.855 277.658 246.417 271.058 246.643C270.925 246.656 270.912 246.417 271.058 246.404Z" fill="#263238"/>
<path d="M333.72 271.143C332.935 269.474 331.835 267.972 330.48 266.721C329.032 265.068 327.422 263.564 325.673 262.233C325.593 262.233 325.487 262.233 325.567 262.352C327.087 263.717 328.523 265.172 329.869 266.708C330.586 267.552 331.251 268.439 331.861 269.364C332.576 270.221 332.992 271.289 333.043 272.404C332.857 274.542 330.214 274.834 328.581 274.489C327.521 274.236 326.486 273.89 325.487 273.453C324.105 272.816 322.773 272.075 321.504 271.236C321.397 271.156 321.158 271.236 321.265 271.302C323.92 273.214 328.9 277.238 332.273 275.073C332.934 274.69 333.441 274.087 333.705 273.369C333.97 272.652 333.975 271.864 333.72 271.143Z" fill="#263238"/>
<path d="M198.994 227.402L230.027 227.07L233.174 204.005C234.608 193.382 233.798 186.677 221.329 198.375C212.685 206.488 198.994 227.402 198.994 227.402Z" fill="#6D597A"/>
<path d="M235.63 190.634C229.549 192.374 230.159 199.212 232.43 204.019C234.701 208.826 239.162 214.39 242.416 214.23C245.669 214.071 246.28 205.891 246.28 205.891C246.28 205.891 250.914 210.964 253.344 209.198C255.774 207.432 250.901 198.097 247.435 195.202C242.416 190.993 238.844 189.705 235.63 190.634Z" fill="white"/>
<path d="M232.324 194.498C232.589 195.959 239.083 205.652 245.696 205.639C247.86 205.639 248.351 193.848 248.351 193.848L248.577 192.984L251.844 180.927L237.954 171.114L235.936 169.787C235.936 169.787 235.258 173.146 234.462 177.342L234.342 177.94C234.342 178.179 234.249 178.391 234.209 178.617C234.077 179.241 233.957 179.945 233.838 180.516C233.718 181.087 233.665 181.472 233.585 181.99C233.506 182.508 233.426 182.999 233.333 183.517C232.745 187.15 232.408 190.819 232.324 194.498Z" fill="#EB9481"/>
<path d="M234.422 177.355C235.498 180.83 237.318 184.028 239.756 186.727C242.194 189.426 245.19 191.561 248.537 192.984L251.804 180.927L237.914 171.114L235.896 169.787C235.896 169.787 235.219 173.159 234.422 177.355Z" fill="#263238"/>
<path d="M269.265 162.205C270.274 184.101 257.314 187.195 252.547 187.434C248.258 187.62 233.638 187.739 230.359 166.055C227.079 144.371 236.998 136.975 246.731 136.019C256.464 135.063 268.243 140.361 269.265 162.205Z" fill="#EB9481"/>
<path d="M265.998 158.566C265.498 158.5 265.002 158.406 264.511 158.287C263.971 158.262 263.453 158.062 263.037 157.716C262.934 157.578 262.878 157.41 262.878 157.238C262.878 157.065 262.934 156.898 263.037 156.76C263.28 156.519 263.583 156.346 263.914 156.26C264.245 156.174 264.593 156.177 264.923 156.268C265.625 156.355 266.272 156.695 266.742 157.224C266.841 157.354 266.9 157.509 266.912 157.671C266.924 157.834 266.888 157.996 266.809 158.138C266.73 158.281 266.612 158.397 266.468 158.473C266.324 158.549 266.16 158.581 265.998 158.566Z" fill="#263238"/>
<path d="M251.963 158.951C252.46 158.863 252.952 158.748 253.437 158.606C253.973 158.551 254.477 158.323 254.871 157.955C254.978 157.821 255.036 157.655 255.036 157.484C255.036 157.313 254.978 157.146 254.871 157.012C254.617 156.78 254.307 156.62 253.971 156.548C253.635 156.475 253.286 156.494 252.959 156.601C252.263 156.726 251.636 157.099 251.193 157.65C251.104 157.781 251.055 157.935 251.05 158.093C251.045 158.251 251.086 158.408 251.166 158.544C251.247 158.681 251.365 158.791 251.506 158.863C251.647 158.935 251.805 158.966 251.963 158.951Z" fill="#263238"/>
<path d="M254.712 164.183C254.712 164.116 254.592 164.249 254.605 164.315C254.725 165.803 254.605 167.529 253.278 168.087C253.278 168.087 253.278 168.18 253.278 168.166C254.898 167.861 255.057 165.59 254.712 164.183Z" fill="#263238"/>
<path d="M253.304 162.683C250.901 162.616 250.941 167.437 253.171 167.503C255.402 167.569 255.323 162.736 253.304 162.683Z" fill="#263238"/>
<path d="M252.361 162.935C251.937 163.214 251.538 163.692 251.034 163.745C250.529 163.798 249.998 163.307 249.613 162.829H249.533C249.533 163.758 249.892 164.701 250.861 164.834C251.83 164.966 252.401 164.13 252.627 163.2C252.68 163.094 252.521 162.842 252.361 162.935Z" fill="#263238"/>
<path d="M262.865 163.798C262.865 163.732 262.984 163.798 262.984 163.931C262.984 165.418 263.13 167.131 264.485 167.636V167.715C262.865 167.49 262.586 165.206 262.865 163.798Z" fill="#263238"/>
<path d="M264.193 162.231C266.596 162.045 266.782 166.865 264.564 167.038C262.347 167.21 262.188 162.39 264.193 162.231Z" fill="#263238"/>
<path d="M265.215 162.51C265.6 162.749 265.999 163.2 266.45 163.213C266.902 163.227 267.353 162.682 267.672 162.178C267.738 163.107 267.473 164.077 266.596 164.289C265.72 164.502 265.175 163.718 264.923 162.802C264.936 162.682 265.056 162.417 265.215 162.51Z" fill="#263238"/>
<path d="M260.634 170.902C260.634 170.902 260.979 173.12 261.006 174.169C261.006 174.275 257.195 175.138 255.468 172.588C255.456 172.568 255.451 172.544 255.454 172.52C255.456 172.497 255.467 172.475 255.484 172.458C255.501 172.441 255.523 172.43 255.547 172.427C255.57 172.425 255.594 172.43 255.615 172.442C256.976 173.329 258.587 173.753 260.209 173.651C260.275 173.359 259.479 169.866 259.638 169.853C260.458 169.904 261.267 170.069 262.041 170.344C261.444 165.697 260.103 161.169 259.572 156.534C259.573 156.504 259.583 156.474 259.602 156.45C259.62 156.425 259.646 156.408 259.676 156.399C259.705 156.39 259.736 156.391 259.765 156.401C259.794 156.411 259.82 156.43 259.837 156.455C261.434 161.253 262.542 166.2 263.144 171.221C263.237 171.831 261.059 171.088 260.634 170.902Z" fill="#263238"/>
<path d="M261.789 164.714C261.696 161.274 263.463 158.433 265.773 158.366C268.083 158.3 269.982 161.022 270.075 164.475C270.168 167.927 268.402 170.755 266.092 170.822C263.781 170.888 261.896 168.14 261.789 164.714ZM262.626 164.714C262.719 167.688 264.259 170.025 266.065 170.025C267.871 170.025 269.292 167.515 269.199 164.541C269.106 161.567 267.579 159.23 265.76 159.23C263.941 159.23 262.546 161.713 262.626 164.687V164.714Z" fill="#37474F"/>
<path d="M246.134 165.152C246.181 164.018 246.558 162.922 247.219 161.999C247.88 161.077 248.796 160.367 249.854 159.957C250.913 159.548 252.068 159.456 253.178 159.694C254.288 159.931 255.304 160.488 256.103 161.295C256.901 162.102 257.446 163.124 257.671 164.237C257.897 165.349 257.792 166.503 257.371 167.557C256.95 168.611 256.23 169.519 255.3 170.17C254.37 170.821 253.27 171.186 252.136 171.22C250.535 171.21 249.005 170.565 247.88 169.427C246.755 168.29 246.127 166.752 246.134 165.152ZM246.97 165.152C247.076 166.116 247.461 167.028 248.077 167.777C248.692 168.526 249.513 169.08 250.438 169.37C251.364 169.66 252.353 169.675 253.287 169.412C254.22 169.149 255.057 168.62 255.694 167.889C256.332 167.159 256.743 166.258 256.878 165.298C257.012 164.338 256.864 163.359 256.451 162.481C256.039 161.604 255.379 160.866 254.554 160.356C253.729 159.847 252.773 159.59 251.804 159.615C251.121 159.657 250.453 159.834 249.838 160.134C249.224 160.435 248.674 160.854 248.222 161.367C247.769 161.88 247.422 162.477 247.201 163.124C246.979 163.771 246.887 164.456 246.93 165.139L246.97 165.152Z" fill="#37474F"/>
<path d="M257.474 164.263C260.568 163.081 262.002 164.05 262.015 164.064L262.506 163.4C262.506 163.4 260.74 162.072 257.195 163.479L257.474 164.263Z" fill="#37474F"/>
<path d="M246.545 164.608L246.665 163.771C246.12 163.692 233.386 161.713 231.965 161.673C230.544 161.634 227.158 163.625 226.787 163.864L227.212 164.568C228.646 163.639 230.219 162.944 231.872 162.51H231.939C233.001 162.537 241.951 163.891 246.545 164.608Z" fill="#37474F"/>
<path d="M232.018 166.759C237.33 166.759 239.521 150.28 239.76 148.248C239.667 149.576 239.255 156.335 239.76 156.627C240.337 156.632 240.911 156.542 241.46 156.362C241.49 155.546 241.583 154.733 241.738 153.932C241.738 153.56 241.858 154.755 242.017 156.229L243.013 155.99C243.014 154.25 243.246 152.517 243.704 150.838C243.876 150.2 243.956 153.095 244.487 155.645C249.121 154.451 253.873 153.778 258.656 153.64C259.83 153.625 261.004 153.669 262.174 153.772C262.254 151.754 262.095 149.616 262.174 150.081C262.535 151.307 262.775 152.566 262.891 153.839L264.405 153.998C264.644 151.17 263.449 146.602 263.874 147.359C265.15 149.538 266.001 151.94 266.384 154.436C268.309 154.875 268.827 155.273 268.893 154.768C268.503 149.162 266.125 143.88 262.188 139.87C255.681 133.31 242.336 131.278 234.448 140.773C234.448 140.773 228.088 144.623 226.893 151.13C225.698 157.636 228.911 166.772 232.018 166.759Z" fill="#263238"/>
<path d="M233.917 165.909C233.917 165.909 229.416 158.885 226.242 160.465C223.069 162.045 226.242 172.097 229.854 173.598C230.301 173.823 230.789 173.955 231.288 173.986C231.788 174.017 232.288 173.947 232.76 173.779C233.232 173.612 233.664 173.351 234.032 173.011C234.4 172.672 234.695 172.262 234.9 171.805L233.917 165.909Z" fill="#EB9481"/>
<path d="M227.238 163.319C227.238 163.319 227.158 163.399 227.238 163.412C229.748 164.554 230.996 166.984 231.846 169.467C231.706 169.207 231.511 168.98 231.276 168.801C231.04 168.623 230.769 168.497 230.48 168.433C230.192 168.369 229.893 168.367 229.604 168.429C229.315 168.491 229.042 168.614 228.805 168.79C228.739 168.79 228.805 168.936 228.805 168.923C229.26 168.803 229.74 168.825 230.182 168.986C230.624 169.148 231.005 169.441 231.275 169.826C231.719 170.475 232.093 171.169 232.39 171.897C232.51 172.136 232.921 172.03 232.842 171.765V171.698C233.067 168.445 230.717 163.784 227.238 163.319Z" fill="#263238"/>
<path d="M277.232 274.157H199.897V277.623H277.232V274.157Z" fill="#455A64"/>
<path d="M277.232 274.157H238.312V277.623H277.232V274.157Z" fill="#263238"/>
<path d="M239.216 277.623H163.846L153.196 226.447H228.566L239.216 277.623Z" fill="#37474F"/>
<path d="M202.049 253.23C202.133 253.865 202.079 254.511 201.89 255.123C201.701 255.735 201.382 256.299 200.954 256.776C200.526 257.253 200 257.632 199.412 257.886C198.824 258.14 198.188 258.264 197.547 258.249C196.173 258.218 194.857 257.694 193.838 256.772C192.819 255.851 192.165 254.593 191.997 253.23C191.912 252.594 191.966 251.949 192.155 251.336C192.344 250.724 192.663 250.16 193.091 249.683C193.519 249.206 194.045 248.827 194.633 248.573C195.221 248.319 195.857 248.195 196.498 248.21C197.872 248.239 199.191 248.762 200.21 249.684C201.23 250.606 201.883 251.865 202.049 253.23Z" fill="white"/>
<path d="M386.144 277.636H323.336V272.749L386.144 270.718V277.636Z" fill="#37474F"/>
<path d="M450.533 256.244H340.532L358.02 174.341H468.034L450.533 256.244Z" fill="#455A64"/>
<path d="M454.609 256.244H344.595L362.097 174.341H472.11L454.609 256.244Z" fill="#37474F"/>
<path d="M395.267 226.872H392.691L396.608 208.494H399.197L395.267 226.872Z" fill="#263238"/>
<path d="M400.366 226.872H397.79L401.707 208.494H404.283L400.366 226.872Z" fill="#263238"/>
<path d="M405.451 226.872H402.875L406.792 208.494H409.369L405.451 226.872Z" fill="#263238"/>
<path d="M410.55 226.872H407.961L411.878 208.494H414.468L410.55 226.872Z" fill="#263238"/>
<path d="M415.636 226.872H413.06L416.978 208.494H419.554L415.636 226.872Z" fill="#263238"/>
<path d="M420.722 226.872H418.146L422.063 208.494H424.639L420.722 226.872Z" fill="#263238"/>
<path d="M425.821 226.872H423.231L427.162 208.494H429.738L425.821 226.872Z" fill="#263238"/>
<path d="M423.497 277.636H369.387V273.427L423.497 271.674V277.636Z" fill="#455A64"/>
<path d="M438.21 277.623H409.156L391.655 231.731H420.709L438.21 277.623Z" fill="#455A64"/>
<path d="M442.99 277.623H413.937L396.435 231.731H425.489L442.99 277.623Z" fill="#263238"/>
<path d="M121.938 256.244H155.892L138.39 174.341H104.437L121.938 256.244Z" fill="#455A64"/>
<path d="M117.862 256.244H151.815L134.327 174.341H100.374L117.862 256.244Z" fill="#37474F"/>
<path d="M122.496 226.872H122.974L119.057 208.494H118.579L122.496 226.872Z" fill="#263238"/>
<path d="M123.518 226.872H123.996L120.079 208.494H119.601L123.518 226.872Z" fill="#263238"/>
<path d="M124.541 226.872H125.032L121.115 208.494H120.637L124.541 226.872Z" fill="#263238"/>
<path d="M125.577 226.872H126.055L122.137 208.494H121.659L125.577 226.872Z" fill="#263238"/>
<path d="M126.599 226.872H127.09L123.173 208.494H122.682L126.599 226.872Z" fill="#263238"/>
<path d="M127.635 226.872H128.113L124.196 208.494H123.718L127.635 226.872Z" fill="#263238"/>
<path d="M128.657 226.872H129.135L125.218 208.494H124.74L128.657 226.872Z" fill="#263238"/>
<path d="M129.68 226.872H130.171L126.254 208.494H125.762L129.68 226.872Z" fill="#263238"/>
<path d="M117.211 277.636H157.83V273.427L117.211 271.674V277.636Z" fill="#455A64"/>
<path d="M102.498 277.623H118.061L135.562 231.731H119.999L102.498 277.623Z" fill="#455A64"/>
<path d="M102.498 277.623H113.28L130.768 231.731H119.999L102.498 277.623Z" fill="#263238"/>
<path d="M317.307 277.676H275.878C272.333 277.676 277.458 267.598 290.365 263.747C303.272 259.896 321.291 273.892 317.307 277.676Z" fill="#37474F"/>
<path d="M301.001 277.676C300.892 276.508 300.991 275.33 301.293 274.197C301.58 273.059 302.027 271.968 302.621 270.957C303.236 269.947 304.017 269.049 304.932 268.301C305.838 267.545 306.898 266.997 308.039 266.694C307.194 267.427 306.395 268.212 305.649 269.045C304.942 269.872 304.311 270.761 303.763 271.7C302.664 273.605 301.74 275.605 301.001 277.676Z" fill="#263238"/>
<path d="M305.901 268.089C307.182 268.351 308.429 268.756 309.619 269.297C310.809 269.839 311.947 270.488 313.019 271.236C314.116 271.992 315.088 272.915 315.9 273.971C316.778 275.004 317.25 276.321 317.228 277.676C316.754 276.521 316.028 275.487 315.103 274.649C314.206 273.799 313.242 273.022 312.222 272.325C310.217 270.864 308.013 269.576 305.901 268.089Z" fill="#263238"/>
<path d="M122.403 441.389H87.2277V447.577H122.403V441.389Z" fill="#455A64"/>
<path d="M141.471 531.883H137.673L106.694 387.265L104.928 379.019L99.3644 353.059L97.293 343.379L89.4984 307.048L86.7762 294.327H100.307L102.511 307.048L103.959 315.4L104.928 320.964L110.479 353.059L112.271 363.39L141.471 531.883Z" fill="#455A64"/>
<path d="M100.307 294.327L102.511 307.048H89.4984L86.7762 294.327H100.307Z" fill="#263238"/>
<path d="M112.271 363.39L106.694 387.265L104.928 379.019L99.3643 353.059L97.2928 343.379L103.959 315.4L104.928 320.964L110.479 353.059L112.271 363.39Z" fill="#263238"/>
<path d="M123.067 294.327L120.345 307.048L110.479 353.059L104.928 379.019L72.1697 531.883H68.3853L99.3644 353.059L104.928 320.964L107.332 307.048L109.536 294.327H123.067Z" fill="#455A64"/>
<path d="M123.067 294.327L120.345 307.048H107.332L109.536 294.327H123.067Z" fill="#263238"/>
<path d="M494.724 294.327L443.827 531.883H440.042L481.193 294.327H494.724Z" fill="#455A64"/>
<path d="M458.433 294.327L509.33 531.883H513.115L471.964 294.327H458.433Z" fill="#455A64"/>
<path d="M494.06 441.389H458.885V447.577H494.06V441.389Z" fill="#455A64"/>
<path d="M515.518 277.636H65.9817V294.327H515.518V277.636Z" fill="#455A64"/>
<path d="M62.7018 425.388C52.9818 405.47 35.9851 395.153 16.8107 400.823C-2.36374 406.493 -5.36472 433.223 8.98954 439.968C23.3438 446.714 37.6051 427.008 45.1607 422.958C52.7163 418.908 62.7018 425.388 62.7018 425.388Z" fill="#6D597A"/>
<path d="M72.1166 478.57C72.1166 476.153 71.9706 473.749 71.8776 471.346C71.7183 466.539 71.5501 461.732 71.373 456.925C71.0411 448.122 70.0452 439.49 66.4599 431.39C63.2416 424.042 57.8649 417.846 51.0434 413.624C48.5101 412.093 45.7807 410.914 42.9301 410.118C40.3472 407.509 37.063 405.706 33.4756 404.926C29.0365 404.03 24.4743 403.922 19.9978 404.607C19.8384 404.607 19.8384 404.873 19.9978 404.86C24.2693 404.314 28.6064 404.621 32.7586 405.763C34.5365 406.251 36.2587 406.923 37.8975 407.768C38.9357 408.319 39.9301 408.949 40.8719 409.653C37.0051 408.852 33.0117 408.888 29.1601 409.759C27.7726 410.094 26.4139 410.538 25.0968 411.087C24.0469 410.855 22.9704 410.766 21.8966 410.822C20.4983 410.863 19.1089 411.059 17.7537 411.406C14.9774 412.186 12.3229 413.348 9.86614 414.858C9.72007 414.938 9.86614 415.151 9.99892 415.071C12.4145 413.753 15.0022 412.778 17.6873 412.176C18.9972 411.874 20.3295 411.679 21.6709 411.592C22.4051 411.552 23.1409 411.552 23.8752 411.592C18.417 414.117 14.0283 418.491 11.4861 423.941C11.4197 424.087 11.6322 424.22 11.6986 424.061C13.2113 420.899 15.4177 418.119 18.1535 415.928C20.8894 413.737 24.0843 412.191 27.5002 411.406C27.9119 411.3 28.3501 411.247 28.8281 411.154C28.682 411.778 28.7086 412.482 28.6289 413.092C28.4961 414.062 28.3368 415.031 28.1376 415.987C27.7151 417.98 27.1696 419.944 26.5043 421.87C25.8549 423.808 25.0786 425.703 24.1806 427.54C23.3118 429.48 22.2248 431.316 20.9406 433.01C20.8211 433.143 21.0468 433.316 21.1397 433.156C22.295 431.351 23.6361 429.691 24.6852 427.845C25.6871 426.054 26.5527 424.189 27.2745 422.268C28.0102 420.323 28.5832 418.319 28.9874 416.279C29.1999 415.204 29.3725 414.115 29.492 413.026C29.6247 412.375 29.6649 411.709 29.6115 411.047C31.866 410.7 34.1563 410.651 36.4235 410.901C35.5737 415.668 34.6575 420.635 31.9884 424.778C31.8955 424.91 32.1345 425.043 32.2142 424.897C33.4579 422.7 34.5579 420.425 35.5073 418.085C36.3809 415.792 36.9263 413.387 37.1273 410.941C41.0852 411.476 44.9059 412.756 48.3876 414.712C54.9476 418.537 60.1793 424.278 63.3792 431.165C66.7788 438.53 68.6877 446.495 68.9961 454.602C69.6335 464.813 69.7663 475.077 70.7888 485.262C70.7888 485.926 71.9042 486.152 72.037 485.395C72.2761 483.127 72.3028 480.842 72.1166 478.57Z" fill="#263238"/>
<path d="M49.649 412.017C49.0133 411.239 48.2712 410.555 47.4447 409.985C46.648 409.321 45.838 408.657 44.9749 408.099C43.2889 406.944 41.4219 406.078 39.4509 405.537C39.2916 405.537 39.2385 405.749 39.4509 405.789C41.4313 406.284 43.2859 407.189 44.8952 408.445C45.7052 409.042 46.4886 409.68 47.2455 410.344C47.923 411.046 48.6705 411.678 49.4763 412.229C49.5693 412.335 49.7552 412.163 49.649 412.017Z" fill="#263238"/>
<path d="M18.6298 419.214C17.0234 421.087 15.5376 423.061 14.1815 425.123C12.85 427.192 11.7374 429.395 10.8618 431.696C10.8618 431.762 10.9415 431.802 10.9813 431.696C13.2032 427.349 15.8261 423.219 18.8157 419.36C18.922 419.306 18.7361 419.134 18.6298 419.214Z" fill="#263238"/>
<path d="M39.5438 417.288C39.3342 418.535 38.9638 419.749 38.4417 420.9C37.9123 422.014 37.2951 423.084 36.5959 424.1C36.5854 424.114 36.5808 424.132 36.5833 424.15C36.5858 424.167 36.5951 424.183 36.6092 424.193C36.6233 424.204 36.641 424.208 36.6584 424.206C36.6759 424.203 36.6916 424.194 36.7021 424.18C38.3806 422.254 39.4524 419.875 39.7828 417.342C39.7828 417.182 39.5703 417.116 39.5438 417.288Z" fill="#263238"/>
<path d="M70.762 425.853C70.762 425.853 84.5187 408.591 111.076 414.686C136.306 420.515 147.964 466.804 122.456 472.342C96.9475 477.879 101.449 435.042 92.1539 427.778C85.3287 422.467 75.529 423.622 70.762 425.853Z" fill="#6D597A"/>
<path d="M131.592 439.995C129.862 438.477 128.035 437.076 126.121 435.799C124.315 434.568 122.349 433.59 120.278 432.891C119.238 431.339 118.074 429.874 116.799 428.509C114.478 425.99 111.792 423.832 108.832 422.108H109.629C111.035 422.035 112.445 422.035 113.851 422.108C116.683 422.282 119.46 422.97 122.044 424.14C122.074 424.154 122.109 424.156 122.14 424.145C122.171 424.133 122.196 424.11 122.21 424.08C122.224 424.05 122.226 424.016 122.215 423.985C122.204 423.954 122.181 423.928 122.151 423.914C119.527 422.782 116.783 421.953 113.971 421.444C112.599 421.199 111.208 421.079 109.815 421.086C109.071 421.086 108.327 421.152 107.584 421.219H107.159C104.729 419.984 102.161 419.039 99.5104 418.404L100.241 418.204C101.555 417.913 102.885 417.696 104.224 417.554C106.874 417.246 109.552 417.286 112.192 417.673C112.351 417.673 112.404 417.448 112.192 417.421C109.548 417.106 106.884 417 104.224 417.102C101.988 417.168 99.7638 417.457 97.585 417.965C95.9835 417.673 94.3644 417.486 92.7383 417.408C83.4432 417.023 73.3779 420.488 67.6814 428.097C61.9848 435.706 60.7101 445.851 59.7009 455.066C58.1463 467.872 57.804 480.797 58.6784 493.667C58.6784 494.437 59.8071 494.291 59.8337 493.574C60.1789 482.659 60.564 471.744 61.613 460.869C62.091 455.823 62.6222 450.777 63.4588 445.784C64.0676 441.485 65.3023 437.297 67.1237 433.355C69.0968 429.333 72.2152 425.983 76.0868 423.728C79.9795 421.496 84.3204 420.158 88.7945 419.811C92.8127 419.482 96.8574 419.86 100.745 420.927C100.626 421.705 100.626 422.498 100.745 423.277C100.826 424.266 101.022 425.242 101.33 426.185C101.617 427.076 101.986 427.938 102.432 428.761C102.923 429.677 103.547 430.487 104.092 431.417C104.184 431.55 104.397 431.417 104.304 431.271C103.207 429.713 102.501 427.914 102.246 426.026C102.075 425.149 101.969 424.262 101.927 423.37C101.927 422.679 101.927 422.042 101.927 421.312C106.141 422.607 110.073 424.684 113.519 427.433C114.17 427.951 114.847 428.495 115.405 429.053C114.525 429.867 113.765 430.802 113.148 431.828C112.239 433.156 111.448 434.56 110.784 436.024C109.558 439.001 108.732 442.126 108.327 445.32C108.327 445.479 108.566 445.532 108.58 445.32C109.031 442.226 110.015 439.234 111.488 436.476C112.192 435.133 112.976 433.833 113.838 432.585C114.29 431.948 114.754 431.257 115.166 430.7C115.432 430.381 115.71 430.036 115.963 429.691C119.089 432.751 121.639 436.35 123.492 440.314C122.232 441.637 121.184 443.146 120.384 444.788C119.432 446.498 118.602 448.273 117.901 450.1C116.613 453.64 115.553 457.259 114.728 460.935C114.728 461.095 114.94 461.148 114.98 460.935C115.788 457.253 117.051 453.684 118.738 450.312C119.535 448.653 120.371 447.019 121.261 445.399C122.179 443.898 123.012 442.346 123.757 440.752C125.525 444.625 126.552 448.796 126.785 453.048C126.785 453.22 127.05 453.194 127.037 453.048C126.548 446.375 124.507 439.909 121.075 434.165C122.695 434.856 124.328 435.493 125.895 436.37C127.882 437.414 129.732 438.698 131.406 440.194C131.552 440.3 131.711 440.101 131.592 439.995Z" fill="#263238"/>
<path d="M112.112 440.977C111.315 443.633 110.306 446.142 109.589 448.798C108.857 451.338 108.464 453.963 108.421 456.606C108.421 456.606 108.54 456.686 108.54 456.606C109.263 451.304 110.54 446.092 112.351 441.057C112.364 441.04 112.372 441.02 112.376 441C112.379 440.979 112.378 440.958 112.372 440.937C112.365 440.917 112.354 440.899 112.34 440.884C112.325 440.869 112.307 440.858 112.287 440.851C112.267 440.844 112.246 440.843 112.225 440.846C112.204 440.849 112.184 440.857 112.167 440.869C112.15 440.882 112.136 440.898 112.127 440.917C112.117 440.935 112.112 440.956 112.112 440.977Z" fill="#263238"/>
<path d="M128.936 434.471C127.891 433.468 126.706 432.622 125.417 431.961C124.103 431.363 122.739 430.883 121.341 430.527C121.194 430.527 121.141 430.739 121.341 430.766C122.734 431.127 124.074 431.672 125.324 432.386C126.58 433.038 127.787 433.779 128.936 434.603C128.909 434.67 129.016 434.55 128.936 434.471Z" fill="#263238"/>
<path d="M83.8282 402.788C83.8282 402.788 86.3778 371.716 109.469 361.624C128.763 353.205 139.798 374.903 126.174 388.181C115.139 398.91 97.4522 394.064 83.8282 402.788Z" fill="#6D597A"/>
<path d="M121.898 367.666C118.38 369.083 114.948 370.706 111.621 372.526C108.855 374.126 106.194 375.9 103.653 377.837C104.025 377.054 104.37 376.23 104.755 375.46C105.353 374.252 106.004 373.083 106.707 371.941C108.134 369.592 109.847 367.429 111.806 365.501C111.926 365.395 111.727 365.209 111.621 365.329C109.686 367.264 107.91 369.351 106.309 371.57C105.518 372.699 104.787 373.869 104.118 375.075C103.439 376.194 102.916 377.4 102.564 378.66L102.312 378.846C98.2757 382.059 94.5782 385.677 91.2776 389.642C91.344 389.337 91.4104 389.031 91.49 388.752C91.915 387.225 92.393 385.725 92.8179 384.238C93.8126 381.046 95.2186 377.997 97.0007 375.168C97.0804 375.035 96.8546 374.903 96.775 375.049C94.9548 377.877 93.3395 380.833 91.9415 383.892C91.298 385.378 90.7654 386.909 90.3481 388.473C90.0122 389.492 89.7591 390.535 89.5912 391.594C88.582 392.922 87.5994 394.157 86.6566 395.485C76.7507 409.6 71.7712 426.676 70.5761 443.766C70.234 448.853 70.1498 453.954 70.3238 459.05C70.3538 464.194 70.7979 469.327 71.6517 474.4C71.6517 474.719 72.2227 474.626 72.2094 474.32C72.1031 469.832 71.6384 465.357 71.5454 460.869C71.4525 456.381 71.6251 451.853 71.9836 447.378C72.7059 438.41 74.3932 429.546 77.0163 420.94C79.7041 412.127 83.663 403.753 88.7679 396.082C89.7372 395.883 90.7066 395.631 91.6627 395.378C92.6187 395.126 93.9732 394.781 95.1151 394.462C97.3366 393.895 99.4945 393.103 101.555 392.099C101.701 392.099 101.555 391.806 101.422 391.886C99.3871 393 97.1785 393.763 94.8894 394.143C93.0835 394.502 91.2112 394.741 89.392 395.153C91.063 392.708 92.858 390.35 94.7699 388.088C99.1716 388.493 103.61 388.161 107.903 387.106C110.19 386.558 112.438 385.862 114.635 385.021C116.945 384.131 119.136 382.976 121.42 382.02C121.45 382.006 121.473 381.981 121.484 381.949C121.496 381.918 121.494 381.884 121.48 381.854C121.466 381.824 121.44 381.801 121.409 381.79C121.378 381.779 121.344 381.78 121.314 381.794C117.188 384.042 112.689 385.522 108.035 386.163C103.915 386.815 99.7514 387.157 95.5799 387.185C97.2132 385.3 98.9128 383.467 100.719 381.741C106.787 375.965 113.997 370.653 121.965 367.891C122.111 367.852 122.111 367.599 121.898 367.666Z" fill="#263238"/>
<path d="M103.096 367.759C102.06 369.074 101.115 370.458 100.267 371.902C99.389 373.419 98.6979 375.038 98.2091 376.722C98.2091 376.722 98.2091 376.801 98.3021 376.722C99.0722 375.208 99.7229 373.628 100.493 372.101C101.264 370.609 102.19 369.203 103.255 367.905C103.388 367.812 103.202 367.626 103.096 367.759Z" fill="#263238"/>
<path d="M124.581 378.05C123.075 378.875 121.486 379.538 119.84 380.028C118.261 380.564 116.651 381.008 115.02 381.356C114.94 381.356 115.02 381.502 115.02 381.489C116.72 381.313 118.394 380.948 120.013 380.4C121.64 379.807 123.228 379.11 124.767 378.315C124.86 378.249 124.767 378.05 124.581 378.05Z" fill="#263238"/>
<path d="M65.8756 397.198C65.7295 398.526 62.3833 385.911 42.8504 374.704C25.1764 364.532 3.93053 338.068 21.3389 321.337C35.3745 307.846 72.3556 337.271 65.8756 397.198Z" fill="#6D597A"/>
<path d="M79.327 469.567C79.0363 456.426 77.9988 443.312 76.2198 430.288C74.679 418.321 71.9159 406.543 67.9737 395.14C66.513 391.036 64.8532 386.986 63.0606 383.016C63.1606 381.467 63.134 379.913 62.9809 378.369C62.8747 376.377 62.7021 374.385 62.5162 372.406C62.3302 370.428 62.1311 368.423 61.892 366.471C61.653 364.519 61.2414 362.487 61.1617 360.549C61.1683 360.529 61.17 360.507 61.1668 360.487C61.1635 360.466 61.1554 360.446 61.1431 360.429C61.1308 360.412 61.1147 360.398 61.096 360.389C61.0773 360.379 61.0566 360.374 61.0356 360.374C61.0146 360.374 60.9939 360.379 60.9752 360.389C60.9565 360.398 60.9403 360.412 60.928 360.429C60.9157 360.446 60.9076 360.466 60.9044 360.487C60.9011 360.507 60.9029 360.529 60.9094 360.549C61.304 362.621 61.5392 364.721 61.6132 366.829C61.7593 368.742 61.8655 370.667 61.9319 372.579C61.9983 374.491 61.9319 376.43 61.9319 378.355C61.9319 379.046 61.9319 379.776 61.9319 380.52C60.0994 376.642 58.1209 372.818 55.9963 369.1C57.3242 361 55.5979 352.542 53.9514 344.614C53.9514 344.455 53.6725 344.534 53.6991 344.694C54.5267 348.827 54.9712 353.027 55.027 357.242C55.1066 360.562 54.9473 363.882 54.934 367.214C54.4693 366.418 54.0045 365.621 53.5265 364.838C50.9593 360.721 48.2371 356.715 45.3601 352.82C45.586 350.9 45.5188 348.957 45.1609 347.057C44.8538 344.901 44.3878 342.771 43.7666 340.684C43.147 338.612 42.4255 336.576 41.6022 334.575C40.7524 332.531 39.6237 330.592 38.8137 328.52C38.8067 328.506 38.7969 328.492 38.7848 328.481C38.7727 328.47 38.7585 328.462 38.7431 328.456C38.7277 328.451 38.7113 328.448 38.6949 328.449C38.6786 328.45 38.6625 328.454 38.6477 328.461C38.6329 328.468 38.6196 328.477 38.6086 328.49C38.5975 328.502 38.589 328.516 38.5834 328.531C38.5779 328.547 38.5754 328.563 38.5762 328.579C38.577 328.596 38.581 328.612 38.5879 328.627C39.6232 330.572 40.4425 332.625 41.0312 334.748C41.6741 336.744 42.2061 338.775 42.6247 340.83C43.0363 342.888 43.3816 344.946 43.6604 347.018C43.8596 348.345 43.9791 349.819 44.2181 351.214C40.0355 345.59 35.4654 340.266 30.5411 335.279C30.4216 335.16 30.2622 335.346 30.3684 335.465C37.8091 343.833 44.455 352.875 50.2201 362.474L50.8442 363.563C49.7686 362.886 48.5337 362.354 47.5245 361.797C45.6389 360.752 43.7401 359.708 41.828 358.663C39.9158 357.618 38.0745 356.609 36.304 355.635C35.3479 355.118 34.4184 354.56 33.4491 354.069C32.2971 353.552 31.191 352.939 30.1427 352.236C29.9966 352.13 29.8373 352.356 29.9966 352.435C31.8689 353.471 33.542 355.011 35.3081 356.167C37.0742 357.322 38.9863 358.451 40.8852 359.513C44.3642 361.452 48.1353 362.846 51.5081 364.824C53.885 368.967 56.0627 373.23 58.1475 377.559C56.076 376.231 53.9514 374.903 51.8002 373.761C50.4724 372.991 49.0383 372.234 47.6307 371.49C46.2194 370.847 44.8835 370.05 43.6471 369.113C43.6216 369.094 43.5899 369.085 43.558 369.087C43.5262 369.089 43.4962 369.103 43.4736 369.126C43.451 369.148 43.4373 369.178 43.435 369.21C43.4327 369.242 43.442 369.274 43.4612 369.299C45.7403 371.338 48.2597 373.09 50.9637 374.518C53.4734 375.978 56.0096 377.399 58.6255 378.674C60.7058 383.251 62.587 387.912 64.2689 392.656C72.5017 415.934 75.516 440.646 76.9634 465.185C77.3883 472.501 77.614 479.791 77.707 487.134C77.7999 494.477 77.4016 501.741 77.4281 509.084C77.4281 509.296 77.7734 509.35 77.8132 509.084C78.6896 502.591 78.8357 495.991 79.1411 489.458C79.4465 482.925 79.473 476.206 79.327 469.567Z" fill="#263238"/>
<path d="M43.8328 364.186C40.2673 362.612 36.8036 360.815 33.4622 358.808C30.065 356.907 26.7757 354.819 23.6094 352.554C23.6094 352.554 23.4899 352.554 23.6094 352.647C26.6034 355.076 29.7625 357.295 33.0638 359.287C36.5234 361.208 40.0976 362.915 43.7664 364.399C43.8594 364.465 43.9922 364.239 43.8328 364.186Z" fill="#263238"/>
<path d="M49.5028 337.868C49.2107 336.739 48.8522 335.624 48.4671 334.509C48.4802 334.489 48.4872 334.466 48.4872 334.442C48.4872 334.419 48.4802 334.396 48.4671 334.376L47.7501 332.504C47.7296 332.424 47.6983 332.348 47.6571 332.278C47.6571 332.158 47.5641 332.039 47.511 331.919C47.511 331.919 47.6305 332.358 47.6969 332.57C47.7044 332.682 47.7222 332.793 47.7501 332.902C49.0337 337.253 50.0012 341.69 50.6448 346.181C50.6448 346.313 50.8838 346.327 50.8705 346.181C50.6733 343.373 50.2155 340.591 49.5028 337.868Z" fill="#263238"/>
<path d="M99.9619 474.28L98.5677 490.799L94.3052 541.178H48.6L44.3375 490.799L42.9432 474.28H99.9619Z" fill="#37474F"/>
<path d="M99.9619 474.28L98.5677 490.799H44.3375L42.9432 474.28H99.9619Z" fill="#263238"/>
<path d="M104.437 467.654H38.4551V483.496H104.437V467.654Z" fill="#37474F"/>
</svg>
