<svg width="732" height="529" viewBox="0 0 732 529" fill="none" xmlns="http://www.w3.org/2000/svg">
<path d="M365.972 528.894C566.274 528.894 728.65 521.949 728.65 513.38C728.65 504.812 566.274 497.867 365.972 497.867C165.67 497.867 3.29272 504.812 3.29272 513.38C3.29272 521.949 165.67 528.894 365.972 528.894Z" fill="#EBEBEB"/>
<path d="M3.30371 484.006L93.9763 483.723L184.637 483.621L365.971 483.44L547.305 483.621L637.966 483.723L728.639 484.006L637.966 484.277L547.305 484.379L365.971 484.56L184.637 484.379L93.9763 484.277L3.30371 484.006Z" fill="#263238"/>
<path d="M322.734 311.645C322.734 311.645 298.496 308.251 304.165 279C304.165 279 331.233 285.076 322.734 311.645Z" fill="#6D597A"/>
<path opacity="0.1" d="M322.734 311.645C322.734 311.645 298.496 308.251 304.165 279C304.165 279 331.233 285.076 322.734 311.645Z" fill="black"/>
<path d="M321.501 305.524C321.037 304.053 320.471 302.593 319.86 301.167C319.86 300.986 319.804 300.794 319.792 300.613L319.69 299.413C319.623 298.531 319.566 297.659 319.521 296.788C319.419 295.045 319.306 293.291 319.272 291.538C319.272 291.447 319.125 291.447 319.125 291.538C319.125 293.291 319.125 295.034 319.125 296.788C319.125 297.656 319.17 298.527 319.26 299.402C319.26 299.606 319.26 299.798 319.26 299.99C317.9 297.079 316.275 294.299 314.406 291.685C313.578 290.509 312.69 289.376 311.747 288.29C310.785 287.158 309.767 286.129 308.793 285.031C308.726 284.963 308.624 285.031 308.692 285.144C310.426 287.069 311.986 289.144 313.354 291.345C314.089 292.477 314.791 293.608 315.447 294.74L315.221 294.649L314.361 294.299L312.381 293.552L308.488 292.103C308.409 292.103 308.352 292.205 308.488 292.239C309.778 292.748 311.045 293.291 312.324 293.846L314.202 294.649L315.142 295.045C315.349 295.141 315.565 295.217 315.787 295.272C316.273 296.143 316.76 297.026 317.212 297.92C318.336 300.185 319.322 302.517 320.166 304.901L320.347 305.411C319.708 305.04 319.042 304.719 318.355 304.449L315.854 303.317C314.146 302.536 312.46 301.744 310.83 300.828C310.751 300.828 310.683 300.907 310.762 300.952C312.426 301.869 314.055 302.831 315.73 303.736C316.556 304.188 317.393 304.63 318.253 305.048C318.957 305.464 319.72 305.769 320.517 305.954C321.325 308.169 321.857 310.476 322.101 312.822C322.372 316.138 322.35 319.465 322.418 322.78H322.508C322.757 319.77 322.882 316.738 322.904 313.728C322.873 310.936 322.399 308.167 321.501 305.524Z" fill="#263238"/>
<path d="M317.778 288.335C317.543 290.044 317.46 291.771 317.529 293.495H317.608C317.699 291.786 317.722 290.1 317.914 288.38C317.925 288.279 317.789 288.245 317.778 288.335Z" fill="#263238"/>
<path d="M310.841 289.806C309.757 289.394 308.715 288.879 307.73 288.267C307.65 288.267 307.583 288.346 307.662 288.403C308.632 289.055 309.691 289.562 310.808 289.908C310.864 289.919 310.909 289.829 310.841 289.806Z" fill="#263238"/>
<path d="M323.504 358.085C323.504 355.403 323.436 352.721 323.402 350.051C323.402 341.156 323.278 332.262 323.119 323.368C322.991 316.322 322.825 309.265 322.621 302.197C322.62 302.178 322.614 302.16 322.604 302.144C322.595 302.128 322.581 302.115 322.565 302.106V296.324C322.565 296.324 322.508 296.256 322.452 296.256C322.395 296.256 322.338 296.256 322.338 296.335V302.129C322.322 302.135 322.309 302.146 322.299 302.16C322.289 302.174 322.283 302.191 322.282 302.208C321.92 314.768 321.603 327.34 321.535 339.9C321.535 342.458 321.535 345.004 321.535 347.561C321.456 355.754 321.411 363.946 321.445 372.139C321.445 373.44 321.445 374.753 321.445 376.054C321.445 383.545 321.512 391.047 321.524 398.538C321.524 398.946 321.965 399.149 322.44 399.161C322.916 399.172 323.572 398.968 323.572 398.504C323.572 390.244 323.64 381.972 323.572 373.712C323.557 368.507 323.534 363.298 323.504 358.085Z" fill="#263238"/>
<path d="M313.388 349.949C313.388 349.949 301.733 341.315 290.666 347.143C279.599 352.97 277.879 375.432 277.879 375.432C277.879 375.432 294.117 377.763 304.347 368.02C314.203 358.707 313.388 349.949 313.388 349.949Z" fill="#6D597A"/>
<path d="M316.567 350.481C314.412 349.629 312.079 349.325 309.778 349.598C309.306 349.52 308.83 349.474 308.352 349.462L306.711 349.338L303.317 349.1C301.054 348.919 298.711 348.783 296.425 348.557C296.335 348.557 296.324 348.693 296.425 348.693C298.689 348.987 300.952 349.315 303.215 349.542C304.346 349.655 305.557 349.779 306.734 349.87C307.006 349.87 307.289 349.87 307.583 349.949C307.232 350.028 306.892 350.107 306.553 350.209C304.721 350.734 302.95 351.451 301.269 352.348C300.352 352.518 299.435 352.767 298.542 352.982C297.093 353.321 295.656 353.694 294.23 354.113C291.401 354.86 288.572 355.697 285.789 356.512C285.698 356.512 285.789 356.67 285.789 356.648C288.595 355.958 291.447 355.335 294.219 354.668L298.326 353.683L299.39 353.434C296.262 355.374 293.465 357.804 291.107 360.631C288.836 363.41 286.902 366.449 285.347 369.684C285.347 369.763 285.427 369.842 285.483 369.763C287.389 366.421 289.729 363.346 292.442 360.62C292.442 360.767 292.341 360.925 292.295 361.084C292.08 361.763 291.865 362.453 291.639 363.143C291.209 364.512 290.779 365.881 290.372 367.262C290.372 367.352 290.473 367.386 290.507 367.262C291.005 365.938 291.469 364.591 291.933 363.256C292.171 362.6 292.397 361.944 292.623 361.287C292.748 360.948 292.861 360.608 292.974 360.269L293.087 359.952C294.408 358.692 295.811 357.52 297.285 356.444C299.206 355.03 301.283 353.841 303.475 352.902C303.475 353.095 303.396 353.298 303.362 353.491C303.249 354.023 303.124 354.554 303.011 355.086C302.785 356.218 302.57 357.293 302.355 358.402C301.925 360.665 301.653 362.928 301.223 365.191C301.223 365.282 301.348 365.316 301.37 365.191C301.891 362.928 302.57 360.665 303.068 358.402C303.328 357.27 303.577 356.139 303.815 355.007C303.928 354.475 304.03 353.932 304.143 353.4C304.199 353.106 304.267 352.812 304.301 352.506L304.935 352.246C307.989 350.938 311.34 350.481 314.632 350.922C316.178 351.213 317.627 351.882 318.852 352.869C320.076 353.856 321.036 355.131 321.648 356.58C321.75 356.829 322.157 356.67 322.089 356.41C321.693 355.061 320.987 353.822 320.029 352.793C319.07 351.764 317.885 350.972 316.567 350.481Z" fill="#263238"/>
<path d="M287.452 363.834C285.97 364.592 284.521 365.44 282.982 366.097C282.97 366.09 282.957 366.086 282.943 366.085C282.929 366.085 282.915 366.089 282.903 366.096C282.89 366.103 282.88 366.113 282.873 366.125C282.866 366.137 282.862 366.151 282.862 366.165C282.862 366.179 282.866 366.192 282.873 366.205C282.88 366.217 282.89 366.227 282.903 366.234C282.915 366.241 282.929 366.244 282.943 366.244C282.957 366.244 282.97 366.24 282.982 366.233C284.503 365.557 285.988 364.802 287.429 363.969C287.429 363.969 287.486 363.822 287.452 363.834Z" fill="#263238"/>
<path d="M316.002 334.084C316.002 334.084 301.766 335.001 295.135 325.609C288.504 316.217 289.998 302.796 289.998 302.796C289.998 302.796 304.957 304.618 310.898 311.362C316.839 318.107 316.002 334.084 316.002 334.084Z" fill="#6D597A"/>
<path d="M322.689 348.15C322.203 346.622 321.558 345.117 321.015 343.623C320.471 342.13 319.883 340.772 319.238 339.357C317.964 336.49 316.54 333.691 314.972 330.973C313.965 329.241 312.89 327.578 311.781 325.903C311.781 325.654 311.702 325.394 311.668 325.145L311.464 323.821C311.328 322.916 311.17 322.022 311.023 321.117C310.695 319.159 310.287 317.201 309.97 315.232C309.97 315.142 309.812 315.142 309.823 315.232C310.106 317.179 310.31 319.136 310.581 321.083C310.717 322.033 310.842 322.995 310.977 323.945L311.147 324.975C308.972 321.8 306.618 318.751 304.098 315.843C303.758 315.447 303.407 315.063 303.057 314.712C303.057 314.599 302.966 314.497 302.932 314.384C302.898 314.271 302.717 313.841 302.615 313.569L302.004 311.872C301.597 310.74 301.246 309.608 300.94 308.477C300.935 308.462 300.924 308.45 300.911 308.441C300.898 308.432 300.883 308.427 300.867 308.427C300.851 308.427 300.836 308.432 300.823 308.441C300.809 308.45 300.799 308.462 300.793 308.477C301.088 309.608 301.393 310.819 301.733 311.974C301.891 312.528 302.083 313.105 302.276 313.626L302.378 313.897C300.556 311.917 298.655 310.005 296.72 308.115C296.706 308.101 296.688 308.094 296.669 308.094C296.65 308.094 296.631 308.101 296.618 308.115C296.604 308.128 296.597 308.147 296.597 308.166C296.597 308.185 296.604 308.203 296.618 308.217C300.298 312.072 303.672 316.207 306.711 320.585C306.363 320.473 306.007 320.382 305.648 320.313C304.516 320.109 303.453 319.951 302.344 319.804C300.024 319.51 297.704 319.216 295.396 318.853C295.305 318.853 295.271 318.978 295.396 319.001C297.602 319.431 299.786 319.928 301.982 320.438C303.011 320.675 304.052 320.879 305.093 321.083C305.943 321.262 306.778 321.5 307.594 321.796L308.296 322.78C309.337 324.289 310.344 325.835 311.317 327.419L309.869 327.137C308.737 326.922 307.605 326.718 306.553 326.537C304.38 326.175 302.208 325.801 300.069 325.315C299.967 325.315 299.933 325.439 300.069 325.462C302.253 325.971 304.414 326.593 306.576 327.137C307.617 327.419 308.669 327.668 309.721 327.906C310.242 328.019 310.774 328.144 311.306 328.245C311.513 328.302 311.725 328.34 311.939 328.359C314.021 331.731 315.972 335.182 317.79 338.712C318.582 340.263 319.34 341.824 320.053 343.397C320.766 344.97 321.467 346.667 322.169 348.308C322.282 348.636 322.802 348.523 322.689 348.15Z" fill="#263238"/>
<path d="M308.114 315.414C307.843 314.056 307.549 312.698 307.254 311.34C307.254 311.25 307.096 311.34 307.107 311.34C307.379 312.675 307.639 314.011 307.877 315.357C308.081 316.698 308.353 318.027 308.691 319.34C308.588 318.02 308.395 316.708 308.114 315.414Z" fill="#263238"/>
<path d="M299.798 315.017C299.141 314.678 298.44 314.418 297.761 314.146L296.629 313.727L296.075 313.512C295.865 313.445 295.664 313.354 295.475 313.241C295.373 313.162 295.305 313.354 295.407 313.365C295.62 313.425 295.825 313.508 296.018 313.614L296.561 313.863L297.603 314.327C298.286 314.637 298.985 314.913 299.696 315.153C299.714 315.167 299.737 315.172 299.759 315.169C299.781 315.166 299.801 315.154 299.815 315.136C299.828 315.118 299.834 315.095 299.831 315.073C299.828 315.051 299.816 315.031 299.798 315.017Z" fill="#263238"/>
<path d="M330.587 322.893C330.587 322.893 339.21 306.791 352.325 304.29C365.44 301.79 373.462 315.289 373.462 315.289C373.462 315.289 363.901 327.51 351.861 329.638C339.821 331.765 330.587 322.893 330.587 322.893Z" fill="#6D597A"/>
<path d="M361.106 311.51C357.689 311.053 354.225 311.095 350.82 311.634L351.408 311.317C352.382 310.831 353.355 310.322 354.317 309.824C356.331 308.771 358.368 307.662 360.472 306.814C360.485 306.814 360.498 306.81 360.509 306.804C360.521 306.798 360.53 306.789 360.537 306.778C360.544 306.767 360.549 306.755 360.55 306.742C360.551 306.729 360.549 306.716 360.544 306.704C360.539 306.692 360.531 306.682 360.521 306.673C360.511 306.665 360.5 306.659 360.487 306.657C360.474 306.654 360.461 306.655 360.449 306.659C360.436 306.662 360.425 306.669 360.416 306.678C358.368 307.64 356.24 308.432 354.181 309.382C353.151 309.858 352.133 310.344 351.137 310.876C350.492 311.227 349.768 311.544 349.134 312.008C346.257 312.588 343.46 313.515 340.806 314.769L342.446 312.981C343.669 311.645 344.868 310.242 346.215 309.02C346.282 308.964 346.215 308.862 346.101 308.918C344.732 310.163 343.284 311.317 341.949 312.619C341.304 313.241 340.681 313.897 340.081 314.565C339.787 314.904 339.482 315.244 339.199 315.606C334.691 318.018 330.776 321.401 327.735 325.51C324.694 329.62 322.603 334.353 321.614 339.369C321.614 339.459 321.727 339.516 321.75 339.369C323.602 333.236 326.91 327.641 331.391 323.063C336.215 318.136 342.291 314.615 348.964 312.879C352.922 311.859 357.017 311.477 361.095 311.747C361.117 311.737 361.135 311.72 361.148 311.7C361.162 311.68 361.169 311.656 361.171 311.632C361.172 311.608 361.166 311.583 361.155 311.562C361.144 311.54 361.127 311.522 361.106 311.51Z" fill="#263238"/>
<path opacity="0.1" d="M373.463 315.301C373.463 315.301 363.89 327.51 351.861 329.637C342.673 331.267 335.125 326.48 332.059 324.127L331.403 322.995C331.403 322.995 337.604 317.756 349.349 314.735C361.095 311.713 373.463 315.301 373.463 315.301Z" fill="black"/>
<path d="M353.524 305.772C352.519 306.358 351.548 307 350.616 307.696C349.702 308.369 348.854 309.127 348.081 309.959C348.013 310.038 348.081 310.129 348.194 310.072C349.066 309.314 349.937 308.556 350.842 307.809C351.723 307.092 352.645 306.428 353.603 305.818C353.649 305.851 353.524 305.716 353.524 305.772Z" fill="#263238"/>
<path d="M360.687 308.499C360.2 308.703 359.703 308.873 359.216 309.076L357.756 309.676C357.654 309.676 357.756 309.891 357.813 309.846L359.273 309.257L360.732 308.635C360.823 308.601 360.778 308.454 360.687 308.499Z" fill="#263238"/>
<path d="M328.867 343.159C328.867 343.159 331.131 359.126 343.182 364.716C355.233 370.306 369.83 364.716 369.83 364.716C369.83 364.716 364.071 330.158 328.867 343.159Z" fill="#6D597A"/>
<path d="M361.558 354.328C360.427 354.203 359.295 354.011 358.254 353.807L356.636 353.502L355.799 353.332L354.826 352.438C352.545 350.436 350.083 348.652 347.47 347.108C346.05 346.267 344.58 345.511 343.069 344.845H343.295L347.255 345.015C349.892 345.139 352.529 345.196 355.176 345.366C355.278 345.366 355.267 345.23 355.176 345.219C352.529 345.038 349.903 344.755 347.255 344.528L343.408 344.178L341.417 343.997H340.919C340.228 343.748 339.538 343.499 338.837 343.284C335.558 342.161 332.033 341.969 328.652 342.729C325.631 343.499 322.621 345.479 321.863 348.67C321.863 348.772 321.999 348.851 322.044 348.738C323.176 346.079 326.129 344.743 328.833 344.212C330.626 343.833 332.47 343.761 334.288 343.997C334.405 344.822 334.605 345.633 334.887 346.418C335.216 347.55 335.544 348.681 335.895 349.813C336.573 352.076 337.32 354.271 337.988 356.523C337.988 356.614 338.146 356.523 338.124 356.523C337.569 354.26 337.094 351.997 336.562 349.734C336.291 348.602 336.019 347.527 335.736 346.429C335.586 345.663 335.386 344.907 335.136 344.166C336.188 344.347 337.227 344.593 338.248 344.902C340.103 345.449 341.921 346.114 343.691 346.893C343.872 348.025 344.121 349.157 344.393 350.288C344.721 351.691 345.083 353.094 345.524 354.464C345.524 354.482 345.531 354.499 345.544 354.512C345.557 354.524 345.574 354.531 345.592 354.531C345.61 354.531 345.627 354.524 345.64 354.512C345.653 354.499 345.66 354.482 345.66 354.464V354.203C345.4 352.902 345.105 351.601 344.834 350.299C344.608 349.247 344.404 348.183 344.178 347.142C345.686 347.806 347.146 348.542 348.557 349.349C348.59 349.672 348.643 349.994 348.715 350.311C348.794 350.854 348.896 351.442 348.998 351.951C349.224 353.185 349.462 354.407 349.768 355.629C350.307 357.986 350.995 360.307 351.827 362.577C351.819 362.591 351.815 362.606 351.815 362.622C351.815 362.638 351.819 362.654 351.827 362.667L351.895 362.747C351.951 362.747 352.031 362.747 352.019 362.667C351.465 360.302 350.831 357.96 350.311 355.584C350.05 354.452 349.79 353.208 349.553 352.019C349.428 351.42 349.326 350.82 349.213 350.232C349.213 350.062 349.213 349.881 349.123 349.7C350.743 350.646 352.307 351.685 353.807 352.811C356.396 354.756 358.791 356.946 360.959 359.352C361.049 359.442 361.219 359.352 361.14 359.205C360.223 358.005 359.307 356.829 358.277 355.72C357.666 355.063 357.043 354.441 356.41 353.83H356.602C357.168 353.92 357.734 354.011 358.3 354.079C359.431 354.237 360.563 354.339 361.638 354.464C361.615 354.475 361.649 354.339 361.558 354.328Z" fill="#263238"/>
<path d="M353.117 359.736L353.049 359.329C353.049 359.148 352.925 358.978 352.902 358.797C352.653 357.733 352.438 356.658 352.246 355.572C352.246 355.504 352.121 355.572 352.121 355.572C352.194 357.005 352.504 358.416 353.038 359.748C353.038 359.748 353.128 359.748 353.117 359.748V359.736Z" fill="#263238"/>
<path d="M343.069 359.488C343.066 359.469 343.056 359.452 343.042 359.439C343.027 359.427 343.009 359.42 342.99 359.42C342.65 358.006 342.333 356.591 342.039 355.166C341.881 354.419 341.734 353.672 341.586 352.903C341.507 352.495 341.439 352.099 341.36 351.692C341.331 351.333 341.243 350.981 341.1 350.651C341.093 350.639 341.083 350.629 341.071 350.623C341.059 350.616 341.046 350.612 341.032 350.612C341.018 350.612 341.005 350.616 340.993 350.623C340.981 350.629 340.971 350.639 340.964 350.651C340.959 351.375 341.062 352.096 341.27 352.789C341.417 353.57 341.564 354.351 341.745 355.132C342.084 356.705 342.48 358.277 342.933 359.828C342.933 359.849 342.941 359.869 342.956 359.884C342.971 359.899 342.991 359.907 343.012 359.907C343.033 359.907 343.053 359.899 343.068 359.884C343.083 359.869 343.091 359.849 343.091 359.828C343.08 359.715 343.069 359.601 343.069 359.488Z" fill="#263238"/>
<path d="M360.461 349.722C358.266 349.428 356.082 349.111 353.875 348.84C353.785 348.84 353.751 348.964 353.875 348.987C356.071 349.304 358.266 349.575 360.461 349.87C360.518 349.881 360.552 349.734 360.461 349.722Z" fill="#263238"/>
<path d="M322.712 305.693C322.712 305.693 315.368 273.444 350.005 260.431C350.005 260.397 359.601 302.842 322.712 305.693Z" fill="#6D597A"/>
<path d="M330.191 287.418L330.565 287.192L332.522 286.061L336.539 283.797C339.187 282.315 341.79 280.776 344.46 279.271C344.551 279.271 344.46 279.101 344.392 279.147C341.722 280.595 339.006 281.953 336.324 283.367L332.353 285.472C331.809 285.755 331.221 286.038 330.734 286.332C331.866 284.137 333.122 281.987 334.48 279.916C336.29 277.155 338.271 274.53 340.341 271.995C340.432 271.882 340.274 271.724 340.172 271.837C337.128 274.787 334.439 278.084 332.16 281.659C332.154 281.546 332.154 281.432 332.16 281.319C332.16 280.512 332.183 279.709 332.228 278.909C332.228 277.336 332.172 275.763 332.228 274.19C332.228 274.089 332.092 274.1 332.081 274.19C332.024 275.741 331.832 277.291 331.742 278.83C331.742 279.611 331.674 280.38 331.651 281.093C331.651 281.512 331.594 281.987 331.651 282.451C330.938 283.582 330.259 284.714 329.603 285.846C328.442 287.946 327.41 290.115 326.514 292.341C326.514 291.537 326.423 290.734 326.378 289.931C326.276 288.165 326.061 286.411 325.993 284.646C325.993 284.625 325.985 284.605 325.97 284.59C325.955 284.575 325.935 284.567 325.914 284.567C325.893 284.567 325.873 284.575 325.858 284.59C325.843 284.605 325.835 284.625 325.835 284.646C325.835 286.411 325.835 288.177 325.835 289.942C325.835 290.825 325.891 291.707 325.948 292.59L326.016 293.574C324.911 296.455 324.033 299.417 323.391 302.434C322.797 305.658 322.367 308.91 322.101 312.177C322.462 309.233 323.075 306.326 323.934 303.487C324.364 301.97 324.816 300.454 325.303 298.96C326.74 298.282 328.121 297.433 329.512 296.697C330.904 295.962 332.42 295.113 333.869 294.321C336.754 292.737 339.64 291.119 342.627 289.727C342.706 289.727 342.627 289.557 342.548 289.591C339.527 290.96 336.483 292.262 333.495 293.755C332.013 294.502 330.565 295.294 329.128 296.098C327.917 296.777 326.683 297.455 325.541 298.236C325.869 297.229 326.219 296.233 326.604 295.249C327.667 292.58 328.864 289.966 330.191 287.418Z" fill="#263238"/>
<path d="M327.272 280.029C327.272 279.939 327.114 279.939 327.125 280.029C327.249 281.862 327.306 283.707 327.498 285.54C327.498 285.642 327.668 285.642 327.668 285.54C327.6 283.707 327.408 281.874 327.272 280.029Z" fill="#263238"/>
<path d="M343.884 286.197C341.711 287.068 339.527 287.894 337.366 288.799C337.309 288.799 337.366 288.924 337.366 288.901C339.55 288.075 341.711 287.181 343.884 286.332C344.008 286.287 343.963 286.151 343.884 286.197Z" fill="#263238"/>
<path d="M347.176 271.316C345.056 272.291 342.996 273.395 341.009 274.62C340.999 274.627 340.99 274.636 340.983 274.646C340.976 274.656 340.971 274.667 340.968 274.679C340.966 274.691 340.965 274.704 340.968 274.716C340.97 274.728 340.974 274.74 340.981 274.75C340.988 274.761 340.996 274.77 341.007 274.777C341.017 274.784 341.028 274.789 341.04 274.791C341.052 274.794 341.065 274.794 341.077 274.792C341.089 274.79 341.101 274.785 341.111 274.779C343.114 273.647 345.162 272.515 347.244 271.384C347.335 271.406 347.256 271.282 347.176 271.316Z" fill="#263238"/>
<path d="M346.645 375.42H296.686V428.084H346.645V375.42Z" fill="#37474F"/>
<path d="M295.803 394.058H293.246V484.266H295.803V394.058Z" fill="#263238"/>
<path d="M349.824 394.058H347.267V484.266H349.824V394.058Z" fill="#263238"/>
<path d="M324.172 394.058H321.614V484.266H324.172V394.058Z" fill="#263238"/>
<path d="M348.534 424.711H294.524V431.998H348.534V424.711Z" fill="#263238"/>
<path d="M653.311 88.3418V436.412C653.311 506.694 591.143 513.845 591.143 513.845H309.382C309.382 513.845 371.55 489.347 371.55 431.173V88.3079L653.311 88.3418Z" fill="#DBDBDB"/>
<path d="M660.519 79.0859H364.275V94.3961H660.519V79.0859Z" fill="#37474F"/>
<path d="M367.748 77.2188H360.801V97.123H367.748V77.2188Z" fill="#263238"/>
<path d="M663.993 77.2188H657.045V97.123H663.993V77.2188Z" fill="#263238"/>
<path d="M669.164 434.465H674.064V331.855H669.164V434.465Z" fill="#455A64"/>
<path d="M683.515 374.882L688.142 373.269L650.049 264.005L645.422 265.618L683.515 374.882Z" fill="#37474F"/>
<path d="M673.487 441.018V516.086C673.487 516.426 673.352 516.752 673.113 516.994C672.874 517.236 672.548 517.373 672.208 517.376C672.039 517.377 671.872 517.345 671.715 517.282C671.559 517.218 671.417 517.124 671.297 517.005C671.177 516.886 671.082 516.745 671.017 516.589C670.952 516.433 670.918 516.266 670.918 516.097L669.787 441.018H673.487Z" fill="#455A64"/>
<path d="M677.221 441.018L726.67 515.452C726.774 515.788 726.743 516.152 726.582 516.465C726.421 516.778 726.144 517.015 725.81 517.127C725.643 517.186 725.466 517.211 725.289 517.202C725.112 517.192 724.939 517.148 724.779 517.071C724.619 516.994 724.476 516.887 724.358 516.755C724.24 516.622 724.149 516.468 724.09 516.301L673.464 442.251L677.221 441.018Z" fill="#455A64"/>
<path d="M666.03 441.018L616.569 515.452C616.454 515.793 616.478 516.165 616.637 516.488C616.797 516.81 617.077 517.056 617.417 517.172C617.585 517.231 617.762 517.257 617.939 517.247C618.116 517.237 618.289 517.193 618.449 517.116C618.609 517.04 618.752 516.932 618.87 516.8C618.988 516.668 619.079 516.513 619.137 516.346L669.752 442.296L666.03 441.018Z" fill="#455A64"/>
<path d="M677.685 434.522V438.392C677.685 440.001 677.046 441.544 675.908 442.681C674.771 443.819 673.228 444.458 671.619 444.458C670.011 444.458 668.468 443.819 667.331 442.681C666.193 441.544 665.554 440.001 665.554 438.392V434.522H677.685Z" fill="#263238"/>
<path d="M662.748 438.223H680.48V431.773H662.748V438.223Z" fill="#37474F"/>
<path d="M679.28 333.326C679.28 331.811 678.831 330.33 677.989 329.07C677.147 327.81 675.951 326.828 674.551 326.249C673.151 325.669 671.611 325.517 670.125 325.813C668.639 326.108 667.274 326.838 666.202 327.909C665.131 328.981 664.401 330.346 664.106 331.832C663.81 333.318 663.962 334.858 664.542 336.258C665.121 337.658 666.103 338.854 667.363 339.696C668.623 340.538 670.104 340.987 671.619 340.987C673.651 340.987 675.599 340.18 677.036 338.743C678.473 337.307 679.28 335.358 679.28 333.326Z" fill="#263238"/>
<path d="M676.474 333.326C676.474 332.366 676.189 331.427 675.656 330.629C675.122 329.831 674.364 329.209 673.477 328.841C672.59 328.474 671.614 328.378 670.673 328.565C669.731 328.752 668.866 329.215 668.187 329.893C667.508 330.572 667.046 331.437 666.858 332.379C666.671 333.321 666.767 334.297 667.135 335.184C667.502 336.071 668.124 336.829 668.923 337.362C669.721 337.896 670.659 338.181 671.62 338.181C672.907 338.181 674.142 337.669 675.052 336.759C675.963 335.848 676.474 334.614 676.474 333.326Z" fill="#455A64"/>
<path d="M647.868 247.621L634.153 278.592L653.752 287.305C657.809 288.818 662.291 288.724 666.28 287.042C670.27 285.359 673.466 282.215 675.214 278.254C676.962 274.292 677.13 269.813 675.683 265.731C674.237 261.65 671.285 258.276 667.432 256.3L647.868 247.621Z" fill="#455A64"/>
<path d="M650.538 241.612L631.471 284.521L649.973 285.642L663.732 254.671L650.538 241.612Z" fill="#263238"/>
<path d="M608.093 303.634L631.471 284.521L650.538 241.612L649.056 211.456L608.093 303.634Z" fill="#455A64"/>
<path d="M579.566 305.671L608.093 303.634L649.056 211.456L631.46 188.916L579.566 305.671Z" fill="#37474F"/>
<path d="M288.538 215.643H283.639V401.854H288.538V215.643Z" fill="#455A64"/>
<path d="M312.288 149.391L307.662 147.778L269.569 257.043L274.196 258.656L312.288 149.391Z" fill="#37474F"/>
<path d="M284.216 408.394V483.462C284.216 483.802 284.35 484.129 284.59 484.37C284.829 484.612 285.154 484.749 285.494 484.752C285.663 484.754 285.831 484.722 285.987 484.658C286.144 484.595 286.286 484.501 286.406 484.382C286.526 484.263 286.621 484.121 286.686 483.966C286.751 483.81 286.784 483.642 286.784 483.474L287.916 408.394H284.216Z" fill="#455A64"/>
<path d="M280.482 408.394L231.032 482.829C230.973 482.996 230.948 483.174 230.959 483.352C230.969 483.529 231.015 483.703 231.092 483.863C231.17 484.023 231.279 484.166 231.412 484.284C231.546 484.401 231.701 484.491 231.87 484.549C232.037 484.608 232.214 484.633 232.391 484.624C232.568 484.614 232.741 484.57 232.901 484.493C233.061 484.416 233.204 484.308 233.322 484.176C233.44 484.044 233.531 483.89 233.59 483.723L284.216 409.627L280.482 408.394Z" fill="#455A64"/>
<path d="M291.673 408.394L341.134 482.829C341.249 483.169 341.224 483.542 341.065 483.864C340.906 484.187 340.625 484.433 340.285 484.549C340.118 484.608 339.941 484.633 339.764 484.624C339.587 484.614 339.413 484.57 339.253 484.493C339.094 484.416 338.951 484.308 338.832 484.176C338.714 484.044 338.623 483.89 338.565 483.723L287.95 409.627L291.673 408.394Z" fill="#455A64"/>
<path d="M279.972 401.854V405.724C279.972 407.333 280.611 408.875 281.749 410.013C282.886 411.15 284.429 411.789 286.038 411.789C287.646 411.789 289.189 411.15 290.326 410.013C291.464 408.875 292.103 407.333 292.103 405.724V401.854H279.972Z" fill="#263238"/>
<path d="M294.943 399.138H277.211V405.588H294.943V399.138Z" fill="#37474F"/>
<path d="M278.422 217.103C278.422 215.587 278.872 214.106 279.713 212.847C280.555 211.587 281.752 210.605 283.151 210.025C284.551 209.445 286.092 209.294 287.578 209.589C289.064 209.885 290.429 210.614 291.5 211.686C292.571 212.757 293.301 214.122 293.597 215.608C293.892 217.094 293.74 218.634 293.161 220.034C292.581 221.434 291.599 222.63 290.339 223.472C289.079 224.314 287.598 224.763 286.083 224.763C284.051 224.763 282.103 223.956 280.666 222.52C279.229 221.083 278.422 219.134 278.422 217.103Z" fill="#263238"/>
<path d="M286.083 221.945C288.758 221.945 290.926 219.777 290.926 217.102C290.926 214.428 288.758 212.259 286.083 212.259C283.408 212.259 281.24 214.428 281.24 217.102C281.24 219.777 283.408 221.945 286.083 221.945Z" fill="#455A64"/>
<path d="M329.162 131.85L319.577 164.371L298.994 158.329C294.914 156.864 291.55 153.894 289.59 150.028C287.63 146.162 287.223 141.693 288.453 137.536C289.683 133.38 292.457 129.852 296.205 127.675C299.954 125.499 304.393 124.838 308.612 125.83L329.162 131.85Z" fill="#455A64"/>
<path d="M331.006 125.536L317.801 170.595L302.954 159.483L312.493 126.962L331.006 125.536Z" fill="#263238"/>
<path d="M323.255 200.299L317.801 170.595L331.006 125.536L351.646 103.493L323.255 200.299Z" fill="#455A64"/>
<path d="M343.702 220.293L323.255 200.299L351.646 103.493L379.641 97.688L343.702 220.293Z" fill="#37474F"/>
<path d="M501.76 405.554L530.524 437.487C536.046 443.552 540.787 448.972 542.971 452.016C543.562 452.661 543.993 453.436 544.227 454.279C544.227 454.279 544.227 454.279 544.227 454.347C543.537 457.221 496.294 502.801 494.11 503.83C491.926 504.86 488.826 498.795 489.312 495.627C489.799 492.458 500.017 466.839 500.017 466.839L471.547 434.624L501.76 405.554Z" fill="#AD6359"/>
<path d="M524.606 430.936L530.513 437.487C536.035 443.553 540.776 448.973 542.96 452.017C543.468 452.718 543.89 453.478 544.216 454.28C544.216 454.28 544.216 454.28 544.216 454.348C543.526 457.222 496.283 502.801 494.099 503.831C491.915 504.861 488.826 498.796 489.312 495.627C489.799 492.459 500.017 466.84 500.017 466.84L493.94 460.277L524.606 430.936Z" fill="#EBEBEB"/>
<path d="M494.133 503.91C496.317 502.869 543.56 457.289 544.25 454.415C544.533 453.283 538.298 446.053 530.502 437.441L530.264 437.17L499.497 466.285L500.006 466.794C500.006 466.794 489.686 492.323 489.312 495.627C488.939 498.931 491.949 504.951 494.133 503.91Z" fill="#455A64"/>
<path d="M499.53 466.218V466.364L499.451 466.285L499.53 466.218Z" fill="#020100"/>
<path d="M489.312 495.627C489.686 492.753 497.776 472.464 499.632 467.802L500.707 498.196C498.64 500.236 496.465 502.162 494.189 503.967C491.949 504.951 488.837 498.795 489.312 495.627Z" fill="#37474F"/>
<path d="M492.899 501.557C500.673 493.636 532.776 462.631 541.059 455.434C541.127 455.378 541.172 455.434 541.059 455.434C533.534 463.412 501.182 494.191 492.979 501.636C492.854 501.851 492.707 501.727 492.899 501.557Z" fill="#263238"/>
<path d="M497.493 469.352C500.062 465.742 504.362 462.562 508.911 462.449C509.081 462.449 509.081 462.698 508.911 462.766C504.981 464.683 501.27 467.02 497.844 469.737C497.792 469.755 497.735 469.757 497.681 469.744C497.628 469.73 497.579 469.701 497.542 469.66C497.504 469.619 497.48 469.568 497.471 469.513C497.463 469.458 497.47 469.402 497.493 469.352Z" fill="#263238"/>
<path d="M496.543 472.894C499.112 469.295 503.412 466.104 507.961 465.991C508.142 465.991 508.142 466.24 507.961 466.308C504.035 468.232 500.325 470.568 496.894 473.279C496.842 473.297 496.785 473.299 496.731 473.286C496.677 473.272 496.629 473.243 496.591 473.202C496.554 473.161 496.53 473.11 496.521 473.055C496.512 473 496.52 472.944 496.543 472.894Z" fill="#263238"/>
<path d="M495.604 476.447C498.173 472.837 502.461 469.658 507.01 469.544C507.191 469.544 507.191 469.793 507.01 469.85C503.085 471.78 499.376 474.12 495.943 476.832C495.891 476.853 495.834 476.858 495.779 476.845C495.724 476.832 495.674 476.802 495.637 476.76C495.599 476.718 495.576 476.665 495.57 476.609C495.564 476.553 495.576 476.496 495.604 476.447Z" fill="#263238"/>
<path d="M487.049 366.198C489.833 377.785 532.154 436.039 532.154 436.039L497.573 469.986C497.573 469.986 436.31 396.603 438.992 370.679C441.323 348.127 471.75 256.696 471.75 256.696L510.518 255.327C510.518 255.327 484.3 354.792 487.049 366.198Z" fill="#6D597A"/>
<path opacity="0.2" d="M494.122 459.326C499.123 454.2 497.618 455.592 502.688 450.523C505.166 448.033 521.46 431.727 524.187 429.815C524.244 429.815 524.334 429.815 524.289 429.917C522.332 432.599 505.754 448.633 503.231 451.066C498.071 456.045 499.497 454.562 494.28 459.473C494.167 459.575 494.031 459.417 494.122 459.326Z" fill="#020100"/>
<path opacity="0.2" d="M480.26 362.589C480.712 359.647 481.233 356.727 481.753 353.796C482.809 347.822 483.941 341.862 485.148 335.918C487.539 324.134 490.18 312.404 493.069 300.726C495.966 289.003 499.044 277.302 502.676 265.783C503.117 264.369 503.581 262.943 504.045 261.528C504.04 261.515 504.038 261.5 504.04 261.485C504.042 261.471 504.047 261.457 504.056 261.445C504.064 261.433 504.075 261.423 504.088 261.417C504.101 261.41 504.115 261.406 504.13 261.406C504.145 261.406 504.159 261.41 504.172 261.417C504.185 261.423 504.196 261.433 504.204 261.445C504.213 261.457 504.218 261.471 504.22 261.485C504.222 261.5 504.22 261.515 504.215 261.528C501.137 273.048 497.946 284.533 495.083 296.109C492.22 307.685 489.618 319.216 487.162 330.837C485.94 336.664 484.82 342.526 483.767 348.387C483.224 351.262 482.7 354.143 482.195 357.033C481.543 359.966 481.104 362.942 480.882 365.938C480.884 368.781 481.779 371.552 483.439 373.859C484.978 376.19 517.794 427.959 518.846 428.887C518.925 428.955 518.846 429.068 518.722 429C514.354 425.357 481.64 373.203 480.724 370.747C479.858 368.115 479.698 365.302 480.26 362.589Z" fill="#020100"/>
<path d="M498.874 446.132C498.874 446.132 491.938 487.174 491.938 487.208C492.119 495.412 492.119 502.62 491.779 506.343C491.793 507.221 491.607 508.092 491.236 508.889V508.945C488.826 510.654 423.263 513.981 420.932 513.324C418.601 512.668 420.287 505.992 422.731 503.83C425.175 501.669 449.707 489.233 449.707 489.233L457.04 448.203L498.874 446.132Z" fill="#AD6359"/>
<path d="M420.875 513.381C423.195 514.038 488.769 510.711 491.168 509.002C491.168 509.002 491.168 509.002 491.225 508.945C491.604 508.151 491.79 507.279 491.768 506.399C491.773 506.377 491.773 506.354 491.768 506.332C492.119 502.62 492.096 495.423 491.926 487.208L493.126 480.068L451.02 481.55L449.708 489.222C449.708 489.222 425.175 501.726 422.708 503.933C420.242 506.139 418.533 512.736 420.875 513.381Z" fill="#EBEBEB"/>
<path d="M420.875 513.381C423.206 514.038 488.769 510.711 491.179 509.002C492.107 508.369 492.175 498.818 491.938 487.208C491.938 487.084 491.938 486.959 491.938 486.846L449.617 488.521V489.234C449.617 489.234 425.096 501.681 422.64 503.888C420.185 506.094 418.544 512.736 420.875 513.381Z" fill="#455A64"/>
<path d="M421.486 510.802C432.53 509.975 477.125 507.656 488.102 507.678C488.181 507.678 488.192 507.735 488.102 507.746C477.182 508.81 432.564 510.756 421.498 510.983C421.26 510.994 421.26 510.824 421.486 510.802Z" fill="#263238"/>
<path d="M446.109 489.54C450.42 488.51 455.773 488.906 459.247 491.803C459.382 491.916 459.247 492.108 459.077 492.074C454.856 490.935 450.522 490.259 446.154 490.06C446.101 490.043 446.054 490.011 446.019 489.967C445.984 489.924 445.963 489.871 445.958 489.815C445.953 489.759 445.965 489.704 445.992 489.655C446.019 489.606 446.06 489.566 446.109 489.54Z" fill="#263238"/>
<path d="M443.065 491.587C447.376 490.557 452.729 490.953 456.202 493.85C456.338 493.963 456.202 494.156 456.033 494.122C451.81 492.987 447.478 492.312 443.11 492.108C443.057 492.091 443.01 492.058 442.975 492.015C442.94 491.971 442.919 491.918 442.914 491.862C442.909 491.807 442.921 491.751 442.948 491.702C442.975 491.653 443.015 491.613 443.065 491.587Z" fill="#263238"/>
<path d="M440.021 493.647C444.332 492.606 449.685 493.014 453.159 495.91C453.294 496.024 453.159 496.205 452.989 496.171C448.765 495.042 444.433 494.367 440.066 494.157C440.012 494.142 439.964 494.112 439.928 494.069C439.892 494.026 439.87 493.974 439.865 493.918C439.86 493.862 439.872 493.806 439.9 493.758C439.928 493.709 439.97 493.671 440.021 493.647Z" fill="#263238"/>
<path d="M472.599 256.674C474.33 262.997 475.668 269.422 476.605 275.91C477.736 283.99 478.958 291.13 480.079 291.99C481.199 292.85 487.603 296.675 489.708 297.863C489.708 297.863 472.644 356.433 468.389 375.941C462.234 404.174 448.021 488.724 448.021 488.724L493.623 487.106C493.623 487.106 504.679 406.708 509.805 379.856C514.195 356.84 531.689 287.633 531.689 287.633C533.608 282.274 534.354 276.565 533.878 270.892C533.401 265.219 531.714 259.715 528.928 254.75C528.928 254.75 472.588 256.64 472.599 256.674Z" fill="#6D597A"/>
<path opacity="0.2" d="M449.402 479.785C456.576 479.503 454.505 479.48 461.679 479.276C465.187 479.163 488.237 478.518 491.519 478.993C491.598 478.993 491.598 479.129 491.519 479.14C488.249 479.752 465.187 480 461.679 480.034C454.516 480.102 456.565 480.034 449.402 480.034C449.369 480.034 449.337 480.021 449.314 479.998C449.29 479.975 449.277 479.943 449.277 479.91C449.277 479.877 449.29 479.845 449.314 479.822C449.337 479.799 449.369 479.785 449.402 479.785Z" fill="#020100"/>
<path opacity="0.2" d="M476.763 289.806C481.281 292.082 485.59 294.752 489.64 297.783C489.675 297.804 489.7 297.838 489.709 297.877C489.719 297.917 489.712 297.958 489.691 297.993C489.67 298.027 489.636 298.052 489.597 298.062C489.558 298.071 489.516 298.065 489.482 298.044C485.125 295.532 480.667 293.076 476.458 290.326C476.401 290.28 476.363 290.215 476.351 290.144C476.338 290.072 476.351 289.998 476.388 289.936C476.425 289.873 476.483 289.825 476.552 289.801C476.62 289.778 476.695 289.779 476.763 289.806Z" fill="#020100"/>
<path opacity="0.2" d="M479.128 258.179C479.128 258.031 479.445 258.02 479.422 258.179C478.808 263.306 478.453 268.461 478.359 273.624C478.291 276.012 478.63 289.308 482.885 288.844C483.586 288.776 484.016 288.142 484.254 287.113C484.395 285.757 484.372 284.389 484.186 283.039C484.062 280.255 484.016 277.46 484.118 274.666C484.251 269.461 484.926 264.284 486.132 259.22C486.141 259.192 486.158 259.167 486.181 259.15C486.205 259.132 486.233 259.123 486.263 259.123C486.292 259.123 486.32 259.132 486.344 259.15C486.367 259.167 486.384 259.192 486.393 259.22C485.417 266.343 484.982 273.53 485.091 280.719C485.193 284.182 486.302 289.512 482.681 289.602C479.06 289.693 477.668 280.855 477.51 278.456C477.175 271.656 477.719 264.84 479.128 258.179Z" fill="#020100"/>
<path opacity="0.2" d="M482.704 289.195C482.971 290.123 483.171 291.068 483.304 292.024C483.484 292.765 483.527 293.532 483.428 294.287C483.428 294.423 483.202 294.412 483.134 294.287C482.792 293.572 482.559 292.809 482.444 292.024C482.229 291.153 481.991 290.282 481.81 289.399C481.802 289.289 481.834 289.179 481.9 289.09C481.966 289.001 482.062 288.939 482.17 288.914C482.278 288.89 482.391 288.905 482.489 288.956C482.587 289.008 482.663 289.093 482.704 289.195Z" fill="#020100"/>
<path opacity="0.2" d="M496.226 464.961C496.305 463.83 496.407 462.766 496.52 461.669C496.735 459.575 496.996 457.482 497.233 455.388C497.709 451.168 498.263 446.97 498.829 442.771C499.96 434.398 501.33 426.036 502.778 417.719C503.604 413.011 504.589 408.36 505.63 403.698C505.697 403.382 506.15 403.517 506.105 403.834C505.516 408.078 504.973 412.332 504.272 416.564C503.57 420.796 502.902 425.006 502.246 429.227C500.945 437.578 499.757 445.94 498.455 454.291C498.093 456.656 497.765 459.021 497.403 461.374C497.233 462.506 497.041 463.728 496.837 464.894C496.634 466.059 496.328 467.225 496.181 468.401C496.181 468.503 496.011 468.458 496.023 468.401C496.158 467.225 496.102 466.082 496.226 464.961Z" fill="#020100"/>
<path opacity="0.2" d="M464.203 393.401C465.459 385.774 467.247 378.238 469.035 370.769C472.656 355.663 477.012 340.749 481.369 325.835C482.613 321.535 483.866 317.239 485.125 312.946C485.748 310.796 488.78 299.232 489.177 298.123C489.177 298.099 489.186 298.076 489.203 298.059C489.22 298.042 489.243 298.032 489.267 298.032C489.291 298.032 489.314 298.042 489.331 298.059C489.348 298.076 489.358 298.099 489.358 298.123C488.509 302.061 487.355 307.798 486.348 311.702C485.34 315.605 484.265 319.385 483.213 323.221C481.142 330.769 479.038 338.305 477.046 345.852C473.097 360.8 469.125 375.748 466.07 390.9C465.21 395.155 464.339 399.387 463.558 403.653C462.777 407.919 460.389 418.476 459.654 422.742C459.654 422.769 459.643 422.795 459.624 422.814C459.605 422.833 459.579 422.844 459.552 422.844C459.525 422.844 459.499 422.833 459.48 422.814C459.461 422.795 459.45 422.769 459.45 422.742C459.892 415.014 462.947 401.039 464.203 393.401Z" fill="#020100"/>
<path opacity="0.2" d="M493.94 431.976C495.943 417.458 498.467 402.997 501.273 388.615C504.079 374.232 507.35 359.782 510.959 345.502C514.569 331.221 518.62 317.054 523.022 303C525.251 296.375 527.083 289.622 528.51 282.779C529.777 275.99 530.286 268.668 528.51 261.924C528.055 260.212 527.472 258.537 526.767 256.911C526.767 256.798 526.88 256.696 526.937 256.81C532.866 269.393 529.8 283.503 526.066 296.245C524.029 303.226 521.822 310.163 519.808 317.156C517.749 324.33 515.784 331.535 513.913 338.769C510.201 353.095 506.795 367.5 503.796 381.995C500.798 396.49 498.195 411.054 495.966 425.685C493.737 440.316 491.926 455.106 490.093 469.816C489.856 471.728 489.686 473.652 489.505 475.576C489.505 475.689 489.324 475.689 489.335 475.576C490.546 461.012 491.938 446.483 493.94 431.976Z" fill="#020100"/>
<path d="M534.066 266.745C533.907 266.904 468.503 263.724 467.937 263.022C467.643 262.649 467.937 251.435 472.837 238.694C480.939 217.805 496.045 190.772 500.492 185.51C502.031 183.722 511.186 181.662 516.187 186.211C526.79 195.875 531.384 223.881 532.98 233.409C535.786 250.156 534.632 266.157 534.066 266.745Z" fill="#37474F"/>
<path d="M482.523 216.99L530.286 219.253C529.585 216.062 528.759 212.667 527.774 209.284L487.445 207.394C485.827 210.472 484.152 213.674 482.523 216.99Z" fill="#455A64"/>
<path d="M478.936 224.492L531.848 226.959C531.656 225.827 531.429 224.696 531.192 223.485L480.52 221.12C479.988 222.229 479.456 223.361 478.936 224.492Z" fill="#455A64"/>
<path d="M500.628 188.282C497.912 192.401 487.954 206.738 481.935 217.284C477.906 224.356 475.609 230.523 474.726 232.085C474.726 232.085 496.226 229.188 500.311 230.059C506.569 231.406 511.695 249.624 508.877 250.722C504.441 252.464 483.983 255.248 468.627 254.818C460.299 254.58 447.41 241.115 450.352 233.318C454.494 222.319 481.527 196.814 491.179 190.024C496.226 186.46 503.955 183.314 500.628 188.282Z" fill="#AD6359"/>
<path d="M448.768 235.446C447.376 243.718 456.123 252.827 461.974 254.479C472.078 257.319 504.747 255.033 504.747 255.033L497.788 229.437C497.788 229.437 475.349 231.995 474.772 232.085C475.088 231.519 484.446 213.278 488.135 207.36C488.339 207.032 488.554 206.704 488.769 206.342C489.821 204.712 491.236 202.562 492.797 200.243L495.457 196.305C499.338 190.579 503.095 185.148 503.095 185.148C499.451 184.955 495.581 186.053 488.577 190.805C481.572 195.558 451.077 221.788 448.768 235.446Z" fill="#37474F"/>
<path d="M485.974 230.84L492.764 255.734C489.629 255.836 486.155 255.938 482.636 255.972L476.084 231.971L485.974 230.84ZM490.206 230.353L497.086 255.519L500.606 255.338L493.658 229.946C492.628 230.025 491.451 230.149 490.206 230.297V230.353Z" fill="#455A64"/>
<path d="M498.059 248.006C497.595 246.184 497.12 244.373 496.645 242.551C496.17 240.73 495.706 238.987 495.23 237.21C494.671 235.376 494.206 233.514 493.839 231.632C493.839 231.632 493.839 231.632 493.907 231.632C494.603 233.317 495.192 235.044 495.672 236.803C496.2 238.599 496.713 240.409 497.211 242.235C497.709 244.011 498.161 245.799 498.603 247.587C499.111 249.444 499.489 251.335 499.734 253.245C499.734 253.263 499.727 253.28 499.714 253.293C499.701 253.306 499.684 253.313 499.666 253.313C499.648 253.313 499.631 253.306 499.618 253.293C499.605 253.28 499.598 253.263 499.598 253.245C498.993 251.527 498.48 249.778 498.059 248.006Z" fill="#263238"/>
<path d="M467.643 234.088L474.761 232.085C475.077 231.519 484.436 213.278 488.124 207.36C488.328 207.032 488.543 206.704 488.758 206.342C489.81 204.712 491.225 202.562 492.787 200.242L467.643 234.088Z" fill="#263238"/>
<path d="M461.747 235.751C463.826 234.824 465.961 234.03 468.14 233.375C469.219 233.031 470.314 232.744 471.422 232.515C472.554 232.266 473.81 232.164 474.975 231.915C475.066 231.915 475.1 232.04 474.975 232.051C473.844 232.288 472.803 232.707 471.716 233.024C470.63 233.341 469.453 233.669 468.322 233.975C466.115 234.563 463.92 235.231 461.713 235.842C461.736 235.864 461.702 235.774 461.747 235.751Z" fill="#263238"/>
<path d="M468.424 255.486L477.476 255.599C480.497 255.599 483.53 255.678 486.529 255.599C489.527 255.52 492.583 255.599 495.581 255.474C498.58 255.35 501.624 255.214 504.634 254.999C501.64 255.546 498.618 255.924 495.581 256.131C492.549 256.357 489.516 256.413 486.529 256.459C483.541 256.504 480.463 256.391 477.476 256.221C474.489 256.051 471.434 255.87 468.424 255.486Z" fill="#263238"/>
<path d="M467.643 234.088C469.238 234.461 476.265 232.594 478.053 235.22C485.476 246.32 486.393 243.672 488 245.121C500.379 256.323 520.363 266.858 527.095 268.375C537.28 270.638 543.243 262.977 543.299 254.502C543.413 237.743 528.589 201.804 520.589 191.371C516.357 185.849 515.327 192.571 515.915 200.243C516.255 204.769 517.047 211.559 517.998 218.167C518.801 224.085 521.019 239.271 521.041 239.667C521.041 239.667 521.041 239.667 520.928 239.667C520.498 239.486 509.613 231.169 498.15 225.398C494.099 223.361 485.51 219.853 482.002 220.588C481.409 220.698 480.846 220.931 480.349 221.272C479.852 221.613 479.432 222.055 479.117 222.569C477.966 222.365 476.78 222.523 475.722 223.021C474.917 223.626 474.352 224.496 474.127 225.477C473.15 225.525 472.201 225.817 471.366 226.326C470.076 227.253 470.438 229.72 470.438 229.72C467.337 230.048 467.643 234.088 467.643 234.088Z" fill="#AD6359"/>
<path d="M482.795 223.111C484.067 223.429 485.312 223.849 486.517 224.367C486.535 224.367 486.553 224.374 486.565 224.387C486.578 224.4 486.585 224.417 486.585 224.435C486.585 224.453 486.578 224.47 486.565 224.483C486.553 224.496 486.535 224.503 486.517 224.503C485.307 224.096 484.051 223.79 482.817 223.484C481.584 223.179 480.317 222.873 479.072 222.625C480.325 222.67 481.572 222.833 482.795 223.111Z" fill="#263238"/>
<path d="M474.082 225.51C476.415 225.289 478.768 225.587 480.973 226.382C480.991 226.382 481.008 226.389 481.021 226.402C481.034 226.414 481.041 226.432 481.041 226.45C481.041 226.468 481.034 226.485 481.021 226.498C481.008 226.51 480.991 226.517 480.973 226.517C478.734 225.906 476.425 225.586 474.104 225.567C474.104 225.567 474.059 225.51 474.082 225.51Z" fill="#263238"/>
<path d="M470.494 229.709C472.699 229.288 474.969 229.35 477.148 229.89C477.239 229.89 477.239 230.048 477.148 230.037C474.945 229.769 472.722 229.694 470.506 229.811L470.494 229.709Z" fill="#263238"/>
<path d="M498.716 225.714C499.754 226.123 500.77 226.588 501.759 227.106C502.812 227.626 503.853 228.169 504.86 228.758C506.868 229.953 508.81 231.256 510.676 232.662C510.744 232.662 510.676 232.831 510.597 232.775C508.639 231.575 506.648 230.421 504.656 229.278C503.672 228.724 502.699 228.147 501.726 227.57C500.752 226.993 499.666 226.438 498.693 225.85C498.591 225.804 498.636 225.691 498.716 225.714Z" fill="#263238"/>
<path d="M506.671 229.844C505.721 229.211 504.684 228.72 503.593 228.384L486.201 247.112C486.201 247.112 518.518 267.333 525.557 269.641C527.471 270.221 529.484 270.405 531.472 270.18C533.46 269.955 535.381 269.328 537.118 268.335C538.855 267.343 540.371 266.007 541.574 264.408C542.777 262.81 543.642 260.983 544.114 259.039C547.056 246.376 532.968 211.388 525.104 197.334C521.506 190.884 516.787 185.758 515.169 186.335C513.268 187.014 514.841 194.471 515.35 199.914C516.278 209.917 520.929 239.745 520.929 239.745C520.929 239.745 509.149 231.327 506.671 229.844Z" fill="#37474F"/>
<path d="M514.207 234.959L514.897 235.445C517.228 237.109 520.34 239.474 522.139 240.866L505.708 258.971C502.732 257.205 499.768 255.417 497.097 253.799L514.207 234.959ZM490.444 249.748L493.42 251.559L510.71 232.537C509.578 231.768 508.605 231.089 507.836 230.58L490.444 249.748Z" fill="#455A64"/>
<path d="M503.706 228.385C505.653 228.928 513.551 233.76 517.353 236.464C521.146 239.143 524.677 242.174 527.899 245.517C529.721 247.418 531.407 249.421 533.048 251.469C533.104 251.537 533.048 251.627 532.946 251.559C526.616 244.796 519.583 238.727 511.967 233.454C509.772 232.006 505.969 229.72 503.763 228.6C503.141 228.294 503.65 228.373 503.706 228.385Z" fill="#263238"/>
<path d="M516.187 211.411C516.538 212.395 516.889 213.369 517.149 214.376V214.512C516.923 212.309 516.726 210.098 516.56 207.881C516.56 207.745 516.775 207.722 516.798 207.881C518.156 216.164 519.276 224.492 520.306 232.775C520.6 235.106 520.793 237.437 521.008 239.768C521.008 239.786 521 239.803 520.988 239.816C520.975 239.829 520.958 239.836 520.94 239.836C520.922 239.836 520.904 239.829 520.892 239.816C520.879 239.803 520.872 239.786 520.872 239.768C520.442 237.709 520.012 235.66 519.672 233.59C519.333 231.519 519.039 229.437 518.744 227.366C518.231 223.73 517.775 220.09 517.375 216.446C517.149 215.779 516.911 215.1 516.708 214.421C516.402 213.437 516.198 212.418 515.983 211.411C515.983 211.384 515.994 211.358 516.013 211.339C516.032 211.32 516.058 211.309 516.085 211.309C516.112 211.309 516.138 211.32 516.157 211.339C516.176 211.358 516.187 211.384 516.187 211.411Z" fill="#263238"/>
<path d="M495.491 243.932C496.766 242.552 498.037 241.164 499.304 239.768C500.56 238.422 501.793 237.052 503.027 235.683C504.266 234.231 505.58 232.845 506.965 231.53C506.965 231.53 507.033 231.53 506.965 231.53C505.926 233.035 504.792 234.471 503.57 235.83C502.348 237.256 501.107 238.67 499.847 240.074C498.587 241.477 497.343 242.835 496.113 244.147C494.833 245.571 493.452 246.902 491.983 248.13C491.971 248.145 491.953 248.155 491.934 248.157C491.915 248.159 491.896 248.154 491.881 248.142C491.866 248.13 491.856 248.112 491.854 248.093C491.852 248.074 491.858 248.055 491.87 248.04C493.003 246.607 494.212 245.236 495.491 243.932Z" fill="#263238"/>
<path d="M485.68 247.044C487.185 245.2 489.278 243.503 490.919 241.794C490.987 241.726 491.078 241.794 491.021 241.896C489.516 243.514 488.068 245.29 486.597 246.954C490.987 249.986 495.649 252.872 500.243 255.678C504.837 258.485 509.601 261.336 514.422 263.939C517.115 265.398 519.797 266.915 522.524 268.307C522.694 268.386 522.614 268.522 522.433 268.454C517.471 266.278 512.645 263.803 507.983 261.042C503.197 258.304 498.523 255.384 493.884 252.397C491.281 250.722 485.556 247.203 485.68 247.044Z" fill="#263238"/>
<path d="M520.396 223.089C520.396 223.089 533.104 223.236 538.66 225.692C544.216 228.147 552.635 236.702 554.841 243.028C557.048 249.353 557.84 305.434 557.512 307.154C557.184 308.874 552.012 313.943 551.967 314.746C551.922 315.55 551.028 327.375 550.519 328.325C550.01 329.276 537.495 328.767 537.076 327.578C536.771 326.471 536.596 325.332 536.555 324.184C536.397 322.814 531.667 319.182 530.501 315.572C529.336 311.963 535.152 258.553 533.749 253.755C530.875 243.854 520.396 239.192 520.396 239.192V223.089Z" fill="#6D597A"/>
<path opacity="0.2" d="M520.396 223.089C520.396 223.089 533.104 223.236 538.66 225.692C544.216 228.147 552.635 236.702 554.841 243.028C557.048 249.353 557.84 305.434 557.512 307.154C557.184 308.874 552.012 313.943 551.967 314.746C551.922 315.55 551.028 327.375 550.519 328.325C550.01 329.276 537.495 328.767 537.076 327.578C536.771 326.471 536.596 325.332 536.555 324.184C536.397 322.814 531.667 319.182 530.501 315.572C529.336 311.963 535.152 258.553 533.749 253.755C530.875 243.854 520.396 239.192 520.396 239.192V223.089Z" fill="#020100"/>
<g opacity="0.1">
<path d="M555.532 310.23C553.936 312.165 552.001 314.259 551.967 314.757C551.469 308.488 551.617 275.299 551.967 273.466C552.341 271.983 554.615 299.039 555.532 310.23Z" fill="#020100"/>
<path d="M536.567 324.082C536.465 323.301 534.847 321.739 533.262 319.872C534.326 311.487 537.212 289.863 538.468 289.908C540.086 289.942 536.125 316.613 536.567 324.082Z" fill="#020100"/>
<path d="M554.57 262.264C552.737 264.233 553.903 277.28 554.57 277.167C555.238 277.054 555.543 261.223 554.57 262.264Z" fill="#020100"/>
</g>
<path d="M499.032 225.804C504.665 228.722 510.135 231.945 515.418 235.457L515.655 235.604C518.405 237.437 520.08 238.716 520.51 238.885H520.611C520.944 238.738 521.294 238.632 521.653 238.568C522.569 238.455 530.943 239.202 531.282 236.634C531.622 234.065 528.272 233.533 527.774 233.454C528.329 233.454 532.968 233.375 532.006 230.863C531.327 229.075 526.903 228.35 526.462 228.271C526.937 228.271 531.282 227.785 530.377 225.227C529.732 223.394 524.798 222.545 524.21 222.523C524.708 222.444 528.453 222.625 527.186 220.26C526.303 218.653 516.809 217.997 512.272 219.185C505.528 220.916 499.032 225.804 499.032 225.804Z" fill="#AD6359"/>
<path d="M515.418 235.457L515.656 235.604C519.448 234.103 523.506 233.391 527.582 233.511C527.843 233.511 527.899 233.386 527.582 233.341C523.407 232.786 519.161 233.525 515.418 235.457Z" fill="#263238"/>
<path d="M526.224 228.351C520.182 228.249 517.285 228.962 511.604 231.044C511.525 231.044 511.468 230.953 511.548 230.919C516.957 228.453 520.216 227.355 526.258 228.192C526.473 228.238 526.496 228.362 526.224 228.351Z" fill="#263238"/>
<path d="M524.006 222.557C518.122 222.828 514.954 223.473 509.647 226.121C509.636 226.132 509.622 226.14 509.608 226.145C509.593 226.15 509.578 226.152 509.562 226.15C509.547 226.148 509.532 226.142 509.52 226.134C509.507 226.125 509.496 226.114 509.488 226.101C509.48 226.088 509.475 226.073 509.474 226.058C509.472 226.042 509.475 226.027 509.48 226.012C509.486 225.998 509.494 225.985 509.505 225.974C509.517 225.964 509.53 225.956 509.545 225.951C513.776 223.072 518.899 221.807 523.984 222.387C524.391 222.421 524.391 222.534 524.006 222.557Z" fill="#263238"/>
<path d="M499.497 197.855C503.333 199.269 511.763 193.645 515.022 189.074C515.248 188.768 515.157 185.17 515.248 180.79C515.327 178.143 515.463 175.133 515.78 172.496L498.444 174.578C499.005 178.049 499.138 181.576 498.84 185.079C498.795 185.464 498.711 185.843 498.591 186.211C498.591 186.211 498.591 186.324 498.591 186.392C497.946 188.406 495.785 196.497 499.497 197.855Z" fill="#AD6359"/>
<path d="M498.591 186.177C498.589 186.234 498.589 186.291 498.591 186.347C499.155 186.497 499.73 186.599 500.311 186.653C510.088 187.603 513.811 175.948 514.66 172.644L510.326 173.164L498.49 174.579C499.05 178.05 499.179 181.577 498.874 185.08C498.819 185.455 498.724 185.822 498.591 186.177Z" fill="#263238"/>
<path d="M519.027 153.067C520.159 159.392 514.818 176.615 509.975 180.021C502.993 184.966 492.639 184.264 488.701 176.128C484.899 168.207 492.254 145.904 497.527 142.917C505.335 138.515 517.364 143.709 519.027 153.067Z" fill="#AD6359"/>
<path d="M500.401 162.029C500.401 162.029 500.481 162.109 500.458 162.154C500.073 163.285 499.813 164.688 500.752 165.401V165.458C499.496 164.892 499.847 163.059 500.401 162.029Z" fill="#263238"/>
<path d="M501.816 161.125C503.729 161.555 502.733 165.345 500.956 164.949C499.18 164.553 500.209 160.774 501.816 161.125Z" fill="#263238"/>
<path d="M493.895 160.208C493.895 160.208 493.793 160.208 493.782 160.287C493.51 161.419 493.001 162.777 491.835 162.89V162.958C493.171 163.116 493.838 161.374 493.895 160.208Z" fill="#263238"/>
<path d="M493.171 158.702C491.316 158.057 490.173 161.814 491.893 162.403C493.613 162.991 494.722 159.234 493.171 158.702Z" fill="#263238"/>
<path d="M503.762 159.789C503.287 159.517 502.88 159.2 502.427 158.884C501.975 158.567 501.488 158.307 501.296 157.752C501.246 157.575 501.257 157.387 501.327 157.216C501.396 157.046 501.521 156.904 501.68 156.813C502.021 156.677 502.391 156.634 502.753 156.69C503.116 156.746 503.456 156.897 503.74 157.13C504.388 157.51 504.868 158.12 505.086 158.838C505.126 159.008 505.114 159.186 505.053 159.349C504.991 159.512 504.883 159.654 504.741 159.755C504.6 159.857 504.431 159.914 504.257 159.92C504.083 159.926 503.911 159.881 503.762 159.789Z" fill="#263238"/>
<path d="M492.209 156.406C492.744 156.44 493.281 156.44 493.816 156.406C494.382 156.49 494.959 156.383 495.457 156.1C495.598 155.984 495.696 155.824 495.735 155.645C495.774 155.467 495.751 155.28 495.672 155.116C495.466 154.813 495.184 154.571 494.854 154.414C494.523 154.257 494.157 154.191 493.793 154.222C493.043 154.168 492.3 154.398 491.711 154.867C491.583 154.981 491.49 155.129 491.445 155.295C491.4 155.461 491.404 155.636 491.457 155.799C491.51 155.962 491.609 156.107 491.742 156.215C491.876 156.322 492.038 156.389 492.209 156.406Z" fill="#263238"/>
<path d="M498.987 173.051C498.636 173.255 498.252 173.56 497.856 173.481C497.44 173.352 497.056 173.14 496.724 172.859C496.724 172.859 496.645 172.859 496.656 172.859C496.764 173.134 496.944 173.374 497.177 173.555C497.41 173.737 497.687 173.852 497.98 173.888C498.237 173.886 498.487 173.809 498.7 173.666C498.913 173.524 499.08 173.321 499.18 173.085C499.123 173.13 499.044 173.017 498.987 173.051Z" fill="#263238"/>
<path d="M498.682 169.203C498.264 169.599 497.769 169.904 497.227 170.099C496.686 170.293 496.11 170.374 495.536 170.335C495.041 170.297 494.553 170.19 494.087 170.018C493.992 169.998 493.901 169.964 493.816 169.916L493.567 169.814C493.51 169.782 493.464 169.734 493.434 169.675C493.403 169.617 493.391 169.551 493.397 169.486V169.373V169.271C493.612 168.355 494.065 167.008 494.065 167.008C493.691 167.087 491.802 167.404 491.949 166.929C493.131 162.879 494.719 158.959 496.69 155.228C496.747 155.104 496.939 155.228 496.894 155.319C495.83 159.064 494.11 162.606 492.979 166.352C493.651 166.238 494.336 166.211 495.015 166.273C495.14 166.352 494.099 168.875 494.042 169.294C494.771 169.568 495.548 169.691 496.326 169.656C497.104 169.621 497.867 169.428 498.568 169.09C498.704 169.034 498.772 169.135 498.682 169.203Z" fill="#263238"/>
<path d="M494.642 169.928C495.011 170.667 495.564 171.298 496.249 171.761C496.63 172.002 497.078 172.117 497.528 172.089C498.512 172.021 498.659 171.173 498.659 170.403C498.64 169.996 498.572 169.594 498.455 169.204C497.296 169.85 495.958 170.104 494.642 169.928Z" fill="#263238"/>
<path d="M496.249 171.761C496.63 172.002 497.078 172.116 497.528 172.089C498.512 172.021 498.659 171.172 498.659 170.403C498.164 170.331 497.659 170.425 497.223 170.671C496.786 170.916 496.444 171.3 496.249 171.761Z" fill="#FF98B9"/>
<path d="M516.9 169.158C517.636 167.642 524.912 151.212 524.821 149.254C524.719 147.478 522.728 147.828 522.716 147.727C522.705 147.625 522.931 146.063 522.071 145.305C521.767 145.107 521.425 144.973 521.067 144.913C520.709 144.853 520.342 144.867 519.989 144.954C519.989 144.954 519.989 143.268 519.039 142.691C518.719 142.511 518.359 142.416 517.992 142.416C517.625 142.416 517.265 142.511 516.945 142.691C516.931 142.237 516.806 141.794 516.582 141.399C516.357 141.005 516.039 140.671 515.655 140.428C515.305 140.256 514.909 140.202 514.526 140.273C514.143 140.344 513.793 140.538 513.528 140.824C513.528 140.824 513.381 139.172 512.397 138.674C511.412 138.176 510.235 139.161 510.235 139.161C510.235 139.161 509.896 137.633 508.594 137.373C508.176 137.333 507.755 137.419 507.386 137.621C507.016 137.823 506.716 138.13 506.524 138.504C506.524 138.504 506.003 136.988 504.781 136.728C503.559 136.467 502.857 137.859 502.857 137.859C502.857 137.859 502.608 136.411 501.443 136.286C500.277 136.162 499.7 137.723 499.7 137.723C499.7 137.723 499.327 136.105 497.89 136.298C495.683 136.592 493.59 146.482 492.323 150.759C492.323 150.759 493.284 148.79 494.178 148.881C495.072 148.971 495.491 150.488 497.064 151.144C499.327 152.094 503.74 150.012 506.852 151.348C509.964 152.683 511.604 156.326 511.831 161.532C512.034 167.314 515.146 172.745 516.9 169.158Z" fill="#263238"/>
<path d="M497.018 162.946C496.89 164.076 497.132 165.217 497.707 166.199C498.283 167.18 499.161 167.948 500.209 168.389C500.613 168.568 501.039 168.69 501.477 168.751C502.452 168.898 503.45 168.768 504.356 168.376C505.261 167.984 506.039 167.346 506.6 166.534C507.161 165.722 507.482 164.769 507.528 163.783C507.575 162.797 507.343 161.818 506.86 160.957C506.378 160.097 505.663 159.389 504.798 158.914C503.933 158.439 502.952 158.217 501.967 158.272C500.981 158.327 500.031 158.657 499.225 159.226C498.418 159.794 497.787 160.577 497.403 161.486C497.204 161.951 497.074 162.443 497.018 162.946ZM498.048 161.814C498.437 160.875 499.131 160.095 500.017 159.598C500.904 159.101 501.932 158.917 502.936 159.076C503.326 159.126 503.706 159.229 504.068 159.382C504.886 159.736 505.581 160.324 506.066 161.072C506.551 161.82 506.805 162.695 506.794 163.586C506.784 164.478 506.511 165.347 506.009 166.083C505.507 166.82 504.799 167.392 503.973 167.728C503.147 168.064 502.24 168.148 501.366 167.97C500.493 167.793 499.691 167.361 499.062 166.729C498.433 166.098 498.004 165.294 497.83 164.42C497.655 163.545 497.743 162.639 498.082 161.814H498.048Z" fill="#6D597A"/>
<path d="M500.481 167.789C501.034 168.023 501.627 168.145 502.227 168.149C502.827 168.153 503.422 168.039 503.978 167.813C504.534 167.587 505.04 167.254 505.467 166.832C505.894 166.411 506.234 165.909 506.467 165.357C506.7 164.804 506.823 164.21 506.827 163.61C506.831 163.01 506.716 162.416 506.491 161.86C506.265 161.304 505.931 160.798 505.51 160.371C505.089 159.944 504.587 159.604 504.034 159.371C503.673 159.218 503.292 159.115 502.903 159.065C501.746 158.739 500.507 158.887 499.459 159.475C498.41 160.062 497.638 161.043 497.313 162.199C496.987 163.356 497.134 164.595 497.722 165.644C498.31 166.692 499.29 167.464 500.447 167.789H500.481Z" fill="#263238"/>
<path d="M489.471 165.469C489.581 165.503 489.695 165.526 489.81 165.537C491.813 165.843 493.929 164.066 494.653 161.418C495.019 160.156 494.983 158.812 494.551 157.571C494.377 157.043 494.082 156.563 493.689 156.17C493.296 155.777 492.816 155.482 492.288 155.308C491.742 155.177 491.173 155.181 490.629 155.319C490.085 155.457 489.582 155.725 489.165 156.1C488.15 156.943 487.432 158.089 487.117 159.37C486.302 162.154 487.377 164.892 489.471 165.469ZM487.751 159.551C488.042 158.417 488.679 157.401 489.572 156.643C489.878 156.371 490.237 156.166 490.627 156.042C491.017 155.917 491.429 155.875 491.836 155.919C491.921 155.933 492.004 155.956 492.084 155.987C492.516 156.124 492.908 156.363 493.228 156.684C493.547 157.005 493.784 157.399 493.918 157.831C494.291 158.928 494.319 160.113 493.997 161.226C493.341 163.659 491.394 165.255 489.674 164.791C487.954 164.327 487.049 161.962 487.751 159.551Z" fill="#6D597A"/>
<path d="M489.651 164.791C491.371 165.255 493.318 163.659 493.974 161.226C494.296 160.113 494.268 158.928 493.895 157.832C493.761 157.399 493.524 157.005 493.205 156.684C492.886 156.363 492.493 156.124 492.062 155.987C491.981 155.956 491.898 155.934 491.813 155.919C491.406 155.875 490.994 155.917 490.605 156.042C490.215 156.167 489.855 156.371 489.55 156.644C488.656 157.401 488.019 158.417 487.728 159.552C487.049 161.962 487.943 164.327 489.651 164.791Z" fill="#263238"/>
<path d="M497.414 162.165L497.991 161.758C497.392 160.898 495.853 159.495 494.246 160.536L494.608 161.135C496.102 160.241 497.358 162.086 497.414 162.165Z" fill="#6D597A"/>
<path d="M519.717 169.735L520.408 169.588C520.34 169.26 519.695 166.42 518.246 165.764C516.798 165.107 507.542 163.501 507.146 163.433L507.021 164.134C509.703 164.598 516.911 165.922 517.952 166.397C518.993 166.873 519.559 168.898 519.717 169.735Z" fill="#6D597A"/>
<path d="M512.996 166.907C512.996 166.907 517.771 161.792 520.148 163.569C522.524 165.345 518.382 173.164 515.191 173.866C514.787 173.983 514.363 174.017 513.946 173.966C513.528 173.915 513.125 173.779 512.761 173.567C512.397 173.356 512.08 173.073 511.828 172.735C511.577 172.397 511.397 172.012 511.299 171.603L512.996 166.907Z" fill="#AD6359"/>
<path d="M518.903 165.775V165.866C516.64 166.42 515.259 168.231 514.196 170.166C514.348 169.97 514.54 169.81 514.761 169.696C514.981 169.582 515.223 169.518 515.471 169.507C515.718 169.496 515.965 169.539 516.195 169.633C516.424 169.728 516.63 169.871 516.798 170.052C516.809 170.063 516.816 170.077 516.818 170.092C516.82 170.107 516.817 170.123 516.809 170.136C516.801 170.149 516.789 170.159 516.775 170.164C516.76 170.17 516.745 170.17 516.73 170.166C516.374 169.992 515.972 169.934 515.581 169.998C515.189 170.063 514.828 170.248 514.546 170.528C514.08 170.998 513.666 171.518 513.313 172.078C513.188 172.248 512.86 172.078 512.962 171.897C513.324 169.136 515.961 165.639 518.903 165.775Z" fill="#263238"/>
<path d="M211.66 510.236C209.193 511.017 139.07 509.727 136.433 507.973C135.415 507.328 135.007 497.099 134.872 484.719C134.872 484.595 133.955 439.015 133.955 439.015L178.833 439.717L180.089 485.443C180.089 485.443 206.704 497.947 209.408 500.154C212.112 502.36 214.115 509.467 211.66 510.236Z" fill="#D3766A"/>
<path d="M134.589 470.483C134.747 478.404 134.872 484.684 134.872 484.741C135.008 497.109 135.426 507.372 136.422 507.983C139.07 509.726 209.193 511.016 211.649 510.246C214.104 509.477 212.079 502.404 209.386 500.187C206.692 497.969 180.067 485.476 180.067 485.476L179.671 470.766L134.589 470.483Z" fill="#DBDBDB"/>
<path d="M190.692 490.286C190.511 490.286 190.409 490.184 190.397 490.127L190.692 490.286Z" fill="#6D597A"/>
<path d="M211.807 510.179C210.2 510.688 180.36 510.439 158.623 509.737C153.599 509.568 149.005 509.375 145.305 509.172C140.19 508.877 136.761 508.549 136.252 508.187C135.03 507.384 134.623 492.345 134.532 476.583L180.36 477.126L180.021 485.386C180.021 485.386 206.805 497.833 209.521 500.097C212.237 502.36 214.274 509.387 211.807 510.179Z" fill="#6D597A"/>
<path d="M210.834 507.349C199.031 506.886 151.392 506.127 139.681 506.569C139.59 506.569 139.59 506.637 139.681 506.637C151.37 507.361 199.02 507.768 210.834 507.542C211.083 507.542 211.083 507.361 210.834 507.349Z" fill="#263238"/>
<path d="M181.707 482.795C177.068 481.855 171.376 482.489 167.778 485.748C167.642 485.872 167.778 486.065 167.97 486.02C172.431 484.656 177.025 483.772 181.673 483.383C181.751 483.387 181.828 483.361 181.886 483.309C181.945 483.257 181.98 483.184 181.984 483.106C181.989 483.028 181.962 482.951 181.91 482.893C181.858 482.834 181.785 482.799 181.707 482.795Z" fill="#263238"/>
<path d="M185.034 484.866C180.394 483.927 174.703 484.56 171.104 487.819C170.968 487.944 171.104 488.136 171.297 488.091C175.756 486.718 180.35 485.83 185 485.443C185.068 485.434 185.131 485.402 185.177 485.352C185.224 485.302 185.252 485.237 185.256 485.168C185.26 485.1 185.24 485.032 185.199 484.977C185.159 484.922 185.1 484.883 185.034 484.866Z" fill="#263238"/>
<path d="M188.316 486.936C183.687 485.997 177.996 486.631 174.397 489.89C174.25 490.014 174.397 490.206 174.59 490.161C179.056 488.79 183.659 487.906 188.316 487.525C188.394 487.525 188.468 487.494 188.524 487.438C188.579 487.383 188.61 487.308 188.61 487.23C188.61 487.152 188.579 487.077 188.524 487.022C188.468 486.967 188.394 486.936 188.316 486.936Z" fill="#263238"/>
<path d="M191.71 489.007C187.082 488.068 181.39 488.701 177.78 491.96C177.644 492.085 177.78 492.277 177.984 492.232C182.45 490.859 187.053 489.975 191.71 489.595C191.788 489.595 191.863 489.564 191.918 489.509C191.973 489.454 192.004 489.379 192.004 489.301C192.004 489.223 191.973 489.148 191.918 489.093C191.863 489.038 191.788 489.007 191.71 489.007Z" fill="#263238"/>
<path d="M120.671 236.939C120.671 236.939 131.466 355.754 133.118 364.806C133.503 366.877 133.559 480.996 133.559 480.996L181.436 480.52C181.436 480.52 177.306 382.334 175.212 364.252C173.119 346.169 163.455 237.143 163.455 237.143L120.671 236.939Z" fill="#263238"/>
<path d="M135.132 471.049C136.565 470.86 138.009 470.761 139.454 470.754C140.891 470.754 142.328 470.63 143.777 470.585C146.606 470.483 149.435 470.37 152.275 470.29C158.046 470.121 163.817 469.962 169.577 469.781C172.824 469.679 176.083 469.691 179.331 469.781C179.351 469.788 179.368 469.801 179.38 469.818C179.392 469.836 179.399 469.856 179.399 469.877C179.399 469.899 179.392 469.919 179.38 469.936C179.368 469.954 179.351 469.967 179.331 469.974C167.857 471.105 156.258 471.252 144.727 471.479L139.782 471.535C138.22 471.603 136.655 471.569 135.098 471.433C134.86 471.365 134.928 471.071 135.132 471.049Z" fill="#37474F"/>
<path d="M127.109 242.212C130.504 271.192 133.785 300.171 136.512 329.218C137.87 343.623 139.137 358.051 139.964 372.501C140.79 386.951 141.095 401.639 141.186 416.213C141.321 432.7 141.627 449.198 141.276 465.674C141.276 465.707 141.263 465.739 141.24 465.762C141.216 465.785 141.185 465.799 141.152 465.799C141.119 465.799 141.087 465.785 141.064 465.762C141.04 465.739 141.027 465.707 141.027 465.674C139.749 436.536 140.314 407.342 138.934 378.204C137.553 349.066 134.532 320.019 131.488 290.994C129.779 274.756 128.184 258.507 126.588 242.257C126.566 241.974 127.075 241.918 127.109 242.212Z" fill="#37474F"/>
<path d="M112.942 515.191C110.362 515.383 42.4677 497.776 40.3177 495.468C39.4803 494.596 41.4493 484.559 44.2216 472.497L44.3121 472.112C44.8666 469.623 59.4186 427.856 59.4186 427.856L103.448 439.455L88.217 482.986L88.002 483.722C88.002 483.722 110.973 502.087 113.078 504.882C115.182 507.677 115.522 515.021 112.942 515.191Z" fill="#D3766A"/>
<path d="M40.3175 495.457C42.4675 497.72 110.362 515.384 112.93 515.192C115.499 514.999 115.193 507.667 113.1 504.872C111.007 502.077 88.0244 483.723 88.0244 483.723L88.2394 482.987L92.7091 470.212C84.1544 467.406 62.1567 461.793 48.8382 458.466C46.4393 465.527 44.5043 471.242 44.3119 472.113C44.3119 472.249 44.244 472.373 44.2214 472.498C41.4717 484.549 39.4801 494.597 40.3175 495.457Z" fill="#DBDBDB"/>
<path d="M113.044 515.509C111.358 515.61 82.4913 508.176 61.5573 502.247C56.7255 500.866 52.3124 499.576 48.7706 498.478C43.8822 496.962 40.6346 495.819 40.182 495.344C39.1862 494.212 42.4451 479.615 46.134 464.249L90.4688 475.836L88.2057 483.757C88.2057 483.757 111.188 502.314 113.293 505.132C115.397 507.95 115.624 515.328 113.044 515.509Z" fill="#6D597A"/>
<path d="M112.783 512.532C101.468 509.228 55.3901 496.996 43.9274 494.597C43.8255 494.597 43.8142 494.597 43.9274 494.665C55.0959 498.184 101.253 510.043 112.749 512.77C112.976 512.77 113.021 512.6 112.783 512.532Z" fill="#263238"/>
<path d="M90.4348 481.663C86.1688 479.637 80.4884 478.879 76.211 481.165C76.0526 481.256 76.211 481.493 76.3355 481.482C80.9958 481.233 85.6694 481.483 90.2764 482.229C90.3499 482.245 90.4268 482.233 90.4914 482.194C90.556 482.155 90.6032 482.093 90.6235 482.021C90.6438 481.948 90.6356 481.871 90.6005 481.804C90.5654 481.738 90.5061 481.687 90.4348 481.663Z" fill="#263238"/>
<path d="M93.162 484.48C88.896 482.444 83.2155 481.685 78.9382 483.983C78.7685 484.073 78.9382 484.299 79.0627 484.299C83.7188 484.046 88.3887 484.293 92.9923 485.035C93.0611 485.044 93.1308 485.028 93.189 484.99C93.2473 484.952 93.2904 484.895 93.3107 484.829C93.331 484.763 93.3272 484.691 93.3 484.628C93.2728 484.564 93.2239 484.512 93.162 484.48Z" fill="#263238"/>
<path d="M95.8891 487.287C91.6231 485.262 85.9426 484.503 81.6652 486.789C81.4955 486.88 81.6652 487.117 81.7897 487.106C86.4463 486.856 91.1161 487.107 95.7193 487.853C95.7943 487.875 95.8752 487.867 95.9442 487.83C96.0132 487.793 96.0646 487.73 96.0871 487.655C96.1096 487.58 96.1014 487.499 96.0642 487.43C96.0271 487.361 95.9641 487.31 95.8891 487.287Z" fill="#263238"/>
<path d="M98.6163 490.094C94.3503 488.068 88.6699 487.31 84.3925 489.607C84.2228 489.686 84.3925 489.924 84.517 489.912C89.1736 489.669 93.8428 489.919 98.4466 490.659C98.5216 490.682 98.6025 490.674 98.6715 490.636C98.7405 490.599 98.7919 490.536 98.8144 490.461C98.8369 490.386 98.8287 490.305 98.7915 490.236C98.7544 490.167 98.6914 490.116 98.6163 490.094Z" fill="#263238"/>
<path d="M92.5056 479.593L44.0745 467.643C44.0745 467.643 80.8844 373.35 82.9665 367.024C84.4828 362.43 96.8169 306.304 101.173 281.772C101.173 281.772 94.9498 263.825 109.253 236.837L163.478 237.132C163.478 237.132 162.063 262.875 155.466 279.169C151.086 280.668 146.852 282.561 142.815 284.827C142.815 284.827 126.815 372.626 124.212 380.626C118.6 397.961 92.5056 479.593 92.5056 479.593Z" fill="#263238"/>
<path d="M133.932 331.855C135.946 321.512 137.946 311.166 139.93 300.816C140.484 297.896 141.061 295 141.74 292.092C142.419 289.183 142.872 286.241 143.743 283.412C143.743 283.367 143.761 283.324 143.793 283.292C143.825 283.261 143.868 283.243 143.913 283.243C143.958 283.243 144.001 283.261 144.033 283.292C144.065 283.324 144.082 283.367 144.082 283.412C143.913 286.06 143.415 288.686 143.041 291.333C142.668 293.981 142.283 296.437 141.842 298.971C140.925 304.188 139.918 309.382 138.911 314.576C136.874 324.952 134.849 335.351 132.382 345.626C130.99 351.408 129.689 357.225 128.229 362.984C128.229 363.109 128.014 363.052 128.037 362.928C129.904 352.574 131.918 342.209 133.932 331.855Z" fill="#37474F"/>
<path d="M145.678 271.961C144.954 270.15 145.553 268.068 145.893 266.235C146.323 263.904 146.741 261.584 147.183 259.253C148.179 254.014 149.276 248.786 150.43 243.57C150.43 243.513 150.532 243.57 150.532 243.57C149.989 247.741 149.404 251.909 148.778 256.073C148.145 260.249 147.319 264.413 146.787 268.611C146.606 269.969 146.708 272.64 148.676 272.662C150.329 272.662 151.347 270.207 151.89 268.985C153.497 265.352 154.153 261.347 154.991 257.499C155.975 252.882 156.778 248.232 157.616 243.592C157.616 243.434 157.899 243.479 157.887 243.592C157.554 248.201 156.987 252.79 156.19 257.341C155.455 261.686 154.753 266.246 152.897 270.275C152.207 271.78 151.234 273.669 149.502 274.111C149.255 274.175 149 274.202 148.744 274.19C148.592 275.578 148.365 276.956 148.065 278.32C147.8 279.755 147.422 281.166 146.934 282.541C146.926 282.583 146.902 282.62 146.867 282.645C146.832 282.669 146.789 282.678 146.747 282.671C146.705 282.663 146.668 282.64 146.643 282.605C146.619 282.57 146.609 282.526 146.617 282.484C146.733 281.056 146.953 279.638 147.273 278.241C147.551 276.865 147.902 275.505 148.326 274.167C147.733 274.054 147.179 273.793 146.716 273.407C146.253 273.021 145.896 272.523 145.678 271.961Z" fill="#37474F"/>
<path d="M136.512 285.461C139.28 284.225 142.17 283.285 145.135 282.655C147.992 282.064 150.889 281.685 153.803 281.523C153.905 281.523 153.927 281.704 153.803 281.715C150.895 282.157 139.42 284.906 136.546 285.608C136.49 285.619 136.444 285.495 136.512 285.461Z" fill="#37474F"/>
<path d="M64.9746 433.391C67.5999 426.511 70.2402 419.635 72.8956 412.762C78.1348 399.127 83.5097 385.548 88.7376 371.901C93.8862 358.424 96.1267 344.076 98.9783 329.965C100.427 322.784 101.875 315.594 103.323 308.398C104.772 301.269 106.514 294.14 107.386 286.898C108.234 279.837 107.216 272.753 107.872 265.692C108.469 259.38 110.19 253.226 112.953 247.519C113.655 246.071 114.435 244.668 115.273 243.299C115.363 243.14 115.601 243.299 115.51 243.457C110.663 252.291 108.268 262.262 108.574 272.335C108.642 275.91 108.879 279.475 108.687 283.039C108.314 290.179 106.616 297.195 105.213 304.166C103.81 311.136 102.328 318.412 100.891 325.53C99.4535 332.647 97.9712 339.912 96.5228 347.097C95.2587 354.12 93.535 361.053 91.3628 367.85C89.0997 374.64 86.35 381.293 83.77 387.981C81.1221 394.853 78.4818 401.722 75.849 408.587C70.5306 422.256 65.3141 435.982 59.7694 449.549C59.1131 451.134 58.4568 452.695 57.7552 454.257C57.6647 454.46 57.3365 454.257 57.4044 454.087C59.6223 447.071 62.372 440.18 64.9746 433.391Z" fill="#37474F"/>
<path d="M49.6868 457.527C51.1132 457.76 52.5231 458.085 53.9076 458.5C55.3107 458.862 56.7025 459.213 58.0944 459.632C60.8328 460.367 63.5825 461.08 66.3096 461.827L83.0228 466.353C86.1686 467.19 89.2691 468.152 92.3582 469.137C92.3782 469.144 92.3955 469.157 92.4078 469.174C92.42 469.191 92.4266 469.212 92.4266 469.233C92.4266 469.254 92.42 469.275 92.4078 469.292C92.3955 469.309 92.3782 469.322 92.3582 469.329C81.0426 467.066 69.9079 463.852 58.8186 460.707C57.2231 460.265 55.6389 459.801 54.066 459.326C52.5495 458.942 51.0601 458.459 49.6076 457.878C49.3587 457.753 49.5171 457.504 49.6868 457.527Z" fill="#37474F"/>
<path d="M159.03 193.725C173.922 219.174 186.12 233.329 193.656 232.741C201.951 232.141 222.41 209.6 232.481 197.538C233.884 195.863 211.705 179.082 209.962 180.825C203.094 187.716 192.491 203.298 189.73 204.373C187.942 205.074 181.424 198.353 168.06 187.954C156.134 178.663 152.399 182.386 159.03 193.725Z" fill="#D3766A"/>
<path d="M231.383 198.714C233.997 196.451 243.027 187.105 247.146 178.969C249.137 175.031 253.686 163.127 250.778 161.339C247.87 159.551 246.252 162.934 246.252 162.934C246.252 162.934 247.383 157.616 244.328 156.145C241.273 154.674 238.863 159.958 238.863 159.958C238.863 159.958 239.655 154.402 236.475 153.169C233.295 151.935 231.79 157.639 231.79 157.639C231.79 157.639 232.752 152.592 229.686 152.637C225.985 152.637 225.261 162.199 222.828 166.453C222.274 167.415 210.257 185.204 210.257 185.204L231.383 198.714Z" fill="#D3766A"/>
<path d="M231.689 157.593C231.134 164.586 229.686 167.551 225.556 173.084C225.476 173.186 225.612 173.333 225.714 173.231C230.24 168.185 232.605 164.733 232.028 157.605C232.005 157.288 231.711 157.288 231.689 157.593Z" fill="#263238"/>
<path d="M238.953 159.641C237.742 166.849 236.204 170.086 232.3 176.185C232.243 176.275 232.379 176.377 232.447 176.298C236.781 170.64 239.044 167.121 239.304 159.766C239.315 159.426 239.01 159.313 238.953 159.641Z" fill="#263238"/>
<path d="M246.105 163.523C244.43 170.425 242.891 174.035 238.331 179.478C238.229 179.602 238.41 179.772 238.523 179.659C243.706 174.556 245.664 170.063 246.309 163.602C246.354 163.161 246.207 163.093 246.105 163.523Z" fill="#263238"/>
<path d="M210.664 185.158C210.664 185.158 209.091 176.513 209.238 172.564C209.385 168.615 215.349 154.097 218.562 155.206C222.704 156.631 220.905 165.695 219.456 170.018C219.456 170.018 229.041 173.322 229.165 180.111C229.29 186.901 210.664 185.158 210.664 185.158Z" fill="#D3766A"/>
<path d="M219.569 155.975C222.398 160.004 220.124 165.56 219.026 169.86C219.006 169.922 219 169.988 219.012 170.052C219.023 170.117 219.05 170.178 219.09 170.229C219.13 170.281 219.183 170.322 219.243 170.348C219.303 170.374 219.368 170.385 219.434 170.38C223.36 172.032 228.418 175.506 229.358 179.908C229.358 179.935 229.368 179.961 229.387 179.98C229.406 179.999 229.432 180.01 229.459 180.01C229.486 180.01 229.512 179.999 229.531 179.98C229.551 179.961 229.561 179.935 229.561 179.908C229.199 175.053 224.503 171.229 220.09 169.724C221.289 165.333 223.326 159.664 219.603 155.998C219.581 155.919 219.547 155.941 219.569 155.975Z" fill="#263238"/>
<path d="M198.5 192.65L222.625 213.12C222.625 213.12 199.631 235.23 191.54 233.228C183.45 231.225 168.128 210.868 158.781 194.969C149.435 179.071 158.996 180.157 167.347 186.618C175.698 193.08 187.263 204.78 189.028 204.248C190.794 203.716 198.5 192.65 198.5 192.65Z" fill="#37474F"/>
<path d="M195.874 194.414L220.022 217.17L225.125 212.169L199.461 188.553L195.874 194.414Z" fill="#455A64"/>
<path d="M201.894 229.708C197.775 232.232 193.973 233.827 191.552 233.216C183.517 231.213 168.151 210.868 158.793 194.969C153.859 186.595 154.187 182.929 156.824 182.295C163.557 189.379 191.042 218.177 201.894 229.708Z" fill="#263238"/>
<path d="M167.336 250.008L109.253 236.837C109.253 236.837 131.5 194.018 147.805 183.144C155.217 178.199 160.785 180.518 164.779 185.746C165.763 187.059 176.445 209.905 176.151 216.921C175.902 223.133 169.52 228.599 169.52 228.599L167.336 250.008Z" fill="#6D597A"/>
<path d="M161.237 223.224C158.574 222.975 155.897 222.918 153.226 223.054C151.891 223.145 150.578 223.292 149.265 223.473C148.609 223.563 147.953 223.631 147.285 223.688C146.597 223.773 145.902 223.773 145.214 223.688C145.214 223.688 145.146 223.767 145.214 223.778C145.852 223.928 146.498 224.038 147.149 224.107C147.782 224.146 148.417 224.146 149.05 224.107C150.397 224.027 151.743 223.892 153.09 223.801C155.806 223.62 158.51 223.439 161.237 223.45C161.35 223.45 161.362 223.235 161.237 223.224Z" fill="#263238"/>
<path d="M167.28 226.755C165.163 226.128 163.014 225.618 160.841 225.227C159.71 225.046 158.657 224.922 157.56 224.82L155.976 224.707C155.398 224.707 154.844 224.707 154.244 224.707C154.176 224.707 154.165 224.797 154.244 224.808C154.787 224.865 155.376 225.012 155.862 225.091L157.492 225.352L160.751 225.883C162.935 226.212 165.096 226.562 167.269 227.015C167.359 226.958 167.382 226.789 167.28 226.755Z" fill="#263238"/>
<path d="M163.421 184.174C168.14 194.981 169.939 213.81 169.78 217.94C169.554 223.892 161.18 267.209 161.18 267.209L169.826 261.551L170.335 228.883C172.269 227.179 173.827 225.093 174.912 222.755C175.997 220.418 176.585 217.88 176.638 215.304C176.638 211.343 172.043 200.593 168.298 192.672C164.552 184.751 163.421 184.174 163.421 184.174Z" fill="#37474F"/>
<path d="M153.961 180.202C153.961 180.202 153.599 206.013 152.535 213.459C151.472 220.905 139.986 262.037 139.986 262.037L101.615 244.17C101.615 244.17 126.294 204.486 136.071 192.4C145.848 180.315 153.961 180.202 153.961 180.202Z" fill="#37474F"/>
<path d="M154.097 184.57C154.097 185.702 157.616 194.256 162.753 195.275C164.428 195.591 166.612 186.539 166.612 186.539L166.929 185.905L171.33 177.068L162.063 167.302L160.705 165.978C160.705 165.978 159.664 168.479 158.442 171.636L158.261 172.089C158.182 172.258 158.114 172.428 158.046 172.587C157.853 173.051 157.65 173.526 157.469 174.001C157.288 174.476 157.186 174.725 157.05 175.133L156.62 176.264C155.586 178.971 154.743 181.746 154.097 184.57Z" fill="#D3766A"/>
<path d="M158.397 171.602C158.694 174.463 159.612 177.225 161.085 179.695C162.559 182.165 164.553 184.284 166.929 185.905L171.331 177.068L162.063 167.302L160.705 165.978C160.705 165.978 159.664 168.479 158.397 171.602Z" fill="#263238"/>
<path d="M187.014 162.516C188.542 179.783 178.369 182.646 174.646 182.963C171.252 183.269 159.721 183.834 156.417 166.827C153.113 149.819 160.66 143.641 168.355 142.555C176.049 141.468 185.487 145.248 187.014 162.516Z" fill="#D3766A"/>
<path d="M184.31 159.743C183.93 159.711 183.552 159.659 183.178 159.585C182.767 159.572 182.371 159.429 182.047 159.177C181.964 159.07 181.919 158.939 181.919 158.804C181.919 158.669 181.964 158.537 182.047 158.43C182.23 158.229 182.464 158.079 182.725 157.998C182.985 157.916 183.263 157.905 183.529 157.967C184.085 158.012 184.605 158.262 184.989 158.668C185.089 158.774 185.151 158.91 185.165 159.055C185.179 159.2 185.144 159.346 185.066 159.469C184.988 159.592 184.872 159.686 184.735 159.736C184.598 159.785 184.448 159.788 184.31 159.743Z" fill="#263238"/>
<path d="M172.473 160.501C172.881 160.422 173.232 160.286 173.605 160.173C174.034 160.121 174.432 159.925 174.737 159.619C174.819 159.512 174.864 159.38 174.864 159.245C174.864 159.11 174.819 158.979 174.737 158.872C174.529 158.695 174.277 158.578 174.009 158.532C173.74 158.486 173.464 158.514 173.209 158.612C172.663 158.728 172.179 159.043 171.851 159.494C171.789 159.599 171.756 159.719 171.757 159.841C171.758 159.963 171.793 160.083 171.857 160.186C171.921 160.29 172.013 160.374 172.121 160.43C172.23 160.485 172.352 160.51 172.473 160.501Z" fill="#263238"/>
<path d="M175.472 164.564C175.472 164.564 175.382 164.564 175.393 164.677C175.529 165.808 175.495 167.212 174.477 167.698V167.766C175.767 167.472 175.8 165.65 175.472 164.564Z" fill="#263238"/>
<path d="M174.318 163.421C172.405 163.421 172.598 167.257 174.318 167.234C176.038 167.212 175.868 163.41 174.318 163.421Z" fill="#263238"/>
<path d="M173.605 163.67C173.288 163.896 172.983 164.292 172.587 164.349C172.191 164.405 171.749 164.043 171.455 163.67C171.455 163.67 171.387 163.67 171.387 163.726C171.387 164.45 171.738 165.186 172.519 165.254C173.3 165.322 173.718 164.643 173.865 163.907C173.831 163.771 173.707 163.568 173.605 163.67Z" fill="#263238"/>
<path d="M175.868 174.261C176.151 174.544 176.434 174.918 176.864 174.951C177.303 174.942 177.736 174.837 178.131 174.646C178.131 174.646 178.211 174.646 178.131 174.714C177.963 174.945 177.736 175.128 177.473 175.241C177.21 175.355 176.922 175.395 176.638 175.359C176.395 175.298 176.177 175.167 176.009 174.982C175.842 174.796 175.734 174.565 175.698 174.318C175.698 174.261 175.789 174.261 175.868 174.261Z" fill="#263238"/>
<path d="M180.259 171.998C179.846 172.712 179.253 173.305 178.539 173.718C178.143 173.937 177.687 174.024 177.237 173.967C176.264 173.842 176.106 172.971 176.219 172.213C176.26 171.806 176.356 171.406 176.502 171.025C177.617 171.744 178.934 172.085 180.259 171.998Z" fill="#263238"/>
<path d="M178.539 173.752C178.143 173.971 177.687 174.059 177.237 174.001C176.264 173.877 176.106 173.005 176.219 172.247C176.718 172.206 177.216 172.332 177.635 172.604C178.055 172.876 178.373 173.28 178.539 173.752Z" fill="#FF98B9"/>
<path d="M180.485 169.735C180.485 169.735 180.836 171.477 180.892 172.303C180.892 172.383 180.7 172.439 180.417 172.473C179.712 172.647 178.973 172.624 178.281 172.406C177.588 172.189 176.969 171.785 176.49 171.24C176.482 171.223 176.48 171.205 176.482 171.187C176.485 171.169 176.493 171.152 176.505 171.139C176.517 171.126 176.533 171.116 176.55 171.112C176.568 171.108 176.587 171.109 176.604 171.115C177.71 171.775 179.001 172.057 180.281 171.919C180.281 171.692 179.568 168.954 179.704 168.943C180.352 168.958 180.996 169.061 181.616 169.248C180.983 165.593 179.772 162.074 179.206 158.419C179.2 158.391 179.204 158.362 179.219 158.338C179.233 158.313 179.256 158.295 179.283 158.287C179.31 158.278 179.339 158.28 179.364 158.292C179.39 158.304 179.41 158.325 179.421 158.351C180.831 162.09 181.866 165.96 182.51 169.904C182.567 170.312 180.824 169.803 180.485 169.735Z" fill="#263238"/>
<path d="M185.566 163.398C185.254 163.359 184.938 163.359 184.627 163.398C184.304 163.429 183.988 163.505 183.687 163.625C183.373 163.755 183.085 163.943 182.839 164.179C182.59 164.431 182.404 164.737 182.295 165.073L182.092 165.673L182.703 165.503C183.141 165.372 183.593 165.292 184.049 165.265C184.52 165.221 184.995 165.294 185.43 165.48C185.084 165.077 184.6 164.819 184.072 164.756C183.55 164.689 183.02 164.723 182.51 164.858L182.929 165.288C183.125 164.806 183.481 164.407 183.936 164.156C184.446 163.838 184.994 163.583 185.566 163.398Z" fill="#263238"/>
<path d="M184.208 166.216C183.715 166.194 183.227 166.103 182.759 165.944C182.646 165.944 182.216 165.684 182.216 165.605C182.233 165.36 182.275 165.117 182.341 164.881C182.202 165.105 182.11 165.355 182.069 165.616C182.128 165.744 182.213 165.858 182.318 165.952C182.423 166.045 182.546 166.116 182.68 166.159C183.175 166.312 183.702 166.332 184.208 166.216Z" fill="#263238"/>
<path d="M157.514 166.634C161.588 166.634 161.486 160.218 161.486 160.218C161.486 160.218 166.092 159.754 166.363 152.297C167.278 153.78 168.523 155.031 170.001 155.954C171.479 156.876 173.15 157.445 174.884 157.616C176.208 157.797 171.738 154.413 171.738 154.413C171.738 154.413 177.102 159.166 186.958 157.242C187.648 157.107 186.064 146.719 178.279 143.245C170.493 139.771 163.568 141.853 158.804 146.787C158.804 146.787 153.146 149.457 152.581 154.843C152.015 160.23 155.941 166.634 157.514 166.634Z" fill="#263238"/>
<path d="M156.948 173.186C157.206 173.29 157.476 173.363 157.752 173.401C158.022 173.44 158.296 173.44 158.567 173.401C158.918 173.371 159.258 173.263 159.562 173.084C159.805 172.948 160.026 172.776 160.219 172.575C160.495 172.294 160.718 171.964 160.875 171.602L159.913 166.974C159.913 166.974 156.111 161.565 153.667 162.923C151.223 164.281 154.063 172.122 156.948 173.186Z" fill="#D3766A"/>
<path d="M154.538 165.208V165.288C156.552 166.102 157.616 167.981 158.374 169.916C158.256 169.714 158.095 169.541 157.903 169.408C157.711 169.274 157.492 169.184 157.262 169.143C157.032 169.102 156.796 169.112 156.57 169.171C156.344 169.23 156.133 169.338 155.953 169.486C155.953 169.486 155.953 169.599 155.953 169.588C156.308 169.473 156.69 169.472 157.047 169.583C157.404 169.695 157.717 169.914 157.944 170.21C158.317 170.711 158.635 171.249 158.895 171.817C158.985 171.998 159.313 171.896 159.245 171.692C159.313 169.011 157.299 165.412 154.538 165.208Z" fill="#263238"/>
<path d="M157.186 172.462C157.229 172.671 157.354 172.854 157.532 172.97C157.711 173.087 157.928 173.128 158.136 173.085C158.335 173.033 158.507 172.907 158.616 172.733C158.725 172.559 158.764 172.35 158.723 172.148C158.682 171.947 158.566 171.768 158.398 171.65C158.23 171.532 158.023 171.482 157.82 171.512C157.715 171.532 157.616 171.573 157.528 171.632C157.439 171.691 157.363 171.766 157.304 171.855C157.245 171.943 157.205 172.042 157.184 172.147C157.164 172.251 157.165 172.358 157.186 172.462Z" fill="white"/>
<path d="M155.5 171.252C155.523 171.361 155.577 171.462 155.657 171.54C155.736 171.619 155.837 171.672 155.947 171.694C156.057 171.715 156.171 171.703 156.274 171.66C156.377 171.617 156.465 171.544 156.527 171.45C156.588 171.357 156.621 171.247 156.62 171.136C156.62 171.024 156.586 170.914 156.523 170.822C156.461 170.729 156.372 170.657 156.269 170.615C156.165 170.572 156.051 170.562 155.942 170.584C155.869 170.599 155.8 170.628 155.738 170.669C155.676 170.711 155.624 170.764 155.583 170.826C155.542 170.888 155.513 170.958 155.499 171.031C155.485 171.104 155.485 171.179 155.5 171.252Z" fill="white"/>
<path d="M158.397 147.737C161.271 146.425 169.712 134.272 159.619 125.468C149.525 116.665 132.914 128.557 138.968 141.027C143.053 149.367 152.298 150.498 158.397 147.737Z" fill="#263238"/>
<path d="M197.164 193.419H192.095V359.533H197.164V193.419Z" fill="#455A64"/>
<path d="M192.694 366.831V517.126C192.694 517.48 192.835 517.82 193.085 518.07C193.336 518.321 193.675 518.462 194.03 518.462C194.204 518.463 194.378 518.43 194.54 518.364C194.702 518.298 194.849 518.201 194.973 518.078C195.097 517.955 195.196 517.808 195.263 517.647C195.33 517.485 195.365 517.312 195.365 517.138L196.576 366.786L192.694 366.831Z" fill="#455A64"/>
<path d="M188.836 366.832L137.576 516.516C137.457 516.87 137.483 517.257 137.648 517.592C137.814 517.927 138.105 518.183 138.458 518.304C138.809 518.423 139.193 518.398 139.526 518.235C139.859 518.071 140.114 517.783 140.235 517.432L192.694 368.156L188.836 366.832Z" fill="#455A64"/>
<path d="M200.435 366.832L251.683 516.516C251.744 516.69 251.769 516.875 251.758 517.06C251.747 517.244 251.7 517.425 251.619 517.591C251.538 517.757 251.425 517.905 251.287 518.028C251.148 518.15 250.987 518.244 250.812 518.304C250.461 518.423 250.077 518.398 249.744 518.235C249.411 518.071 249.156 517.783 249.035 517.432L196.576 368.156L200.435 366.832Z" fill="#455A64"/>
<path d="M188.315 360.97V364.987C188.384 366.608 189.077 368.14 190.248 369.263C191.419 370.385 192.979 371.012 194.601 371.012C196.224 371.012 197.783 370.385 198.955 369.263C200.126 368.14 200.818 366.608 200.887 364.987V360.97H188.315Z" fill="#263238"/>
<path d="M203.818 358.198H185.441V364.885H203.818V358.198Z" fill="#37474F"/>
<path d="M224.865 165.888L200.74 169.701L201.973 186.471L226.098 185.996L224.865 165.888Z" fill="#455A64"/>
<path d="M185.724 194.788L205.029 193.362L201.08 161.78L184.152 163.025L185.724 194.788Z" fill="#37474F"/>
<path d="M193.702 162.323L192.389 159.336L187.818 159.664L186.392 162.866L193.702 162.323Z" fill="#37474F"/>
<path d="M242.619 161.78L212.191 166.589L213.753 187.738L244.181 187.138L242.619 161.78Z" fill="#37474F"/>
<path d="M241.714 163.421C239.827 166.991 238.815 170.959 238.761 174.997C239.051 178.898 240.572 182.607 243.106 185.588L241.714 163.421Z" fill="#455A64"/>
<path d="M153.328 190.454C156.338 195.127 177.373 231.281 178.901 232.605C178.901 232.605 170.98 252.973 160.309 245.188C150.204 237.821 145.033 207.914 143.641 192.921C142.883 184.853 147.579 181.56 153.328 190.454Z" fill="#D3766A"/>
<path d="M153.328 190.454C156.338 195.127 177.373 231.281 178.901 232.605C178.901 232.605 170.98 252.973 160.309 245.188C150.204 237.821 145.033 207.914 143.641 192.921C142.883 184.853 147.579 181.56 153.328 190.454Z" fill="#37474F"/>
<path d="M149.842 225.658C149.673 224.277 146.821 211.785 146.538 210.438C146.255 209.091 145.938 207.734 145.576 206.398C145.214 205.063 144.875 203.717 144.445 202.393C144.592 203.773 144.807 205.142 145.033 206.511C145.26 207.881 145.531 209.239 145.814 210.596C146.097 211.954 146.402 213.301 146.731 214.647C147.059 215.994 149.311 224.379 149.718 225.714L149.842 225.658Z" fill="#263238"/>
<path d="M143.46 204.723C143.662 205.4 143.955 206.048 144.331 206.646C144.682 207.255 145.116 207.811 145.621 208.298C145.417 207.622 145.124 206.975 144.75 206.375C144.392 205.771 143.959 205.216 143.46 204.723Z" fill="#263238"/>
<path d="M180.168 203.274C183.359 201.362 202.969 216.706 199.507 220.938C183.133 240.944 172.462 246.342 167.54 247.598C162.618 248.854 156.564 241.012 156.156 236.678C155.568 230.387 177 205.176 180.168 203.274Z" fill="#D3766A"/>
<path d="M220.463 185.826C221.595 188.7 214.262 190.906 214.262 190.906C215.569 191.183 216.735 191.912 217.555 192.966C218.924 194.878 216.514 197.866 216.514 197.866C217.807 198.437 218.899 199.383 219.649 200.581C220.78 202.55 218.766 205.9 218.766 205.9C219.244 206.467 219.601 207.126 219.815 207.836C220.029 208.546 220.096 209.293 220.011 210.03C219.434 213.311 214.591 216.367 210.811 217.781C207.201 219.128 195.863 221.764 193.724 222.307L183.246 197.277C183.246 197.277 195.693 188.225 200.039 186.731C203.694 185.498 218.721 181.435 220.463 185.826Z" fill="#D3766A"/>
<path d="M214.172 190.85C209.967 191.387 205.844 192.436 201.894 193.973C201.804 193.973 201.894 194.142 201.894 194.109C205.809 192.694 210.189 192.298 214.138 191.042C214.16 191.04 214.18 191.03 214.196 191.015C214.212 191 214.223 190.98 214.227 190.958C214.23 190.937 214.227 190.915 214.217 190.895C214.207 190.875 214.191 190.859 214.172 190.85Z" fill="#263238"/>
<path d="M216.457 197.696C215.512 197.87 214.595 198.17 213.73 198.589C212.78 198.963 211.852 199.37 210.913 199.778C209.057 200.6 207.216 201.471 205.391 202.392C205.311 202.392 205.391 202.573 205.391 202.527C207.246 201.713 209.125 200.921 211.049 200.174L213.9 199.042C214.821 198.762 215.709 198.382 216.548 197.911C216.559 197.891 216.566 197.869 216.567 197.847C216.568 197.824 216.564 197.802 216.556 197.781C216.547 197.76 216.533 197.741 216.516 197.727C216.499 197.712 216.479 197.701 216.457 197.696Z" fill="#263238"/>
<path d="M218.687 205.945C217.834 206.12 217.016 206.434 216.265 206.873L213.742 208.004C212.044 208.774 210.347 209.543 208.638 210.267C208.548 210.267 208.638 210.448 208.638 210.403C210.392 209.69 212.146 209.011 213.889 208.276C214.749 207.925 215.598 207.563 216.446 207.144C217.265 206.886 218.031 206.483 218.709 205.956L218.687 205.945Z" fill="#263238"/>
<path d="M193.747 190.737C192.072 190.737 190.567 186.55 190.182 183.801C189.798 181.051 187.082 177.136 184.853 177.26C182.624 177.385 182.646 182.669 182.873 185.973C183.099 189.277 181.186 201.691 180.168 203.275C179.15 204.859 187.161 206.455 187.161 206.455L193.747 190.737Z" fill="#D3766A"/>
<path d="M188.315 233.352C190.183 231.281 192.05 229.21 193.883 227.117L196.644 223.983C197.538 222.93 198.466 221.867 199.258 220.769L199.326 220.667H199.439C201.702 220.124 204.078 219.536 206.375 218.891C208.67 218.337 210.884 217.489 212.961 216.367C215.038 215.28 216.91 213.841 218.494 212.112C219.237 211.28 219.669 210.217 219.716 209.103C219.735 208.567 219.631 208.034 219.414 207.544C219.196 207.054 218.87 206.619 218.46 206.274L218.144 206.013L218.393 205.708C218.873 205.083 219.231 204.373 219.445 203.614C219.646 202.873 219.646 202.092 219.445 201.351C219.243 200.592 218.854 199.896 218.313 199.326C217.781 198.767 217.083 198.394 216.322 198.262L215.745 198.172L216.095 197.742C216.584 197.16 216.988 196.512 217.295 195.818C217.642 195.182 217.738 194.439 217.566 193.736C217.253 193.069 216.744 192.512 216.107 192.14C215.464 191.72 214.777 191.371 214.059 191.099L213.527 190.884L214.07 190.737C215.453 190.381 216.784 189.849 218.03 189.153C218.657 188.81 219.223 188.367 219.705 187.84C219.957 187.586 220.151 187.281 220.274 186.945C220.397 186.609 220.446 186.251 220.418 185.894C220.461 186.256 220.426 186.624 220.315 186.971C220.203 187.319 220.019 187.638 219.773 187.908C219.302 188.458 218.749 188.932 218.132 189.311C216.894 190.073 215.563 190.674 214.172 191.099V190.748C214.935 190.993 215.665 191.332 216.344 191.756C217.083 192.17 217.676 192.802 218.042 193.566C218.283 194.391 218.202 195.277 217.815 196.044C217.502 196.756 217.095 197.422 216.605 198.024L216.39 197.515C217.311 197.634 218.167 198.056 218.823 198.715C219.468 199.36 219.932 200.164 220.169 201.046C220.401 201.928 220.401 202.856 220.169 203.739C219.927 204.608 219.52 205.423 218.97 206.138L218.89 205.572C219.41 205.987 219.827 206.516 220.108 207.119C220.389 207.722 220.526 208.381 220.509 209.046C220.469 210.341 219.985 211.583 219.139 212.565C217.495 214.382 215.531 215.881 213.346 216.99C211.206 218.137 208.923 218.993 206.556 219.536C204.293 220.181 201.906 220.667 199.552 221.188L199.744 221.063C198.884 222.195 197.945 223.224 197.006 224.266C196.067 225.307 195.116 226.325 194.154 227.332C192.231 229.38 190.273 231.372 188.315 233.352Z" fill="#263238"/>
<path d="M171.138 212.056L190.884 233.352C190.884 233.352 172.949 248.062 166.182 247.734C160.524 247.474 155.013 239.677 155.998 235.445C157.469 228.905 171.138 212.056 171.138 212.056Z" fill="#37474F"/>
<path d="M159.37 228.056C162.391 221.04 168.66 215.235 169.056 214.907C169.248 214.749 169.52 214.907 169.475 214.907C168.637 216.118 162.402 223.371 159.596 228.124C159.573 228.203 159.347 228.101 159.37 228.056Z" fill="#263238"/>
<path d="M169.475 214.149L188.553 236.52L194.154 232.073L173.673 208.695L169.475 214.149Z" fill="#455A64"/>
</svg>
